<svg id="Layer_1" data-name="Layer 1" xmlns="http://www.w3.org/2000/svg" xmlns:xlink="http://www.w3.org/1999/xlink" width="1203.33" height="476.67" viewBox="0 0 1203.33 476.67">
  <defs>
    <linearGradient id="linear-gradient" x1="163.33" y1="246.67" x2="1036.67" y2="1120" gradientTransform="matrix(1, 0, 0, -1, 0, 920)" gradientUnits="userSpaceOnUse">
      <stop offset="0.59" stop-color="#592acb"/>
      <stop offset="1" stop-color="#952bb9"/>
    </linearGradient>
    <clipPath id="clip-path">
      <rect x="-20" y="-16.67" width="1240" height="506.67" fill="none"/>
    </clipPath>
    <linearGradient id="linear-gradient-2" x1="1746.02" y1="1471.42" x2="-96.87" y2="92.7" gradientTransform="matrix(1, 0, 0, -1, 0, 920)" gradientUnits="userSpaceOnUse">
      <stop offset="0.2" stop-color="#b833e1"/>
      <stop offset="0.75" stop-color="#592acb"/>
    </linearGradient>
  </defs>
  <title>Learn-About-Security-Best-Practices</title>
  <rect x="-20" y="-16.67" width="1240" height="506.67" fill="url(#linear-gradient)"/>
  <g clip-path="url(#clip-path)">
    <path d="M1499-481.8A170.94,170.94,0,0,0,1272.77-567h0a170.94,170.94,0,0,0-85.26,226.21h0c127.8,282.33,2.07,616-280.27,743.78s-616,2.07-743.78-280.27a170.95,170.95,0,0,0-314,135.2c.83,1.93,1.7,3.84,2.59,5.73C57.49,717.74,594.13,920,1048.2,714.44S1704.49-27.73,1499-481.8Z" fill="url(#linear-gradient-2)"/>
  </g>
  <path d="M626,265.2c-16,0-27-19.21-42.33-19.21s-27.31,19.21-42.33,19.21c-19.71,0-34.26-18.67-34.5-50.64-.14-19.86,5.78-26.19,31.36-26.19s33.07,10.47,45.47,10.47,19.89-10.47,45.47-10.47,31.5,6.33,31.36,26.19C660.27,246.53,645.72,265.2,626,265.2Zm-75.26-52.39c-15.54.68-22,9.94-22,12.22s10.31,8.74,20.39,8.74,22-3.7,22-7c.06-3.66-5.65-14.59-20.33-14Zm65.86,0c-14.68-.63-20.39,10.3-20.39,14,0,3.29,11.88,7,21.95,7s20.39-6.45,20.39-8.74-6.4-11.58-21.94-12.26Z" fill="#f9f9fa"/>
  <path d="M867.08,178a17.62,17.62,0,0,0-14.89-17.34l-50.77-8.39-50.76,8.38A17.64,17.64,0,0,0,735.76,178c0,13.81.1,32.07.91,40.7,2.46,26.26,7.57,40.67,20.1,57a68.7,68.7,0,0,0,43.76,25.54l.89.1.88-.1a68.7,68.7,0,0,0,43.76-25.54c12.55-16.36,17.61-30.76,20.1-57C867,209.51,867.08,189.24,867.08,178Zm-17.23,39.1c-2.22,23.34-6.14,34.7-16.79,48.62a53,53,0,0,1-31.64,19.06,53,53,0,0,1-31.62-19.06c-10.67-14-14.57-25.28-16.78-48.62-.59-6.21-.85-20.1-.85-39.08a1.3,1.3,0,0,1,1.15-1.22l48.1-7.93,48.11,7.94a1.25,1.25,0,0,1,1.14,1.2C850.67,196.68,850.41,210.93,849.85,217.1Zm-81.26-26.18c.12,16.15.54,22.48.75,24.62,2.1,22.17,5.69,30,13.47,40.22a35.9,35.9,0,0,0,18.61,12.18V185.51Z" fill="#f9f9fa"/>
  <path d="M180.52,220.63H179V202.16a30.78,30.78,0,0,0-61.56,0v18.47H115.9a11.16,11.16,0,0,0-10.77,11.51v38.52a11.16,11.16,0,0,0,10.77,11.52h64.64a11.16,11.16,0,0,0,10.77-11.52V232.14a11.15,11.15,0,0,0-10.78-11.51h0Zm-50.79-20.08a16.86,16.86,0,0,1,16.86-16.86h3.22a16.86,16.86,0,0,1,16.86,16.86h0v20.08H129.73Z" fill="#f9f9fa"/>
  <path d="M365.94,165a57.69,57.69,0,0,0-57.63,57.62,8.24,8.24,0,0,0,16.47.57,5.42,5.42,0,0,0,0-.57,41.16,41.16,0,0,1,82.32,0c0,17.27-5,26.82-9.39,35.26-3.48,6.65-7.07,13.53-7.07,22.37a8.23,8.23,0,0,0,16.46,0c0-4.8,2.18-9,5.2-14.75,4.75-9.1,11.26-21.56,11.26-42.88A57.69,57.69,0,0,0,365.94,165Z" fill="#f9f9fa"/>
  <path d="M365.94,189.74A33,33,0,0,0,333,222.66c0,5.17-4.14,16.47-16.46,16.47a8.23,8.23,0,1,0,0,16.46h0c20.34,0,32.93-17.09,32.93-32.93a16.46,16.46,0,1,1,32.92,0c0,20.58-7,29.79-14.34,39.55a91.1,91.1,0,0,0-9.48,14.4A8.24,8.24,0,0,0,373.3,284h0a79.32,79.32,0,0,1,7.89-11.83c7.88-10.42,17.68-23.39,17.68-49.48A33,33,0,0,0,365.94,189.74Z" fill="#f9f9fa"/>
  <path d="M365.94,214.43a8.22,8.22,0,0,0-8.23,8.21h0c0,34.65-43.34,49.68-43.78,49.82A8.22,8.22,0,0,0,319.15,288c2.25-.75,55-18.88,55-65.44A8.22,8.22,0,0,0,365.94,214.43Z" fill="#f9f9fa"/>
  <path d="M1088.06,192.55H950.26a23.62,23.62,0,0,0-23.55,23.55v21.37A23.61,23.61,0,0,0,950.26,261h137.8a23.61,23.61,0,0,0,23.55-23.54V216.1A23.62,23.62,0,0,0,1088.06,192.55Zm-97.83,37.32a1.29,1.29,0,0,1,.75.8,1.33,1.33,0,0,1-.12,1.1l-2.92,4.93a1.35,1.35,0,0,1-.89.62,1.3,1.3,0,0,1-1.06-.25l-6.26-4.83,1,8a1.33,1.33,0,0,1-1.16,1.48h-5.85a1.35,1.35,0,0,1-1.33-1.35v-.14l1-8.06-6.5,4.89a1.32,1.32,0,0,1-1.07.24,1.35,1.35,0,0,1-.89-.65l-2.77-4.93a1.32,1.32,0,0,1-.1-1.08,1.29,1.29,0,0,1,.74-.79l7.44-3.11-7.45-3.23a1.33,1.33,0,0,1-.74-.8,1.39,1.39,0,0,1,.12-1.09l2.85-4.85a1.32,1.32,0,0,1,1.79-.52,1.1,1.1,0,0,1,.21.14l6.42,4.87-1-8a1.33,1.33,0,0,1,1.16-1.48h5.86a1.34,1.34,0,0,1,1.32,1.34v.15l-1,8,6.43-4.82a1.32,1.32,0,0,1,1.07-.24,1.35,1.35,0,0,1,.88.65l2.77,4.93a1.32,1.32,0,0,1,.1,1.08,1.38,1.38,0,0,1-.75.8l-7.44,3.08Zm42.64,0a1.33,1.33,0,0,1,.76.8,1.36,1.36,0,0,1-.12,1.1l-2.93,4.93a1.35,1.35,0,0,1-.89.62,1.3,1.3,0,0,1-1.06-.25l-6.26-4.83,1,8a1.34,1.34,0,0,1-1.18,1.48h-5.84a1.35,1.35,0,0,1-1.33-1.35.33.33,0,0,1,0-.14l1-8.06-6.51,4.89a1.33,1.33,0,0,1-1.07.24,1.35,1.35,0,0,1-.89-.65l-2.77-4.93a1.32,1.32,0,0,1,.5-1.8h0l.15-.07,7.43-3.11-7.45-3.23a1.29,1.29,0,0,1-.73-.8,1.34,1.34,0,0,1,.11-1.09l2.85-4.85a1.4,1.4,0,0,1,.89-.63,1.34,1.34,0,0,1,1.06.25l6.42,4.87-1-8a1.32,1.32,0,0,1,1.19-1.44h5.8a1.32,1.32,0,0,1,1,.45,1.35,1.35,0,0,1,.33,1l-1,8,6.43-4.82a1.32,1.32,0,0,1,1.07-.24,1.35,1.35,0,0,1,.88.65l2.77,4.93a1.32,1.32,0,0,1,.1,1.08,1.38,1.38,0,0,1-.75.8l-7.44,3.08Zm42.65,0a1.32,1.32,0,0,1,.72,1.72l-.09.18-2.93,4.93a1.35,1.35,0,0,1-.89.62,1.3,1.3,0,0,1-1.06-.25l-6.26-4.83,1,8a1.34,1.34,0,0,1-1.18,1.48H1059a1.34,1.34,0,0,1-1.32-1.34v-.15l1-8.06-6.51,4.89a1.33,1.33,0,0,1-1.86-.19,1.64,1.64,0,0,1-.14-.22l-2.78-4.93a1.36,1.36,0,0,1-.1-1.08,1.33,1.33,0,0,1,.75-.79l7.44-3.11-7.46-3.23a1.31,1.31,0,0,1-.73-.8,1.34,1.34,0,0,1,.11-1.09l2.85-4.85a1.4,1.4,0,0,1,.89-.63,1.34,1.34,0,0,1,1.06.25l6.42,4.87-1-8a1.33,1.33,0,0,1,1.16-1.48h5.85a1.32,1.32,0,0,1,1,.45,1.3,1.3,0,0,1,.32,1l-1,8,6.43-4.82a1.33,1.33,0,0,1,1.07-.24,1.35,1.35,0,0,1,.88.65l2.77,4.93a1.28,1.28,0,0,1,.1,1.08,1.33,1.33,0,0,1-.74.8l-7.44,3.08Z" fill="#f9f9fa"/>
</svg>
