<svg xmlns="http://www.w3.org/2000/svg" xmlns:xlink="http://www.w3.org/1999/xlink" width="24" height="24" viewBox="0 0 24 24">
  <defs>
    <path id="background-scripts-a" d="M19,4 L5,4 C3.89,4 3,4.9 3,6 L3,18 C3,19.1 3.89,20 5,20 L19,20 C20.1,20 21,19.1 21,18 L21,6 C21,4.9 20.11,4 19,4 Z M19,18 L5,18 L5,8 L19,8 L19,18 Z M15.9998732,17 C16.0050975,17 16.0103217,16.9999584 16.0155453,16.9998752 C16.5591057,16.9912198 16.9927319,16.5435604 16.9840764,16 C16.9752414,15.4451583 16.5229381,15 15.9680261,15 L13,15 C12.4477153,15 12,15.4477153 12,16 C12,16.5522847 12.4477153,17 13,17 L15.9998732,17 Z M8.82842712,13.3284271 L6.62132034,15.5355339 C6.23079605,15.9260582 6.23079605,16.5592232 6.62132034,16.9497475 C7.01184464,17.3402718 7.64500961,17.3402718 8.03553391,16.9497475 L10.863961,14.1213203 C11.0810624,13.904219 11.1774721,13.6121295 11.1531903,13.3284271 C11.1774721,13.0447247 11.0810624,12.7526353 10.863961,12.5355339 L8.03553391,9.70710678 C7.64500961,9.31658249 7.01184464,9.31658249 6.62132034,9.70710678 C6.23079605,10.0976311 6.23079605,10.7307961 6.62132034,11.1213203 L8.82842712,13.3284271 Z"/>
  </defs>
  <g fill="none" fill-rule="evenodd">
    <mask id="background-scripts-b" fill="#fff">
      <use xlink:href="#background-scripts-a"/>
    </mask>
    <use fill="#000" fill-rule="nonzero" xlink:href="#background-scripts-a"/>
    <g fill="#0C0C0D" fill-rule="nonzero" mask="url(#background-scripts-b)">
      <rect width="24" height="24"/>
    </g>
  </g>
</svg>
