<svg xmlns="http://www.w3.org/2000/svg" xmlns:xlink="http://www.w3.org/1999/xlink" width="24" height="24" viewBox="0 0 24 24">
  <defs>
    <path id="debug-a" d="M16.4142136,9 L18,9 C18.5522847,9 19,9.44771525 19,10 C19,10.5522847 18.5522847,11 18,11 L16,11 L16,14 L18,14 C18.5522847,14 19,14.4477153 19,15 C19,15.5522847 18.5522847,16 18,16 L16,16 L16,15.6666667 C16,18.0599006 14.209139,20 12,20 C10.2779651,20 8.81008768,18.8211412 8.24649036,17.1677232 L6.38231419,19.0318994 C7.92198502,20.2635271 9.87498629,21 12,21 C16.9705627,21 21,16.9705627 21,12 C21,9.87498629 20.2635271,7.92198502 19.0318994,6.38231419 L16.4142136,9 Z M14,11.4142136 L10,15.4142136 L10,15.6666667 C10,16.8632836 10.8954305,17.8333333 12,17.8333333 C13.1045695,17.8333333 14,16.8632836 14,15.6666667 L14,11.4142136 Z M6.58578644,16 L6,16 C5.44771525,16 5,15.5522847 5,15 C5,14.4477153 5.44771525,14 6,14 L8,14 L8,11 L6,11 C5.44771525,11 5,10.5522847 5,10 C5,9.44771525 5.44771525,9 6,9 L8,9 L8,8 C8,7.44771525 8.44771525,7 9,7 C9,5.34314575 10.3431458,4 12,4 C13.6568542,4 15,5.34314575 15,7 C15.1695425,7 15.3292305,7.04219228 15.4691368,7.11664968 L17.6176858,4.96810063 C16.078015,3.73647287 14.1250137,3 12,3 C7.02943725,3 3,7.02943725 3,12 C3,14.1250137 3.73647287,16.078015 4.96810063,17.6176858 L6.58578644,16 Z M10,12.5857864 L13.4191198,9.16666667 L10,9.16666667 L10,12.5857864 Z M12,23 C5.92486775,23 1,18.0751322 1,12 C1,5.92486775 5.92486775,1 12,1 C18.0751322,1 23,5.92486775 23,12 C23,18.0751322 18.0751322,23 12,23 Z M11,7 L13,7 C13,6.44771525 12.5522847,6 12,6 C11.4477153,6 11,6.44771525 11,7 Z"/>
  </defs>
  <g fill="none" fill-rule="evenodd">
    <mask id="debug-b" fill="#fff">
      <use xlink:href="#debug-a"/>
    </mask>
    <use fill="#0C0C0D" fill-rule="nonzero" xlink:href="#debug-a"/>
    <g fill="#0C0C0D" fill-rule="nonzero" mask="url(#debug-b)">
      <rect width="24" height="24"/>
    </g>
  </g>
</svg>
