<svg xmlns="http://www.w3.org/2000/svg" xmlns:xlink="http://www.w3.org/1999/xlink" width="24" height="24" viewBox="0 0 24 24">
  <defs>
    <path id="download-a" d="M13,3 C13,2.44771525 12.5522847,2 12,2 C11.4477153,2 11,2.44771525 11,3 L11,14.586 L6.707,10.293 C6.31462111,9.91402779 5.69091522,9.91944763 5.30518142,10.3051814 C4.91944763,10.6909152 4.91402779,11.3146211 5.293,11.707 L11.293,17.707 C11.6834999,18.0973819 12.3165001,18.0973819 12.707,17.707 L18.707,11.707 C19.0859722,11.3146211 19.0805524,10.6909152 18.6948186,10.3051814 C18.3090848,9.91944763 17.6853789,9.91402779 17.293,10.293 L13,14.586 L13,3 Z M5,21 C5,20.4477153 5.44771525,20 6,20 L18,20 C18.5522847,20 19,20.4477153 19,21 C19,21.5522847 18.5522847,22 18,22 L6,22 C5.44771525,22 5,21.5522847 5,21 Z"/>
  </defs>
  <g fill="none" fill-rule="evenodd">
    <mask id="download-b" fill="#fff">
      <use xlink:href="#download-a"/>
    </mask>
    <use fill="#0C0C0D" fill-opacity=".8" xlink:href="#download-a"/>
    <g fill="#0C0C0D" fill-rule="nonzero" mask="url(#download-b)">
      <rect width="24" height="24"/>
    </g>
  </g>
</svg>
