<svg xmlns="http://www.w3.org/2000/svg" xmlns:xlink="http://www.w3.org/1999/xlink" width="24" height="24" viewBox="0 0 24 24">
  <defs>
    <path id="extension-a" d="M20.1,12 C18.9,12 18.9,13.2 17.9,13.2 C17.4,13.2 17,12.8 17,12.3 L17,8.2 C17,7.6 16.4,7 15.8,7 L11.7,7 C11.2,7 10.8,6.6 10.8,6.1 C10.8,5.2 12,5.1 12,3.9 C12,2.8 10.9,2 9.5,2 C8.1,2 7,2.8 7,3.9 C7,5.1 8.2,5.1 8.2,6.1 C8.2,6.6 7.8,7 7.3,7 L3.2,7 C2.6,7 2,7.6 2,8.2 L2,11 C2,11.6 2.4,12 2.9,12 C3.8,12 3.9,10.8 5.1,10.8 C6.2,10.8 7,11.9 7,13.2 C7,14.6 6.2,15.7 5.1,15.7 C3.9,15.7 3.9,14.5 2.9,14.5 C2.4,14.5 2,14.9 2,15.4 L2,20.7 C2,21.4 2.6,22 3.2,22 L7.3,22 C7.8,22 8.2,21.6 8.2,21.1 C8.2,20.2 7,20.1 7,18.9 C7,17.8 8.1,17 9.5,17 C10.9,17 12,17.8 12,18.9 C12,20.1 10.8,20.1 10.8,21.1 C10.8,21.6 11.2,22 11.7,22 L15.8,22 C16.5,22 17,21.4 17,20.8 L17,16.7 C17,16.2 17.4,15.8 17.9,15.8 C18.8,15.8 18.9,17 20.1,17 C21.2,17 22,15.9 22,14.5 C22,13.1 21.2,12 20.1,12 Z"/>
  </defs>
  <g fill="none" fill-rule="evenodd">
    <mask id="extension-b" fill="#fff">
      <use xlink:href="#extension-a"/>
    </mask>
    <use fill="#0060DF" fill-opacity=".8" xlink:href="#extension-a"/>
    <g fill="#0060DF" fill-rule="nonzero" mask="url(#extension-b)">
      <rect width="24" height="24"/>
    </g>
  </g>
</svg>
