<svg xmlns="http://www.w3.org/2000/svg" xmlns:xlink="http://www.w3.org/1999/xlink" width="24" height="24" viewBox="0 0 24 24">
  <defs>
    <path id="irc-a" d="M6.423,5 L17.577,5 C18.9145007,5.00165294 19.9983471,6.08549932 20,7.423 L20,13.577 C19.9983471,14.9145007 18.9145007,15.9983471 17.577,16 L11.74,16 L8.774,19.633 C8.50638389,19.9601314 8.06200081,20.0836914 7.66393266,19.9416524 C7.26586451,19.7996134 7.00007843,19.4226503 7,19 L7,16 L6.423,16 C5.08549932,15.9983471 4.00165294,14.9145007 4,13.577 L4,7.423 C4.00165294,6.08549932 5.08549932,5.00165294 6.423,5 Z M6,13.577 C6,13.6891866 6.04456594,13.7967783 6.12389383,13.8761062 C6.20322172,13.9554341 6.31081342,14 6.423,14 L8,14 C8.55228475,14 9,14.4477153 9,15 L9,16.194 L10.491,14.367 C10.6811137,14.1344928 10.9656623,13.9997453 11.266,14 L17.577,14 C17.6891866,14 17.7967783,13.9554341 17.8761062,13.8761062 C17.9554341,13.7967783 18,13.6891866 18,13.577 L18,7.423 C18,7.18938355 17.8106164,7 17.577,7 L6.423,7 C6.18938355,7 6,7.18938355 6,7.423 L6,13.577 Z"/>
  </defs>
  <g fill="none" fill-rule="evenodd">
    <mask id="irc-b" fill="#fff">
      <use xlink:href="#irc-a"/>
    </mask>
    <use fill="#000" fill-rule="nonzero" xlink:href="#irc-a"/>
    <g fill="#0C0C0D" fill-rule="nonzero" mask="url(#irc-b)">
      <rect width="24" height="24"/>
    </g>
  </g>
</svg>
