<svg xmlns="http://www.w3.org/2000/svg" xmlns:xlink="http://www.w3.org/1999/xlink" width="24" height="24" viewBox="0 0 24 24">
  <defs>
    <path id="mail-a" d="M17,6 L7,6 C5.3,6 4,7.3 4,9 L4,15 C4,16.7 5.3,18 7,18 L17,18 C18.7,18 20,16.7 20,15 L20,9 C20,7.3 18.7,6 17,6 Z M17,8 C17.1,8 17.2,8 17.3,8.1 L17.2,8.1 L12,11.9 L6.8,8.1 L6.7,8.1 C6.8,8 6.9,8 7,8 L17,8 Z M18,15 C18,15.6 17.6,16 17,16 L7,16 C6.4,16 6,15.6 6,15 L6,8.8 C6,8.9 6.1,8.9 6.2,8.9 L11.7,12.9 C11.8,13 11.9,13 12,13 C12.1,13 12.2,13 12.3,12.9 L17.8,8.9 C17.9,8.9 17.9,8.8 17.9,8.7 C18,8.8 18,8.9 18,9 L18,15 Z"/>
  </defs>
  <g fill="none" fill-rule="evenodd">
    <mask id="mail-b" fill="#fff">
      <use xlink:href="#mail-a"/>
    </mask>
    <use fill="#000" fill-rule="nonzero" xlink:href="#mail-a"/>
    <g fill="#0C0C0D" fill-rule="nonzero" mask="url(#mail-b)">
      <rect width="24" height="24"/>
    </g>
  </g>
</svg>
