<svg xmlns="http://www.w3.org/2000/svg" xmlns:xlink="http://www.w3.org/1999/xlink" width="24" height="24" viewBox="0 0 24 24">
  <defs>
    <path id="manifest-a" d="M7.7488151,11.1027199 L4.39131587,8.52625924 C4.32199742,8.473066 4.25994951,8.41101717 4.20675729,8.34169794 C3.87054088,7.90354617 3.9531758,7.27579673 4.39132756,6.93958032 L11.8623811,1.20665612 C12.2253418,0.928137701 12.7310304,0.931460111 13.0903001,1.21472364 L20.3615012,6.94764771 C20.4232099,6.99630143 20.4789685,7.05205926 20.5276231,7.11376717 C20.8695741,7.5474583 20.795204,8.17624044 20.3615129,8.51819139 L17.0918071,11.096245 L20.9806465,14.1623714 C21.1040638,14.2596788 21.2155811,14.3711944 21.3128904,14.4946103 C21.9967923,15.3619925 21.8480521,16.6195568 20.9806698,17.3034587 L13.7094686,23.0365578 C12.9909202,23.6031092 11.9795145,23.6097542 11.2535839,23.0526933 L3.78253051,17.3195943 C3.64389361,17.2132078 3.51979778,17.0891101 3.41341334,16.9504717 C2.74098051,16.0741682 2.90625037,14.8186693 3.78255389,14.1462364 L7.7488151,11.1027199 Z M9.39143664,12.3632265 L5.00010124,15.7329243 L12.4711546,21.4660233 L19.7423559,15.7329242 L15.4767021,12.3697014 L13.0903116,14.2512905 C12.7310374,14.5345662 12.2253346,14.5378887 11.8623693,14.2593582 L9.39143664,12.3632265 Z"/>
  </defs>
  <g fill="none" fill-rule="evenodd">
    <use fill="#0C0C0D" fill-rule="nonzero" xlink:href="#manifest-a"/>
    <path fill="#0C0C0D" fill-rule="nonzero" d="M3.41341334,11.9504717 C2.74098051,11.0741682 2.90625037,9.81866927 3.78255389,9.14623644 L11.2536074,3.41331224 C11.9795288,2.8562754 12.990906,2.86292022 13.7094454,3.42944727 L20.9806465,9.16237135 C21.1040638,9.25967878 21.2155811,9.37119444 21.3128904,9.49461027 C21.9967923,10.3619925 21.8480521,11.6195568 20.9806698,12.3034587 L13.7094686,18.0365578 C12.9909202,18.6031092 11.9795145,18.6097542 11.2535839,18.0526933 L3.78253051,12.3195943 C3.64389361,12.2132078 3.51979778,12.0891101 3.41341334,11.9504717 Z M12.4711546,16.4660233 L19.7423559,10.7329242 L12.4711548,5.00000013 L5.00010124,10.7329243 L12.4711546,16.4660233 Z"/>
  </g>
</svg>
