<svg xmlns="http://www.w3.org/2000/svg" xmlns:xlink="http://www.w3.org/1999/xlink" width="24" height="24" viewBox="0 0 24 24">
  <defs>
    <path id="plugin-a" d="M6,9 L18,9 C18.5522847,9 19,9.44771525 19,10 L19,18 C19,18.5522847 18.5522847,19 18,19 L6,19 C5.44771525,19 5,18.5522847 5,18 L5,10 C5,9.44771525 5.44771525,9 6,9 Z M10,6 C10.5522847,6 11,6.44771525 11,7 C11,7.55228475 10.5522847,8 10,8 L7,8 C6.44771525,8 6,7.55228475 6,7 C6,6.44771525 6.44771525,6 7,6 L10,6 Z M17,6 C17.5522847,6 18,6.44771525 18,7 C18,7.55228475 17.5522847,8 17,8 L14,8 C13.4477153,8 13,7.55228475 13,7 C13,6.44771525 13.4477153,6 14,6 L17,6 Z"/>
  </defs>
  <g fill="none" fill-rule="evenodd">
    <mask id="plugin-b" fill="#fff">
      <use xlink:href="#plugin-a"/>
    </mask>
    <use fill="#000" xlink:href="#plugin-a"/>
    <g fill="#0060DF" fill-rule="nonzero" mask="url(#plugin-b)">
      <rect width="24" height="24"/>
    </g>
  </g>
</svg>
