<svg xmlns="http://www.w3.org/2000/svg" xmlns:xlink="http://www.w3.org/1999/xlink" width="24" height="24" viewBox="0 0 24 24">
  <defs>
    <path id="publish-on-firefox-a" d="M10,21 L6,21 C5.44771525,21 5,20.5522847 5,20 C5,19.4477153 5.44771525,19 6,19 L10,19 L20,19 L20,5 L4,5 L4,11 C4,11.5522847 3.55228475,12 3,12 C2.44771525,12 2,11.5522847 2,11 L2,5 C2,3.8954305 2.8954305,3 4,3 L20,3 C21.1045695,3 22,3.8954305 22,5 L22,19 C22,20.1045695 21.1045695,21 20,21 L10,21 Z M4,7 L20,7 L20,9 L4,9 L4,7 Z M14.1213203,13 L12.2426407,11.1213203 C11.8521164,10.7307961 11.8521164,10.0976311 12.2426407,9.70710678 C12.633165,9.31658249 13.26633,9.31658249 13.6568542,9.70710678 L17.1923882,13.2426407 C17.5829124,13.633165 17.5829124,14.26633 17.1923882,14.6568542 L13.6568542,18.1923882 C13.26633,18.5829124 12.633165,18.5829124 12.2426407,18.1923882 C11.8521164,17.8018639 11.8521164,17.1686989 12.2426407,16.7781746 L14.0208153,15 L5,15 C4.44771525,15 4,14.5522847 4,14 C4,13.4477153 4.44771525,13 5,13 L14.1213203,13 Z"/>
  </defs>
  <g fill="none" fill-rule="evenodd">
    <mask id="publish-on-firefox-b" fill="#fff">
      <use xlink:href="#publish-on-firefox-a"/>
    </mask>
    <use fill="#0060DF" fill-rule="nonzero" xlink:href="#publish-on-firefox-a"/>
    <g fill="#0060DF" fill-rule="nonzero" mask="url(#publish-on-firefox-b)">
      <rect width="24" height="24"/>
    </g>
  </g>
</svg>
