<svg xmlns="http://www.w3.org/2000/svg" xmlns:xlink="http://www.w3.org/1999/xlink" width="24" height="24" viewBox="0 0 24 24">
  <defs>
    <path id="publish-on-own-a" d="M9.28115611,12.3623755 C6.60030846,12.3623755 4.42705204,10.2665364 4.42705204,7.68118775 C4.42705204,5.09583914 6.60030846,3 9.28115611,3 C11.9620038,3 14.1352602,5.09583914 14.1352602,7.68118775 C14.1352602,10.2665364 11.9620038,12.3623755 9.28115611,12.3623755 Z M9.28115611,10.8019796 C11.0683879,10.8019796 12.5172255,9.40475349 12.5172255,7.68118775 C12.5172255,5.95762201 11.0683879,4.56039592 9.28115611,4.56039592 C7.49392434,4.56039592 6.04508673,5.95762201 6.04508673,7.68118775 C6.04508673,9.40475349 7.49392434,10.8019796 9.28115611,10.8019796 Z M3.61803469,19.3841571 C3.61803469,19.8150486 3.25582529,20.1643551 2.80901735,20.1643551 C2.3622094,20.1643551 2,19.8150486 2,19.3841571 C2,15.5061342 5.25988463,12.3623755 9.28115611,12.3623755 C11.5410689,12.3623755 13.5605111,13.3552761 14.8960131,14.9134053 L13.6297459,15.8854087 C12.5909222,14.6859023 11.0284505,13.9227714 9.28115611,13.9227714 C6.15350051,13.9227714 3.61803469,16.3679171 3.61803469,19.3841571 Z M18.2447332,16.7203947 L16.7076668,15.1833283 C16.4029805,14.878642 16.4029805,14.384648 16.7076668,14.0799618 C17.012353,13.7752755 17.5063471,13.7752755 17.8110333,14.0799618 L20.7120983,16.9810268 C21.0167846,17.285713 21.0167846,17.7797071 20.7120983,18.0843933 C20.7097759,18.0867158 20.7074425,18.0890205 20.7050982,18.0913075 C20.7027819,18.0936811 20.7004479,18.0960438 20.6980962,18.0983955 L17.9676842,20.8288075 C17.6552647,21.1412269 17.1487328,21.1412269 16.8363133,20.8288075 L16.8235609,20.816055 C16.5111414,20.5036356 16.5111414,19.9971036 16.8235609,19.6846842 L18.2274545,18.2807906 L10.8703714,18.2807906 C10.43948,18.2807906 10.0901735,17.9314841 10.0901735,17.5005926 C10.0901735,17.0697012 10.43948,16.7203947 10.8703714,16.7203947 L18.2447332,16.7203947 Z"/>
  </defs>
  <g fill="none" fill-rule="evenodd">
    <mask id="publish-on-own-b" fill="#fff">
      <use xlink:href="#publish-on-own-a"/>
    </mask>
    <use fill="#0060DF" fill-rule="nonzero" xlink:href="#publish-on-own-a"/>
    <g fill="#0060DF" fill-rule="nonzero" mask="url(#publish-on-own-b)">
      <rect width="24" height="24"/>
    </g>
  </g>
</svg>
