<svg id="Layer_1" data-name="Layer 1" xmlns="http://www.w3.org/2000/svg" width="24" height="24" viewBox="0 0 24 24">
  <title>community-forums</title>
  <path d="M17,8h3.58A2.43,2.43,0,0,1,23,10.42v6.16A2.43,2.43,0,0,1,20.58,19H14.74l-3,3.63a1,1,0,0,1-1.11.31A1,1,0,0,1,10,22V19H9.42A2.43,2.43,0,0,1,7,16.58v-.45l-1.23,1.5a1,1,0,0,1-1.11.31A1,1,0,0,1,4,17V14H3.42A2.43,2.43,0,0,1,1,11.58V5.42A2.43,2.43,0,0,1,3.42,3H14.58A2.43,2.43,0,0,1,17,5.42ZM15,8V5.42A.42.42,0,0,0,14.58,5H3.42A.42.42,0,0,0,3,5.42v6.16a.41.41,0,0,0,.42.42H5a1,1,0,0,1,1,1v1.19L7,13V10.42A2.43,2.43,0,0,1,9.42,8ZM9,12v4.58a.41.41,0,0,0,.42.42H11a1,1,0,0,1,1,1v1.19l1.49-1.82a1,1,0,0,1,.78-.37h6.31a.41.41,0,0,0,.42-.42V10.42a.42.42,0,0,0-.42-.42H9.42a.42.42,0,0,0-.42.42Z"/>
</svg>
