<svg id="Layer_1" data-name="Layer 1" xmlns="http://www.w3.org/2000/svg" width="24" height="24" viewBox="0 0 24 24">
  <title>quick-link-learn</title>
  <path d="M18.33,18.33V5.67a1.26,1.26,0,0,0-1.27-1.26H6.94A1.26,1.26,0,0,0,5.67,5.67V18.33a1.26,1.26,0,0,0,1.27,1.26H17.06A1.26,1.26,0,0,0,18.33,18.33ZM17.06,1.87a3.8,3.8,0,0,1,3.8,3.8V18.33a3.8,3.8,0,0,1-3.8,3.8H6.94a3.8,3.8,0,0,1-3.8-3.8V5.67a3.8,3.8,0,0,1,3.8-3.8Zm-1.9,5.07a.63.63,0,1,1,0,1.26H8.84a.63.63,0,1,1,0-1.26Zm0,2.53a.63.63,0,1,1,0,1.26H8.84a.63.63,0,1,1,0-1.26Zm0,2.53a.64.64,0,0,1,.64.63.64.64,0,0,1-.64.64H8.84a.64.64,0,0,1-.64-.64A.64.64,0,0,1,8.84,12Zm-3.79,2.53a.63.63,0,0,1,.63.63.64.64,0,0,1-.63.64H8.84a.64.64,0,0,1-.64-.64.64.64,0,0,1,.64-.63Z" fill="#231f20" fill-rule="evenodd"/>
</svg>
