<svg id="Layer_1" data-name="Layer 1" xmlns="http://www.w3.org/2000/svg" width="24" height="24" viewBox="0 0 24 24">
  <title>content-script-link</title>
  <path d="M.5,11v-.69h1c.52,0,.77-.23.91-1V4.75C2.41,3,3.76,2.08,6,2A1,1,0,0,1,6,4c-1.25,0-1.62.29-1.62.75V9.58a3.53,3.53,0,0,1-1,2.08,3.5,3.5,0,0,1,1,2.07v4.83c0,.46.37.71,1.62.75a1,1,0,0,1,1,1,1,1,0,0,1-1,1c-2.2-.08-3.55-1-3.55-2.75V14c-.14-.75-.39-1-.91-1H.5Zm23,0v2h-1c-.52,0-.77.24-.92,1v4.57c0,1.76-1.35,2.67-3.54,2.75a1,1,0,1,1-.08-2c1.25,0,1.62-.29,1.62-.75V13.9l0-.17a3.44,3.44,0,0,1,1-2.07,3.46,3.46,0,0,1-1-2.08l0-.17V4.75c0-.46-.37-.71-1.62-.75A1,1,0,0,1,18,2c2.19.08,3.54,1,3.54,2.75V9.32c.15.76.4,1,.92,1h1ZM12,13a1,1,0,1,1,1-1A1,1,0,0,1,12,13ZM8,13a1,1,0,1,1,1-1A1,1,0,0,1,8,13Zm8,0a1,1,0,1,1,1-1A1,1,0,0,1,16,13Z" fill="#0060df"/>
</svg>
