<svg id="Layer_1" data-name="Layer 1" xmlns="http://www.w3.org/2000/svg" width="24" height="24" viewBox="0 0 24 24">
  <title>quick-link-manage</title>
  <path d="M12,15.8A3.8,3.8,0,1,1,15.8,12,3.81,3.81,0,0,1,12,15.8m8.86-5.07H18.2a6.19,6.19,0,0,0-.93-2.21l1.89-1.89a1.27,1.27,0,1,0-1.79-1.79L15.48,6.73a6.19,6.19,0,0,0-2.21-.93V3.14a1.27,1.27,0,0,0-2.54,0V5.8a6.19,6.19,0,0,0-2.21.93L6.63,4.84A1.27,1.27,0,1,0,4.84,6.63L6.73,8.52a6.19,6.19,0,0,0-.93,2.21H3.14a1.27,1.27,0,0,0,0,2.54H5.8a6.48,6.48,0,0,0,.93,2.23l-.05,0L4.84,17.37a1.27,1.27,0,0,0,0,1.79,1.27,1.27,0,0,0,1.79,0l1.84-1.84,0-.05a6.48,6.48,0,0,0,2.23.93v2.66a1.27,1.27,0,0,0,2.54,0V18.2a6.19,6.19,0,0,0,2.21-.93l1.89,1.89a1.27,1.27,0,0,0,1.79,0,1.27,1.27,0,0,0,0-1.79l-1.89-1.89a6.19,6.19,0,0,0,.93-2.21h2.66a1.27,1.27,0,0,0,0-2.54" fill="#231f20" fill-rule="evenodd"/>
</svg>
