<svg id="Layer_1" data-name="Layer 1" xmlns="http://www.w3.org/2000/svg" width="24" height="24" viewBox="0 0 24 24">
  <title>quick-link-develop</title>
  <path d="M8.29,10.76A1.24,1.24,0,1,1,7.05,12,1.24,1.24,0,0,1,8.29,10.76Zm7.42,2.48A1.24,1.24,0,1,1,17,12,1.24,1.24,0,0,1,15.71,13.24ZM8.12,19.38a1.27,1.27,0,1,1,0,2.54c-3.28,0-4.44-1.14-4.44-4.32V15.08c0-1-1.36-1.65-1.95-1.89a1.27,1.27,0,0,1,0-2.34C2.32,10.61,3.68,10,3.68,9V6.4c0-3.18,1.16-4.32,4.44-4.32a1.27,1.27,0,0,1,0,2.54c-1.91,0-1.91,0-1.91,1.78V9a3.91,3.91,0,0,1-1.53,3,4,4,0,0,1,1.53,3.05V17.6C6.21,19.35,6.21,19.38,8.12,19.38Zm14.15-8.57a1.27,1.27,0,0,1,0,2.34c-.58.24-1.93.9-1.93,1.86V17.6c0,3.18-1.17,4.32-4.45,4.32a1.27,1.27,0,1,1,0-2.54c1.91,0,1.91,0,1.91-1.78V15a3.91,3.91,0,0,1,1.53-3,4,4,0,0,1-1.53-3.05V6.4c0-1.75,0-1.78-1.91-1.78a1.27,1.27,0,1,1,0-2.53c3.28,0,4.45,1.13,4.45,4.31V8.92C20.33,9.89,21.68,10.57,22.27,10.81ZM12,10.76A1.24,1.24,0,1,1,10.76,12,1.25,1.25,0,0,1,12,10.76Z" fill="#231f20" fill-rule="evenodd"/>
</svg>
