<svg id="Layer_1" data-name="Layer 1" xmlns="http://www.w3.org/2000/svg" xmlns:xlink="http://www.w3.org/1999/xlink" viewBox="0 0 526.97 394.83"><defs><clipPath id="clip-path"><rect x="-402.82" y="-986.07" width="1308.51" height="841.87" style="fill:none"/></clipPath></defs><title>Add-Innovative-Features</title><path d="M404.58,324.53c47.33-31.66,49.54-98.1,7.33-161.7-46.39-69.9-204.6-53.22-263.45-24.89-53.47,25.74-74.7,97.83-42,149.34S358.8,355.16,404.58,324.53Z" style="fill:#ccf4ff"/><path d="M196.09,364.78a7.21,7.21,0,0,1-7.43-6.95L186.89,207a7.75,7.75,0,0,1,7.65-7.83l161.86-1.9a7.76,7.76,0,0,1,7.84,7.65L366,355.75a7.21,7.21,0,0,1-7.27,7.12Z" style="fill:#00c8d7"/><path d="M358.17,353c0,2.54-.94,3.49-3.48,3.49H197.57c-2.54,0-3.48-.95-3.48-3.49V226.51H358.17Z" style="fill:#fff"/><g id="Layer_3" data-name="Layer 3"><circle cx="203.45" cy="214.1" r="3.65" style="fill:#ccf4ff"/></g><g id="Layer_5" data-name="Layer 5"><circle cx="215.21" cy="213.96" r="3.65" style="fill:#ccf4ff"/></g><g id="Layer_6" data-name="Layer 6"><path d="M320.27,212.9v-.35a3.94,3.94,0,0,0-4-3.9l-81.34.95a4,4,0,0,0-3.9,4V214a3.94,3.94,0,0,0,4,3.9l81.35-.95A4,4,0,0,0,320.27,212.9Z" style="fill:#ccf4ff"/></g><g id="Layer_3-2" data-name="Layer 3"><circle cx="336.08" cy="212.54" r="3.65" style="fill:#ccf4ff"/></g><g id="Layer_5-2" data-name="Layer 5"><circle cx="347.85" cy="212.4" r="3.65" style="fill:#ccf4ff"/></g><path d="M322.9,291.19a28.34,28.34,0,0,1-8,8l-36.19,29.53a3.57,3.57,0,0,1-4.47,0L237.8,299.23a27.62,27.62,0,0,1-8.27-8.24,28.66,28.66,0,0,1,3.72-35.66,28.36,28.36,0,0,1,40.1.08l0,0a4,4,0,0,0,5.75,0l0,0a28.39,28.39,0,0,1,43.72,35.78Z" style="fill:#00c8d7"/><path d="M236.35,279.43a2.55,2.55,0,0,1-.39,0,4.77,4.77,0,0,1-4.35-5.12,21.06,21.06,0,0,1,16.5-18.92,4.75,4.75,0,0,1,2.06,9.27,11.64,11.64,0,0,0-9.11,10.44A4.73,4.73,0,0,1,236.35,279.43Z" style="fill:#f9f9fa"/><path d="M291.72,161.39a10.45,10.45,0,0,0-15.37-.68v0a1.49,1.49,0,0,1-2.12,0v0a10.44,10.44,0,0,0-16.13,13.09,10.23,10.23,0,0,0,3.05,3l13.41,10.86a1.32,1.32,0,0,0,1.64,0l13.32-10.87a10.44,10.44,0,0,0,2.22-15.43Z" style="fill:#4030db"/><path d="M260.59,169.55h-.14a1.75,1.75,0,0,1-1.6-1.88,7.74,7.74,0,0,1,6.07-7,1.75,1.75,0,1,1,.76,3.41,4.28,4.28,0,0,0-3.35,3.84A1.74,1.74,0,0,1,260.59,169.55Z" style="fill:#f9f9fa"/><path d="M297.62,111.58a9.68,9.68,0,0,0-14.25-.63h0a1.35,1.35,0,0,1-2,0h0a9.68,9.68,0,0,0-13.69,0,9.78,9.78,0,0,0-1.27,12.17,9.35,9.35,0,0,0,2.83,2.81L281.68,136a1.22,1.22,0,0,0,1.53,0l12.35-10.08a9.59,9.59,0,0,0,2.73-2.73A9.74,9.74,0,0,0,297.62,111.58Z" style="fill:#4030db"/><path d="M268.75,119.15h-.13a1.63,1.63,0,0,1-1.49-1.75,7.2,7.2,0,0,1,5.63-6.45,1.62,1.62,0,1,1,.71,3.16,4,4,0,0,0-3.11,3.56A1.61,1.61,0,0,1,268.75,119.15Z" style="fill:#f9f9fa"/><path d="M360.11,374.74H192.7a15.35,15.35,0,0,1-15.33-15.33V203.85a15.35,15.35,0,0,1,15.33-15.33h43.73c4.86,0,9-2,10.86-5.13s1.34-7.61-1.54-12.66c-7.34-12.84-35.4-65.74-35.69-66.27a1,1,0,0,1,.42-1.35,1,1,0,0,1,1.35.41c.28.54,28.34,53.41,35.65,66.21,4.12,7.21,3.11,12,1.54,14.67-2.19,3.78-7,6.12-12.59,6.12H192.7a13.35,13.35,0,0,0-13.33,13.33V359.41a13.35,13.35,0,0,0,13.33,13.33H360.11a13.34,13.34,0,0,0,13.32-13.33V203.85a13.34,13.34,0,0,0-13.32-13.33H316c-7,0-12.17-2.23-14.46-6.3-1.67-3-2.52-8.37,2.9-17.29,15.57-25.65,33.19-53,33.36-53.29,5.67-7.78,20.69-25.56,39.58-25.56h.79c12.7.33,24.55,8.82,35.24,25.22,11.64,17.89,15.26,39.05,10.45,61.2-5.95,27.49-24.81,54.8-48,69.58a1,1,0,0,1-.35.14V359.41A15.34,15.34,0,0,1,360.11,374.74ZM377.34,90.08c-18,0-32.48,17.21-37.93,24.69-.14.23-17.74,27.57-33.3,53.2-3.89,6.41-4.88,11.69-2.87,15.27,1.89,3.36,6.53,5.28,12.72,5.28h44.15a15.34,15.34,0,0,1,15.32,15.33v38.09c22.47-14.61,40.65-41.15,46.44-67.86,4.68-21.61,1.16-42.25-10.18-59.67-10.3-15.82-21.61-24-33.62-24.32Z" style="fill:#4030db"/><path d="M131.61,184.93c-.71,0-1.43,0-2.17-.07-15.55-1.12-31.61-10.07-44.08-24.56C73.09,146,66,128.47,65.84,112.14c-.17-20.8,14.92-34.43,30-38.72,14.7-4.19,35-1.2,47.73,19.76a1,1,0,0,1-.33,1.37,1,1,0,0,1-1.38-.33c-12.18-20-31.48-22.86-45.47-18.87-14.31,4.08-28.67,17-28.51,36.77C68,128,74.91,145.07,86.88,159c12.12,14.1,27.68,22.8,42.7,23.87,7.39.53,13.46-1.82,18-7,9.82-11.11,10.87-33.53,7.69-49.65-2.89-14.63-11.82-20-17.23-19.13-3.32.52-5,3.23-4.52,7.24.87,7.24,7,14.26,12,19.9C149.7,139,153,142.76,153,146a4.8,4.8,0,0,1-1.39,3.67c-2.12,2.08-6.17,1.93-9.75,1.81a23.64,23.64,0,0,0-4.4.08,1,1,0,1,1-.35-2,25.64,25.64,0,0,1,4.82-.11c3.18.11,6.77.24,8.29-1.24A2.91,2.91,0,0,0,151,146c0-2.5-3.42-6.36-7-10.46-5.13-5.85-11.52-13.13-12.47-21-.61-5,1.82-8.76,6.2-9.46,6.19-1,16.35,4.79,19.5,20.73,3.38,17.14,2.17,39.67-8.15,51.36A22.37,22.37,0,0,1,131.61,184.93Z" style="fill:#4030db"/><circle cx="101.25" cy="106.72" r="21.38" style="fill:#fff"/><path d="M101.25,129.1a22.38,22.38,0,1,1,22.38-22.38A22.41,22.41,0,0,1,101.25,129.1Zm0-42.76a20.38,20.38,0,1,0,20.38,20.38A20.4,20.4,0,0,0,101.25,86.34Z" style="fill:#4030db"/><path d="M109.7,101.09a5.89,5.89,0,0,0-8.67-.39h0a.83.83,0,0,1-1.2,0h0a5.89,5.89,0,0,0-8.33,0,6,6,0,0,0-.77,7.41,5.6,5.6,0,0,0,1.72,1.71l7.57,6.13a.74.74,0,0,0,.93,0l7.52-6.14a5.83,5.83,0,0,0,1.66-1.66A5.9,5.9,0,0,0,109.7,101.09Z" style="fill:#00c8d7"/><path d="M92.12,105.7H92a1,1,0,0,1-.9-1.06,4.38,4.38,0,0,1,3.43-3.93,1,1,0,0,1,1.18.74,1,1,0,0,1-.75,1.18,2.42,2.42,0,0,0-1.9,2.17A1,1,0,0,1,92.12,105.7Z" style="fill:#f9f9fa"/><path d="M98.1,86.29H98a1,1,0,0,1-.92-1.08,71.49,71.49,0,0,1,96.17-61.5c37.57,13.95,46.29,43,49.16,52.58a1,1,0,0,1-.67,1.25,1,1,0,0,1-1.25-.67c-3.09-10.31-11.3-37.68-47.94-51.29A69.5,69.5,0,0,0,99.09,85.37,1,1,0,0,1,98.1,86.29Z" style="fill:#4030db"/><path d="M137.34,310.08c-33.64,0-56.08-8.57-66.93-25.65-10.53-16.58-9.82-41.6,2.06-72.35A243.61,243.61,0,0,1,93.7,170.33a1,1,0,0,1,1.39-.28,1,1,0,0,1,.28,1.38c-.48.73-47.95,73.07-23.27,111.93,14.29,22.49,49.83,29.69,105.62,21.4a1,1,0,0,1,1.14.85,1,1,0,0,1-.84,1.13A279.11,279.11,0,0,1,137.34,310.08Z" style="fill:#4030db"/><path d="M260.13,93.27a5.9,5.9,0,0,0-8.68-.38h0a.84.84,0,0,1-1.19,0h0a5.88,5.88,0,0,0-8.33,0,6,6,0,0,0-.78,7.41,5.87,5.87,0,0,0,1.72,1.72l7.58,6.12a.74.74,0,0,0,.93,0l7.52-6.13a5.9,5.9,0,0,0,1.25-8.72Z" style="fill:#4030db"/><path d="M242.55,97.88h-.08a1,1,0,0,1-.9-1.07A4.37,4.37,0,0,1,245,92.88a1,1,0,0,1,1.17.75,1,1,0,0,1-.75,1.18A2.41,2.41,0,0,0,243.53,97,1,1,0,0,1,242.55,97.88Z" style="fill:#f9f9fa"/><path d="M319.7,71.25H285.1a1,1,0,0,1,0-2h34.6a1,1,0,0,1,0,2Z" style="fill:#4030db"/><path d="M302.4,88.56a1,1,0,0,1-1-1V53a1,1,0,1,1,2,0V87.56A1,1,0,0,1,302.4,88.56Z" style="fill:#4030db"/><path d="M155,247H107.84a1,1,0,0,1,0-2H155a1,1,0,0,1,0,2Z" style="fill:#4030db"/><path d="M131.4,270.54a1,1,0,0,1-1-1V222.43a1,1,0,0,1,2,0v47.11A1,1,0,0,1,131.4,270.54Z" style="fill:#4030db"/><path d="M469.1,293H447.74a1,1,0,0,1,0-2H469.1a1,1,0,0,1,0,2Z" style="fill:#4030db"/><path d="M458.42,303.71a1,1,0,0,1-1-1V281.35a1,1,0,0,1,2,0v21.36A1,1,0,0,1,458.42,303.71Z" style="fill:#4030db"/><g style="clip-path:url(#clip-path)"><path d="M15.73-254.82h-389a14.35,14.35,0,0,0-14.33,14.33V122a13,13,0,0,0,13.42,12.63H16.68A13,13,0,0,0,30.2,122.07v-362.4A14.35,14.35,0,0,0,16-254.82Zm-21,22.14a8.76,8.76,0,0,1,8.76,8.76,8.76,8.76,0,0,1-8.76,8.76A8.76,8.76,0,0,1-14-223.92a8.76,8.76,0,0,1,8.76-8.76Zm-28.28,0a8.76,8.76,0,0,1,8.76,8.76,8.76,8.76,0,0,1-8.76,8.76,8.76,8.76,0,0,1-8.76-8.76,8.76,8.76,0,0,1,8.76-8.76ZM-286-224.35a9.49,9.49,0,0,1,9.49-9.49H-81a9.49,9.49,0,0,1,9.5,9.49v.84A9.49,9.49,0,0,1-81-214H-276.52a9.49,9.49,0,0,1-9.49-9.49h0Zm-38-8.33a8.76,8.76,0,0,1,8.68,8.84,8.75,8.75,0,0,1-8.84,8.68,8.75,8.75,0,0,1-8.68-8.76,8.76,8.76,0,0,1,8.76-8.76Zm-28.28,0a8.76,8.76,0,0,1,8.76,8.76,8.76,8.76,0,0,1-8.76,8.76,8.76,8.76,0,0,1-8.76-8.76h0A8.76,8.76,0,0,1-352.28-232.68ZM20.17,114.08c0,6.17-2.27,8.46-8.44,8.46h-381c-6.16,0-8.43-2.29-8.43-8.46V-192.69H20.17Z" style="fill:#00c8d7"/><path d="M-267.77,504.15c-19.77.23-36-15-36.26-33.91l-8.65-736.1a37.85,37.85,0,0,1,37.34-38.24l790.15-9.27A37.82,37.82,0,0,1,553.05-276l8.65,736.11c.22,18.92-15.69,34.51-35.46,34.74Z" style="fill:#4f42ff"/></g></svg>