<svg id="Layer_1" data-name="Layer 1" xmlns="http://www.w3.org/2000/svg" xmlns:xlink="http://www.w3.org/1999/xlink" width="526.97" height="394.83" viewBox="0 0 526.97 394.83"><defs><linearGradient id="linear-gradient" x1="-510.35" y1="1209.08" x2="362.99" y2="335.74" gradientUnits="userSpaceOnUse"><stop offset="0.59" stop-color="#592acb"/><stop offset="1" stop-color="#952bb9"/></linearGradient><radialGradient id="radial-gradient" cx="310.47" cy="198.72" r="242.29" gradientUnits="userSpaceOnUse"><stop offset="0.26" stop-color="#cdcdd4" stop-opacity="0"/><stop offset="0.4" stop-color="#cdcdd4" stop-opacity="0.02"/><stop offset="0.55" stop-color="#cdcdd4" stop-opacity="0.08"/><stop offset="0.69" stop-color="#cdcdd4" stop-opacity="0.18"/><stop offset="0.72" stop-color="#cdcdd4" stop-opacity="0.2"/></radialGradient><radialGradient id="radial-gradient-2" cx="321.11" cy="149.18" r="355.96" gradientUnits="userSpaceOnUse"><stop offset="0.27" stop-color="#cdcdd4" stop-opacity="0"/><stop offset="0.46" stop-color="#cdcdd4" stop-opacity="0.02"/><stop offset="0.66" stop-color="#cdcdd4" stop-opacity="0.08"/><stop offset="0.86" stop-color="#cdcdd4" stop-opacity="0.18"/><stop offset="0.9" stop-color="#cdcdd4" stop-opacity="0.2"/></radialGradient><radialGradient id="radial-gradient-3" cx="328.9" cy="300.17" r="309.06" gradientUnits="userSpaceOnUse"><stop offset="0.4" stop-color="#cdcdd4" stop-opacity="0"/><stop offset="0.58" stop-color="#cdcdd4" stop-opacity="0.02"/><stop offset="0.77" stop-color="#cdcdd4" stop-opacity="0.08"/><stop offset="0.96" stop-color="#cdcdd4" stop-opacity="0.18"/><stop offset="1" stop-color="#cdcdd4" stop-opacity="0.2"/></radialGradient><linearGradient id="linear-gradient-2" x1="-67.4" y1="464.79" x2="350.45" y2="46.94" gradientUnits="userSpaceOnUse"><stop offset="0.28" stop-color="#7542e5"/><stop offset="0.42" stop-color="#824deb"/><stop offset="0.79" stop-color="#a067fa"/><stop offset="1" stop-color="#ab71ff"/></linearGradient><linearGradient id="linear-gradient-3" x1="60.51" y1="135.81" x2="160" y2="36.32" gradientUnits="userSpaceOnUse"><stop offset="0" stop-color="#b833e1"/><stop offset="1" stop-color="#ff4f5e"/></linearGradient><linearGradient id="linear-gradient-4" x1="104.99" y1="510.91" x2="522.85" y2="93.06" gradientUnits="userSpaceOnUse"><stop offset="0.43" stop-color="#00b3f4"/><stop offset="0.61" stop-color="#00bbf6"/><stop offset="0.89" stop-color="#00d2fc"/><stop offset="1" stop-color="#0df"/></linearGradient><linearGradient id="linear-gradient-5" x1="12.66" y1="434.83" x2="430.51" y2="16.97" gradientUnits="userSpaceOnUse"><stop offset="0.22" stop-color="#b833e1"/><stop offset="0.91" stop-color="#ff4f5e"/></linearGradient><linearGradient id="linear-gradient-6" x1="185.26" y1="97.39" x2="244.15" y2="38.51" gradientUnits="userSpaceOnUse"><stop offset="0" stop-color="#ff7139"/><stop offset="1" stop-color="#ffa436"/></linearGradient><linearGradient id="linear-gradient-7" x1="372.83" y1="147.68" x2="416.61" y2="103.9" gradientUnits="userSpaceOnUse"><stop offset="0" stop-color="#00b3f4"/><stop offset="0.58" stop-color="#1abdc2"/><stop offset="1" stop-color="#2ac3a2"/></linearGradient><linearGradient id="linear-gradient-8" x1="290.55" y1="330.7" x2="389.62" y2="231.63" gradientUnits="userSpaceOnUse"><stop offset="0" stop-color="#0090ed"/><stop offset="0.68" stop-color="#737bf9"/><stop offset="1" stop-color="#ab71ff"/></linearGradient><clipPath id="clip-path"><rect x="-693.68" y="519.08" width="1240" height="506.67" style="fill:url(#linear-gradient)"/></clipPath><linearGradient id="linear-gradient-10" x1="1072.59" y1="-15.34" x2="-770.3" y2="1363.38" gradientUnits="userSpaceOnUse"><stop offset="0.2" stop-color="#b833e1"/><stop offset="0.75" stop-color="#592acb"/></linearGradient></defs><title>amo_dev-hub_illustration-assets-v2-EDITED</title><path d="M483.06,102.55A22.46,22.46,0,0,1,460.7,125H370.8a17.17,17.17,0,0,1,0-34.33,17,17,0,0,1,4.12.52,17.7,17.7,0,0,1,27.24-18.58A29.75,29.75,0,0,1,460.7,80.1,22.45,22.45,0,0,1,483.06,102.55Z" style="fill:url(#radial-gradient)"/><path d="M187.09,300.67a25.62,25.62,0,0,0-6.17.76,26.69,26.69,0,0,0-41.09-28A44.85,44.85,0,0,0,51.6,284.73a33.69,33.69,0,1,0,0,67.38H187.1a25.72,25.72,0,1,0,0-51.44Z" style="fill:url(#radial-gradient-2)"/><circle cx="263.52" cy="197.28" r="162.45" style="fill:url(#radial-gradient-3)"/><path d="M271.84,136.84h-182A13.65,13.65,0,0,0,76.2,150.49V281.38A13.65,13.65,0,0,0,89.85,295H276.38a9.09,9.09,0,0,0,9.1-9.1V150.49A13.65,13.65,0,0,0,271.84,136.84Z" style="fill:#ab71ff"/><path d="M271.12,136.84h-182a13.65,13.65,0,0,0-13.65,13.65V281.38A13.65,13.65,0,0,0,89.14,295H275.67a9.1,9.1,0,0,0,9.1-9.1V150.49A13.65,13.65,0,0,0,271.12,136.84Zm4.55,18.2H84.59v-4.55a4.54,4.54,0,0,1,4.55-4.55h182a4.55,4.55,0,0,1,4.55,4.55Z" style="fill:url(#linear-gradient-2)"/><path d="M166,51.71a23.54,23.54,0,0,0-33.22,0L128,56.44l-4.73-4.73A23.48,23.48,0,1,0,90.06,84.92L124,118.83a5.72,5.72,0,0,0,8.08,0L166,84.92A23.52,23.52,0,0,0,166,51.71Z" style="fill:url(#linear-gradient-3)"/><path d="M444.23,183h-182A13.65,13.65,0,0,0,248.6,196.6V327.49a13.65,13.65,0,0,0,13.65,13.65H448.78a9.1,9.1,0,0,0,9.1-9.1V196.6A13.65,13.65,0,0,0,444.23,183Z" style="fill:#0df"/><path d="M443.51,183h-182a13.65,13.65,0,0,0-13.65,13.64V327.49a13.65,13.65,0,0,0,13.65,13.65H448.06a9.09,9.09,0,0,0,9.1-9.1V196.6A13.65,13.65,0,0,0,443.51,183Zm4.55,18.19H257V196.6a4.55,4.55,0,0,1,4.55-4.54h182a4.54,4.54,0,0,1,4.55,4.54Z" style="fill:url(#linear-gradient-4)"/><path d="M351.9,106.88h-182a13.65,13.65,0,0,0-13.65,13.64V251.41a13.65,13.65,0,0,0,13.65,13.65H356.44a9.09,9.09,0,0,0,9.1-9.1V120.52A13.64,13.64,0,0,0,351.9,106.88Z" style="fill:#ff848b"/><path d="M351.18,106.88h-182a13.65,13.65,0,0,0-13.65,13.64V251.41a13.65,13.65,0,0,0,13.65,13.65H355.73a9.1,9.1,0,0,0,9.1-9.1V120.52A13.65,13.65,0,0,0,351.18,106.88Zm4.55,18.19H164.65v-4.55A4.55,4.55,0,0,1,169.2,116h182a4.55,4.55,0,0,1,4.55,4.55Z" style="fill:url(#linear-gradient-5)"/><path d="M283.56,167.18a14.27,14.27,0,0,0-20.14,0l-2.88,2.87-2.86-2.87a14.25,14.25,0,0,0-20.15,20.15l20.56,20.57a3.49,3.49,0,0,0,4.91,0l20.56-20.57A14.26,14.26,0,0,0,283.56,167.18Z" style="fill:#f9f9fa"/><path d="M247.67,47.61a14,14,0,0,0-19.66,0l-2.8,2.8-2.8-2.8a13.9,13.9,0,1,0-19.66,19.66l20.07,20.07a3.38,3.38,0,0,0,4.78,0l20.07-20.07A13.92,13.92,0,0,0,247.67,47.61Z" style="fill:url(#linear-gradient-6)"/><path d="M419.22,110.67a10.37,10.37,0,0,0-14.61,0l-2.08,2.08-2.08-2.08a10.34,10.34,0,0,0-14.62,14.62l14.92,14.92a2.52,2.52,0,0,0,3.55,0l14.92-14.92A10.35,10.35,0,0,0,419.22,110.67Z" style="fill:url(#linear-gradient-7)"/><path d="M400.83,237.61a19,19,0,0,0-26.76,0l-3.82,3.81-3.81-3.81a18.92,18.92,0,0,0-26.76,26.76L367,291.68a4.6,4.6,0,0,0,6.51,0l27.32-27.31A19,19,0,0,0,400.83,237.61Z" style="fill:url(#linear-gradient-8)"/><rect x="-693.68" y="519.08" width="1240" height="506.67" style="fill:url(#linear-gradient)"/><g style="clip-path:url(#clip-path)"><path d="M825.29,53.94a170.95,170.95,0,1,0-311.48,141c127.8,282.34,2.07,616-280.27,743.79s-616,2.06-743.78-280.28a170.93,170.93,0,0,0-226.23-85.24,170.94,170.94,0,0,0-85.25,226.23c205.53,454.07,742.17,656.29,1196.24,450.76S1030.81,508,825.29,53.94Z" style="fill:url(#linear-gradient-10)"/></g></svg>