<svg id="Layer_1" data-name="Layer 1" xmlns="http://www.w3.org/2000/svg" xmlns:xlink="http://www.w3.org/1999/xlink" width="526.97" height="394.83" viewBox="0 0 526.97 394.83"><defs><style>.cls-1{fill:url(#radial-gradient);}.cls-2{fill:url(#radial-gradient-2);}.cls-3{fill:url(#radial-gradient-3);}.cls-4{fill:#ab71ff;}.cls-5{fill:url(#linear-gradient);}.cls-6{fill:url(#linear-gradient-2);}.cls-7{fill:#0df;}.cls-8{fill:url(#linear-gradient-3);}.cls-9{fill:#ff848b;}.cls-10{fill:url(#linear-gradient-4);}.cls-11{fill:#f9f9fa;}.cls-12{fill:url(#linear-gradient-5);}.cls-13{fill:url(#linear-gradient-6);}.cls-14{fill:url(#linear-gradient-7);}</style><radialGradient id="radial-gradient" cx="310.47" cy="195.28" r="242.29" gradientTransform="matrix(1, 0, 0, -1, 0, 394)" gradientUnits="userSpaceOnUse"><stop offset="0.26" stop-color="#cdcdd4" stop-opacity="0"/><stop offset="0.4" stop-color="#cdcdd4" stop-opacity="0.02"/><stop offset="0.55" stop-color="#cdcdd4" stop-opacity="0.08"/><stop offset="0.69" stop-color="#cdcdd4" stop-opacity="0.18"/><stop offset="0.72" stop-color="#cdcdd4" stop-opacity="0.2"/></radialGradient><radialGradient id="radial-gradient-2" cx="321.11" cy="244.82" r="355.96" gradientTransform="matrix(1, 0, 0, -1, 0, 394)" gradientUnits="userSpaceOnUse"><stop offset="0.27" stop-color="#cdcdd4" stop-opacity="0"/><stop offset="0.46" stop-color="#cdcdd4" stop-opacity="0.02"/><stop offset="0.66" stop-color="#cdcdd4" stop-opacity="0.08"/><stop offset="0.86" stop-color="#cdcdd4" stop-opacity="0.18"/><stop offset="0.9" stop-color="#cdcdd4" stop-opacity="0.2"/></radialGradient><radialGradient id="radial-gradient-3" cx="328.9" cy="93.83" r="309.06" gradientTransform="matrix(1, 0, 0, -1, 0, 394)" gradientUnits="userSpaceOnUse"><stop offset="0.4" stop-color="#cdcdd4" stop-opacity="0"/><stop offset="0.58" stop-color="#cdcdd4" stop-opacity="0.02"/><stop offset="0.77" stop-color="#cdcdd4" stop-opacity="0.08"/><stop offset="0.96" stop-color="#cdcdd4" stop-opacity="0.18"/><stop offset="1" stop-color="#cdcdd4" stop-opacity="0.2"/></radialGradient><linearGradient id="linear-gradient" x1="-67.41" y1="-70.78" x2="350.44" y2="347.07" gradientTransform="matrix(1, 0, 0, -1, 0, 394)" gradientUnits="userSpaceOnUse"><stop offset="0.28" stop-color="#7542e5"/><stop offset="0.42" stop-color="#824deb"/><stop offset="0.79" stop-color="#a067fa"/><stop offset="1" stop-color="#ab71ff"/></linearGradient><linearGradient id="linear-gradient-2" x1="60.52" y1="258.18" x2="160.01" y2="357.67" gradientTransform="matrix(1, 0, 0, -1, 0, 394)" gradientUnits="userSpaceOnUse"><stop offset="0" stop-color="#b833e1"/><stop offset="1" stop-color="#ff4f5e"/></linearGradient><linearGradient id="linear-gradient-3" x1="104.99" y1="-116.91" x2="522.85" y2="300.94" gradientTransform="matrix(1, 0, 0, -1, 0, 394)" gradientUnits="userSpaceOnUse"><stop offset="0.43" stop-color="#00b3f4"/><stop offset="0.61" stop-color="#00bbf6"/><stop offset="0.89" stop-color="#00d2fc"/><stop offset="1" stop-color="#0df"/></linearGradient><linearGradient id="linear-gradient-4" x1="12.66" y1="-40.83" x2="430.51" y2="377.03" gradientTransform="matrix(1, 0, 0, -1, 0, 394)" gradientUnits="userSpaceOnUse"><stop offset="0.22" stop-color="#b833e1"/><stop offset="0.91" stop-color="#ff4f5e"/></linearGradient><linearGradient id="linear-gradient-5" x1="185.26" y1="296.61" x2="244.15" y2="355.49" gradientTransform="matrix(1, 0, 0, -1, 0, 394)" gradientUnits="userSpaceOnUse"><stop offset="0" stop-color="#ff7139"/><stop offset="1" stop-color="#ffa436"/></linearGradient><linearGradient id="linear-gradient-6" x1="372.9" y1="246.25" x2="416.68" y2="290.03" gradientTransform="matrix(1, 0, 0, -1, 0, 394)" gradientUnits="userSpaceOnUse"><stop offset="0" stop-color="#00b3f4"/><stop offset="0.58" stop-color="#1abdc2"/><stop offset="1" stop-color="#2ac3a2"/></linearGradient><linearGradient id="linear-gradient-7" x1="290.55" y1="63.3" x2="389.62" y2="162.37" gradientTransform="matrix(1, 0, 0, -1, 0, 394)" gradientUnits="userSpaceOnUse"><stop offset="0" stop-color="#0090ed"/><stop offset="0.68" stop-color="#737bf9"/><stop offset="1" stop-color="#ab71ff"/></linearGradient></defs><title>Add-Innovative-Features-v2</title><path class="cls-1" d="M483.06,102.55A22.47,22.47,0,0,1,460.7,125H370.8a17.17,17.17,0,0,1,0-34.33,16.86,16.86,0,0,1,4.12.52,17.7,17.7,0,0,1,27.24-18.58A29.75,29.75,0,0,1,460.7,80.1,22.46,22.46,0,0,1,483.06,102.55Z"/><path class="cls-2" d="M187.09,300.67a25.68,25.68,0,0,0-6.17.76,26.69,26.69,0,0,0-41.09-28,44.85,44.85,0,0,0-88.23,11.3,33.69,33.69,0,1,0,0,67.38H187.1a25.72,25.72,0,0,0,0-51.44Z"/><circle class="cls-3" cx="263.52" cy="197.28" r="162.45"/><path class="cls-4" d="M271.84,136.84h-182A13.66,13.66,0,0,0,76.2,150.49V281.38A13.65,13.65,0,0,0,89.85,295H276.38a9.09,9.09,0,0,0,9.1-9.08V150.49A13.66,13.66,0,0,0,271.84,136.84Z"/><path class="cls-5" d="M271.12,136.84h-182a13.65,13.65,0,0,0-13.65,13.65V281.38A13.66,13.66,0,0,0,89.14,295H275.67a9.09,9.09,0,0,0,9.1-9.1h0V150.49a13.65,13.65,0,0,0-13.65-13.65Zm4.55,18.2H84.59v-4.55a4.54,4.54,0,0,1,4.53-4.55h182a4.55,4.55,0,0,1,4.55,4.55Z"/><path class="cls-6" d="M166,51.71a23.53,23.53,0,0,0-33.22,0L128,56.44l-4.73-4.73A23.48,23.48,0,1,0,90.06,84.92L124,118.83a5.72,5.72,0,0,0,8.08,0L166,84.92A23.52,23.52,0,0,0,166,51.71Z"/><path class="cls-7" d="M444.23,183h-182a13.65,13.65,0,0,0-13.63,13.6V327.49a13.65,13.65,0,0,0,13.65,13.65H448.78a9.09,9.09,0,0,0,9.1-9.1h0V196.6A13.65,13.65,0,0,0,444.23,183Z"/><path class="cls-8" d="M443.51,183h-182a13.66,13.66,0,0,0-13.65,13.64V327.49a13.65,13.65,0,0,0,13.65,13.65H448.06a9.09,9.09,0,0,0,9.1-9.08V196.6A13.65,13.65,0,0,0,443.51,183Zm4.55,18.19H257V196.6a4.55,4.55,0,0,1,4.55-4.54h182a4.54,4.54,0,0,1,4.55,4.53h0Z"/><path class="cls-9" d="M351.9,106.88h-182a13.66,13.66,0,0,0-13.65,13.64V251.41a13.65,13.65,0,0,0,13.65,13.65H356.44a9.09,9.09,0,0,0,9.1-9.08V120.52a13.64,13.64,0,0,0-13.64-13.64Z"/><path class="cls-10" d="M351.18,106.88h-182a13.66,13.66,0,0,0-13.65,13.64V251.41a13.65,13.65,0,0,0,13.65,13.65H355.73a9.09,9.09,0,0,0,9.1-9.1h0V120.52A13.66,13.66,0,0,0,351.18,106.88Zm4.55,18.19H164.65v-4.55A4.55,4.55,0,0,1,169.2,116h182a4.55,4.55,0,0,1,4.55,4.55Z"/><path class="cls-11" d="M283.56,167.18a14.26,14.26,0,0,0-20.14,0l-2.88,2.87-2.86-2.87a14.25,14.25,0,0,0-20.15,20.15l20.56,20.57a3.48,3.48,0,0,0,4.91,0l20.56-20.57A14.26,14.26,0,0,0,283.56,167.18Z"/><path class="cls-12" d="M247.67,47.61a14,14,0,0,0-19.66,0l-2.8,2.8-2.8-2.8a13.9,13.9,0,1,0-19.66,19.66l20.07,20.07a3.38,3.38,0,0,0,4.78,0l20.07-20.07A13.89,13.89,0,0,0,247.67,47.61Z"/><path class="cls-13" d="M419.22,110.67a10.38,10.38,0,0,0-14.61,0l-2.08,2.08-2.08-2.08a10.34,10.34,0,0,0-14.62,14.62l14.92,14.92a2.53,2.53,0,0,0,3.55,0l14.92-14.92a10.34,10.34,0,0,0,0-14.63Z"/><path class="cls-14" d="M400.83,237.61a19,19,0,0,0-26.76,0l-3.82,3.81-3.81-3.81a18.92,18.92,0,0,0-26.76,26.76L367,291.68a4.6,4.6,0,0,0,6.51,0h0l27.32-27.31a18.69,18.69,0,0,0,.7-26.6A.58.58,0,0,0,400.83,237.61Z"/></svg>