<svg id="Layer_1" data-name="Layer 1" xmlns="http://www.w3.org/2000/svg" xmlns:xlink="http://www.w3.org/1999/xlink" width="960" height="429" viewBox="0 0 960 429"><defs><mask id="mask" x="-10.23" y="-8" width="791.23" height="445" maskUnits="userSpaceOnUse"><g id="group-4-c"><path id="group-4-a" d="M-10.23,169.31V430.88A6.19,6.19,0,0,0-7.52,436H103.77L43.65,262.74a285.63,285.63,0,0,0-53.88-93.43Z" style="fill:#fff;fill-rule:evenodd"/></g></mask><linearGradient id="linear-gradient" x1="464.14" y1="301.66" x2="463.95" y2="301.8" gradientTransform="translate(239008.71 -206364.5) rotate(90) scale(445 791.23)" gradientUnits="userSpaceOnUse"><stop offset="0" stop-color="#9059ff"/><stop offset="1" stop-color="#fefdff"/></linearGradient><mask id="mask-2" x="195.77" y="53.5" width="791.23" height="445" maskUnits="userSpaceOnUse"><g id="group-4-f"><path id="group-4-d" d="M987,59.62v432.7a6.18,6.18,0,0,1-6.18,6.18H351.52l632.77-444A6.17,6.17,0,0,1,987,59.62Z" style="fill:#fff;fill-rule:evenodd"/></g></mask><linearGradient id="linear-gradient-2" x1="464.75" y1="301.38" x2="464.89" y2="301.53" gradientTransform="matrix(0, -445, -791.23, 0, 239214.71, 207176.5)" gradientUnits="userSpaceOnUse"><stop offset="0" stop-color="#ffd567"/><stop offset="1" stop-color="#fffffd"/></linearGradient><mask id="mask-3" x="195.77" y="53.5" width="791.23" height="445" maskUnits="userSpaceOnUse"><g id="group-4-i"><path id="group-4-g" d="M987,409.17v83.15a6.18,6.18,0,0,1-6.18,6.18H357.41a707.15,707.15,0,0,0,119-138.83c86.93-132.81,265.9-170.56,399.75-84.31A285.91,285.91,0,0,1,987,409.17Z" style="fill:#fff;fill-rule:evenodd"/></g></mask><linearGradient id="linear-gradient-3" x1="464.92" y1="301.66" x2="465.05" y2="301.2" gradientTransform="matrix(0, -445, -791.23, 0, 239214.71, 207176.5)" gradientUnits="userSpaceOnUse"><stop offset="0" stop-color="#ff298a"/><stop offset="1" stop-color="#ffd367"/></linearGradient></defs><title>Group 4</title><g style="mask:url(#mask)"><polygon points="781 -8 781 437 -10.23 437 -10.23 -8 781 -8" style="fill-rule:evenodd;fill:url(#linear-gradient)"/></g><g style="mask:url(#mask-2)"><polygon points="987 498.5 987 53.5 195.77 53.5 195.77 498.5 987 498.5" style="fill-rule:evenodd;fill:url(#linear-gradient-2)"/></g><g style="mask:url(#mask-3)"><polygon points="987 498.5 987 53.5 195.77 53.5 195.77 498.5 987 498.5" style="fill-rule:evenodd;fill:url(#linear-gradient-3)"/></g></svg>