<svg id="Layer_1" data-name="Layer 1" xmlns="http://www.w3.org/2000/svg" xmlns:xlink="http://www.w3.org/1999/xlink" width="1130.39" height="641.28" viewBox="0 0 1130.39 641.28"><defs><style>.cls-1{fill:none;}.cls-2{clip-path:url(#clip-path);}.cls-3{fill:url(#linear-gradient);}.cls-4{fill:#c689ff;}.cls-5{fill:#00c8d7;}.cls-6{fill:url(#linear-gradient-2);}.cls-7{fill:url(#linear-gradient-3);}.cls-8{fill:url(#linear-gradient-4);}.cls-9{fill:#ff848b;}.cls-10{fill:url(#linear-gradient-5);}.cls-11{fill:#f9f9fa;}.cls-12{fill:url(#linear-gradient-6);}.cls-13{fill:url(#linear-gradient-7);}.cls-14{fill:url(#linear-gradient-8);}.cls-15{fill:url(#linear-gradient-9);}.cls-16{fill:url(#linear-gradient-10);}.cls-17{fill:url(#linear-gradient-11);}</style><clipPath id="clip-path"><rect class="cls-1" x="-831.8" y="-0.14" width="1965.45" height="643.18"/></clipPath><linearGradient id="linear-gradient" x1="1357.5" y1="406.67" x2="143.09" y2="-598.77" gradientTransform="matrix(1, 0, 0, -1, 0, 642)" gradientUnits="userSpaceOnUse"><stop offset="0.2" stop-color="#b833e1"/><stop offset="0.75" stop-color="#592acb"/></linearGradient><linearGradient id="linear-gradient-2" x1="858.28" y1="513.7" x2="1271.57" y2="513.7" gradientTransform="matrix(1, 0, 0, -1, 0, 642)" gradientUnits="userSpaceOnUse"><stop offset="0" stop-color="#00b3f4"/><stop offset="0.58" stop-color="#1abdc2"/><stop offset="1" stop-color="#2ac3a2"/></linearGradient><linearGradient id="linear-gradient-3" x1="315.93" y1="59.32" x2="576" y2="59.32" xlink:href="#linear-gradient-2"/><linearGradient id="linear-gradient-4" x1="1080.21" y1="332.37" x2="1092.9" y2="345.05" gradientTransform="matrix(1, 0, 0, -1, 0, 642)" gradientUnits="userSpaceOnUse"><stop offset="0" stop-color="#ff7139"/><stop offset="1" stop-color="#ffa436"/></linearGradient><linearGradient id="linear-gradient-5" x1="206.58" y1="-178.93" x2="940.57" y2="555.06" gradientTransform="matrix(1, 0, 0, -1, 0, 642)" gradientUnits="userSpaceOnUse"><stop offset="0.22" stop-color="#b833e1"/><stop offset="0.91" stop-color="#ff4f5e"/></linearGradient><linearGradient id="linear-gradient-6" x1="836.22" y1="55.2" x2="872.92" y2="91.9" xlink:href="#linear-gradient-4"/><linearGradient id="linear-gradient-7" x1="347.15" y1="328.27" x2="359.84" y2="340.96" xlink:href="#linear-gradient-4"/><linearGradient id="linear-gradient-8" x1="97.26" y1="55.19" x2="108.39" y2="66.32" xlink:href="#linear-gradient-4"/><linearGradient id="linear-gradient-9" x1="41.04" y1="283.64" x2="52.17" y2="294.76" xlink:href="#linear-gradient-4"/><linearGradient id="linear-gradient-10" x1="891.16" y1="200.37" x2="1040.13" y2="200.37" xlink:href="#linear-gradient-2"/><linearGradient id="linear-gradient-11" x1="192.73" y1="240.1" x2="300" y2="240.1" xlink:href="#linear-gradient-2"/></defs><title>extension-v2</title><g class="cls-2"><path class="cls-3" d="M1056.3,395.78C972.85,211.41,755.78,129.61,571.41,213.06S305.24,513.59,388.69,698C662.6,1303.12,393.11,2018.28-212,2292.19s-1320.32,4.42-1594.23-600.74c-83.45-184.37-300.52-266.17-484.89-182.71s-266.18,300.52-182.72,484.89c440.52,973.26,1590.76,1406.69,2564,966.17S1496.82,1369,1056.3,395.78Z"/><path class="cls-4" d="M756.93,174.35s2.22,12.65,6.5,16.93,16.93,6.5,16.93,6.5-12.65,2.05-16.93,6.33-6.5,17.1-6.5,17.1-2-12.83-6.33-17.1-17.11-6.33-17.11-6.33,12.83-2.23,17.11-6.5,6.33-16.93,6.33-16.93m0-9.38h-.07a9.39,9.39,0,0,0-9.19,7.87c-.76,4.64-2.54,10.29-3.71,11.81-1.54,1.2-7.33,3.07-12.07,3.9A9.37,9.37,0,0,0,732,207c4.69.76,10.41,2.53,12,3.7,1.18,1.56,3,7.28,3.7,12a9.37,9.37,0,0,0,9.19,7.9H757a9.38,9.38,0,0,0,9.23-7.77c.84-4.75,2.71-10.54,3.9-12.08,1.51-1.16,7.17-3,11.81-3.71a9.37,9.37,0,0,0,.11-18.48c-4.69-.84-10.42-2.72-11.92-3.91-1.2-1.51-3.08-7.23-3.9-11.92a9.38,9.38,0,0,0-9.23-7.75Z"/><path class="cls-4" d="M548.52,613.13c-2-.36-4.82-1.25-5.52-2s-1.58-3.43-2-5.53a2.41,2.41,0,0,0-2.33-1.93,2.34,2.34,0,0,0-2.29,2c-.35,2.09-1.18,4.8-1.88,5.49s-3.46,1.58-5.59,2a2.34,2.34,0,0,0,0,4.62c2.12.34,4.86,1.17,5.56,1.87s1.53,3.44,1.88,5.56a2.34,2.34,0,0,0,2.29,2h0a2.35,2.35,0,0,0,2.31-1.94c.36-2.08,1.25-4.89,2-5.59s3.4-1.53,5.49-1.87a2.34,2.34,0,0,0,0-4.62Z"/><path class="cls-5" d="M719.17,312.19c-2-.36-4.82-1.25-5.52-1.95s-1.58-3.43-1.95-5.52a2.41,2.41,0,0,0-2.33-1.94,2.34,2.34,0,0,0-2.29,2c-.35,2.08-1.18,4.79-1.88,5.49s-3.46,1.57-5.59,2a2.34,2.34,0,0,0,0,4.62c2.12.34,4.86,1.18,5.56,1.87s1.53,3.44,1.88,5.56a2.33,2.33,0,0,0,2.29,2h0a2.35,2.35,0,0,0,2.31-1.94c.36-2.08,1.25-4.89,2-5.59s3.4-1.53,5.49-1.87a2.34,2.34,0,0,0,0-4.62Z"/><path class="cls-4" d="M426,531.46a12.07,12.07,0,0,1-4.4-1.52,12.19,12.19,0,0,1-1.51-4.39,2.36,2.36,0,0,0-2.31-1.94h0a2.34,2.34,0,0,0-2.29,2A12.09,12.09,0,0,1,414,530a12.14,12.14,0,0,1-4.44,1.52,2.34,2.34,0,0,0,0,4.62,11.88,11.88,0,0,1,4.41,1.45,11.89,11.89,0,0,1,1.46,4.42,2.34,2.34,0,0,0,2.29,2h0a2.35,2.35,0,0,0,2.31-1.94,12.13,12.13,0,0,1,1.52-4.45,11.65,11.65,0,0,1,4.36-1.45,2.34,2.34,0,0,0,0-4.62Z"/><path class="cls-4" d="M317.43,471.13s2.23,12.65,6.5,16.92,16.93,6.51,16.93,6.51-12.65,2.05-16.93,6.33-6.5,17.1-6.5,17.1-2.05-12.83-6.33-17.1-17.1-6.33-17.1-6.33,12.83-2.23,17.1-6.51,6.33-16.92,6.33-16.92m0-9.38h-.07a9.37,9.37,0,0,0-9.18,7.87c-.77,4.63-2.55,10.29-3.71,11.8-1.55,1.21-7.34,3.08-12.08,3.9a9.37,9.37,0,0,0,.13,18.49c4.68.76,10.4,2.54,12,3.71,1.18,1.56,3,7.28,3.7,12a9.37,9.37,0,0,0,9.2,7.89h.06a9.37,9.37,0,0,0,9.23-7.78c.84-4.74,2.71-10.54,3.9-12.07,1.52-1.16,7.17-2.95,11.81-3.71a9.37,9.37,0,0,0,.12-18.48c-4.7-.84-10.43-2.72-11.93-3.91-1.2-1.51-3.08-7.24-3.9-11.92a9.38,9.38,0,0,0-9.23-7.75Z"/><path class="cls-5" d="M795,455.66a5.31,5.31,0,0,1-5.91-4.63,5.48,5.48,0,0,1,0-1.28,2.34,2.34,0,0,0-2.31-1.93h0a2.34,2.34,0,0,0-2.29,2,12.06,12.06,0,0,1-1.45,4.37,12.3,12.3,0,0,1-4.45,1.51,2.34,2.34,0,0,0,0,4.62,5.16,5.16,0,0,1,5.87,5.87,2.32,2.32,0,0,0,2.3,2h0a2.34,2.34,0,0,0,2.31-1.94,11.84,11.84,0,0,1,1.52-4.44,11.6,11.6,0,0,1,4.36-1.46,2.34,2.34,0,0,0,0-4.62Z"/><path class="cls-4" d="M258.43,576.87c-2.05-.36-4.82-1.25-5.52-2s-1.58-3.43-2-5.52a2.38,2.38,0,0,0-2.32-1.94,2.34,2.34,0,0,0-2.29,2c-.35,2.09-1.18,4.79-1.88,5.49s-3.46,1.58-5.59,2a2.34,2.34,0,0,0,0,4.62c2.12.34,4.86,1.18,5.56,1.87s1.53,3.44,1.88,5.56a2.33,2.33,0,0,0,2.29,2h0a2.36,2.36,0,0,0,2.44-2c.36-2.08,1.25-4.89,1.95-5.59s3.4-1.53,5.49-1.87a2.34,2.34,0,0,0,0-4.62Z"/><path class="cls-4" d="M974.88,381.28c-2-.36-4.82-1.25-5.52-1.95s-1.58-3.43-2-5.52a2.41,2.41,0,0,0-2.32-1.94,2.37,2.37,0,0,0-2.3,2c-.34,2.09-1.18,4.79-1.87,5.49s-3.46,1.57-5.59,1.95a2.34,2.34,0,0,0,0,4.62c2.12.34,4.86,1.18,5.56,1.87s1.53,3.44,1.87,5.56a2.35,2.35,0,0,0,2.3,2h0a2.36,2.36,0,0,0,2.31-1.94c.36-2.08,1.25-4.89,2-5.59s3.4-1.53,5.48-1.87a2.34,2.34,0,0,0,0-4.62Z"/><path class="cls-4" d="M198.2,301.17a12.19,12.19,0,0,1-4.39-1.51,12.07,12.07,0,0,1-1.52-4.4,2.33,2.33,0,0,0-2.3-1.93h0a2.37,2.37,0,0,0-2.3,2,12.07,12.07,0,0,1-1.45,4.36,12.3,12.3,0,0,1-4.45,1.51,2.35,2.35,0,0,0,0,4.63,11.88,11.88,0,0,1,4.41,1.45,11.93,11.93,0,0,1,1.45,4.42,2.35,2.35,0,0,0,2.3,2h0a2.34,2.34,0,0,0,2.31-1.93,12.11,12.11,0,0,1,1.51-4.45,11.71,11.71,0,0,1,4.37-1.46,2.34,2.34,0,0,0,0-4.62Z"/><path class="cls-6" d="M995.86,335.09A34.52,34.52,0,0,1,971.47,325L868,221.5a34.49,34.49,0,0,1,48.77-48.77l74.41,74.4L1209-64.11a34.5,34.5,0,0,1,48.11-8,34.49,34.49,0,0,1,8.42,47.57l-241.42,344.9a34.52,34.52,0,0,1-25.25,14.73Q997.36,335.17,995.86,335.09Z"/><path class="cls-4" d="M303.9,204.63c-2-.36-4.82-1.25-5.52-1.95s-1.58-3.42-1.95-5.52a2.42,2.42,0,0,0-2.33-1.94,2.34,2.34,0,0,0-2.29,2c-.35,2.09-1.18,4.79-1.88,5.49s-3.46,1.58-5.59,1.95a2.34,2.34,0,0,0,0,4.62c2.12.35,4.86,1.18,5.56,1.88s1.53,3.43,1.88,5.56a2.33,2.33,0,0,0,2.29,2h0a2.34,2.34,0,0,0,2.31-1.94c.36-2.08,1.25-4.88,1.95-5.58s3.4-1.54,5.49-1.88a2.34,2.34,0,0,0,0-4.62Z"/><path class="cls-4" d="M63.72,568.7c-2-.36-4.82-1.25-5.52-2s-1.58-3.42-2-5.52a2.41,2.41,0,0,0-2.32-1.94,2.35,2.35,0,0,0-2.3,2c-.34,2.09-1.18,4.79-1.87,5.49s-3.46,1.58-5.59,2a2.34,2.34,0,0,0,0,4.62c2.12.35,4.86,1.18,5.56,1.88s1.53,3.43,1.87,5.56a2.32,2.32,0,0,0,2.3,2h0a2.32,2.32,0,0,0,2.31-1.94c.36-2.08,1.25-4.88,2-5.58s3.4-1.54,5.49-1.88a2.34,2.34,0,0,0,0-4.62Z"/><path class="cls-7" d="M402.43,712.84a21.7,21.7,0,0,1-15.36-6.37l-65.18-65.18a21.73,21.73,0,0,1,30.72-30.72l46.87,46.87,137.22-196a21.73,21.73,0,0,1,35.61,24.9L420.23,703.56a21.76,21.76,0,0,1-15.91,9.28Q403.38,712.89,402.43,712.84Z"/><path class="cls-8" d="M1096.36,301c-2-.36-4.83-1.25-5.52-1.95s-1.58-3.43-2-5.52a2.41,2.41,0,0,0-2.32-1.94,2.37,2.37,0,0,0-2.3,2c-.34,2.09-1.17,4.79-1.87,5.49s-3.46,1.58-5.59,1.95a2.34,2.34,0,0,0,0,4.62c2.12.34,4.86,1.18,5.56,1.88s1.53,3.43,1.87,5.55a2.35,2.35,0,0,0,2.3,2h0a2.35,2.35,0,0,0,2.31-1.94c.36-2.08,1.25-4.88,2-5.59s3.4-1.53,5.49-1.87a2.34,2.34,0,0,0,0-4.62Z"/><path class="cls-4" d="M1091.4,531.12c-2.05-.36-4.82-1.25-5.52-2s-1.58-3.42-2-5.52a2.4,2.4,0,0,0-2.32-1.93,2.32,2.32,0,0,0-2.3,2c-.34,2.09-1.18,4.79-1.87,5.49s-3.46,1.58-5.59,2a2.35,2.35,0,0,0,0,4.63c2.12.34,4.86,1.17,5.56,1.87s1.53,3.43,1.87,5.56a2.34,2.34,0,0,0,2.3,2h0a2.34,2.34,0,0,0,2.31-1.94c.36-2.09,1.25-4.89,2-5.59s3.39-1.53,5.48-1.88a2.34,2.34,0,0,0,0-4.62Z"/><path class="cls-5" d="M512.29,440.34c-2-.36-4.82-1.25-5.52-1.95s-1.58-3.43-1.95-5.53a2.41,2.41,0,0,0-2.33-1.93,2.34,2.34,0,0,0-2.29,2c-.35,2.08-1.18,4.79-1.88,5.49s-3.46,1.57-5.59,1.95a2.34,2.34,0,0,0,0,4.62c2.12.34,4.86,1.18,5.56,1.87s1.53,3.44,1.88,5.56a2.34,2.34,0,0,0,2.29,2h0a2.35,2.35,0,0,0,2.31-1.94c.36-2.08,1.25-4.89,2-5.59s3.4-1.53,5.49-1.87a2.34,2.34,0,0,0,0-4.62Z"/><path class="cls-4" d="M679.5,181.24c-2-.36-4.82-1.25-5.52-2s-1.58-3.43-2-5.52a2.41,2.41,0,0,0-2.32-1.94,2.35,2.35,0,0,0-2.3,2c-.34,2.09-1.18,4.79-1.87,5.49s-3.46,1.58-5.59,2a2.34,2.34,0,0,0,0,4.62c2.12.34,4.86,1.18,5.56,1.88s1.53,3.43,1.87,5.55a2.32,2.32,0,0,0,2.3,2h0a2.32,2.32,0,0,0,2.31-1.94c.36-2.08,1.25-4.88,2-5.59s3.39-1.53,5.48-1.87a2.34,2.34,0,0,0,0-4.62Z"/><path class="cls-9" d="M802.46,244.85H482.8a24,24,0,0,0-24,24V498.74a24,24,0,0,0,24,24H810.45a16,16,0,0,0,16-16V268.82A24,24,0,0,0,802.46,244.85Z"/><path class="cls-10" d="M801.2,244.85H481.54a24,24,0,0,0-24,24V498.74a24,24,0,0,0,24,24H809.2a16,16,0,0,0,16-16V268.82A24,24,0,0,0,801.2,244.85Zm8,32H473.55v-8a8,8,0,0,1,8-8H801.2a8,8,0,0,1,8,8Z"/><path class="cls-11" d="M654.49,440a17.51,17.51,0,0,1-6.89-1.34,8.28,8.28,0,0,1-5.2-8c0-3.07,1.78-5,3.51-6.77,1.87-2,3.65-3.85,3.65-7.41,0-3-4-7.21-11.22-7.21s-10.75,4.3-10.75,7.21c0,3.55,1.83,5.42,3.76,7.4,1.78,1.82,3.62,3.7,3.62,6.78,0,6.87-6.24,9.32-12.08,9.32H598a8.46,8.46,0,0,1-8.41-8.5V408.84c0-.16-.39-5.82,2.84-9.28a8.37,8.37,0,0,1,6.45-2.59c3.12,0,4.84,1.92,6.51,3.77s3.45,3.85,7,3.85c3.18,0,6.41-3.61,6.41-10.5S615.54,384,612.35,384c-3.5,0-5.18,1.87-7,3.85s-3.39,3.79-6.51,3.79a8.32,8.32,0,0,1-6.36-2.57c-3.32-3.57-3-9.52-2.93-9.77V364.88a8.5,8.5,0,0,1,1.59-4.94,8.37,8.37,0,0,1,6.82-3.56h18c-.06,0,5.31-1,5.31-4.54,0-1.4-.78-2.25-2.15-3.64-1.89-1.91-4.24-4.28-4.24-9.58,0-4.46,2-11.94,15.83-11.94,14.82,0,16.42,8.35,16.42,11.94,0,5.32-2.57,7.71-4.64,9.62-1.49,1.38-2.34,2.23-2.34,3.6,0,3.56,5.45,4.54,5.5,4.55h19.23a8.46,8.46,0,0,1,8.42,8.5h0V375.7s.71,5.89,4.17,5.89c1.34,0,2-.76,3.27-2.22,1.61-1.93,3.82-4.56,9.18-4.56,4.68,0,12.52,2,12.52,15.64,0,15.05-9.58,16.22-12.52,16.22-5.38,0-7.59-2.79-9.2-4.82-1.22-1.55-1.93-2.36-3.25-2.36-3.48,0-4.17,5.77-4.17,5.83v26.21a8.46,8.46,0,0,1-8.42,8.5H655.2S654.92,440,654.49,440Z"/><path class="cls-12" d="M854.55,545s2.22,12.65,6.5,16.92,17,6.55,17,6.55-12.65,2-16.93,6.32-6.5,17.11-6.5,17.11-2-12.83-6.33-17.11-17.11-6.32-17.11-6.32S844,566.24,848.24,562s6.31-17,6.31-17m0-9.38h-.07a9.38,9.38,0,0,0-9.19,7.87c-.76,4.63-2.54,10.29-3.71,11.8-1.54,1.21-7.33,3.08-12.07,3.9a9.37,9.37,0,0,0,.12,18.49c4.69.76,10.41,2.54,12,3.71,1.19,1.56,3,7.28,3.71,12a9.37,9.37,0,0,0,9.19,7.89h.07a9.37,9.37,0,0,0,9.23-7.77c.84-4.74,2.71-10.54,3.9-12.07,1.51-1.16,7.17-3,11.81-3.71a9.37,9.37,0,0,0,.11-18.48c-4.69-.84-10.42-2.72-11.92-3.91-1.2-1.51-3.08-7.24-3.9-11.92a9.38,9.38,0,0,0-9.23-7.75Z"/><path class="cls-13" d="M363.26,305.07c-2.05-.36-4.82-1.25-5.52-1.95s-1.58-3.43-1.95-5.53a2.4,2.4,0,0,0-2.32-1.93,2.35,2.35,0,0,0-2.3,2c-.34,2.08-1.18,4.79-1.87,5.49s-3.46,1.57-5.59,2a2.34,2.34,0,0,0,0,4.62c2.12.34,4.86,1.18,5.56,1.87s1.53,3.44,1.87,5.56a2.34,2.34,0,0,0,2.3,2h0a2.34,2.34,0,0,0,2.31-1.94c.36-2.08,1.25-4.89,1.95-5.59s3.4-1.53,5.49-1.87a2.34,2.34,0,0,0,0-4.62Z"/><path class="cls-14" d="M111,578.93a12.21,12.21,0,0,1-4.39-1.52,12,12,0,0,1-1.52-4.39,2.36,2.36,0,0,0-2.3-1.94h0a2.37,2.37,0,0,0-2.3,2A12.07,12.07,0,0,1,99,577.44,12.32,12.32,0,0,1,94.59,579a2.34,2.34,0,0,0,0,4.62A12.08,12.08,0,0,1,99.05,585a11.93,11.93,0,0,1,1.45,4.42,2.37,2.37,0,0,0,2.3,2h0a2.36,2.36,0,0,0,2.31-1.94,12.11,12.11,0,0,1,1.51-4.45,11.69,11.69,0,0,1,4.37-1.45,2.37,2.37,0,0,0,2-2.3A2.33,2.33,0,0,0,111,578.93Z"/><path class="cls-15" d="M54.8,350.47A12,12,0,0,1,50.41,349a12,12,0,0,1-1.52-4.39,2.35,2.35,0,0,0-2.31-1.94h0a2.37,2.37,0,0,0-2.3,2A11.94,11.94,0,0,1,42.82,349a12.32,12.32,0,0,1-4.45,1.52,2.34,2.34,0,0,0,0,4.62,12.18,12.18,0,0,1,4.42,1.45A11.93,11.93,0,0,1,44.27,361a2.37,2.37,0,0,0,2.3,2h0a2.35,2.35,0,0,0,2.32-2,12.32,12.32,0,0,1,1.52-4.45,11.65,11.65,0,0,1,4.36-1.45,2.34,2.34,0,0,0,0-4.62Z"/><path class="cls-16" d="M940.7,516.22a12.36,12.36,0,0,1-8.78-3.65l-37.3-37.29a12.43,12.43,0,0,1,17.58-17.57L939,484.52l78.51-112.16a12.43,12.43,0,0,1,20.38,14.24l-87,124.31a12.43,12.43,0,0,1-9.09,5.31Z"/><path class="cls-17" d="M228.41,455.3a9,9,0,0,1-6.33-2.63l-26.85-26.86a9,9,0,0,1,12.66-12.65l19.31,19.31,56.54-80.78A9,9,0,0,1,298.42,362l-62.67,89.52a8.94,8.94,0,0,1-6.56,3.83Z"/></g></svg>