<svg id="Layer_1" data-name="Layer 1" xmlns="http://www.w3.org/2000/svg" viewBox="0 0 526.97 394.83"><title>Focus-Usability</title><path d="M396.59,353.6c58.55-21.16,78.43-91.18,50.46-169.91-30.73-86.53-202.89-110.55-272.76-96C110.8,101,69.25,172,90.34,235.35S340,374.07,396.59,353.6Z" style="fill:#ccf4ff"/><path d="M113,286.79a1.42,1.42,0,0,1-.6-.14l-12.53-6.53-12.53,6.52a1.29,1.29,0,0,1-1.36-.09,1.3,1.3,0,0,1-.55-1.25l2-14.64-9.84-10.58a1.3,1.3,0,0,1,.73-2.18l13.82-2.47,6.5-13.05a1.32,1.32,0,0,1,1.18-.73h0a1.3,1.3,0,0,1,1.17.72h0l6.5,13.05,13.83,2.47a1.3,1.3,0,0,1,1,.87,1.29,1.29,0,0,1-.28,1.31l-9.84,10.58,2,14.64a1.3,1.3,0,0,1-.54,1.25A1.32,1.32,0,0,1,113,286.79ZM80,259.64l9.31,10a1,1,0,0,1,.26.82l-1.93,13.78L99.4,278.1a1,1,0,0,1,.92,0l11.81,6.15-1.93-13.78a1,1,0,0,1,.26-.82l9.31-10-13.08-2.33a1,1,0,0,1-.72-.54L99.86,244.5l-6.11,12.27a1,1,0,0,1-.72.54Z" style="fill:#4030db"/><path d="M124.35,89.09a1.13,1.13,0,0,1-.68-.22,1.16,1.16,0,0,1-.49-1.14l1.2-8.62-5.8-6.24a1.23,1.23,0,0,1-.26-1.19,1.2,1.2,0,0,1,.92-.79l8.14-1.45,3.82-7.69a1.19,1.19,0,0,1,1.07-.66,1.17,1.17,0,0,1,1.06.66h0l3.83,7.69,8.13,1.45a1.2,1.2,0,0,1,.92.79,1.19,1.19,0,0,1-.26,1.19l-5.8,6.24,1.21,8.63A1.19,1.19,0,0,1,139.63,89l-7.36-3.83L124.9,89A1.18,1.18,0,0,1,124.35,89.09Zm.81-1.08ZM124,87.18Zm16.57,0h0ZM132.27,83a1,1,0,0,1,.46.11l6.43,3.35-1-7.54a1,1,0,0,1,.25-.82l5.12-5.49-7.17-1.28a1,1,0,0,1-.72-.54l-3.32-6.68-3.33,6.68a1,1,0,0,1-.72.54l-7.16,1.28,5.11,5.49a1,1,0,0,1,.26.82l-1.05,7.54,6.43-3.35A1,1,0,0,1,132.27,83Z" style="fill:#4030db"/><path d="M454.16,337.39a1.44,1.44,0,0,1-.67-.16L435.74,328,418,337.23a1.45,1.45,0,0,1-1.5-.1,1.43,1.43,0,0,1-.59-1.38l2.89-20.7-13.92-15a1.44,1.44,0,0,1,.8-2.4l19.58-3.49,9.2-18.48a1.41,1.41,0,0,1,1.28-.79h0a1.42,1.42,0,0,1,1.29.79h0l9.2,18.48,19.58,3.49a1.44,1.44,0,0,1,.8,2.4l-13.92,15,2.89,20.7a1.45,1.45,0,0,1-.59,1.38A1.48,1.48,0,0,1,454.16,337.39Zm-18.42-11.54a1,1,0,0,1,.47.12l17.24,9-2.81-20.09a1,1,0,0,1,.26-.82l13.54-14.57-19.05-3.4a1,1,0,0,1-.72-.54l-8.93-17.92-8.92,17.92a1,1,0,0,1-.72.54L407,299.47,420.59,314a1,1,0,0,1,.26.82L418,335l17.24-9A1,1,0,0,1,435.74,325.85Zm29.72-26.2Zm-59.43,0Zm29.21-23Z" style="fill:#4030db"/><path d="M225.73,288.78a7.9,7.9,0,0,1-8.15-7.62l-1.94-165.44a8.5,8.5,0,0,1,8.39-8.59L401.62,105a8.51,8.51,0,0,1,8.6,8.4l1.94,165.44a7.91,7.91,0,0,1-8,7.81Z" style="fill:#00c8d7"/><g id="Layer_3" data-name="Layer 3"><circle cx="233.81" cy="123.46" r="4" style="fill:#ccf4ff"/></g><g id="Layer_5" data-name="Layer 5"><circle cx="246.71" cy="123.31" r="4" style="fill:#ccf4ff"/></g><g id="Layer_6" data-name="Layer 6"><path d="M362,122.15v-.39a4.33,4.33,0,0,0-4.38-4.28l-89.25,1a4.34,4.34,0,0,0-4.28,4.38v.39a4.33,4.33,0,0,0,4.38,4.28l89.25-1A4.33,4.33,0,0,0,362,122.15Z" style="fill:#ccf4ff"/></g><g id="Layer_3-2" data-name="Layer 3"><circle cx="379.33" cy="121.75" r="4" style="fill:#ccf4ff"/></g><g id="Layer_5-2" data-name="Layer 5"><circle cx="392.24" cy="121.6" r="4" style="fill:#ccf4ff"/></g><path d="M195.59,261.78a1,1,0,0,1-.62-.23c-27.34-22-55.61-44.8-75.94-74.4C96.27,154,88.21,117,96.9,85.63c2.79-10.06,8.64-23.87,20.72-32.47,6.73-4.79,15.44-7.89,25.2-8.95a72.45,72.45,0,0,1,52.65,15.28c2.28,1.82,4.51,3.82,6.66,5.75,6.09,5.46,12.39,11.11,20.21,13,13.37,3.22,26.7-5.55,35.52-13.47,2.3-2.06,4.59-4.27,6.81-6.4,7.53-7.24,15.32-14.72,25.17-18.62,10.05-4,21.74-3.64,32.91,1a54.69,54.69,0,0,1,25.66,21.93c10.67,17.87,12.06,41.79,3.8,65.64a1,1,0,0,1-1.89-.65c8.06-23.3,6.74-46.61-3.63-64-11.8-19.76-37-29.66-56.11-22.07-9.49,3.76-17.13,11.1-24.52,18.2-2.24,2.15-4.54,4.36-6.87,6.45-9.17,8.24-23.1,17.34-37.32,13.92-8.31-2-14.8-7.81-21.07-13.44-2.14-1.91-4.35-3.89-6.58-5.68A70.46,70.46,0,0,0,143,46.2c-9.42,1-17.81,4-24.26,8.59-11.6,8.26-17.25,21.62-20,31.37C90.29,117,98.26,153.38,120.67,186c20.17,29.35,48.32,52,75.55,74a1,1,0,0,1,.15,1.4A1,1,0,0,1,195.59,261.78Z" style="fill:#4030db"/><path d="M382.49,266.32a72.93,72.93,0,1,1,72.92-72.93A73,73,0,0,1,382.49,266.32Zm0-143.86a70.93,70.93,0,1,0,70.92,70.93A71,71,0,0,0,382.49,122.46Z" style="fill:#4030db"/><path d="M382.49,252.25a58.86,58.86,0,1,1,58.86-58.86A58.93,58.93,0,0,1,382.49,252.25Zm0-115.72a56.86,56.86,0,1,0,56.86,56.86A56.93,56.93,0,0,0,382.49,136.53Z" style="fill:#4030db"/><path d="M382.49,237.33a43.94,43.94,0,1,1,43.93-43.94A44,44,0,0,1,382.49,237.33Zm0-85.88a41.94,41.94,0,1,0,41.93,41.94A42,42,0,0,0,382.49,151.45Z" style="fill:#4030db"/><path d="M168.89,331.53a7.91,7.91,0,0,1-8.15-7.62L158.8,158.47a8.5,8.5,0,0,1,8.39-8.6l177.59-2.08a8.5,8.5,0,0,1,8.59,8.39l1.95,165.44a7.9,7.9,0,0,1-8,7.81Z" style="fill:#4f42ff"/><g id="Layer_3-3" data-name="Layer 3"><circle cx="176.96" cy="166.21" r="4" style="fill:#fff"/></g><g id="Layer_5-3" data-name="Layer 5"><circle cx="189.87" cy="166.06" r="4" style="fill:#fff"/></g><g id="Layer_6-2" data-name="Layer 6"><path d="M305.14,164.9v-.39a4.33,4.33,0,0,0-4.38-4.28l-89.25,1.05a4.33,4.33,0,0,0-4.28,4.38v.39a4.33,4.33,0,0,0,4.38,4.28l89.25-1.05A4.34,4.34,0,0,0,305.14,164.9Z" style="fill:#fff"/></g><g id="Layer_3-4" data-name="Layer 3"><circle cx="322.49" cy="164.5" r="4" style="fill:#fff"/></g><g id="Layer_5-4" data-name="Layer 5"><circle cx="335.39" cy="164.35" r="4" style="fill:#fff"/></g><path d="M221.87,236.2a1.82,1.82,0,0,0-1.42-1.23l-6.85-1.23-3.24-6.49a1.91,1.91,0,0,0-3.3,0l-3.23,6.49L197,235a1.85,1.85,0,0,0-1,3.07l4.91,5.28-1,7.3a1.84,1.84,0,0,0,.75,1.77,1.81,1.81,0,0,0,1.07.34,1.84,1.84,0,0,0,.85-.21l6.2-3.23,6.19,3.23a1.84,1.84,0,0,0,2.68-1.89l-1-7.31,4.91-5.29A1.81,1.81,0,0,0,221.87,236.2Z" style="fill:#fff"/><path d="M254.1,236.2a1.84,1.84,0,0,0-1.42-1.23l-6.85-1.23-3.24-6.49a1.91,1.91,0,0,0-3.3,0l-3.23,6.49L229.2,235a1.84,1.84,0,0,0-1,3.07l4.91,5.28-1,7.3a1.84,1.84,0,0,0,2.68,1.9l6.19-3.23,6.2,3.23a1.85,1.85,0,0,0,1.91-.12,1.87,1.87,0,0,0,.77-1.77l-1-7.31,4.92-5.29A1.83,1.83,0,0,0,254.1,236.2Z" style="fill:#fff"/><path d="M286.33,236.2A1.84,1.84,0,0,0,284.9,235l-6.85-1.23-3.23-6.49a1.91,1.91,0,0,0-3.3,0l-3.23,6.49L261.43,235a1.84,1.84,0,0,0-1,3.07l4.91,5.28-1,7.3a1.83,1.83,0,0,0,.76,1.77,1.81,1.81,0,0,0,1.06.34,1.85,1.85,0,0,0,.86-.21l6.19-3.23,6.19,3.23a1.87,1.87,0,0,0,1.92-.12,1.84,1.84,0,0,0,.76-1.77l-1-7.31,4.91-5.29A1.83,1.83,0,0,0,286.33,236.2Z" style="fill:#fff"/><path d="M318.56,236.2a1.85,1.85,0,0,0-1.43-1.23l-6.85-1.23-3.23-6.49a1.91,1.91,0,0,0-3.3,0l-3.23,6.49L293.66,235a1.84,1.84,0,0,0-1,3.07l4.91,5.28-1,7.3a1.83,1.83,0,0,0,.76,1.77,1.78,1.78,0,0,0,1.06.34,1.84,1.84,0,0,0,.85-.21l6.2-3.23,6.19,3.23a1.84,1.84,0,0,0,2.68-1.89l-1-7.31,4.91-5.29A1.83,1.83,0,0,0,318.56,236.2Z" style="fill:#fff"/><circle cx="382.1" cy="205.36" r="4.52" style="fill:#fff"/><circle cx="382.07" cy="192.42" r="4.52" style="fill:#fff"/><circle cx="382.05" cy="179.48" r="4.52" style="fill:#fff"/></svg>