<svg id="Layer_1" data-name="Layer 1" xmlns="http://www.w3.org/2000/svg" xmlns:xlink="http://www.w3.org/1999/xlink" width="792.79" height="806.55" viewBox="0 0 792.79 806.55"><defs><style>.cls-1{fill:none;}.cls-2{clip-path:url(#clip-path);}.cls-3{fill:url(#linear-gradient);}.cls-4{fill:#f9f9fa;}.cls-5{fill:url(#radial-gradient);}.cls-6{fill:url(#radial-gradient-2);}.cls-7{fill:url(#linear-gradient-2);}.cls-8{fill:url(#linear-gradient-3);}.cls-9{fill:#ff848b;}.cls-10{fill:url(#linear-gradient-4);}.cls-11{fill:url(#linear-gradient-5);}.cls-12{fill:url(#linear-gradient-6);}.cls-13{fill:#ab71ff;}.cls-14{fill:url(#linear-gradient-7);}.cls-15{fill:#b1b1bc;}.cls-16{fill:url(#linear-gradient-8);}.cls-17{fill:url(#linear-gradient-9);}.cls-18{fill:url(#linear-gradient-10);}</style><clipPath id="clip-path"><rect class="cls-1" x="-0.95" y="135.77" width="751.19" height="670.98"/></clipPath><linearGradient id="linear-gradient" x1="-11.91" y1="-78.48" x2="333.69" y2="267.11" gradientTransform="matrix(1, 0, 0, -1, 0, 806)" gradientUnits="userSpaceOnUse"><stop offset="0" stop-color="#0090ed"/><stop offset="0.27" stop-color="#2a88f1"/><stop offset="0.86" stop-color="#9275fc"/><stop offset="1" stop-color="#ab71ff"/></linearGradient><radialGradient id="radial-gradient" cx="452.91" cy="80.85" r="548.4" gradientTransform="matrix(1, 0, 0, -1, 0, 806)" gradientUnits="userSpaceOnUse"><stop offset="0.4" stop-color="#cdcdd4" stop-opacity="0"/><stop offset="0.58" stop-color="#cdcdd4" stop-opacity="0.02"/><stop offset="0.77" stop-color="#cdcdd4" stop-opacity="0.08"/><stop offset="0.96" stop-color="#cdcdd4" stop-opacity="0.18"/><stop offset="1" stop-color="#cdcdd4" stop-opacity="0.2"/></radialGradient><radialGradient id="radial-gradient-2" cx="254.24" cy="438.54" r="355.33" gradientTransform="matrix(1, 0, 0, -1, 0, 806)" gradientUnits="userSpaceOnUse"><stop offset="0.26" stop-color="#cdcdd4" stop-opacity="0"/><stop offset="0.4" stop-color="#cdcdd4" stop-opacity="0.02"/><stop offset="0.55" stop-color="#cdcdd4" stop-opacity="0.08"/><stop offset="0.69" stop-color="#cdcdd4" stop-opacity="0.18"/><stop offset="0.72" stop-color="#cdcdd4" stop-opacity="0.2"/></radialGradient><linearGradient id="linear-gradient-2" x1="561.59" y1="19.26" x2="719.54" y2="177.22" gradientTransform="matrix(1, 0, 0, -1, 0, 806)" gradientUnits="userSpaceOnUse"><stop offset="0.43" stop-color="#00b3f4"/><stop offset="0.61" stop-color="#00bbf6"/><stop offset="0.89" stop-color="#00d2fc"/><stop offset="1" stop-color="#0df"/></linearGradient><linearGradient id="linear-gradient-3" x1="529.29" y1="10.22" x2="687.24" y2="168.17" gradientTransform="matrix(1, 0, 0, -1, 0, 806)" gradientUnits="userSpaceOnUse"><stop offset="0.77" stop-color="#0df"/><stop offset="0.8" stop-color="#0df" stop-opacity="0.99"/><stop offset="0.83" stop-color="#0df" stop-opacity="0.94"/><stop offset="0.86" stop-color="#0df" stop-opacity="0.87"/><stop offset="0.89" stop-color="#0df" stop-opacity="0.77"/><stop offset="0.91" stop-color="#0df" stop-opacity="0.64"/><stop offset="0.94" stop-color="#0df" stop-opacity="0.48"/><stop offset="0.97" stop-color="#0df" stop-opacity="0.28"/><stop offset="0.99" stop-color="#0df" stop-opacity="0.07"/><stop offset="1" stop-color="#0df" stop-opacity="0"/></linearGradient><linearGradient id="linear-gradient-4" x1="172.44" y1="393.89" x2="307.81" y2="529.26" gradientTransform="matrix(1, 0, 0, -1, 0, 806)" gradientUnits="userSpaceOnUse"><stop offset="0" stop-color="#c689ff"/><stop offset="1" stop-color="#d74cf0"/></linearGradient><linearGradient id="linear-gradient-5" x1="103.69" y1="311.41" x2="333.46" y2="541.18" gradientTransform="matrix(1, 0, 0, -1, 0, 806)" gradientUnits="userSpaceOnUse"><stop offset="0.22" stop-color="#b833e1"/><stop offset="0.91" stop-color="#ff4f5e"/></linearGradient><linearGradient id="linear-gradient-6" x1="195.92" y1="242.49" x2="477.16" y2="523.74" gradientTransform="matrix(1, 0, 0, -1, 0, 806)" gradientUnits="userSpaceOnUse"><stop offset="0.28" stop-color="#7542e5"/><stop offset="0.42" stop-color="#824deb"/><stop offset="0.79" stop-color="#a067fa"/><stop offset="1" stop-color="#ab71ff"/></linearGradient><linearGradient id="linear-gradient-7" x1="313.15" y1="42.72" x2="428.83" y2="158.4" gradientTransform="matrix(1, 0, 0, -1, 0, 806)" gradientUnits="userSpaceOnUse"><stop offset="0" stop-color="#00b3f4"/><stop offset="0.58" stop-color="#1abdc2"/><stop offset="1" stop-color="#2ac3a2"/></linearGradient><linearGradient id="linear-gradient-8" x1="487.86" y1="310.13" x2="591.59" y2="413.86" gradientTransform="matrix(1, 0, 0, -1, 0, 806)" gradientUnits="userSpaceOnUse"><stop offset="0" stop-color="#ff7139"/><stop offset="1" stop-color="#ffa436"/></linearGradient><linearGradient id="linear-gradient-9" x1="550.72" y1="235.12" x2="654.45" y2="338.85" xlink:href="#linear-gradient-7"/><linearGradient id="linear-gradient-10" x1="439.28" y1="160.11" x2="543.01" y2="263.83" gradientTransform="matrix(1, 0, 0, -1, 0, 806)" gradientUnits="userSpaceOnUse"><stop offset="0" stop-color="#7542e5"/><stop offset="0.39" stop-color="#8b55f0"/><stop offset="1" stop-color="#ab71ff"/></linearGradient></defs><title>header-v2-a</title><g class="cls-2"><path class="cls-3" d="M319,607.39a29.19,29.19,0,0,0-24.17-28.93L184,559.46l-3.64-.63-3.65.63-110.89,19a29.23,29.23,0,0,0-24.13,28.9c-.08,32.67.2,75.81,2,95.87,5.44,59.92,16.45,92.61,43.6,129.54,31.39,42.66,76.3,53.41,89.32,55.69l3.72.66,3.72-.65c13-2.28,57.89-13,89.29-55.71,27.16-36.92,38.16-69.6,43.61-129.53h0C318.76,683,319,640,319,607.39Z"/><path class="cls-4" d="M180.29,660.71a55.18,55.18,0,1,0,55.18,55.18h0a55.17,55.17,0,0,0-55.16-55.18Zm0,15.76a23.65,23.65,0,1,1-23.65,23.65,23.65,23.65,0,0,1,23.65-23.65ZM212.72,738a39.06,39.06,0,0,1-64.87,0,7.94,7.94,0,0,1,.54-9.68c8.33-9.62,19.89,3.33,31.9,3.33s23.56-12.95,31.9-3.33A8,8,0,0,1,212.72,738Z"/><circle class="cls-5" cx="336.9" cy="542.59" r="288.25"/><path class="cls-6" d="M251.13,210.74a32.92,32.92,0,0,1-32.8,32.93H86.49a25.17,25.17,0,1,1,6-49.58,26,26,0,0,1,40-27.25,43.64,43.64,0,0,1,85.86,11A32.93,32.93,0,0,1,251.13,210.74Z"/><path class="cls-7" d="M699.15,823.83l-130.66.54A19.37,19.37,0,0,1,549,805.12v0l-.74-179.53a19.41,19.41,0,0,1,19.32-19.48h0l81.37-.34a19.38,19.38,0,0,1,13.73,5.61l49.46,48.9a19.48,19.48,0,0,1,5.8,13.75l.54,130.38A19.39,19.39,0,0,1,699.15,823.83Z"/><path class="cls-8" d="M711.46,662,662,613.13a19.41,19.41,0,0,0-13.72-5.6h-3.16l.22,53.63a19.36,19.36,0,0,0,19.44,19.28h0l52.45-.21v-4.48A19.42,19.42,0,0,0,711.46,662Z"/><path class="cls-4" d="M598.75,670.1a1,1,0,0,0-.07-.76l-1.94-3.44a.94.94,0,0,0-.62-.46,1,1,0,0,0-.75.17l-4.5,3.37.7-5.58a1,1,0,0,0-.22-.73.94.94,0,0,0-.7-.32h-4a.94.94,0,0,0-.92,1v0l.7,5.57-4.5-3.41a.89.89,0,0,0-.74-.17.91.91,0,0,0-.62.44l-2,3.39a.92.92,0,0,0-.08.76.91.91,0,0,0,.51.56l5.22,2.26L579,675a.94.94,0,0,0-.52.55,1,1,0,0,0,.07.76l1.94,3.45a.92.92,0,0,0,.62.45.88.88,0,0,0,.75-.17l4.55-3.42-.7,5.64a.92.92,0,0,0,.23.73.91.91,0,0,0,.69.31h4a.93.93,0,0,0,.7-.31,1,1,0,0,0,.22-.73l-.69-5.6,4.37,3.38a.92.92,0,0,0,.75.17,1,1,0,0,0,.62-.43l2-3.45a.9.9,0,0,0,.08-.77.92.92,0,0,0-.53-.56l-5.2-2.16,5.2-2.16A.94.94,0,0,0,598.75,670.1Z"/><path class="cls-4" d="M628.59,670.1a1,1,0,0,0-.07-.76l-1.94-3.44a.94.94,0,0,0-.62-.46,1,1,0,0,0-.75.17l-4.5,3.37.7-5.58a.94.94,0,0,0-.88-1h-4a.94.94,0,0,0-.92,1v0l.7,5.57-4.5-3.41a.89.89,0,0,0-.74-.17.91.91,0,0,0-.62.44l-2,3.39a.89.89,0,0,0-.08.76.91.91,0,0,0,.51.56l5.22,2.26-5.19,2.2a.94.94,0,0,0-.52.55.92.92,0,0,0,.07.76l1.94,3.45a.92.92,0,0,0,.62.45.88.88,0,0,0,.75-.17l4.55-3.42-.7,5.64a.92.92,0,0,0,.23.73.91.91,0,0,0,.69.31h4a.91.91,0,0,0,.69-.31.92.92,0,0,0,.23-.73l-.7-5.6L625.1,680a.89.89,0,0,0,.74.17,1,1,0,0,0,.63-.43l2-3.45a1,1,0,0,0,.08-.77A.94.94,0,0,0,628,675l-5.2-2.16,5.2-2.16A.94.94,0,0,0,628.59,670.1Z"/><path class="cls-4" d="M598.75,701.08a1,1,0,0,0-.07-.76l-1.94-3.44a.94.94,0,0,0-.62-.46,1,1,0,0,0-.75.17l-4.5,3.37.7-5.58a.94.94,0,0,0-.86-1h-4.06a.94.94,0,0,0-.92,1v0l.7,5.57-4.5-3.41a.89.89,0,0,0-.74-.17.91.91,0,0,0-.62.44l-2,3.39a.92.92,0,0,0-.08.76.91.91,0,0,0,.51.56l5.22,2.26L579,706a.94.94,0,0,0-.52.55,1,1,0,0,0,.07.76l1.94,3.45a1,1,0,0,0,.62.45.92.92,0,0,0,.75-.17l4.55-3.42-.7,5.64a.92.92,0,0,0,.23.73.91.91,0,0,0,.69.31h4a.93.93,0,0,0,.7-.31,1,1,0,0,0,.22-.73l-.69-5.6,4.37,3.38a1,1,0,0,0,.75.17.91.91,0,0,0,.62-.44l2-3.44a.94.94,0,0,0-.45-1.34L593,703.8l5.2-2.16A1,1,0,0,0,598.75,701.08Z"/><path class="cls-4" d="M628.59,701.08a1,1,0,0,0-.07-.76l-1.94-3.44a.94.94,0,0,0-.62-.46,1,1,0,0,0-.75.17l-4.5,3.37.7-5.58a.94.94,0,0,0-.88-1h-4a.94.94,0,0,0-.92,1v0l.7,5.57-4.5-3.41a.89.89,0,0,0-.74-.17.91.91,0,0,0-.62.44l-2,3.39a.89.89,0,0,0-.08.76.91.91,0,0,0,.51.56l5.22,2.26L608.87,706a.94.94,0,0,0-.52.55.92.92,0,0,0,.07.76l1.94,3.45a1,1,0,0,0,.62.45.92.92,0,0,0,.75-.17l4.55-3.42-.7,5.64a.92.92,0,0,0,.23.73.91.91,0,0,0,.69.31h4a.91.91,0,0,0,.69-.31.92.92,0,0,0,.23-.73l-.7-5.6L625.1,711a.93.93,0,0,0,.74.17,1,1,0,0,0,.63-.44l2-3.44A.94.94,0,0,0,628,706l-5.2-2.15,5.2-2.16A1,1,0,0,0,628.59,701.08Z"/><path class="cls-4" d="M658.42,701.08a.88.88,0,0,0-.07-.76l-1.93-3.44a1,1,0,0,0-.62-.46,1,1,0,0,0-.75.17l-4.5,3.37.7-5.58a.94.94,0,0,0-.88-1h-4a.94.94,0,0,0-.7.32,1,1,0,0,0-.22.73l.7,5.57-4.5-3.41a.89.89,0,0,0-.74-.17.91.91,0,0,0-.62.44l-2,3.39a.91.91,0,0,0,.3,1.25l.13.07,5.21,2.26-5.2,2.18a.91.91,0,0,0-.5,1.2.54.54,0,0,0,0,.11l1.94,3.45a.93.93,0,0,0,1.27.35l.1-.07,4.55-3.42-.7,5.64a1,1,0,0,0,.22.73.93.93,0,0,0,.7.31h4A.89.89,0,0,0,651,714a.94.94,0,0,0,.23-.73l-.7-5.6,4.38,3.38a.93.93,0,0,0,.74.17,1,1,0,0,0,.63-.44l2-3.44a.94.94,0,0,0,.09-.77,1,1,0,0,0-.53-.57l-5.2-2.15,5.2-2.16A1,1,0,0,0,658.42,701.08Z"/><path class="cls-4" d="M688.26,701.08a.92.92,0,0,0-.07-.76l-1.94-3.44a1,1,0,0,0-.61-.46,1,1,0,0,0-.75.17l-4.5,3.37.7-5.58a.94.94,0,0,0-.88-1h-4a.94.94,0,0,0-.7.32.89.89,0,0,0-.22.73L676,700l-4.49-3.41a.89.89,0,0,0-.74-.17.91.91,0,0,0-.62.44l-2,3.39a.91.91,0,0,0,.3,1.25l.13.07,5.21,2.26-5.2,2.18a.89.89,0,0,0-.52.55.92.92,0,0,0,.07.76l1.94,3.45a.92.92,0,0,0,.62.45.89.89,0,0,0,.74-.17l4.56-3.42-.7,5.64a1,1,0,0,0,.22.73.93.93,0,0,0,.7.31h4a.91.91,0,0,0,.69-.31.92.92,0,0,0,.23-.73l-.7-5.6,4.38,3.38a.93.93,0,0,0,.74.17,1,1,0,0,0,.63-.44l2-3.44a.94.94,0,0,0,.09-.77,1,1,0,0,0-.53-.57l-5.2-2.15,5.2-2.16A.94.94,0,0,0,688.26,701.08Z"/><path class="cls-4" d="M598.75,732.06a1,1,0,0,0-.07-.76l-1.94-3.45a.93.93,0,0,0-1.27-.35l-.1.07-4.5,3.37.7-5.59a1,1,0,0,0-.22-.73.93.93,0,0,0-.7-.31h-4a.91.91,0,0,0-.69.31.92.92,0,0,0-.23.73l.7,5.57-4.5-3.4a.94.94,0,0,0-.74-.18,1,1,0,0,0-.62.45l-2,3.39a.92.92,0,0,0,.34,1.27l.09,0,5.22,2.26L579,736.93a1,1,0,0,0-.52.56,1,1,0,0,0,.07.76l1.94,3.44a.94.94,0,0,0,.62.46,1,1,0,0,0,.75-.17l4.55-3.42-.7,5.64a.94.94,0,0,0,.92,1h4a.93.93,0,0,0,.92-1l-.69-5.61,4.37,3.38a.92.92,0,0,0,1.3-.16.61.61,0,0,0,.07-.1l2-3.44a.94.94,0,0,0-.45-1.34l-5.2-2.16,5.2-2.15A1,1,0,0,0,598.75,732.06Z"/><path class="cls-4" d="M628.59,732.06a1,1,0,0,0-.07-.76l-1.94-3.45a.93.93,0,0,0-1.27-.35l-.1.07-4.5,3.37.7-5.59a.92.92,0,0,0-.23-.73.91.91,0,0,0-.69-.31h-4a.91.91,0,0,0-.69.31.92.92,0,0,0-.23.73l.7,5.57-4.5-3.4a.94.94,0,0,0-.74-.18,1,1,0,0,0-.62.45l-2,3.39a.89.89,0,0,0-.08.76.91.91,0,0,0,.51.56l5.22,2.26-5.21,2.17a1,1,0,0,0-.52.56.92.92,0,0,0,.07.76l1.94,3.44a1,1,0,0,0,.62.46,1,1,0,0,0,.75-.17l4.55-3.42-.7,5.64a.94.94,0,0,0,.92,1h4a.94.94,0,0,0,.92-1l-.7-5.61,4.38,3.38a.9.9,0,0,0,.74.18,1,1,0,0,0,.63-.44l2-3.44a.94.94,0,0,0-.45-1.34l-5.2-2.16,5.2-2.15A1,1,0,0,0,628.59,732.06Z"/><path class="cls-4" d="M658.42,732.06a.88.88,0,0,0-.07-.76l-1.93-3.45a1,1,0,0,0-.62-.45,1,1,0,0,0-.75.17l-4.5,3.37.7-5.59a.92.92,0,0,0-.23-.73.91.91,0,0,0-.69-.31h-4a.93.93,0,0,0-.7.31,1,1,0,0,0-.22.73l.7,5.57-4.5-3.4a.94.94,0,0,0-.74-.18,1,1,0,0,0-.62.45l-2,3.39a.91.91,0,0,0,.3,1.25l.13.07,5.21,2.26-5.2,2.17a1,1,0,0,0-.52.56.92.92,0,0,0,.07.76l1.94,3.44a.91.91,0,0,0,.62.46,1,1,0,0,0,.75-.17l4.55-3.42-.7,5.64a.93.93,0,0,0,.92,1h4a.94.94,0,0,0,.92-1l-.7-5.61,4.38,3.38a.9.9,0,0,0,.74.18,1,1,0,0,0,.63-.44l2-3.44A.93.93,0,0,0,658,737l-.12-.06-5.2-2.16,5.2-2.15A1,1,0,0,0,658.42,732.06Z"/><path class="cls-4" d="M688.26,732.06a.92.92,0,0,0-.07-.76l-1.94-3.45a.94.94,0,0,0-.61-.45,1,1,0,0,0-.75.17l-4.5,3.37.7-5.59a.92.92,0,0,0-.23-.73.91.91,0,0,0-.69-.31h-4a.92.92,0,0,0-.92.92v.08l.69,5.57-4.49-3.4a.94.94,0,0,0-.74-.18,1,1,0,0,0-.62.45l-2,3.39a.91.91,0,0,0,.3,1.25l.13.07,5.21,2.26-5.2,2.17a.93.93,0,0,0-.49,1.23.36.36,0,0,0,0,.09l1.94,3.44a.91.91,0,0,0,.62.46.93.93,0,0,0,.74-.17l4.56-3.42-.7,5.64a.93.93,0,0,0,.92,1h4a.94.94,0,0,0,.92-1l-.7-5.61,4.38,3.38a.9.9,0,0,0,.74.18,1,1,0,0,0,.63-.44l2-3.44a.93.93,0,0,0-.32-1.28l-.12-.06-5.2-2.16,5.2-2.15A.92.92,0,0,0,688.26,732.06Z"/><path class="cls-4" d="M598.75,763a1,1,0,0,0-.07-.76l-1.94-3.45a.93.93,0,0,0-1.27-.35l-.1.07-4.5,3.37.7-5.59a1,1,0,0,0-.22-.73.93.93,0,0,0-.7-.31h-4a.91.91,0,0,0-.69.31.92.92,0,0,0-.23.73l.7,5.57-4.5-3.41a.93.93,0,0,0-1.3.18l-.06.09-2,3.4a.92.92,0,0,0-.08.76.94.94,0,0,0,.51.56l5.22,2.26L579,767.91a1,1,0,0,0-.52.56,1,1,0,0,0,.07.76l1.94,3.44a.94.94,0,0,0,.62.46,1,1,0,0,0,.75-.17l4.55-3.43-.7,5.64a.94.94,0,0,0,.82,1h4.1a.94.94,0,0,0,.7-.32,1,1,0,0,0,.22-.73l-.69-5.6,4.37,3.38a.92.92,0,0,0,1.3-.16.61.61,0,0,0,.07-.1l2-3.45a.89.89,0,0,0,.08-.76.91.91,0,0,0-.53-.57l-5.2-2.16,5.2-2.16A.93.93,0,0,0,598.75,763Z"/><path class="cls-4" d="M628.59,763a1,1,0,0,0-.07-.76l-1.94-3.45a.93.93,0,0,0-1.27-.35l-.1.07-4.5,3.37.7-5.59a.92.92,0,0,0-.23-.73.91.91,0,0,0-.69-.31h-4a.91.91,0,0,0-.69.31.92.92,0,0,0-.23.73l.7,5.57-4.5-3.41a.93.93,0,0,0-1.3.18l-.06.09-2,3.4a.89.89,0,0,0-.08.76.94.94,0,0,0,.51.56l5.22,2.26-5.21,2.17a1,1,0,0,0-.52.56.92.92,0,0,0,.07.76l1.94,3.44a.94.94,0,0,0,.62.46,1,1,0,0,0,.75-.17l4.55-3.43-.7,5.64a.94.94,0,0,0,.82,1h4.1a1,1,0,0,0,.93-.95s0-.07,0-.1l-.7-5.6,4.38,3.38a.9.9,0,0,0,.74.18,1,1,0,0,0,.63-.44l2-3.45a.93.93,0,0,0-.33-1.27l-.12-.06-5.2-2.16,5.2-2.16A.92.92,0,0,0,628.59,763Z"/><path class="cls-4" d="M658.42,763a.88.88,0,0,0-.07-.76l-1.93-3.45a1,1,0,0,0-.62-.45.92.92,0,0,0-.75.17l-4.5,3.37.7-5.59a.92.92,0,0,0-.23-.73.91.91,0,0,0-.69-.31h-4a.93.93,0,0,0-.7.31,1,1,0,0,0-.22.73l.7,5.57-4.5-3.41a1,1,0,0,0-.74-.17.93.93,0,0,0-.62.44l-2,3.4a.93.93,0,0,0-.09.76,1,1,0,0,0,.52.56l5.21,2.26-5.2,2.17a1,1,0,0,0-.52.56.92.92,0,0,0,.07.76l1.94,3.44a.91.91,0,0,0,.62.46,1,1,0,0,0,.75-.17l4.55-3.43-.7,5.64a1,1,0,0,0,.22.73.94.94,0,0,0,.7.32h4a1,1,0,0,0,.93-.95s0-.07,0-.1l-.7-5.6,4.38,3.38a.9.9,0,0,0,.74.18,1,1,0,0,0,.63-.44l2-3.45a.93.93,0,0,0,.09-.76,1,1,0,0,0-.53-.57l-5.2-2.16,5.2-2.16A.87.87,0,0,0,658.42,763Z"/><path class="cls-4" d="M688.26,763a.92.92,0,0,0-.07-.76l-1.94-3.45a.9.9,0,0,0-.61-.45.92.92,0,0,0-.75.17l-4.5,3.37.7-5.59a.92.92,0,0,0-.23-.73.91.91,0,0,0-.69-.31h-4a.92.92,0,0,0-.92.92v.08l.69,5.57-4.49-3.41a1,1,0,0,0-.74-.17.93.93,0,0,0-.62.44l-2,3.4a.93.93,0,0,0-.09.76,1,1,0,0,0,.52.56l5.21,2.26-5.2,2.17a.94.94,0,0,0-.49,1.24.59.59,0,0,0,0,.08l1.94,3.44a.91.91,0,0,0,.62.46.93.93,0,0,0,.74-.17l4.56-3.43-.7,5.64a1,1,0,0,0,.22.73.94.94,0,0,0,.7.32h4a1,1,0,0,0,.93-.95s0-.07,0-.1l-.7-5.6,4.38,3.38a.9.9,0,0,0,.74.18,1,1,0,0,0,.63-.44l2-3.45a.93.93,0,0,0,.09-.76,1,1,0,0,0-.53-.57l-5.2-2.16,5.2-2.16A.88.88,0,0,0,688.26,763Z"/></g><rect class="cls-9" x="209.86" y="403.25" width="67.96" height="19.7"/><rect class="cls-10" x="158.6" y="290.58" width="163.05" height="107.69"/><path class="cls-11" d="M339.37,409.14h-4.44V286.77a8.8,8.8,0,0,0-8.78-8.8H154.27a8.8,8.8,0,0,0-8.8,8.8h0V409.14H141a4.38,4.38,0,0,0-4.38,4.38h0v8.87a4.38,4.38,0,0,0,4.38,4.38H339.37a4.38,4.38,0,0,0,4.38-4.38h0v-8.87a4.38,4.38,0,0,0-4.38-4.38ZM257.84,418H222.56v-8.81h35.28Z"/><path class="cls-4" d="M263.22,326.09a14.27,14.27,0,0,0-20.15,0L240.2,329l-2.87-2.87A14.25,14.25,0,1,0,216.86,346c.1.11.21.21.32.32l20.57,20.56a3.46,3.46,0,0,0,4.88,0l0,0,20.57-20.56a14.26,14.26,0,0,0,0-20.18Z"/><rect class="cls-12" x="298.13" y="342.5" width="94.72" height="142.85" rx="5.4"/><rect class="cls-13" x="336.52" y="462.07" width="17.64" height="8.82"/><path class="cls-4" d="M368.36,386.05a14.27,14.27,0,0,0-20.15,0l-2.88,2.87-2.86-2.87a14.24,14.24,0,1,0-20.15,20.14l20.56,20.57a3.46,3.46,0,0,0,4.89,0l0,0,20.57-20.57c5.75-5.38,6.37-14.06,1-19.81A.88.88,0,0,0,368.36,386.05Z"/><path class="cls-14" d="M404.11,669.48v25c0,8.43,1.63,11,5.3,11,5.4,0,9.08-5.43,9.08-21.6,0-17.88-10.3-29.13-31.72-29.13-22.13,0-34.88,15-34.88,36.16,0,21.6,12.24,35.66,35,35.66a62.41,62.41,0,0,0,19.89-3.51l3.57,10a69.37,69.37,0,0,1-23.56,4.22c-29.07,0-48.24-18.09-48.24-46.31,0-27.12,20.09-46.91,48.24-46.91,28.86,0,45,18.89,45,39.57,0,17.78-8.17,31-21.83,31-8.16,0-12.34-5.53-13.36-10.25-2.45,5.42-7.14,9.84-14.69,9.84-12.44,0-18.36-9.44-18.36-22.39,0-16.78,8.78-26.93,23.36-26.93A36.62,36.62,0,0,1,404.11,669.48Zm-12.34,29.73V675.3a12.77,12.77,0,0,0-5.31-1.1c-6.12,0-9.79,4.92-9.79,17.78,0,9.44,2.24,13.25,7,13.25s7-3.41,8.1-6Z"/><path class="cls-15" d="M498.17,513.76a5.45,5.45,0,0,1-5.46,5.46h0c-4.42,0-6.39,1.78-9.37,4.48-3.6,3.26-8.08,7.31-16.7,7.31s-13.11-4-16.71-7.31c-3-2.7-4.95-4.48-9.37-4.48s-6.38,1.78-9.36,4.48c-3.6,3.26-8.08,7.31-16.7,7.31s-13.1-4-16.69-7.31c-3-2.7-5-4.48-9.37-4.48s-6.38,1.78-9.37,4.48c-3.6,3.3-8.07,7.3-16.69,7.3s-13.09-4-16.69-7.31c-3-2.7-4.95-4.48-9.36-4.48S330,521,327,523.7c-3.6,3.26-8.07,7.31-16.69,7.31s-13.09-4-16.69-7.31c-3-2.7-5-4.48-9.37-4.48s-6.38,1.78-9.36,4.48c-3.6,3.26-8.07,7.31-16.69,7.31s-13.1-4-16.69-7.31c-3-2.7-5-4.48-9.37-4.48s-6.38,1.78-9.36,4.48c-3.6,3.26-8.07,7.31-16.69,7.31s-13.1-4-16.69-7.31c-3-2.7-5-4.48-9.36-4.48s-6.38,1.78-9.36,4.48c-3.63,3.3-8.11,7.3-16.68,7.3s-13.1-4-16.7-7.31c-3-2.7-5-4.48-9.36-4.48a5.46,5.46,0,1,1,0-10.92h0c8.62,0,13.1,4.05,16.69,7.31,3,2.7,5,4.48,9.37,4.48s6.38-1.78,9.36-4.48c3.59-3.26,8.07-7.31,16.69-7.31s13.09,4.05,16.69,7.31c3,2.7,5,4.48,9.36,4.48s6.38-1.78,9.36-4.48c3.6-3.26,8.07-7.31,16.69-7.31s13.1,4.05,16.69,7.31c3,2.7,5,4.48,9.37,4.48s6.38-1.78,9.36-4.48c3.6-3.26,8.08-7.31,16.69-7.31s13.1,4.05,16.7,7.31c3,2.7,5,4.48,9.36,4.48s6.38-1.78,9.36-4.48c3.6-3.26,8.07-7.31,16.69-7.31s13.09,4.05,16.69,7.31c3,2.7,5,4.48,9.36,4.48s6.38-1.78,9.36-4.48c3.6-3.26,8.08-7.31,16.7-7.31s13.1,4.05,16.69,7.31c3,2.7,5,4.48,9.37,4.48s6.38-1.78,9.37-4.48c3.6-3.26,8.07-7.31,16.69-7.31s13.1,4.05,16.7,7.31c3,2.7,5,4.48,9.38,4.48s6.38-1.78,9.37-4.48c3.6-3.26,8.08-7.31,16.7-7.31A5.45,5.45,0,0,1,498.17,513.76Z"/><path class="cls-16" d="M476.4,475.47H603.05a21.71,21.71,0,0,0,21.65-21.64V434.18a21.71,21.71,0,0,0-21.65-21.64H476.4a21.71,21.71,0,0,0-21.65,21.64v19.65A21.71,21.71,0,0,0,476.4,475.47ZM566.3,441a1.21,1.21,0,0,1-.64-1.6.61.61,0,0,1,.07-.14l2.62-4.46a1.21,1.21,0,0,1,.82-.57,1.19,1.19,0,0,1,1,.22L576,439l-.91-7.32a1.21,1.21,0,0,1,.29-1,1.23,1.23,0,0,1,.92-.41h5.23a1.23,1.23,0,0,1,.92.41,1.21,1.21,0,0,1,.29,1l-.91,7.34,5.91-4.43a1.23,1.23,0,0,1,1.71.25l.08.12,2.55,4.53a1.25,1.25,0,0,1,.09,1,1.19,1.19,0,0,1-.69.73L584.69,444l6.83,2.83a1.23,1.23,0,0,1,.69.74,1.17,1.17,0,0,1-.1,1l-2.69,4.53a1.25,1.25,0,0,1-.82.58,1.24,1.24,0,0,1-1-.24L581.87,449l.91,7.36a1.21,1.21,0,0,1-.29,1,1.23,1.23,0,0,1-.92.41h-5.23a1.23,1.23,0,0,1-.92-.41,1.21,1.21,0,0,1-.29-1l.92-7.41-6,4.5a1.22,1.22,0,0,1-1.71-.23l-.09-.14-2.55-4.53a1.25,1.25,0,0,1-.09-1,1.22,1.22,0,0,1,.68-.73l6.84-2.86Zm-39.2,0a1.23,1.23,0,0,1-.67-.74,1.21,1.21,0,0,1,.11-1l2.61-4.46a1.21,1.21,0,0,1,.82-.57,1.19,1.19,0,0,1,1,.22l5.91,4.48-.92-7.32a1.25,1.25,0,0,1,.3-1,1.21,1.21,0,0,1,.91-.41h5.24a1.22,1.22,0,0,1,1.22,1.22.76.76,0,0,1,0,.15l-.92,7.34,5.91-4.43a1.27,1.27,0,0,1,1-.22,1.22,1.22,0,0,1,.81.59l2.54,4.53a1.21,1.21,0,0,1,.1,1,1.27,1.27,0,0,1-.69.73L545.49,444l6.84,2.83a1.22,1.22,0,0,1,.66,1.59.8.8,0,0,1-.08.16l-2.69,4.53a1.25,1.25,0,0,1-.82.58,1.24,1.24,0,0,1-1-.24L542.68,449l.91,7.36a1.22,1.22,0,0,1-1.06,1.36h-5.39a1.21,1.21,0,0,1-.91-.41,1.25,1.25,0,0,1-.3-1l.92-7.41-6,4.5a1.19,1.19,0,0,1-1,.22A1.27,1.27,0,0,1,529,453l-2.54-4.53a1.17,1.17,0,0,1-.09-1,1.22,1.22,0,0,1,.68-.73L534,444Zm-39.19,0a1.21,1.21,0,0,1-.64-1.6.61.61,0,0,1,.07-.14L490,434.8a1.17,1.17,0,0,1,.81-.57,1.19,1.19,0,0,1,1,.22l5.9,4.48-.91-7.32a1.21,1.21,0,0,1,.29-1,1.23,1.23,0,0,1,.92-.41h5.23a1.23,1.23,0,0,1,.92.41,1.21,1.21,0,0,1,.29,1L503.5,439l5.91-4.43a1.23,1.23,0,0,1,1.71.25.5.5,0,0,1,.08.12l2.55,4.53a1.25,1.25,0,0,1,.09,1,1.19,1.19,0,0,1-.69.73L506.3,444l6.83,2.83a1.23,1.23,0,0,1,.69.74,1.17,1.17,0,0,1-.1,1L511,453.12a1.25,1.25,0,0,1-.82.58,1.24,1.24,0,0,1-1-.24l-5.7-4.46.91,7.36a1.21,1.21,0,0,1-.29,1,1.23,1.23,0,0,1-.92.41H498a1.23,1.23,0,0,1-.92-.41,1.21,1.21,0,0,1-.29-1l.92-7.41-6,4.5a1.22,1.22,0,0,1-1.71-.23l-.09-.14-2.55-4.53a1.25,1.25,0,0,1-.09-1,1.22,1.22,0,0,1,.68-.73l6.84-2.86Z"/><path class="cls-17" d="M665.91,487.55H539.25a21.71,21.71,0,0,0-21.64,21.65v19.64a21.71,21.71,0,0,0,21.64,21.64H665.91a21.71,21.71,0,0,0,21.65-21.64V509.2A21.71,21.71,0,0,0,665.91,487.55ZM576,521.85a1.23,1.23,0,0,1,.66,1.6,1.09,1.09,0,0,1-.08.15l-2.69,4.53a1.22,1.22,0,0,1-1.67.43l-.12-.08L566.34,524l.91,7.35a1.21,1.21,0,0,1-.29,1,1.25,1.25,0,0,1-.92.41H560.8a1.21,1.21,0,0,1-.91-.41,1.25,1.25,0,0,1-.3-1l.92-7.41-6,4.5a1.13,1.13,0,0,1-1,.22,1.19,1.19,0,0,1-.81-.59l-2.55-4.53a1.21,1.21,0,0,1,.45-1.65l.14-.07,6.84-2.86-6.85-3a1.24,1.24,0,0,1-.68-.74,1.21,1.21,0,0,1,.11-1l2.62-4.45a1.22,1.22,0,0,1,1.67-.44l.12.08,5.9,4.48-.92-7.32a1.25,1.25,0,0,1,.3-1,1.21,1.21,0,0,1,.91-.41H566a1.25,1.25,0,0,1,.92.41,1.21,1.21,0,0,1,.29,1l-.92,7.34,5.92-4.43a1.19,1.19,0,0,1,1-.22,1.21,1.21,0,0,1,.81.6l2.55,4.53a1.25,1.25,0,0,1,.09,1,1.27,1.27,0,0,1-.69.73L569.15,519Zm39.2,0a1.22,1.22,0,0,1,.58,1.75l-2.69,4.53a1.25,1.25,0,0,1-.82.58,1.23,1.23,0,0,1-1-.23L605.53,524l.92,7.35a1.25,1.25,0,0,1-.3,1,1.21,1.21,0,0,1-.91.41H600a1.22,1.22,0,0,1-1.22-1.22.76.76,0,0,1,0-.15l.92-7.41-6,4.5a1.19,1.19,0,0,1-1,.22,1.22,1.22,0,0,1-.81-.59l-2.55-4.53a1.25,1.25,0,0,1-.09-1,1.23,1.23,0,0,1,.69-.72l6.83-2.86L590,516a1.23,1.23,0,0,1-.67-.74,1.25,1.25,0,0,1,.1-1l2.62-4.45a1.25,1.25,0,0,1,.82-.58,1.19,1.19,0,0,1,1,.22l5.9,4.48-.91-7.32a1.21,1.21,0,0,1,1-1.36h5.41a1.21,1.21,0,0,1,.91.41,1.25,1.25,0,0,1,.3,1L605.6,514l5.91-4.43a1.2,1.2,0,0,1,1-.22,1.19,1.19,0,0,1,.81.6l2.55,4.53a1.17,1.17,0,0,1,.09,1,1.2,1.2,0,0,1-.68.73l-6.93,2.8Zm39.19,0a1.23,1.23,0,0,1,.66,1.6,1.09,1.09,0,0,1-.08.15l-2.69,4.53a1.22,1.22,0,0,1-1.67.43l-.12-.08L644.73,524l.91,7.35a1.22,1.22,0,0,1-1.06,1.36h-5.39a1.21,1.21,0,0,1-.91-.41,1.25,1.25,0,0,1-.3-1l.92-7.41-6,4.5a1.13,1.13,0,0,1-1,.22,1.19,1.19,0,0,1-.81-.59l-2.55-4.53a1.21,1.21,0,0,1,.45-1.65l.14-.07L636,519l-6.85-3a1.24,1.24,0,0,1-.68-.74,1.21,1.21,0,0,1,.11-1l2.62-4.45a1.22,1.22,0,0,1,1.67-.44l.12.08,5.9,4.48-.92-7.32a1.25,1.25,0,0,1,.3-1,1.21,1.21,0,0,1,.91-.41h5.24a1.25,1.25,0,0,1,.92.41,1.21,1.21,0,0,1,.29,1l-.92,7.34,5.92-4.43a1.19,1.19,0,0,1,1-.22,1.21,1.21,0,0,1,.81.6l2.55,4.53a1.25,1.25,0,0,1,.09,1,1.27,1.27,0,0,1-.69.73L647.54,519Z"/><path class="cls-18" d="M554.48,562.56H427.82a21.71,21.71,0,0,0-21.65,21.65v19.64a21.71,21.71,0,0,0,21.65,21.65H554.48a21.71,21.71,0,0,0,21.64-21.65V584.21A21.71,21.71,0,0,0,554.48,562.56Zm-89.92,34.31a1.18,1.18,0,0,1,.69.74,1.21,1.21,0,0,1-.11,1l-2.69,4.53a1.21,1.21,0,0,1-.82.57,1.23,1.23,0,0,1-1-.23L454.88,599l.92,7.36a1.25,1.25,0,0,1-.3,1,1.19,1.19,0,0,1-.91.42h-5.24a1.25,1.25,0,0,1-1.22-1.26s0-.07,0-.11l.92-7.41-6,4.5a1.22,1.22,0,0,1-1.71-.24l-.09-.14-2.55-4.53a1.21,1.21,0,0,1,.45-1.65l.15-.07,6.83-2.86-6.85-3a1.23,1.23,0,0,1-.57-1.74l2.62-4.46a1.25,1.25,0,0,1,.82-.58,1.2,1.2,0,0,1,1,.23l5.9,4.47-.91-7.31a1.22,1.22,0,0,1,1.05-1.37h5.4a1.19,1.19,0,0,1,.91.42,1.25,1.25,0,0,1,.3,1l-.91,7.3,5.91-4.43a1.23,1.23,0,0,1,1.81.38l2.55,4.53a1.22,1.22,0,0,1-.47,1.66l-.12.06-6.86,2.8Zm39.19,0a1.18,1.18,0,0,1,.69.74,1.21,1.21,0,0,1-.11,1l-2.69,4.53a1.16,1.16,0,0,1-.82.57,1.2,1.2,0,0,1-1-.23L494.07,599l.91,7.36a1.24,1.24,0,0,1-1.1,1.36h-5.35a1.19,1.19,0,0,1-.91-.42,1.25,1.25,0,0,1-.3-1l.92-7.41-6,4.5a1.22,1.22,0,0,1-1.7-.23l-.09-.15L478,598.59a1.17,1.17,0,0,1-.09-1,1.2,1.2,0,0,1,.68-.73l6.84-2.86-6.85-3a1.21,1.21,0,0,1-.64-1.59l.07-.14,2.62-4.46a1.21,1.21,0,0,1,.81-.58,1.23,1.23,0,0,1,1,.23l5.9,4.47-.92-7.31a1.25,1.25,0,0,1,.3-1,1.19,1.19,0,0,1,.91-.42h5.24a1.23,1.23,0,0,1,1.21,1.42l-.92,7.33,5.92-4.43a1.19,1.19,0,0,1,1-.22,1.24,1.24,0,0,1,.81.6l2.55,4.53a1.25,1.25,0,0,1,.09,1,1.27,1.27,0,0,1-.69.73L496.91,594Zm39.2,0a1.18,1.18,0,0,1,.69.74,1.21,1.21,0,0,1-.11,1l-2.69,4.53a1.21,1.21,0,0,1-.82.57,1.23,1.23,0,0,1-1-.23L533.27,599l.92,7.36a1.25,1.25,0,0,1-.3,1,1.19,1.19,0,0,1-.91.42h-5.24a1.25,1.25,0,0,1-1.22-1.26s0-.07,0-.11l.92-7.41-6,4.5a1.22,1.22,0,0,1-1.71-.24l-.09-.14-2.55-4.53a1.21,1.21,0,0,1,.45-1.65l.15-.07,6.83-2.86-6.85-3a1.23,1.23,0,0,1-.57-1.74l2.62-4.46a1.25,1.25,0,0,1,.82-.58,1.2,1.2,0,0,1,1,.23l5.9,4.47-.91-7.31a1.22,1.22,0,0,1,1.05-1.37H533a1.19,1.19,0,0,1,.91.42,1.25,1.25,0,0,1,.3,1l-.92,7.33,5.91-4.43A1.23,1.23,0,0,1,541,585l2.55,4.53a1.22,1.22,0,0,1-.47,1.66l-.12.06L536.11,594Z"/></svg>