<svg id="Layer_1" data-name="Layer 1" xmlns="http://www.w3.org/2000/svg" xmlns:xlink="http://www.w3.org/1999/xlink" viewBox="0 0 792.79 806.55"><defs><clipPath id="clip-path"><rect x="412.89" y="569.5" width="156.08" height="111.36" rx="6" transform="translate(-146.34 150.05) rotate(-15.15)" style="fill:#00c8d7"/></clipPath><clipPath id="clip-path-2"><rect x="2.33" y="-17.45" width="791.67" height="827.06" style="fill:none"/></clipPath><clipPath id="clip-path-3"><path d="M434.38,699a7,7,0,0,1-6.76-5.17l-26-95.91a7,7,0,0,1,4.93-8.59l139.07-37.66a7,7,0,0,1,8.59,4.93l26,95.91a7,7,0,0,1-4.93,8.59h0L436.21,698.72A6.78,6.78,0,0,1,434.38,699ZM547.48,553.4a5.42,5.42,0,0,0-1.31.17L407.1,591.23a5,5,0,0,0-3.51,6.13l26,95.91a5,5,0,0,0,6.13,3.52l139.07-37.65a5,5,0,0,0,3.52-6.14l-26-95.91A5,5,0,0,0,547.48,553.4ZM575,660.1h0Z" style="fill:#4030db;clip-path:url(#clip-path)"/></clipPath></defs><title>header-a</title><path d="M388.9,220.48l-210.76,0a3.4,3.4,0,1,1,0-6.8h49.64c-1.68-4.47-6.16-18.53-.34-28.88,3.52-6.29,10.15-10.13,19.69-11.42,25.61-3.48,38.55,17.82,42.22,25.2,1.88-5,7.56-15.45,22-12.7,4.66.89,16.77,5.39,29.16,27.83h48.4a3.4,3.4,0,0,1,0,6.8Zm-210.76-4.85a1.4,1.4,0,1,0,0,2.8l210.76,0a1.4,1.4,0,1,0,0-2.8h-49a1,1,0,0,1-.88-.52c-4-7.38-14.81-24.81-28.07-27.34-16.85-3.22-20.31,13-20.45,13.73a1,1,0,0,1-1.91.17c-.12-.31-12.06-30.35-41.2-26.39-8.88,1.21-15,4.71-18.22,10.41-6.37,11.35.69,27.82,1,28.51a1,1,0,0,1-.08.95,1,1,0,0,1-.84.45H178.14Z" style="fill:#4030db"/><path d="M341.36,258.33A23.66,23.66,0,1,0,365,282,23.68,23.68,0,0,0,341.36,258.33Zm0,41.14A17.49,17.49,0,1,1,358.84,282,17.51,17.51,0,0,1,341.36,299.47Zm0-29.83a3.09,3.09,0,1,0,3.08,3.09A3.09,3.09,0,0,0,341.36,269.64Zm0,9.26a3.08,3.08,0,0,0-3.09,3.08v10.29a3.09,3.09,0,0,0,6.17,0V282A3.08,3.08,0,0,0,341.36,278.9Z" style="fill:#00c8d7"/><path d="M646.52,218.12a4.88,4.88,0,0,1-4.88-4.87V199.76a4.88,4.88,0,1,1,9.75,0v13.49A4.88,4.88,0,0,1,646.52,218.12Zm0-21.24a2.88,2.88,0,0,0-2.88,2.88v13.49a2.88,2.88,0,0,0,5.75,0V199.76A2.88,2.88,0,0,0,646.52,196.88Z" style="fill:#003eaa"/><g style="clip-path:url(#clip-path-2)"><path d="M198.25,818.82c-12.05-14.47-54-111-61.46-218.13C127.15,462.1,274.6,261.91,497.12,398.23,630.88,480.18,641.28,695.45,765.86,820c1.2,1.21-567.61,3.62-567.61,3.62" style="fill:#ccf4ff"/><path d="M677.85,483.61l5.67-5.67V496.7a2.48,2.48,0,1,0,5,0V477.94l5.67,5.67a2.47,2.47,0,0,0,3.5-3.49l-9.88-9.88a2.48,2.48,0,0,0-.83-.56h0a2.51,2.51,0,0,0-.92-.18,2.61,2.61,0,0,0-.93.18h0a2.53,2.53,0,0,0-.84.56l-9.87,9.88a2.47,2.47,0,0,0,3.49,3.49Zm23,8.15a2.47,2.47,0,0,0-2.48,2.47v8.66a1.23,1.23,0,0,1-1.23,1.23H674.86a1.23,1.23,0,0,1-1.23-1.23v-8.66a2.47,2.47,0,1,0-4.94,0v8.66a6.18,6.18,0,0,0,6.17,6.18h22.27a6.18,6.18,0,0,0,6.18-6.18v-8.66A2.47,2.47,0,0,0,700.84,491.76Z" style="fill:#00c8d7"/><polygon points="628.79 251.79 627.24 254.9 623.77 255.51 626.23 258.16 625.73 261.71 628.78 260.13 631.82 261.73 631.33 258.17 633.8 255.53 630.34 254.91 628.79 251.79" style="fill:#00c8d7"/><path d="M601.16,299.39l56.27.12a2.73,2.73,0,0,0,2.74-2.73l.19-81.36a2.75,2.75,0,0,0-2.74-2.75l-56.26-.12a2.74,2.74,0,0,0-2.75,2.73l-.18,81.36A2.75,2.75,0,0,0,601.16,299.39Z" style="fill:#fff"/><path d="M598.61,312.13l61.32.14a5.48,5.48,0,0,0,5.49-5.47l.21-94.71a5.48,5.48,0,0,0-5.46-5.49l-61.33-.13a5.48,5.48,0,0,0-5.49,5.46l-.21,94.71A5.48,5.48,0,0,0,598.61,312.13Zm21.56-5.88v-1.91a2,2,0,0,1,2-2l14.22,0a2,2,0,0,1,2,2v1.91a2,2,0,0,1-2,2l-14.22,0A2,2,0,0,1,620.17,306.25Zm-21.56-91a2.74,2.74,0,0,1,2.75-2.73l56.26.12a2.75,2.75,0,0,1,2.74,2.75l-.19,81.36a2.73,2.73,0,0,1-2.74,2.73l-56.27-.12a2.75,2.75,0,0,1-2.73-2.75Z" style="fill:#00c8d7"/><path d="M637.7,253.2l-5.35-1L630.24,248a1.61,1.61,0,0,0-1.43-.9l-1,.07-2.54,5.06-4.48.79a1.64,1.64,0,0,0-1.25,1.08l-.26.95,3.82,4.12-.68,4.79a1.59,1.59,0,0,0,.65,1.54l.87.55,4.86-2.52,4,2.11a1.6,1.6,0,0,0,1.67-.11l.79-.63-.78-5.7,3.22-3.45a1.63,1.63,0,0,0,.36-1.61Zm-6.37,5,.49,3.56-3-1.6-3,1.58.5-3.55-2.46-2.65,3.47-.61,1.55-3.11,1.55,3.12,3.46.62Z" style="fill:#00c8d7"/><path d="M628.82,241a9.47,9.47,0,1,0-9.45-9.49A9.48,9.48,0,0,0,628.82,241Zm0-15.95a6.48,6.48,0,1,1-6.49,6.46A6.48,6.48,0,0,1,628.85,225.09Z" style="fill:#00c8d7"/><path d="M628.27,232.89h4.56a.75.75,0,0,0,0-1.5H629v-3.81a.75.75,0,0,0-1.5,0v4.56A.76.76,0,0,0,628.27,232.89Z" style="fill:#00c8d7"/><path d="M637.08,274.49v4.56a1.5,1.5,0,0,1-1.5,1.49H631a1.5,1.5,0,0,1,0-3h1.48a5.24,5.24,0,0,0-3.75-1.58,5.31,5.31,0,0,0-5.17,4,1.49,1.49,0,0,1-1.45,1.13,1.64,1.64,0,0,1-.37-.05,1.49,1.49,0,0,1-1.08-1.81,8.26,8.26,0,0,1,13.41-4.3v-.49a1.5,1.5,0,0,1,3,0Z" style="fill:#00c8d7"/><path d="M636.79,283.34a8.27,8.27,0,0,1-13.42,4.3v.5a1.5,1.5,0,0,1-3,0v-4.56a1.49,1.49,0,0,1,1.5-1.49h4.56a1.5,1.5,0,1,1,0,3H625a5.21,5.21,0,0,0,3.75,1.57,5.31,5.31,0,0,0,5.17-4,1.5,1.5,0,0,1,2.9.73Z" style="fill:#00c8d7"/><circle cx="283.55" cy="546.51" r="4.69" style="fill:#00c8d7"/><circle cx="298.67" cy="546.51" r="4.69" style="fill:#00c8d7"/><rect x="319.01" y="541.21" width="114.72" height="10.6" rx="5.08" style="fill:#00c8d7"/><circle cx="454.04" cy="546.51" r="4.69" style="fill:#00c8d7"/><circle cx="469.17" cy="546.51" r="4.69" style="fill:#00c8d7"/><circle cx="310.38" cy="370.42" r="36.26" style="fill:#4f42ff"/><path d="M310.38,407.68a37.26,37.26,0,1,1,37.26-37.26A37.3,37.3,0,0,1,310.38,407.68Zm0-72.52a35.26,35.26,0,1,0,35.26,35.26A35.3,35.3,0,0,0,310.38,335.16Z" style="fill:#4030db"/><path d="M327.09,359.78a4.4,4.4,0,0,0-3.78-4.3l-12.93-2-12.93,2a4.38,4.38,0,0,0-3.78,4.29c0,3.38,0,7.84.23,10,.64,6.44,1.94,10,5.15,14A17.74,17.74,0,0,0,310.17,390l.21,0,.21,0a17.74,17.74,0,0,0,11.12-6.23c3.21-4,4.51-7.55,5.15-14h0C327.07,367.61,327.1,363.15,327.09,359.78Zm-4.33,9.55c-.56,5.68-1.56,8.44-4.26,11.83a13.73,13.73,0,0,1-8.13,4.68,13.56,13.56,0,0,1-8.11-4.68c-2.7-3.39-3.7-6.15-4.27-11.83-.14-1.5-.22-5-.21-9.54,0-.1.12-.21.31-.24l12.29-1.95,12.29,1.95c.19,0,.31.14.31.24C323,364.35,322.91,367.83,322.76,369.33ZM301.32,369c.5,5.05,1.26,7.21,3.55,10.08a10.34,10.34,0,0,0,5.51,3.35V361l-9.21,1.45C301.15,365.64,301.22,368,301.32,369Z" style="fill:#fff"/><path d="M500.71,312.85A62.85,62.85,0,1,1,563.55,250,62.92,62.92,0,0,1,500.71,312.85Zm0-123.7A60.85,60.85,0,1,0,561.55,250,60.92,60.92,0,0,0,500.71,189.15Z" style="fill:#4030db"/><path d="M197.88,497.23l52.51-51a8.72,8.72,0,0,1,12.32,0l52.52,51a8.71,8.71,0,0,1-6.16,14.87H204A8.71,8.71,0,0,1,197.88,497.23Z" style="fill:#00c8d7"/><path d="M523.47,568.87a9.37,9.37,0,0,1-7.37-3.56c-1.41-1.79-3-3.71-4.65-5.74-10.88-13.22-25.76-31.33-25.76-49.9a37.79,37.79,0,0,1,75.57,0c0,18.57-14.89,36.68-25.76,49.9-1.67,2-3.25,3.95-4.66,5.74A9.36,9.36,0,0,1,523.47,568.87Zm0-95a35.82,35.82,0,0,0-35.78,35.78c0,17.85,14.62,35.64,25.3,48.63,1.68,2,3.26,4,4.68,5.76a7.39,7.39,0,0,0,11.6,0c1.42-1.79,3-3.72,4.68-5.76,10.68-13,25.31-30.78,25.31-48.63A35.83,35.83,0,0,0,523.47,473.89Z" style="fill:#4030db"/><path d="M523.47,558a7.33,7.33,0,0,1-5.77-2.79l-.84-1.06c-8.33-10.51-22.27-28.09-22.27-43.82a28.88,28.88,0,1,1,57.76,0c0,15.73-13.94,33.31-22.27,43.82l-.84,1.06A7.31,7.31,0,0,1,523.47,558Zm0-74.55a26.91,26.91,0,0,0-26.88,26.88c0,15,13.67,32.27,21.83,42.57l.85,1.07a5.37,5.37,0,0,0,8.41,0l.84-1.06c8.16-10.3,21.83-27.54,21.83-42.58A26.91,26.91,0,0,0,523.47,483.46Z" style="fill:#4030db"/><circle cx="523.47" cy="514.8" r="8.07" style="fill:#00c8d7"/><path d="M594.54,553.18a9.07,9.07,0,1,1,9.08-9.07A9.08,9.08,0,0,1,594.54,553.18Zm0-16.14a7.07,7.07,0,1,0,7.08,7.07A7.08,7.08,0,0,0,594.54,537Z" style="fill:#4030db"/><circle cx="594.54" cy="514.8" r="8.07" style="fill:#00c8d7"/><circle cx="374.14" cy="487.17" r="16.73" style="fill:#4f42ff"/><circle cx="594.54" cy="428.2" r="8.07" style="fill:#4f42ff"/><path d="M448.71,521.85a1,1,0,0,1-1-1V474.67a1,1,0,0,1,2,0v46.18A1,1,0,0,1,448.71,521.85Z" style="fill:#4030db"/><path d="M374.1,505.64a18.18,18.18,0,1,1,18.19-18.18A18.2,18.2,0,0,1,374.1,505.64Zm0-34.36a16.18,16.18,0,1,0,16.19,16.18A16.2,16.2,0,0,0,374.1,471.28Z" style="fill:#4030db"/><path d="M374.17,522.13a1,1,0,0,1-1-1V490.34a1,1,0,0,1,2,0v30.79A1,1,0,0,1,374.17,522.13Z" style="fill:#4030db"/><path d="M474.83,451.13H398a1,1,0,0,1-.79-.38,1,1,0,0,1-.18-.86,40.63,40.63,0,0,1,78.82,0,1,1,0,0,1-.18.86A1,1,0,0,1,474.83,451.13Zm-75.58-2h74.28a38.63,38.63,0,0,0-74.28,0Z" style="fill:#4030db"/><path d="M500.71,312.85a63.15,63.15,0,0,1-61.42-49.51,1,1,0,0,1,.2-.84,1,1,0,0,1,.78-.37h50.78a12.72,12.72,0,0,1,12.71,12.71v37a1,1,0,0,1-1,1l-.41,0C501.83,312.83,501.27,312.85,500.71,312.85Zm2.05-1.05h0Zm-61.24-47.67a61.17,61.17,0,0,0,59.19,46.72l1.05,0v-36a10.72,10.72,0,0,0-10.71-10.71Z" style="fill:#4030db"/><path d="M502.76,312.8a1,1,0,0,1-.69-.29,1,1,0,0,1-.31-.71v-37a10.72,10.72,0,0,0-10.71-10.71H441.41a.86.86,0,0,1-.37.58,1,1,0,0,1-1.05.11c-.47-.23-.63-.3-1.33-5a68.45,68.45,0,0,1-.79-9.41,1,1,0,0,1,1-1h55.21a22.45,22.45,0,0,1,22.43,22.43v38.24a1,1,0,0,1-.76,1,62.92,62.92,0,0,1-12.95,1.77Zm-61.69-50.67h50a12.72,12.72,0,0,1,12.71,12.71v35.91a61.15,61.15,0,0,0,10.75-1.49V271.81a20.46,20.46,0,0,0-20.43-20.43H439.89A72.69,72.69,0,0,0,441.07,262.13Zm74.44,47.92h0Z" style="fill:#4030db"/><path d="M299.38,499.48a13.81,13.81,0,0,1-9.58-23.76l2-1.94a1,1,0,0,1,1.4,0L311,491.62a1,1,0,0,1,.15,1.22A13.46,13.46,0,0,1,299.38,499.48Zm-6.89-23.58-1.3,1.26h0a11.81,11.81,0,1,0,17.86,15.3Zm-2,.54h0Z" style="fill:#4030db"/><path d="M583.42,307a4.88,4.88,0,0,1-4.88-4.87V288.67a4.88,4.88,0,0,1,9.75,0v13.49A4.88,4.88,0,0,1,583.42,307Zm0-21.23a2.88,2.88,0,0,0-2.88,2.87v13.49a2.88,2.88,0,0,0,5.75,0V288.67A2.88,2.88,0,0,0,583.42,285.8Z" style="fill:#4030db"/><path d="M671.55,429.36a4.84,4.84,0,0,1-3.45-1.43L652.17,412l-15.93,15.93a4.88,4.88,0,1,1-6.9-6.89l15.93-15.93-15.93-15.94a4.88,4.88,0,1,1,6.9-6.89l15.93,15.93,15.93-15.93a4.87,4.87,0,1,1,6.89,6.89l-15.93,15.94L675,421a4.88,4.88,0,0,1-3.44,8.32Zm-19.38-19.77a1,1,0,0,1,.7.29l16.64,16.64a3,3,0,0,0,4.07,0,2.89,2.89,0,0,0,0-4.07l-16.64-16.64a1,1,0,0,1-.29-.7,1,1,0,0,1,.29-.71l16.64-16.64a2.88,2.88,0,1,0-4.07-4.07l-16.64,16.64a1,1,0,0,1-1.41,0l-16.64-16.64a2.88,2.88,0,0,0-4.07,4.07l16.64,16.64a1,1,0,0,1,0,1.41l-16.64,16.64a2.89,2.89,0,0,0,0,4.07,3,3,0,0,0,4.07,0l16.64-16.64A1,1,0,0,1,652.17,409.59Z" style="fill:#4030db"/><rect x="390.95" y="261.86" width="114.16" height="201.16" rx="12.13" style="fill:#4f42ff"/><g id="Layer_6" data-name="Layer 6"><rect x="432.85" y="441.15" width="30.36" height="13.11" rx="6.46" style="fill:#4f42ff"/><path d="M456.76,442.15a5.46,5.46,0,0,1,5.46,5.46v.2a5.46,5.46,0,0,1-5.46,5.45H439.31a5.46,5.46,0,0,1-5.46-5.45v-.2a5.46,5.46,0,0,1,5.46-5.46h17.45m0-2H439.31a7.47,7.47,0,0,0-7.46,7.46v.2a7.46,7.46,0,0,0,7.46,7.45h17.45a7.46,7.46,0,0,0,7.46-7.45v-.2a7.47,7.47,0,0,0-7.46-7.46Z" style="fill:#fff"/></g><rect x="397.97" y="268.91" width="100.41" height="160.66" rx="4" style="fill:#fff"/><path d="M486.09,353.74a23.27,23.27,0,0,1-6.51,6.5l-29.43,24a2.89,2.89,0,0,1-3.64,0l-29.64-24a22.37,22.37,0,0,1-6.73-6.7,23.31,23.31,0,0,1,3-29,23.06,23.06,0,0,1,32.61.07l0,0a3.25,3.25,0,0,0,4.67,0l0,0a23.1,23.1,0,0,1,35.57,29.11Z" style="fill:#00c8d7"/><path d="M476.85,287.08a8.48,8.48,0,0,0-12.49-.55h0a1.19,1.19,0,0,1-1.72,0h0a8.49,8.49,0,0,0-12,0,8.59,8.59,0,0,0-1.11,10.68,8.15,8.15,0,0,0,2.47,2.46l10.91,8.83a1.08,1.08,0,0,0,1.34,0l10.83-8.84a8.37,8.37,0,0,0,2.39-2.39A8.53,8.53,0,0,0,476.85,287.08Z" style="fill:#00c8d7"/><path d="M440.89,265.07a4.79,4.79,0,0,0-7.06-.31h0a.67.67,0,0,1-1,0h0a4.79,4.79,0,0,0-6.78,0,4.85,4.85,0,0,0-.63,6,4.75,4.75,0,0,0,1.4,1.39l6.16,5a.6.6,0,0,0,.76,0l6.12-5a5,5,0,0,0,1.35-1.35A4.84,4.84,0,0,0,440.89,265.07Z" style="fill:#00c8d7"/><path d="M470,244.29a7.89,7.89,0,0,0-11.59-.51h0a1.12,1.12,0,0,1-1.6,0h0a7.87,7.87,0,0,0-11.13,0,8,8,0,0,0-1,9.9,7.83,7.83,0,0,0,2.3,2.29L457,264.14a1,1,0,0,0,1.24,0l10.05-8.2A7.9,7.9,0,0,0,470,244.29Z" style="fill:#00c8d7"/><path d="M415.69,344.17a1.72,1.72,0,0,1-.32,0,3.88,3.88,0,0,1-3.54-4.16,17.15,17.15,0,0,1,13.42-15.4,3.87,3.87,0,0,1,1.68,7.55,9.47,9.47,0,0,0-7.41,8.49A3.85,3.85,0,0,1,415.69,344.17Z" style="fill:#f9f9fa"/><path d="M451.54,293.72h-.12a1.42,1.42,0,0,1-1.3-1.53,6.29,6.29,0,0,1,4.94-5.66,1.42,1.42,0,0,1,.62,2.77,3.48,3.48,0,0,0-2.73,3.13A1.42,1.42,0,0,1,451.54,293.72Z" style="fill:#f9f9fa"/><path d="M426.59,268.82h-.07a.8.8,0,0,1-.74-.86,3.56,3.56,0,0,1,2.79-3.2.8.8,0,1,1,.35,1.57,2,2,0,0,0-1.54,1.76A.8.8,0,0,1,426.59,268.82Z" style="fill:#f9f9fa"/><path d="M446.52,250.45h-.11A1.33,1.33,0,0,1,445.2,249a5.86,5.86,0,0,1,4.58-5.26,1.32,1.32,0,0,1,.58,2.58,3.2,3.2,0,0,0-2.53,2.89A1.32,1.32,0,0,1,446.52,250.45Z" style="fill:#f9f9fa"/><path d="M488,522H203.53a18.9,18.9,0,0,1-13.14-32.49l58.73-56.78a11,11,0,0,1,15.47,0l34.82,33.77,128-123.32a21,21,0,0,1,29.67,0l50.36,49.69a47,47,0,0,0,80-33.27,47.3,47.3,0,0,0-13.77-33.42L543.73,296.2a1,1,0,0,1,0-1.42,1,1,0,0,1,1.41,0l29.93,29.93a49.33,49.33,0,0,1,14.35,34.84A49,49,0,0,1,506,394.23l-50.36-49.69a19,19,0,0,0-26.86,0L300.85,467.84l8.15,7.91a13.81,13.81,0,1,1-19.2,0l8.17-7.88-34.78-33.73a9,9,0,0,0-12.67,0l-58.74,56.79A16.91,16.91,0,0,0,203.53,520H488a1,1,0,1,1,0,2ZM299.41,469.23l-8.22,7.93a11.81,11.81,0,1,0,16.42,0Z" style="fill:#4030db"/><path d="M448,490.05a40.63,40.63,0,1,1,40.62-40.62A40.67,40.67,0,0,1,448,490.05Zm0-79.25a38.63,38.63,0,1,0,38.62,38.63A38.67,38.67,0,0,0,448,410.8Z" style="fill:#4030db"/><path d="M717.65,383.56a1,1,0,0,1-.94-.66c-.16-.44-15.84-44.86-2.44-101.79,2.9-12.34,1.66-21.63-3.69-27.61-8.28-9.27-23.87-7.53-24-7.52H562.39a1,1,0,0,1,0-2h124c1.28-.14,16.88-1.67,25.68,8.17,5.82,6.5,7.22,16.39,4.16,29.4-13.26,56.33,2.22,100.23,2.37,100.66a1,1,0,0,1-.6,1.28A.79.79,0,0,1,717.65,383.56Z" style="fill:#4030db"/><path d="M564.69,420.35s-134.9,110.48-142,132.16c-10.61,32.59,92.34,78.34,92.34,78.34" style="fill:#4f42ff"/><path d="M515.07,631.85a1,1,0,0,1-.41-.09c-4.23-1.88-103.65-46.49-92.88-79.56,7.06-21.7,136.76-128.1,142.28-132.62a1,1,0,1,1,1.27,1.55c-1.35,1.1-134.76,110.54-141.65,131.69-10.21,31.37,90.77,76.66,91.79,77.11a1,1,0,0,1-.4,1.92Z" style="fill:#4030db"/><path d="M596.41,556.75s10.55,35.42,25.84,63.11c19.63,35.57,36.17,56.23,36.17,56.23l-15.48-69.37S630.88,593.46,596.41,556.75Z" style="fill:#4030db"/><path d="M735.61,474.58s-3.37-16.87-14.34-42.18c-4.71-10.87,6.75-10.13,6.75-10.13l-2.53-16.87s13.93,3,14.34,20.25c.85,35.43,5.06,47.24,5.06,47.24Z" style="fill:#fff"/><path d="M734.83,475.74l-.2-1c0-.16-3.48-17.07-14.28-42-1.56-3.6-1.62-6.47-.17-8.52,1.68-2.38,4.91-2.9,6.68-3l-2.57-17.17,1.41.31c.15,0,14.71,3.42,15.13,21.2.83,34.77,5,46.82,5,46.94l.39,1.1Zm-7.25-52.48c-1.1,0-4.37.18-5.77,2.17-1,1.44-.88,3.65.38,6.57,9.42,21.74,13.3,37.48,14.2,41.42l7.22-1.31c-1-3.68-4.07-16.78-4.78-46.44-.16-6.83-2.5-12.16-7-15.83a18.54,18.54,0,0,0-5.15-3l2.47,16.51-1.23-.08Z" style="fill:#4030db"/><rect x="412.89" y="569.5" width="156.08" height="111.36" rx="6" transform="translate(-146.34 150.05) rotate(-15.15)" style="fill:#00c8d7"/><path d="M434.38,699a7,7,0,0,1-6.76-5.17l-26-95.91a7,7,0,0,1,4.93-8.59l139.07-37.66a7,7,0,0,1,8.59,4.93l26,95.91a7,7,0,0,1-4.93,8.59h0L436.21,698.72A6.78,6.78,0,0,1,434.38,699ZM547.48,553.4a5.42,5.42,0,0,0-1.31.17L407.1,591.23a5,5,0,0,0-3.51,6.13l26,95.91a5,5,0,0,0,6.13,3.52l139.07-37.65a5,5,0,0,0,3.52-6.14l-26-95.91A5,5,0,0,0,547.48,553.4ZM575,660.1h0Z" style="fill:#4030db"/><g style="clip-path:url(#clip-path-3)"><rect x="434.22" y="697.02" width="1.62" height="1.62" transform="translate(-378.4 577.23) rotate(-49.63)" style="fill:none"/><polygon points="435.76 697.39 434.35 697.37 434.3 698.27 435.35 698.7 435.76 697.39" style="fill:#00d9eb"/><rect x="438.26" y="689.22" width="1.89" height="1.89" transform="translate(-358.49 508.75) rotate(-44.72)" style="fill:none"/><polygon points="440.1 689.73 438.47 689.57 438.32 690.61 439.5 691.21 440.1 689.73" style="fill:#00d9eb"/><rect x="434.18" y="694.96" width="1.8" height="1.8" transform="translate(-381.07 781.95) rotate(-64.01)" style="fill:none"/><polygon points="434.41 695.19 434.78 696.71 435.76 696.52 435.93 695.27 434.41 695.19" style="fill:#00d9eb"/><rect x="433.11" y="695.94" width="1.68" height="1.68" transform="translate(-384.91 639.5) rotate(-54.08)" style="fill:none"/><polygon points="433.43 696.06 433.53 697.51 434.47 697.5 434.82 696.37 433.43 696.06" style="fill:#00d9eb"/><rect x="435.4" y="691.8" width="1.34" height="1.34" transform="translate(-380.97 646.55) rotate(-54.58)" style="fill:none"/><polygon points="436.64 692.05 435.48 692.14 435.5 692.88 436.4 693.16 436.64 692.05" style="fill:#00d9eb"/><rect x="432.86" y="695.23" width="1.15" height="1.15" transform="translate(-378.87 806.17) rotate(-65.82)" style="fill:none"/><polygon points="432.99 695.4 433.25 696.36 433.88 696.22 433.96 695.42 432.99 695.4" style="fill:#00d9eb"/><rect x="435.19" y="689.99" width="1.58" height="1.58" transform="matrix(0.99, -0.14, 0.14, 0.99, -94.31, 69.45)" style="fill:none"/><polygon points="436.13 689.96 435.21 690.98 435.84 691.6 436.83 691.1 436.13 689.96" style="fill:#00d9eb"/></g><ellipse cx="488.1" cy="624.47" rx="12.46" ry="13.15" style="fill:#fff"/><path d="M488.1,638.62c-7.43,0-13.47-6.35-13.47-14.15s6-14.15,13.47-14.15,13.46,6.35,13.46,14.15S495.52,638.62,488.1,638.62Zm0-26.3c-6.32,0-11.47,5.45-11.47,12.15s5.15,12.15,11.47,12.15,11.46-5.45,11.46-12.15S494.41,612.32,488.1,612.32Z" style="fill:#4030db"/><path d="M725.49,420.9a2,2,0,0,1-2-1.6L715.09,378a2,2,0,1,1,3.92-.8l8.44,41.34a2,2,0,0,1-1.56,2.36A2.71,2.71,0,0,1,725.49,420.9Z" style="fill:#4030db"/><path d="M671.13,727.72H498.68l-9.52,90.66c26.26-290.44,82.57-422,82.57-422l34.35,2.06S634.4,550.17,694.49,565.9c53.15,13.93,31.4-87.18,31.4-87.18l21-6.89s35,162.41-32.12,168.74C642.3,647.4,598.1,556.75,598.1,556.75l54,97.32s11.25,66.77,56.51,174.64" style="fill:#4f42ff"/><path d="M708.6,829.71a1,1,0,0,1-.92-.62c-16.46-39.22-28.44-73.13-37-100.37H499.77c-.46,3.64-.91,7.33-1.35,11l-8.27,78.72a1,1,0,0,1-2-.19q3.76-41.6,8.27-78.75l1.25-11.93a1,1,0,0,1,.29-.6c12.89-103,28.93-179.29,41.35-228.81,17.19-68.5,31.35-101.93,31.49-102.26a1,1,0,0,1,1-.61l34.35,2.06a1,1,0,0,1,.93.82c.28,1.51,28.88,151.33,87.67,166.73,10,2.61,17.88,1.2,23.52-4.19,19.88-19,6.79-81.2,6.65-81.82a1,1,0,0,1,.67-1.16l21-6.89a1,1,0,0,1,.81.08,1,1,0,0,1,.48.66,485.75,485.75,0,0,1,8.3,61.46c3,44.38-2,75.7-14.71,93.1-6.73,9.18-15.67,14.35-26.59,15.38C677,645.14,647,622,628.52,601.9c-4.75-5.15-9-10.36-12.73-15.32l37.18,67a1.21,1.21,0,0,1,.11.32c.11.67,11.75,67.92,56.45,174.42a1,1,0,0,1-.54,1.31A1,1,0,0,1,708.6,829.71ZM500,726.72H670c-13.72-43.87-18.48-70-18.89-72.31l-48.57-87.54c-3.49-5.85-5.33-9.59-5.37-9.68a1,1,0,0,1,1.77-.93l5.35,9.65A213.53,213.53,0,0,0,630,600.58c18.18,19.71,47.62,42.48,84.62,39,10.32-1,18.79-5.87,25.17-14.57,28.2-38.49,8.66-140.19,6.29-151.87l-19.05,6.26c1.64,8,12.19,64.05-7.41,82.8-6.17,5.9-14.72,7.48-25.41,4.68-25.25-6.61-47.94-37-67.42-90.28a557.92,557.92,0,0,1-21.56-77.25l-32.87-2c-2,4.95-15.29,38.22-31.14,101.39C528.86,548.12,512.88,624.16,500,726.72Z" style="fill:#4030db"/><path d="M499.4,727.47l-10.13,90.27,95.37,4.42c-20.28-34.84-38.25-72.56-48.41-94.87Z" style="fill:#00c8d7"/><path d="M584.65,823.16h0l-95.38-4.42a1,1,0,0,1-.72-.35,1,1,0,0,1-.23-.76l10.13-90.28a1,1,0,0,1,1-.88l36.83-.18h0a1,1,0,0,1,.91.58c11.18,24.55,28.65,60.93,48.37,94.78a1,1,0,0,1,0,1A1,1,0,0,1,584.65,823.16Zm-94.27-6.37,92.48,4.28c-19.23-33.2-36.24-68.58-47.27-92.78l-35.3.17Z" style="fill:#4030db"/><path d="M670.84,726.62l-134.61.67c10.16,22.31,28.13,60,48.41,94.87l123.13,5.7Z" style="fill:#00c8d7"/><path d="M707.77,828.86h0l-123.13-5.7a1,1,0,0,1-.82-.5c-19.76-33.93-37.26-70.37-48.46-95a1,1,0,0,1,.9-1.41l134.61-.67a1.09,1.09,0,0,1,.95.66l36.93,101.24a1,1,0,0,1-.13.93A1,1,0,0,1,707.77,828.86Zm-122.53-7.68,121.08,5.61-36.18-99.16-132.36.65C548.93,752.68,566,788.1,585.24,821.18Z" style="fill:#4030db"/><path d="M324.79,859.58a1,1,0,0,1-.89-.53c-28-53.41-37.19-100.47-27.93-143.85,7.81-36.58,27.7-64.12,46.12-86.23,32-38.4,31.68-62.78,31.22-96.52-.06-4-.11-8.19-.11-12.5a1,1,0,0,1,2,0c0,4.29.05,8.45.11,12.47.44,32.88.8,58.86-31.68,97.83-18.27,21.92-38,49.21-45.7,85.37-9.16,42.91-.09,89.52,27.74,142.5a1,1,0,0,1-.42,1.35A1,1,0,0,1,324.79,859.58Z" style="fill:#4030db"/><path d="M404.08,684.78c-10.16,0-21.36-2.15-33.27-6.48-80.24-29.18-128.9-70.2-144.62-121.91-9.48-31.18-6.87-65.57,7.74-102.21a254.88,254.88,0,0,1,31.25-55.75l.62-.84c2.18-3,4.22-5.6,6.19-8.1,7.37-9.39,12.24-15.59,12.24-28a27.27,27.27,0,0,0-54.54,0,1,1,0,0,1-2,0,29.27,29.27,0,0,1,58.54,0c0,13.15-5.31,19.91-12.67,29.27-2,2.49-4,5.07-6.15,8l-.62.85c-18.3,25-58.72,90.29-38.69,156.19,15.53,51.08,63.77,91.66,143.39,120.61,27.52,10,51.09,8.15,66.36-5.22,13-11.39,18.49-30.36,14.29-49.51-5-22.58-11.63-31.15-17.51-38.72a1,1,0,0,1,.17-1.4,1,1,0,0,1,1.41.17c7.27,9.35,13.2,18.2,17.88,39.52,4.36,19.86-1.36,39.58-14.92,51.45C430,680.73,418,684.78,404.08,684.78Z" style="fill:#4030db"/><path d="M101,428.68a5.86,5.86,0,0,1-6-5.65L93.48,300.37A6.31,6.31,0,0,1,99.71,294l131.66-1.54a6.3,6.3,0,0,1,6.37,6.22l1.44,122.66a5.86,5.86,0,0,1-5.91,5.79Z" style="fill:#4f42ff"/><g id="Layer_3" data-name="Layer 3"><circle cx="106.95" cy="306.11" r="2.97" style="fill:#fff"/></g><g id="Layer_5" data-name="Layer 5"><circle cx="116.52" cy="306" r="2.97" style="fill:#fff"/></g><g id="Layer_6-2" data-name="Layer 6"><path d="M202,305.14v-.29a3.21,3.21,0,0,0-3.24-3.17l-66.17.78a3.21,3.21,0,0,0-3.18,3.25V306a3.21,3.21,0,0,0,3.25,3.18l66.16-.78A3.22,3.22,0,0,0,202,305.14Z" style="fill:#fff"/></g><g id="Layer_3-2" data-name="Layer 3"><circle cx="214.84" cy="304.85" r="2.97" style="fill:#fff"/></g><g id="Layer_5-2" data-name="Layer 5"><circle cx="224.41" cy="304.73" r="2.97" style="fill:#fff"/></g><path d="M164.21,268a2.18,2.18,0,0,1-2.13-1.63,6.48,6.48,0,0,0-4.75-4.64,2.16,2.16,0,0,1,0-4.21,6.48,6.48,0,0,0,4.63-4.76,2.17,2.17,0,0,1,4.21,0,6.51,6.51,0,0,0,4.76,4.64,2.17,2.17,0,0,1,.05,4.21,6.48,6.48,0,0,0-4.65,4.75A2.16,2.16,0,0,1,164.21,268Zm18.71,15.5a12.91,12.91,0,0,1,9.23-9.46,2.36,2.36,0,0,0,0-4.6,12.93,12.93,0,0,1-9.47-9.26,2.37,2.37,0,0,0-4.6.07,12.88,12.88,0,0,1-9.27,9.46,2.37,2.37,0,0,0,.08,4.6,13,13,0,0,1,9.47,9.26,2.37,2.37,0,0,0,4.6-.07Zm-23,22.41a20.25,20.25,0,0,1,14.53-14.85,2.63,2.63,0,0,0,1.95-2.57,2.58,2.58,0,0,0-2-2.48,20.27,20.27,0,0,1-14.85-14.5,2.59,2.59,0,0,0-5,.05A20.27,20.27,0,0,1,140,286.41a2.59,2.59,0,0,0-2,2.53,2.64,2.64,0,0,0,2,2.52A20.25,20.25,0,0,1,154.86,306a2.61,2.61,0,0,0,2.55,2A2.59,2.59,0,0,0,159.91,305.91Z" style="fill:#00c8d7"/><g id="Layer_2" data-name="Layer 2"><path d="M143.71,355.4l6.36-6.51a14.46,14.46,0,0,1,20.42-.24l-4.58,4.69a7.9,7.9,0,0,0-11.15.13L148.4,360Z" style="fill:#fff"/></g><g id="Layer_3-3" data-name="Layer 3"><path d="M158.6,356.11a14.43,14.43,0,0,1,24.52-10.5l12.94,12.64a14.44,14.44,0,0,1-20.18,20.67l-12.94-12.64A14.4,14.4,0,0,1,158.6,356.11Zm35.25,12.38a7.87,7.87,0,0,0-2.37-5.55l-12.94-12.63a7.89,7.89,0,0,0-11.15.13,7.88,7.88,0,0,0,.13,11.14l12.94,12.64a7.89,7.89,0,0,0,11.15-.13A7.79,7.79,0,0,0,193.85,368.49Z" style="fill:#fff"/></g><g id="Layer_5-3" data-name="Layer 5"><path d="M133.33,372.09a14.42,14.42,0,0,1,4.1-10.26l9.1-9.31,4.69,4.58-9.1,9.31a7.88,7.88,0,0,0,11.28,11L166,364.49l4.69,4.58L158.1,382a14.44,14.44,0,0,1-24.77-9.92Z" style="fill:#fff"/></g><g id="Layer_6-3" data-name="Layer 6"><path d="M165.91,353.34l4.58-4.69a14.44,14.44,0,0,1,.24,20.42L166,364.49a7.9,7.9,0,0,0-.13-11.15Z" style="fill:#fff"/></g></g><path d="M567.9,288.45s-40.07,8.27-22.75,65.65c16.54,54.79,56.86,51.17,66.17,41.35s19.64-38.25,15.51-62S605.11,277.08,567.9,288.45Z" style="fill:#fff"/><path d="M594.51,404.14a26.65,26.65,0,0,1-8.37-1.42c-15-5-28.54-17.71-37.18-35-8.51-17.05-11.14-36-7.23-52.1,5-20.44,23.17-30.08,39-30.57,15.47-.45,34.6,7.48,41.94,31.21a1,1,0,1,1-1.91.59c-7-22.65-25.24-30.25-40-29.8-15.06.46-32.37,9.62-37.11,29.05-3.8,15.61-1.22,34.1,7.08,50.73,8.41,16.83,21.53,29.23,36,34,7.13,2.35,13.67,1.54,19.42-2.39,12.4-8.48,19-30.22,19.85-46.84.79-15.08-6.64-22.56-12.17-23.06-3.4-.31-5.74,1.94-6.25,6-.94,7.32,3.37,15.74,6.83,22.51,2.92,5.7,5.23,10.21,4.46,13.39a4.93,4.93,0,0,1-2.27,3.26c-2.59,1.5-6.53.36-10-.65a24.16,24.16,0,0,0-4.34-1,1,1,0,0,1-.93-1.07,1,1,0,0,1,1.07-.93,25.71,25.71,0,0,1,4.76,1.09c3.09.9,6.6,1.91,8.45.84a3,3,0,0,0,1.32-2c.6-2.46-1.78-7.1-4.29-12-3.59-7-8-15.73-7-23.68.65-5.1,4-8.13,8.42-7.73,6.32.57,14.85,8.75,14,25.16-.93,17.66-7.69,39.47-20.72,48.38A22.33,22.33,0,0,1,594.51,404.14Z" style="fill:#4030db"/></svg>