<svg id="Layer_1" data-name="Layer 1" xmlns="http://www.w3.org/2000/svg" xmlns:xlink="http://www.w3.org/1999/xlink" width="1301.39" height="806.55" viewBox="0 0 1301.39 806.55">
  <defs>
    <clipPath id="clip-path">
      <rect x="20.5" y="110.95" width="1283.74" height="696.21" fill="none"/>
    </clipPath>
    <radialGradient id="radial-gradient" cx="883.4" cy="35.02" r="355.33" gradientTransform="translate(0 774)" gradientUnits="userSpaceOnUse">
      <stop offset="0.26" stop-color="#cdcdd4" stop-opacity="0"/>
      <stop offset="0.4" stop-color="#cdcdd4" stop-opacity="0.02"/>
      <stop offset="0.55" stop-color="#cdcdd4" stop-opacity="0.08"/>
      <stop offset="0.69" stop-color="#cdcdd4" stop-opacity="0.18"/>
      <stop offset="0.72" stop-color="#cdcdd4" stop-opacity="0.2"/>
    </radialGradient>
    <radialGradient id="radial-gradient-2" cx="2851.33" cy="-692.79" r="1330.83" gradientTransform="translate(-232.28 2004.39) rotate(-28.11)" gradientUnits="userSpaceOnUse">
      <stop offset="0.4" stop-color="#cdcdd4" stop-opacity="0"/>
      <stop offset="0.58" stop-color="#cdcdd4" stop-opacity="0.02"/>
      <stop offset="0.77" stop-color="#cdcdd4" stop-opacity="0.08"/>
      <stop offset="0.96" stop-color="#cdcdd4" stop-opacity="0.18"/>
      <stop offset="1" stop-color="#cdcdd4" stop-opacity="0.2"/>
    </radialGradient>
    <radialGradient id="radial-gradient-3" cx="973.99" cy="-233.02" r="522.04" gradientTransform="translate(0 774)" gradientUnits="userSpaceOnUse">
      <stop offset="0.51" stop-color="#cdcdd4" stop-opacity="0"/>
      <stop offset="0.63" stop-color="#cdcdd4" stop-opacity="0.02"/>
      <stop offset="0.75" stop-color="#cdcdd4" stop-opacity="0.08"/>
      <stop offset="0.88" stop-color="#cdcdd4" stop-opacity="0.18"/>
      <stop offset="0.9" stop-color="#cdcdd4" stop-opacity="0.2"/>
    </radialGradient>
    <linearGradient id="linear-gradient" x1="565.46" y1="104.14" x2="907.85" y2="-238.25" gradientTransform="translate(0 774)" gradientUnits="userSpaceOnUse">
      <stop offset="0.12" stop-color="#592acb"/>
      <stop offset="0.55" stop-color="#7f4be3"/>
      <stop offset="1" stop-color="#ab71ff"/>
    </linearGradient>
    <linearGradient id="linear-gradient-2" x1="349.71" y1="241.8" x2="767.56" y2="-176.05" gradientTransform="translate(0 774)" gradientUnits="userSpaceOnUse">
      <stop offset="0" stop-color="#0090ed"/>
      <stop offset="0.27" stop-color="#2a88f1"/>
      <stop offset="0.86" stop-color="#9275fc"/>
      <stop offset="1" stop-color="#ab71ff"/>
    </linearGradient>
    <linearGradient id="linear-gradient-3" x1="395.25" y1="89.07" x2="737.63" y2="-253.32" xlink:href="#linear-gradient"/>
    <linearGradient id="linear-gradient-4" x1="907.01" y1="-25.53" x2="1247.68" y2="-366.19" gradientTransform="translate(0 774)" gradientUnits="userSpaceOnUse">
      <stop offset="0.43" stop-color="#00b3f4"/>
      <stop offset="0.61" stop-color="#00bbf6"/>
      <stop offset="0.89" stop-color="#00d2fc"/>
      <stop offset="1" stop-color="#0df"/>
    </linearGradient>
    <linearGradient id="linear-gradient-5" x1="905.47" y1="-330.96" x2="1086" y2="-490.49" gradientTransform="translate(0 774)" gradientUnits="userSpaceOnUse">
      <stop offset="0" stop-color="#0090ed"/>
      <stop offset="0.68" stop-color="#737bf9"/>
      <stop offset="1" stop-color="#ab71ff"/>
    </linearGradient>
    <linearGradient id="linear-gradient-6" x1="821.2" y1="-85.45" x2="958.86" y2="-223.11" gradientTransform="translate(0 774)" gradientUnits="userSpaceOnUse">
      <stop offset="0" stop-color="#00b3f4"/>
      <stop offset="0.58" stop-color="#1abdc2"/>
      <stop offset="1" stop-color="#2ac3a2"/>
    </linearGradient>
    <linearGradient id="linear-gradient-7" x1="798.15" y1="-60.78" x2="925.95" y2="-188.57" xlink:href="#linear-gradient-6"/>
    <linearGradient id="linear-gradient-8" x1="765.47" y1="-29.86" x2="891.37" y2="-155.75" xlink:href="#linear-gradient-6"/>
    <linearGradient id="linear-gradient-9" x1="976.69" y1="89.59" x2="1212.14" y2="-145.87" gradientTransform="translate(0 774)" gradientUnits="userSpaceOnUse">
      <stop offset="0.22" stop-color="#ff298a"/>
      <stop offset="0.91" stop-color="#ff4f5e"/>
    </linearGradient>
    <linearGradient id="linear-gradient-10" x1="1147.32" y1="-369.2" x2="1241.52" y2="-463.41" gradientTransform="translate(0 774)" gradientUnits="userSpaceOnUse">
      <stop offset="0" stop-color="#ff7139"/>
      <stop offset="1" stop-color="#ffa436"/>
    </linearGradient>
  </defs>
  <title>header-v2-b</title>
  <g clip-path="url(#clip-path)">
    <g>
      <path d="M832.57,606a32.93,32.93,0,0,1-32.8,32.92H667.93a25.17,25.17,0,1,1,6-49.58,25.63,25.63,0,0,1-.69-5.85,26,26,0,0,1,40.64-21.39,43.64,43.64,0,0,1,85.85,11A32.92,32.92,0,0,1,832.57,606Z" fill="url(#radial-gradient)"/>
      <path d="M1589.19,472.88a75.81,75.81,0,1,0-144.39-46.27c-.25.79-.49,1.59-.72,2.39-39.81,131.54-179.21,206.15-310.74,166.33S927.19,416.07,967,284.54a75.81,75.81,0,0,0-145.1-43.93c-64,211.54,56,435.75,267.51,499.78S1525.16,684.42,1589.19,472.88Z" fill="url(#radial-gradient-2)"/>
      <path d="M1303.37,204.22a37.89,37.89,0,0,0-9.06,1.1,39.85,39.85,0,0,0,1-8.77,39.16,39.16,0,0,0-61.26-32.25,65.77,65.77,0,0,0-129.39,16.54,49.41,49.41,0,0,0,0,98.82h198.71a37.72,37.72,0,1,0,0-75.44Z" fill="url(#radial-gradient-3)"/>
      <path d="M734.4,867.24V679.31h0a4.17,4.17,0,0,0-4.15-3.75c-3.39,0-4.91-1.37-7.2-3.45-2.77-2.5-6.21-5.62-12.84-5.62s-10.07,3.12-12.84,5.62c-2.29,2.08-3.81,3.45-7.2,3.45s-4.9-1.37-7.2-3.45c-2.76-2.5-6.21-5.62-12.84-5.62s-10.07,3.12-12.84,5.62c-2.29,2.08-3.8,3.45-7.2,3.45s-4.9-1.37-7.2-3.45c-2.77-2.5-6.21-5.62-12.84-5.62s-10.07,3.12-12.84,5.62c-2.29,2.08-3.81,3.45-7.2,3.45a4.18,4.18,0,0,0-4.16,3.75h0V866.36a4.71,4.71,0,0,0-.1.92,4.21,4.21,0,0,0,4.2,4.2h.1c6.63,0,10.07-3.12,12.84-5.63,2.28-2.07,3.8-3.43,7.16-3.44s4.88,1.37,7.16,3.44c2.77,2.51,6.22,5.63,12.85,5.63H650c6.63,0,10.07-3.12,12.84-5.63,2.29-2.07,3.81-3.45,7.2-3.45s4.91,1.38,7.2,3.45c2.77,2.51,6.21,5.63,12.84,5.63s10.07-3.12,12.84-5.63c2.29-2.07,3.81-3.45,7.2-3.45s4.91,1.38,7.2,3.45c2.77,2.51,6.21,5.63,12.84,5.63a4.2,4.2,0,0,0,4.16-3.8h0v-.44Z" fill="url(#linear-gradient)"/>
      <line x1="630.66" y1="684.67" x2="630.66" y2="845.51" fill="none" stroke="#9059ff" stroke-linecap="round" stroke-linejoin="round" stroke-width="3" opacity="0.4" style="isolation: isolate"/>
      <g opacity="0.4">
        <line x1="669.26" y1="684.67" x2="669.26" y2="776.89" fill="none" stroke="#9059ff" stroke-linecap="round" stroke-linejoin="round" stroke-width="3"/>
        <line x1="669.26" y1="797.26" x2="669.26" y2="825.14" fill="none" stroke="#9059ff" stroke-linecap="round" stroke-linejoin="round" stroke-width="3"/>
      </g>
      <g opacity="0.4">
        <line x1="711.55" y1="684.67" x2="711.55" y2="740.43" fill="none" stroke="#9059ff" stroke-linecap="round" stroke-linejoin="round" stroke-width="3"/>
        <line x1="711.55" y1="757.59" x2="711.55" y2="773.67" fill="none" stroke="#9059ff" stroke-linecap="round" stroke-linejoin="round" stroke-width="3"/>
        <line x1="711.12" y1="795.12" x2="711.55" y2="832.65" fill="none" stroke="#9059ff" stroke-linecap="round" stroke-linejoin="round" stroke-width="3"/>
      </g>
      <path d="M685.27,690.44H509.12a13.2,13.2,0,0,0-13.21,13.19h0V830.34a13.2,13.2,0,0,0,13.19,13.21H689.67a8.83,8.83,0,0,0,8.81-8.81V703.65a13.2,13.2,0,0,0-13.19-13.21Z" fill="#7542e5"/>
      <path d="M688.24,687.86h-182a13.67,13.67,0,0,0-13.64,13.65V832.4A13.64,13.64,0,0,0,506.25,846H692.79a9.11,9.11,0,0,0,9.1-9.09V701.51A13.65,13.65,0,0,0,688.24,687.86Zm4.55,18.2H501.7v-4.55a4.55,4.55,0,0,1,4.55-4.55h182a4.55,4.55,0,0,1,4.55,4.55Z" fill="url(#linear-gradient-2)"/>
      <path d="M617.68,786.23c-7.71,0-13-9.27-20.43-9.27s-13.19,9.27-20.44,9.27c-9.51,0-16.53-9-16.64-24.44-.07-9.59,2.79-12.64,15.13-12.64s16,5.05,22,5.05,9.6-5.05,21.94-5.05,15.21,3.05,15.14,12.64C634.21,777.22,627.19,786.23,617.68,786.23Zm-36.33-25.29c-7.5.33-10.59,4.8-10.59,5.9s5,4.22,9.84,4.22,10.59-1.79,10.59-3.37C591.19,765.91,588.44,760.64,581.35,760.94Zm31.79,0c-7.08-.3-9.84,5-9.84,6.75,0,1.58,5.73,3.37,10.59,3.37s9.84-3.12,9.84-4.22S620.64,761.27,613.14,760.94Z" fill="#f9f9fa"/>
      <path d="M588.86,679.58h0a4.17,4.17,0,0,0-4.15-3.75c-3.39,0-4.91-1.37-7.2-3.45-2.77-2.5-6.21-5.62-12.84-5.62s-10.07,3.12-12.84,5.62c-2.29,2.08-3.81,3.45-7.2,3.45s-4.9-1.37-7.2-3.45c-2.76-2.5-6.21-5.62-12.84-5.62s-10.07,3.12-12.84,5.62c-2.29,2.08-3.8,3.45-7.2,3.45s-4.9-1.37-7.2-3.45c-2.77-2.5-6.21-5.62-12.84-5.62s-10.07,3.12-12.84,5.62c-2.29,2.08-3.81,3.45-7.2,3.45a4.17,4.17,0,0,0-4.15,3.75h0V867.94h0a4.18,4.18,0,0,0,4.16,3.8c6.63,0,10.08-3.11,12.85-5.62,2.29-2.08,3.81-3.45,7.21-3.45s4.91,1.37,7.21,3.45c2.77,2.51,6.21,5.62,12.84,5.62a4.18,4.18,0,0,0,4.16-3.81h.05s1.34-51.92,1.34-76.58-2.41-35.11-2.41-35.11,19.14-9.8,43.69-31.9a223.37,223.37,0,0,0,35.92-41.06,4.15,4.15,0,0,0,1.58-3.26v-.29Z" fill="url(#linear-gradient-3)"/>
      <g opacity="0.4">
        <line x1="483.49" y1="684.67" x2="483.49" y2="776.89" fill="none" stroke="#9059ff" stroke-linecap="round" stroke-linejoin="round" stroke-width="3"/>
        <line x1="483.49" y1="797.26" x2="483.49" y2="825.14" fill="none" stroke="#9059ff" stroke-linecap="round" stroke-linejoin="round" stroke-width="3"/>
      </g>
      <path d="M492.81,764.12a64.83,64.83,0,0,1-8-.49c-17.43-2.18-26.81-9.09-27.2-9.38a4.2,4.2,0,0,1,5-6.73c.17.12,8.25,5.91,23.21,7.78a67.94,67.94,0,0,0,23-1.5,4.2,4.2,0,0,1,2.21,8.11h0A76.1,76.1,0,0,1,492.81,764.12Z" fill="#592acb"/>
    </g>
  </g>
  <path d="M1256.41,621.75h-6.58V440.33a13,13,0,0,0-12.95-13.05H982a13,13,0,0,0-13,13V621.75h-6.58a6.5,6.5,0,0,0-6.49,6.5V641.4a6.5,6.5,0,0,0,6.49,6.5h294.07a6.5,6.5,0,0,0,6.5-6.5h0V628.25a6.5,6.5,0,0,0-6.5-6.5h-.08Zm-120.88,13.07h-52.3V621.75h52.3Z" fill="url(#linear-gradient-4)"/>
  <path d="M1146.46,490.42l-6.18,6.18V509h-12.36V496.6l-6.18-6.18-6.18,6.18V509H1103.2V496.6l-6.18-6.18-6.18,6.18V509h-12.36V496.6l-6.18-6.18-6.18,6.18v68h12.36V552.22h12.36v12.36h12.36V552.22h12.36v12.36h12.36V552.22h12.36v12.36h12.36v-68ZM1090.84,546h-12.36V515.1h12.36Zm25.32,0h-10.92V517.78h10.92Zm24.12,0h-12.36V515.1h12.36Z" fill="#f9f9fa" fill-rule="evenodd"/>
  <path d="M1050,299.55H942.57a23.36,23.36,0,0,0-23.33,23.33v59.27a23.36,23.36,0,0,0,23.33,23.33h56.21l28.56,35a9.62,9.62,0,0,0,17.08-6.09V405.48H1050a23.36,23.36,0,0,0,23.33-23.33V322.88A23.36,23.36,0,0,0,1050,299.55Z" fill="url(#linear-gradient-5)"/>
  <path d="M1023.29,342.66a3.67,3.67,0,0,0-2.84-2.45l-13.63-2.43-6.43-12.91a3.67,3.67,0,0,0-6.57,0l-6.43,12.91-13.62,2.43a3.68,3.68,0,0,0-2,6.12l9.77,10.5-2,14.55a3.68,3.68,0,0,0,3.14,4.15h0a4,4,0,0,0,.49,0,3.56,3.56,0,0,0,1.69-.42l12.33-6.42,12.31,6.41a3.66,3.66,0,0,0,5.34-3.76l-2-14.54,9.77-10.5A3.68,3.68,0,0,0,1023.29,342.66Z" fill="#f9f9fa"/>
  <path d="M870.05,508.12A111.47,111.47,0,0,0,758.71,619.46a15.91,15.91,0,1,0,31.81.8h0v-.8a79.53,79.53,0,1,1,159.05-1.9v1.9c0,33.37-9.64,51.82-18.15,68.11-6.71,12.87-13.66,26.15-13.66,43.23a15.91,15.91,0,0,0,31.81.8h0v-.8c0-9.27,4.21-17.33,10-28.5,9.18-17.58,21.77-41.66,21.77-82.84A111.48,111.48,0,0,0,870.05,508.12Z" fill="url(#linear-gradient-6)"/>
  <path d="M870.05,555.84a63.69,63.69,0,0,0-63.63,63.62c0,10-8,31.81-31.81,31.81a15.91,15.91,0,1,0,0,31.82c39.3,0,63.62-33,63.62-63.63a31.82,31.82,0,0,1,63.63,0c0,39.75-13.47,57.55-27.72,76.41-6.41,8.48-13,17.24-18.32,27.82a15.91,15.91,0,0,0,28.45,14.23c4-8,9.46-15.21,15.25-22.87,15.21-20.13,34.15-45.18,34.15-95.59A63.69,63.69,0,0,0,870.05,555.84Z" fill="url(#linear-gradient-7)"/>
  <path d="M870.05,603.56a15.9,15.9,0,0,0-15.91,15.89h0c0,66.93-83.74,96-84.58,96.26a15.9,15.9,0,0,0,10.09,30.16C784,744.44,886,709.41,886,619.46a15.9,15.9,0,0,0-15.9-15.9h-.05Z" fill="url(#linear-gradient-8)"/>
  <rect x="1040.54" y="683.16" width="137.86" height="95.3" rx="18.45" fill="url(#linear-gradient-9)"/>
  <path d="M1053.84,758a3.45,3.45,0,0,0,4.8.77l34.88-25.27.28.22a23.81,23.81,0,0,0,21.55,4.61,30.58,30.58,0,0,0,9.88-4.57l.23-.18,34.78,25.19a3.44,3.44,0,0,0,4.45-5.25,3.65,3.65,0,0,0-.45-.32l-33.07-23.94,25.94-19.54a3.4,3.4,0,0,0,1.34-2.27,3.44,3.44,0,0,0-2.93-3.88H1155a3.41,3.41,0,0,0-2.06.69l-31.92,24c-.12.09-12.11,8.86-23.1,0l-31.91-24a3.52,3.52,0,0,0-4.82.68,3.45,3.45,0,0,0,.68,4.81l25.84,19.46-33.17,24a3.44,3.44,0,0,0-.77,4.8Z" fill="#f9f9fa"/>
  <path d="M1243.73,329.82s2.55,14.53,7.47,19.44,19.44,7.47,19.44,7.47-14.53,2.35-19.44,7.27-7.47,19.64-7.47,19.64-2.36-14.73-7.27-19.64-19.65-7.27-19.65-7.27,14.74-2.56,19.65-7.47,7.27-19.44,7.27-19.44m0-12h-.09a12,12,0,0,0-11.72,10c-.82,4.94-2.69,11-3.94,12.89-1.91,1.29-8.15,3.26-13.23,4.16a12,12,0,0,0,.17,23.59c5,.81,11.14,2.68,13.06,3.94,1.26,1.92,3.12,8.07,3.94,13.07a12,12,0,0,0,11.74,10h.06a12,12,0,0,0,11.79-9.91c.89-5.06,2.87-11.31,4.16-13.21,1.87-1.26,8.06-3.16,12.88-3.94a12,12,0,0,0,.16-23.59c-5-.89-11.18-2.88-13-4.16-1.28-1.86-3.3-8.15-4.16-13a12,12,0,0,0-11.78-9.88Zm-38.88,86.72h0a3,3,0,0,1-2.94-2.52c-.43-2.7-1.5-6.2-2.38-7.09s-4.39-2-7.09-2.39a3,3,0,0,1,0-5.9c2.72-.48,6.24-1.59,7.14-2.49s2-4.4,2.39-7a3,3,0,0,1,2.93-2.51h0a3,3,0,0,1,2.94,2.47c.48,2.68,1.59,6.15,2.5,7.05s4.42,2,7,2.49a3,3,0,0,1,0,5.9c-2.66.43-6.11,1.5-7,2.39s-2,4.42-2.49,7.13a3,3,0,0,1-3,2.51Zm-3-65.79h0a3,3,0,0,1-2.94-2.51,13.93,13.93,0,0,0-1.58-4.91,13.88,13.88,0,0,0-4.9-1.58,3,3,0,0,1,0-5.9,14.26,14.26,0,0,0,5-1.66,13.6,13.6,0,0,0,1.59-4.84,3,3,0,0,1,2.93-2.51h0a3,3,0,0,1,2.94,2.47,14.12,14.12,0,0,0,1.67,4.89,13.83,13.83,0,0,0,4.88,1.65,3,3,0,0,1,0,5.9,13.83,13.83,0,0,0-4.85,1.58,14.48,14.48,0,0,0-1.66,4.95,3,3,0,0,1-3,2.51Zm-37.22,20.91h0a3,3,0,0,1-2.93-2.51c-.43-2.71-1.5-6.2-2.39-7.1s-4.39-1.95-7.09-2.38a3,3,0,0,1,0-5.9c2.71-.48,6.23-1.6,7.13-2.5s2-4.4,2.39-7a3,3,0,0,1,2.93-2.51h0a3,3,0,0,1,2.95,2.47c.48,2.67,1.59,6.15,2.49,7s4.43,2,7,2.49a3,3,0,0,1,0,5.89c-2.66.44-6.11,1.5-7,2.39s-2,4.42-2.48,7.14a3,3,0,0,1-3,2.51Zm-50.18,11.06h0a3,3,0,0,1-2.93-2.51,14,14,0,0,0-1.59-4.91,13.88,13.88,0,0,0-4.9-1.58,3,3,0,0,1,0-5.9,14.43,14.43,0,0,0,4.94-1.66c.5-.51,1.27-2.87,1.59-4.85a3,3,0,0,1,2.93-2.5h0a3,3,0,0,1,3,2.46,14,14,0,0,0,1.66,4.9,14.32,14.32,0,0,0,4.88,1.65,3,3,0,0,1,0,5.89,13.8,13.8,0,0,0-4.84,1.59,14.26,14.26,0,0,0-1.66,5,3,3,0,0,1-3.07,2.46Z" fill="url(#linear-gradient-10)"/>
</svg>
