<svg id="Layer_1" data-name="Layer 1" xmlns="http://www.w3.org/2000/svg" viewBox="0 0 526.97 394.83"><title>Javascript-API</title><path d="M79.55,134.77c-42.69,54.38-19.95,127.72,53.1,179.35,80.28,56.74,256.92-27.83,314.19-83.4,52-50.49,49.15-138-8.29-180.41S120.84,82.18,79.55,134.77Z" style="fill:#ccf4ff"/><path d="M158.92,236.67a13.49,13.49,0,0,1-5.29-1,6.33,6.33,0,0,1-4-6.11c0-2.35,1.37-3.79,2.69-5.19s2.79-3,2.79-5.68c0-2.26-3-5.53-8.59-5.53s-8.24,3.3-8.24,5.53c0,2.72,1.4,4.16,2.89,5.67s2.77,2.84,2.77,5.2c0,5.26-4.78,7.14-9.26,7.14-.37,0-.59,0-.59,0H115.62a6.49,6.49,0,0,1-6.45-6.51l0-17.35c0-.12-.3-4.46,2.17-7.11a6.46,6.46,0,0,1,5-2c2.39,0,3.71,1.47,5,2.9s2.64,2.94,5.32,2.94c2.44,0,4.91-2.76,4.91-8.05s-2.46-7.75-4.91-7.75c-2.68,0-4,1.43-5.32,3s-2.6,2.9-5,2.9a6.37,6.37,0,0,1-4.88-2c-2.54-2.73-2.25-7.3-2.24-7.49l0-11.05a6.53,6.53,0,0,1,1.22-3.79,6.45,6.45,0,0,1,5.23-2.72h13.75c-.05,0,4.07-.78,4.07-3.48,0-1.07-.59-1.73-1.64-2.79a9.26,9.26,0,0,1-3.26-7.35c0-3.41,1.58-9.15,12.14-9.15,11.36,0,12.58,6.4,12.58,9.15,0,4.09-2,5.91-3.55,7.38-1.15,1.06-1.8,1.71-1.8,2.76,0,2.73,4.18,3.48,4.22,3.49h14.74a6.49,6.49,0,0,1,6.45,6.51v8.28s.54,4.52,3.19,4.52c1,0,1.57-.58,2.51-1.71a8.16,8.16,0,0,1,7-3.49c3.59,0,9.6,1.56,9.6,12,0,11.53-7.35,12.43-9.6,12.43-4.12,0-5.81-2.14-7.05-3.7-.94-1.18-1.47-1.8-2.49-1.8-2.67,0-3.19,4.42-3.2,4.46v20.09a6.49,6.49,0,0,1-6.45,6.51h-7.41A3.7,3.7,0,0,1,158.92,236.67Z" style="fill:#00c8d7"/><rect x="175.64" y="94.33" width="194.63" height="156.85" style="fill:#4030db"/><path d="M367.6,266H178.22a17.22,17.22,0,0,1-17.2-17.2v-176a17.22,17.22,0,0,1,17.2-17.2H367.6a17.22,17.22,0,0,1,17.2,17.2v176A17.22,17.22,0,0,1,367.6,266ZM178.22,57.59A15.22,15.22,0,0,0,163,72.79v176a15.22,15.22,0,0,0,15.2,15.2H367.6a15.22,15.22,0,0,0,15.2-15.2v-176a15.22,15.22,0,0,0-15.2-15.2Z" style="fill:#4030db"/><path d="M364.07,67.34H178.14a6.87,6.87,0,0,0-6.85,6.85V247.44a6.24,6.24,0,0,0,6.42,6H364.52a6.23,6.23,0,0,0,6.46-6V74.27a6.86,6.86,0,0,0-6.79-6.93ZM354,77.92a4.19,4.19,0,1,1-4.19,4.19A4.2,4.2,0,0,1,354,77.92Zm-13.52,0a4.19,4.19,0,1,1-4.18,4.19,4.19,4.19,0,0,1,4.18-4.19Zm-120.67,4a4.53,4.53,0,0,1,4.53-4.53h93.44a4.53,4.53,0,0,1,4.53,4.53v.41a4.53,4.53,0,0,1-4.53,4.53H224.38a4.53,4.53,0,0,1-4.53-4.53h0Zm-18.16-4a4.19,4.19,0,1,1-4.23,4.19,4.2,4.2,0,0,1,4.23-4.19Zm-13.52,0A4.19,4.19,0,1,1,184,82.11h0A4.2,4.2,0,0,1,188.17,77.92Zm178,165.75c0,2.94-1.09,4-4,4H180.05c-2.94,0-4-1.1-4-4V97H366.19Z" style="fill:#00c8d7"/><path d="M110.34,133.39a1,1,0,0,1-.71-.29,1,1,0,0,1,0-1.42l19.28-19.28a2.92,2.92,0,0,0,0-4.13L109.63,89a1,1,0,0,1,1.42-1.42l19.28,19.28a4.92,4.92,0,0,1,0,7L111.05,133.1A1,1,0,0,1,110.34,133.39Z" style="fill:#4030db"/><path d="M91.34,133.39a1,1,0,0,1-.71-.29L71.35,113.81a4.92,4.92,0,0,1,0-7L90.63,87.57A1,1,0,0,1,92.05,89L72.76,108.27a2.94,2.94,0,0,0,0,4.13l19.29,19.28a1,1,0,0,1,0,1.42A1,1,0,0,1,91.34,133.39Z" style="fill:#4030db"/><path d="M448.93,195.08a1,1,0,0,1-.71-1.71L460.58,181a1.51,1.51,0,0,0,0-2.14l-12.36-12.36a1,1,0,0,1,0-1.41,1,1,0,0,1,1.42,0L462,177.46a3.52,3.52,0,0,1,0,5l-12.35,12.35A1,1,0,0,1,448.93,195.08Z" style="fill:#4030db"/><path d="M436.75,195.08a1,1,0,0,1-.71-.3l-12.35-12.35a3.52,3.52,0,0,1,0-5L436,165.1a1,1,0,0,1,1.42,0,1,1,0,0,1,0,1.41L425.1,178.87a1.51,1.51,0,0,0,0,2.14l12.36,12.36a1,1,0,0,1-.71,1.71Z" style="fill:#4030db"/><path d="M264,353.06a1,1,0,0,1-.7-.3,1,1,0,0,1,0-1.41l24.72-24.73a4,4,0,0,0,0-5.7l-24.72-24.73a1,1,0,0,1,1.41-1.41l24.73,24.73a6,6,0,0,1,0,8.52l-24.73,24.73A1,1,0,0,1,264,353.06Z" style="fill:#4030db"/><path d="M239.67,353.06a1,1,0,0,1-.71-.3L214.24,328a6,6,0,0,1,0-8.52L239,294.78a1,1,0,0,1,1.42,0,1,1,0,0,1,0,1.41l-24.73,24.73a4,4,0,0,0,0,5.7l24.73,24.73a1,1,0,0,1-.71,1.71Z" style="fill:#4030db"/><path d="M282.5,186.74l-86.64.09a2,2,0,1,1,0-4.08l86.63-.08a2,2,0,0,1,0,4.07Zm-5.29,12a2,2,0,0,0-2-2l-79.29.08a2,2,0,0,0,0,4.07l79.29-.08A2,2,0,0,0,277.21,198.72Z" style="fill:#fff"/><path d="M282.5,214.66l-86.64.09a2,2,0,1,1,0-4.07l86.63-.09a2,2,0,0,1,0,4.07Zm-25.6,12a2,2,0,0,0-2-2l-59,.07a2,2,0,0,0,0,4.07l59-.07A2,2,0,0,0,256.9,226.65Z" style="fill:#fff"/><path d="M273.26,120.28l-77.4.09a2,2,0,1,1,0-4.07l77.39-.09a2,2,0,1,1,0,4.07Zm22.42,12a2,2,0,0,0-2-2l-97.76.08a2,2,0,0,0,0,4.07l97.76-.07A2,2,0,0,0,295.68,132.27Z" style="fill:#fff"/><path d="M264,148.2l-68.17.09a2,2,0,1,1,0-4.07l68.16-.09a2,2,0,1,1,0,4.07Zm-25.6,12a2,2,0,0,0-2-2l-40.51.07a2,2,0,0,0,0,4.07l40.5-.07A2,2,0,0,0,238.43,160.19Z" style="fill:#fff"/><path d="M434.53,138.2a9.26,9.26,0,0,1-3.63-.7,4.36,4.36,0,0,1-2.73-4.2,5.08,5.08,0,0,1,1.84-3.56,5.25,5.25,0,0,0,1.93-3.9c0-1.55-2.11-3.8-5.91-3.8s-5.65,2.27-5.65,3.8c0,1.87,1,2.85,2,3.89s1.9,2,1.9,3.57c0,3.62-3.28,4.9-6.36,4.9H404.8a4.45,4.45,0,0,1-4.43-4.47V121.8a7.24,7.24,0,0,1,1.49-4.88,4.46,4.46,0,0,1,3.4-1.36c1.64,0,2.55,1,3.43,2s1.81,2,3.65,2c1.68,0,3.38-1.9,3.38-5.53s-1.7-5.33-3.38-5.33c-1.84,0-2.72,1-3.65,2s-1.79,2-3.43,2a4.37,4.37,0,0,1-3.35-1.35c-1.75-1.88-1.55-5-1.54-5.14V98.65a4.45,4.45,0,0,1,.84-2.6,4.4,4.4,0,0,1,3.59-1.88h9.44s2.8-.53,2.8-2.38c0-.74-.41-1.19-1.13-1.92a6.33,6.33,0,0,1-2.24-5c0-2.35,1.09-6.29,8.34-6.29,7.8,0,8.64,4.4,8.64,6.29a6.19,6.19,0,0,1-2.44,5.06c-.79.73-1.24,1.18-1.24,1.9,0,1.87,2.87,2.39,2.9,2.39H440a4.46,4.46,0,0,1,4.43,4.48v5.69s.37,3.1,2.2,3.1c.7,0,1.07-.4,1.72-1.17a5.58,5.58,0,0,1,4.83-2.4c2.46,0,6.59,1.07,6.59,8.23,0,7.92-5.05,8.54-6.59,8.54a5.53,5.53,0,0,1-4.84-2.54c-.65-.81-1-1.24-1.71-1.24-1.84,0-2.2,3-2.2,3.07v13.79a4.45,4.45,0,0,1-4.43,4.47h-5.46Z" style="fill:#00c8d7"/></svg>