<svg id="Layer_1" data-name="Layer 1" xmlns="http://www.w3.org/2000/svg" xmlns:xlink="http://www.w3.org/1999/xlink" width="1203.33" height="476.67" viewBox="0 0 1203.33 476.67"><defs><linearGradient id="linear-gradient" x1="163.33" y1="-197.33" x2="1036.67" y2="676" gradientTransform="matrix(1, 0, 0, -1, 0, 476)" gradientUnits="userSpaceOnUse"><stop offset="0" stop-color="#7542e5"/><stop offset="1" stop-color="#0090ed"/></linearGradient><linearGradient id="linear-gradient-2" x1="419.8" y1="49.48" x2="753.05" y2="405.65" gradientTransform="matrix(1, 0, 0, -1, 0, 476)" gradientUnits="userSpaceOnUse"><stop offset="0.26" stop-color="#9059ff"/><stop offset="0.96" stop-color="#00b3f4"/></linearGradient><clipPath id="clip-path"><path d="M600.43,73.89a159.55,159.55,0,1,0,.05,0Zm0,45.57a68.37,68.37,0,1,1-68.37,68.37h0A68.37,68.37,0,0,1,600.43,119.46Zm93.76,177.89c-20.44,30.09-54.64,50-93.76,50s-73.32-19.91-93.76-50a23,23,0,0,1,1.54-28c24.09-27.81,57.51,9.62,92.22,9.62s68.13-37.43,92.22-9.62A23,23,0,0,1,694.19,297.35Z" style="fill:none"/></clipPath><radialGradient id="radial-gradient" cx="696.22" cy="391.9" r="376.16" gradientTransform="matrix(1, 0, 0, -1, 0, 476)" gradientUnits="userSpaceOnUse"><stop offset="0.15" stop-color="#0df"/><stop offset="0.52" stop-color="#70baff"/><stop offset="0.83" stop-color="#cb9eff"/></radialGradient><linearGradient id="linear-gradient-3" x1="529.96" y1="242.58" x2="725.53" y2="242.58" gradientTransform="matrix(1, 0, 0, -1, 0, 476)" gradientUnits="userSpaceOnUse"><stop offset="0.33" stop-color="#f0f0f4"/><stop offset="0.75" stop-color="#fbfbfe"/></linearGradient><clipPath id="clip-path-2"><path d="M532.06,187.83a68.37,68.37,0,1,1,68.37,68.37h0A68.37,68.37,0,0,1,532.06,187.83ZM600.43,279c-34.71,0-68.13-37.43-92.22-9.62a23,23,0,0,0-1.54,28c20.44,30.09,54.64,50,93.76,50s73.32-19.91,93.76-50a23,23,0,0,0-1.54-28C668.56,241.56,635.14,279,600.43,279Z" style="fill:none"/></clipPath><linearGradient id="linear-gradient-4" x1="167.24" y1="-62.64" x2="997.13" y2="767.25" gradientTransform="matrix(1, 0, 0, -1, 0, 476)" gradientUnits="userSpaceOnUse"><stop offset="0" stop-color="#ab71ff"/><stop offset="1" stop-color="#0df"/></linearGradient></defs><title>amo_dev-hub_illustration-assets-v2-EDITED_Our Policies</title><rect x="-15.89" y="-14.61" width="1229.36" height="500.94" style="fill:none"/><rect x="-20" y="-16.67" width="1240" height="506.67" style="fill:url(#linear-gradient)"/><circle cx="600.43" cy="187.83" r="68.37" transform="translate(43.05 479.58) rotate(-45)" style="fill:none"/><path d="M600.43,279c-34.71,0-68.13-37.43-92.22-9.62a23,23,0,0,0-1.54,28c20.44,30.09,54.64,50,93.76,50s73.32-19.91,93.76-50a23,23,0,0,0-1.54-28C668.56,241.56,635.14,279,600.43,279Z" style="fill:none"/><path d="M600.43,73.89a159.55,159.55,0,1,0,.05,0Zm0,45.57a68.37,68.37,0,1,1-68.37,68.37h0A68.37,68.37,0,0,1,600.43,119.46Zm93.76,177.89c-20.44,30.09-54.64,50-93.76,50s-73.32-19.91-93.76-50a23,23,0,0,1,1.54-28c24.09-27.81,57.51,9.62,92.22,9.62s68.13-37.43,92.22-9.62A23,23,0,0,1,694.19,297.35Z" style="fill:url(#linear-gradient-2)"/><g style="clip-path:url(#clip-path)"><path id="Layer_3" data-name="Layer 3" d="M793.46,184.68A30.29,30.29,0,0,1,763.29,215H642a23.16,23.16,0,0,1,0-46.31,22.58,22.58,0,0,1,5.55.71,23.87,23.87,0,0,1,36.75-25.06,40.13,40.13,0,0,1,79,10.09A30.29,30.29,0,0,1,793.46,184.68Zm-263.2,59a34.48,34.48,0,0,0-8.34,1A36,36,0,0,0,466.5,207a60.49,60.49,0,0,0-119,15.21,45.45,45.45,0,0,0-1.35,90.89H530.26a34.69,34.69,0,1,0,0-69.38Z" style="opacity:0.30000001192092896;isolation:isolate;fill:url(#radial-gradient)"/></g><path d="M532.06,187.83a68.37,68.37,0,1,1,68.37,68.37h0A68.37,68.37,0,0,1,532.06,187.83ZM600.43,279c-34.71,0-68.13-37.43-92.22-9.62a23,23,0,0,0-1.54,28c20.44,30.09,54.64,50,93.76,50s73.32-19.91,93.76-50a23,23,0,0,0-1.54-28C668.56,241.56,635.14,279,600.43,279Z" style="fill:url(#linear-gradient-3)"/><g style="clip-path:url(#clip-path-2)"><path d="M542.94,174.23a68.37,68.37,0,1,1,68.37,68.37h0A68.37,68.37,0,0,1,542.94,174.23Zm68.37,91.16c-34.71,0-68.13-37.43-92.22-9.62a23,23,0,0,0-1.55,28c20.45,30.08,54.64,50,93.77,50s73.32-19.92,93.76-50a23,23,0,0,0-1.54-28C679.43,228,646,265.39,611.31,265.39Z" style="fill:#fbfbfe"/></g><path d="M948.77,250.66H825.28a12.35,12.35,0,0,0,0,24.7H948.77a12.35,12.35,0,1,0,0-24.7Zm0,49.39H825.28a12.35,12.35,0,0,0,0,24.7H948.77a12.35,12.35,0,1,0,0-24.7Zm0,49.4H825.28a12.35,12.35,0,0,0,0,24.7H948.77a12.35,12.35,0,1,0,0-24.7Zm-74.09,49.39h-49.4a12.35,12.35,0,0,0,0,24.7h49.4a12.35,12.35,0,0,0,0-24.7Zm265.83-458.6H1017a12.33,12.33,0,0,0-12.35,12.33v0A12.33,12.33,0,0,0,1017-35.06h123.5a12.33,12.33,0,0,0,12.35-12.33v0a12.34,12.34,0,0,0-12.32-12.35Zm0,49.4H1017a12.35,12.35,0,1,0-.7,24.69h124.18a12.35,12.35,0,1,0,.7-24.69h-.67Zm0,49.39H1017a12.35,12.35,0,0,0,0,24.7h123.48a12.35,12.35,0,0,0,0-24.7Zm-74.09,49.39H1017a12.35,12.35,0,0,0,0,24.7h49.39a12.35,12.35,0,0,0,0-24.7Zm74.09,58.79H1017a12.35,12.35,0,0,0,0,24.7h123.48a12.35,12.35,0,0,0,0-24.7Zm0,49.4H1017a12.35,12.35,0,1,0-.7,24.69h124.18a12.35,12.35,0,1,0,.7-24.69c-.23,0-.47,0-.7,0Zm0,49.39H1017a12.35,12.35,0,0,0,0,24.7h123.48a12.35,12.35,0,0,0,0-24.7Zm-74.09,49.39H1017a12.35,12.35,0,0,0,0,24.7h49.39a12.35,12.35,0,0,0,0-24.7h0ZM375.58,43.76H252.09a12.35,12.35,0,1,0,0,24.7H375.58a12.35,12.35,0,1,0,0-24.7Zm0,49.4H252.09a12.35,12.35,0,1,0-.7,24.69c.23,0,.47,0,.7,0H375.58a12.35,12.35,0,1,0,.7-24.69Zm0,49.39H252.09a12.35,12.35,0,0,0,0,24.7H375.58a12.35,12.35,0,1,0,0-24.7Zm-74.09,49.39h-49.4a12.35,12.35,0,0,0,0,24.7h49.4a12.35,12.35,0,0,0,0-24.7Zm74.09,58.72H252.09a12.35,12.35,0,1,0,0,24.7H375.58a12.35,12.35,0,1,0,0-24.7Zm0,49.39H252.09a12.35,12.35,0,1,0,0,24.7H375.58a12.35,12.35,0,1,0,0-24.7Zm0,49.4H252.09a12.35,12.35,0,0,0,0,24.7H375.58a12.35,12.35,0,0,0,0-24.7Zm-74.09,49.39h-49.4a12.35,12.35,0,1,0,0,24.7h49.4a12.35,12.35,0,0,0,0-24.7ZM183.83-59.76H60.35A12.33,12.33,0,0,0,48-47.43v0A12.33,12.33,0,0,0,60.33-35.06h123.5a12.33,12.33,0,0,0,12.35-12.33v0a12.33,12.33,0,0,0-12.33-12.35Zm0,49.4H60.35a12.35,12.35,0,1,0-.7,24.69H183.83a12.35,12.35,0,1,0,.7-24.69Zm0,49.39H60.35a12.35,12.35,0,0,0,0,24.7H183.83a12.35,12.35,0,0,0,0-24.7ZM109.74,88.42H60.35a12.35,12.35,0,1,0,0,24.7h49.4a12.35,12.35,0,1,0,0-24.7Zm74.09,58.79H60.35a12.35,12.35,0,0,0,0,24.7H183.83a12.35,12.35,0,0,0,0-24.7Zm0,49.4H60.35a12.35,12.35,0,1,0-.7,24.69H183.83a12.35,12.35,0,1,0,.7-24.69c-.23,0-.47,0-.7,0Zm0,49.39H60.35a12.35,12.35,0,0,0,0,24.7H183.83a12.35,12.35,0,0,0,0-24.7Zm-74.09,49.39H60.35a12.35,12.35,0,0,0,0,24.7h49.39a12.35,12.35,0,1,0,0-24.7Z" style="fill:url(#linear-gradient-4)"/><path d="M948.77,39H825.28a12.35,12.35,0,0,0,0,24.7H948.77a12.35,12.35,0,0,0,0-24.7Z" style="fill:#fff"/><path d="M948.77,88.42H825.28a12.35,12.35,0,0,0,0,24.7H948.77a12.35,12.35,0,1,0,0-24.7Z" style="fill:#fff"/><path d="M948.77,147.21H825.28a12.35,12.35,0,0,0,0,24.7H948.77a12.35,12.35,0,1,0,0-24.7Z" style="fill:#fff"/><path d="M874.68,196.6h-49.4a12.35,12.35,0,0,0,0,24.7h49.4a12.35,12.35,0,1,0,0-24.7Z" style="fill:#fff"/><path d="M183.84,349.44H60.36A12.34,12.34,0,0,0,48,361.77v0a12.33,12.33,0,0,0,12.33,12.35h123.5a12.34,12.34,0,0,0,12.35-12.33v0a12.35,12.35,0,0,0-12.33-12.35Z" style="fill:#fff"/><path d="M183.84,398.84H60.36a12.35,12.35,0,0,0-.71,24.69c.24,0,.47,0,.71,0H183.84a12.35,12.35,0,0,0,.7-24.69Z" style="fill:#fff"/><path d="M183.84,448.23H60.36a12.35,12.35,0,0,0,0,24.7H183.84a12.35,12.35,0,0,0,0-24.7Z" style="fill:#fff"/><path d="M1140.48,349.44H1017a12.35,12.35,0,0,0-12.35,12.33v0A12.33,12.33,0,0,0,1017,374.14h123.5a12.33,12.33,0,0,0,12.35-12.33v0a12.34,12.34,0,0,0-12.33-12.35Z" style="fill:#fff"/><path d="M1140.48,398.84H1017a12.35,12.35,0,1,0-.7,24.69c.23,0,.47,0,.7,0h123.48a12.35,12.35,0,1,0,.7-24.69Z" style="fill:#fff"/><path d="M1140.48,448.23H1017a12.35,12.35,0,0,0,0,24.7h123.48a12.35,12.35,0,0,0,0-24.7Z" style="fill:#fff"/></svg>