<svg id="Layer_1" data-name="Layer 1" xmlns="http://www.w3.org/2000/svg" viewBox="0 0 526.97 394.83"><title>Manifest-Keys</title><path d="M130.2,103.33C78.66,138.83,41.45,215.13,97.4,273,190.19,369,311.94,342.17,365,283.9c44.21-48.56,79.53-203.15,8-243.62C319.26,9.87,180,69,130.2,103.33Z" style="fill:#ccf4ff"/><path d="M432.88,141.09H395.4c-3.28-6-11.42-19-21.61-20.93-13.52-2.58-16.22,10.9-16.22,10.9s-9-23.37-31.73-20.28c-25.3,3.43-13.7,29.87-13.51,30.29H274.65l-.19,0h-.09a3.23,3.23,0,0,0,.28,6.45l158.23,0a3.24,3.24,0,0,0,0-6.48Z" style="fill:#4f42ff"/><rect x="152.35" y="62.55" width="143.55" height="186.19" rx="2" transform="translate(-0.28 0.4) rotate(-0.1)" style="fill:#00c8d7"/><path d="M154.52,249.86a3,3,0,0,1-3-3l-.33-182.19a3,3,0,0,1,3-3l139.55-.25h0a3,3,0,0,1,3,3l.33,182.19a3,3,0,0,1-3,3l-139.56.25ZM293.74,63.42h0l-139.55.25a1,1,0,0,0-1,1l.33,182.19a1,1,0,0,0,1,1h0l139.55-.25a1,1,0,0,0,.71-.3,1,1,0,0,0,.29-.7l-.33-182.19a1,1,0,0,0-1-1Z" style="fill:#4030db"/><path d="M310.05,295.91a21.41,21.41,0,1,0-22.36,28.31l.61,1.75c.57,1.64-2.43,2.61-1.65,4.86,1.06,3.06,4,1.77,4.66,3.81l.94,2.72c1.41,4.09,5.92,3,7.05,6.25s-3.11,5.12-2.05,8.19c1,2.86,6,1.68,7.23,5.36s-3.67,4.93-2.54,8.2c1,2.86,3.53,2.64,6,3.19,6.45,1.43,4.16,3.07,9,5.13,3,1.27,7-3.21,5.68-7l-17-49.2A21.41,21.41,0,0,0,310.05,295.91Zm-24.84-6.32a6.7,6.7,0,1,1-4.14,8.52A6.71,6.71,0,0,1,285.21,289.59Z" style="fill:#00c8d7"/><path d="M318,374.9a3.6,3.6,0,0,1-1.48-.3,9.79,9.79,0,0,1-3.86-2.67c-.87-.92-1.55-1.66-4.93-2.4-.45-.1-.9-.18-1.34-.25-2.05-.33-4.38-.71-5.38-3.59-.73-2.11.45-3.6,1.4-4.8s1.59-2.1,1.14-3.41c-.52-1.49-1.85-1.94-3.39-2.46s-3.22-1.09-3.85-2.89c-.68-2,.32-3.55,1.11-4.82s1.34-2.22.94-3.37-1.24-1.51-2.64-2.13c-1.56-.69-3.52-1.55-4.41-4.12l-.94-2.72c-.14-.41-.44-.54-1.27-.81a4.51,4.51,0,0,1-3.38-3,3.74,3.74,0,0,1,1.05-3.78c.42-.52.67-.86.6-1.07l-.4-1.16a22.51,22.51,0,0,1-18.31-14.89A22.41,22.41,0,0,1,311,295.58h0a22.4,22.4,0,0,1-4.32,22.1l16.85,48.64a6.86,6.86,0,0,1-2,7A5.25,5.25,0,0,1,318,374.9ZM289.8,282.51a20.41,20.41,0,0,0-2,40.71l.64.06.82,2.37a3,3,0,0,1-.94,3c-.68.84-.93,1.24-.71,1.87.42,1.22,1.12,1.44,2.1,1.76a3.34,3.34,0,0,1,2.55,2.05l.94,2.72c.61,1.75,1.87,2.31,3.33,3s3.05,1.34,3.72,3.3-.3,3.76-1.13,5.09-1.27,2.09-.92,3.09c.29.84,1.18,1.17,2.6,1.66,1.69.57,3.8,1.28,4.64,3.7s-.44,4-1.46,5.31-1.43,1.87-1.08,2.89c.58,1.68,1.71,1.94,3.81,2.28.48.08,1,.16,1.45.26,4,.89,4.94,1.91,6,3a8,8,0,0,0,3.18,2.21,2.77,2.77,0,0,0,2.86-.88,4.91,4.91,0,0,0,1.49-4.91L304.4,317.21l.41-.44a20.4,20.4,0,0,0,4.3-20.53h0A20.45,20.45,0,0,0,289.8,282.51Zm-2.41,21.11a7.74,7.74,0,0,1-3.35-.77,7.67,7.67,0,1,1,3.35.77Zm0-13.4a5.74,5.74,0,0,0-1.87.32h0a5.7,5.7,0,0,0-3.52,7.25,5.67,5.67,0,0,0,7.24,3.51,5.7,5.7,0,0,0-1.85-11.08Z" style="fill:#4030db"/><path d="M299.77,266.66H148.52a13.61,13.61,0,0,1-13.6-13.6V58.32a13.61,13.61,0,0,1,13.6-13.6H299.77a13.61,13.61,0,0,1,13.6,13.6,1,1,0,0,1-2,0,11.61,11.61,0,0,0-11.6-11.6H148.52a11.61,11.61,0,0,0-11.6,11.6V253.06a11.62,11.62,0,0,0,11.6,11.6H299.77c25.53,0,50.25-13.42,60.1-32.62,5.81-11.32,9.21-29.73-7.58-53.12a1,1,0,0,1,.23-1.39,1,1,0,0,1,1.4.23c17.38,24.2,13.8,43.37,7.73,55.19C351.47,252.8,326,266.66,299.77,266.66Z" style="fill:#4030db"/><path d="M265,157l-91.66.09a2.16,2.16,0,1,1,0-4.31l91.66-.09a2.16,2.16,0,1,1,0,4.31Zm-5.59,12.68a2.16,2.16,0,0,0-2.16-2.15l-83.89.08a2.16,2.16,0,1,0,0,4.31l83.9-.08A2.16,2.16,0,0,0,259.43,169.72Z" style="fill:#ccf4ff"/><path d="M265,186.59l-91.66.09a2.16,2.16,0,1,1,0-4.31l91.66-.09a2.16,2.16,0,1,1,0,4.31Zm-27.09,12.68a2.16,2.16,0,0,0-2.16-2.15l-62.39.08a2.15,2.15,0,1,0,0,4.3l62.4-.07A2.16,2.16,0,0,0,237.93,199.27Z" style="fill:#ccf4ff"/><path d="M255.25,86.73l-81.89.09a2.16,2.16,0,1,1,0-4.31l81.89-.09a2.16,2.16,0,0,1,0,4.31ZM279,99.41a2.16,2.16,0,0,0-2.16-2.15l-103.43.08a2.15,2.15,0,1,0,0,4.3l103.44-.07A2.16,2.16,0,0,0,279,99.41Z" style="fill:#ccf4ff"/><path d="M245.48,116.27l-72.12.09a2.16,2.16,0,1,1,0-4.31l72.12-.09a2.16,2.16,0,0,1,0,4.31ZM218.39,129a2.16,2.16,0,0,0-2.16-2.15l-42.85.08a2.16,2.16,0,1,0,0,4.31l42.86-.08A2.16,2.16,0,0,0,218.39,129Z" style="fill:#ccf4ff"/><path d="M241.82,381.34a4.37,4.37,0,0,1-3.82-1.87,9.7,9.7,0,0,1-1.67-4.39c-.2-1.25-.35-2.24-2.72-4.77-.31-.33-.64-.64-1-.95-1.51-1.43-3.22-3.06-2.42-6,.59-2.15,2.41-2.71,3.87-3.16s2.5-.84,2.86-2.17c.42-1.53-.43-2.65-1.4-3.95s-2.05-2.72-1.55-4.56c.55-2,2.26-2.75,3.64-3.35s2.35-1.08,2.67-2.25-.17-2-1-3.24c-.91-1.46-2-3.28-1.32-5.9l.76-2.78c.12-.42-.06-.7-.59-1.38a4.5,4.5,0,0,1-1.1-4.39,3.75,3.75,0,0,1,3-2.53c.64-.2,1-.33,1.1-.55l.32-1.19a22.41,22.41,0,1,1,20.49,5L248.47,376.6a6.87,6.87,0,0,1-5.63,4.66A7.23,7.23,0,0,1,241.82,381.34Zm14.63-96.52a20.41,20.41,0,0,0-13.15,36,1,1,0,0,1,.33,1l-.49,1.8a3.05,3.05,0,0,1-2.46,1.93c-1,.31-1.47.5-1.65,1.14a2.58,2.58,0,0,0,.75,2.64,3.38,3.38,0,0,1,.94,3.14l-.76,2.77c-.48,1.79.25,3,1.09,4.32s1.75,2.83,1.2,4.83c-.58,2.16-2.37,2.93-3.8,3.56s-2.23,1-2.51,2c-.23.85.31,1.63,1.21,2.83,1.08,1.43,2.41,3.2,1.74,5.67s-2.63,3.07-4.2,3.56c-1.42.44-2.24.74-2.53,1.78-.46,1.71.32,2.56,1.87,4,.35.33.7.68,1,1,2.79,3,3,4.36,3.23,5.83a8,8,0,0,0,1.39,3.61,2.74,2.74,0,0,0,2.85.89,4.89,4.89,0,0,0,4-3.21l13.71-50.24a1,1,0,0,1,.74-.71,20.38,20.38,0,0,0,15.14-14.52h0a20.41,20.41,0,0,0-19.68-25.78Zm1.95,21a7.54,7.54,0,0,1-2-.28,7.7,7.7,0,0,1,4.05-14.85h0a7.7,7.7,0,0,1-2,15.13Zm0-13.4a5.7,5.7,0,0,0-4.95,8.52,5.69,5.69,0,0,0,10.44-1.32,5.7,5.7,0,0,0-4-7h0A6,6,0,0,0,258.39,292.39Z" style="fill:#4030db"/><circle cx="424.21" cy="27.01" r="12.87" transform="translate(236.92 408.59) rotate(-67.5)" style="fill:#fff"/><circle cx="267.15" cy="219.35" r="13.29" style="fill:#ccf4ff"/><path d="M267.15,233.64a14.3,14.3,0,1,1,14.3-14.29A14.31,14.31,0,0,1,267.15,233.64Zm0-26.59a12.3,12.3,0,1,0,12.3,12.3A12.31,12.31,0,0,0,267.15,207.05Z" style="fill:#4030db"/><path d="M269.69,298.74a40.31,40.31,0,0,1-39-50.39,1,1,0,0,1,1.22-.72,1,1,0,0,1,.72,1.22,38.28,38.28,0,1,0,22.74-25.92,1,1,0,0,1-.75-1.86,40.3,40.3,0,1,1,15.09,77.67Z" style="fill:#4030db"/><path d="M63.72,204.29A16.6,16.6,0,1,1,80.31,187.7,16.61,16.61,0,0,1,63.72,204.29Zm0-31.19a14.6,14.6,0,1,0,14.59,14.6A14.62,14.62,0,0,0,63.72,173.1Z" style="fill:#4030db"/><path d="M388,248a11,11,0,1,1,11-11A11,11,0,0,1,388,248Zm0-20a9,9,0,1,0,9,9A9,9,0,0,0,388,228Z" style="fill:#4030db"/><path d="M375.56,69.57a24.7,24.7,0,1,1,24.7-24.7A24.73,24.73,0,0,1,375.56,69.57Zm0-47.4a22.7,22.7,0,1,0,22.7,22.7A22.72,22.72,0,0,0,375.56,22.17Z" style="fill:#4030db"/></svg>