<svg id="Layer_1" data-name="Layer 1" xmlns="http://www.w3.org/2000/svg" xmlns:xlink="http://www.w3.org/1999/xlink" width="526.97" height="394.83" viewBox="0 0 526.97 394.83"><defs><linearGradient id="linear-gradient" x1="841.67" y1="665.2" x2="1715" y2="-208.13" gradientUnits="userSpaceOnUse"><stop offset="0.59" stop-color="#592acb"/><stop offset="1" stop-color="#952bb9"/></linearGradient><radialGradient id="radial-gradient" cx="293.42" cy="204.09" r="242.29" gradientUnits="userSpaceOnUse"><stop offset="0.26" stop-color="#cdcdd4" stop-opacity="0"/><stop offset="0.4" stop-color="#cdcdd4" stop-opacity="0.02"/><stop offset="0.55" stop-color="#cdcdd4" stop-opacity="0.08"/><stop offset="0.69" stop-color="#cdcdd4" stop-opacity="0.18"/><stop offset="0.72" stop-color="#cdcdd4" stop-opacity="0.2"/></radialGradient><radialGradient id="radial-gradient-2" cx="278.34" cy="281.2" r="355.96" gradientUnits="userSpaceOnUse"><stop offset="0.27" stop-color="#cdcdd4" stop-opacity="0"/><stop offset="0.46" stop-color="#cdcdd4" stop-opacity="0.02"/><stop offset="0.66" stop-color="#cdcdd4" stop-opacity="0.08"/><stop offset="0.86" stop-color="#cdcdd4" stop-opacity="0.18"/><stop offset="0.9" stop-color="#cdcdd4" stop-opacity="0.2"/></radialGradient><radialGradient id="radial-gradient-3" cx="328.9" cy="300.89" r="309.06" gradientUnits="userSpaceOnUse"><stop offset="0.4" stop-color="#cdcdd4" stop-opacity="0"/><stop offset="0.58" stop-color="#cdcdd4" stop-opacity="0.02"/><stop offset="0.77" stop-color="#cdcdd4" stop-opacity="0.08"/><stop offset="0.96" stop-color="#cdcdd4" stop-opacity="0.18"/><stop offset="1" stop-color="#cdcdd4" stop-opacity="0.2"/></radialGradient><linearGradient id="linear-gradient-2" x1="76.59" y1="254.47" x2="163.67" y2="167.38" gradientUnits="userSpaceOnUse"><stop offset="0" stop-color="#0090ed"/><stop offset="0.68" stop-color="#737bf9"/><stop offset="1" stop-color="#ab71ff"/></linearGradient><linearGradient id="linear-gradient-3" x1="299.76" y1="322.69" x2="425.48" y2="196.96" gradientUnits="userSpaceOnUse"><stop offset="0.22" stop-color="#b833e1"/><stop offset="0.91" stop-color="#ff4f5e"/></linearGradient><linearGradient id="linear-gradient-4" x1="189.18" y1="245.42" x2="338.12" y2="96.48" gradientUnits="userSpaceOnUse"><stop offset="0.43" stop-color="#00b3f4"/><stop offset="0.61" stop-color="#00bbf6"/><stop offset="0.89" stop-color="#00d2fc"/><stop offset="1" stop-color="#0df"/></linearGradient><clipPath id="clip-path"><rect x="658.33" y="-24.8" width="1240" height="506.67" style="fill:url(#linear-gradient)"/></clipPath><linearGradient id="linear-gradient-6" x1="2424.6" y1="-559.21" x2="581.71" y2="819.51" gradientUnits="userSpaceOnUse"><stop offset="0.2" stop-color="#b833e1"/><stop offset="0.75" stop-color="#592acb"/></linearGradient></defs><title>amo_dev-hub_illustration-assets-v2-EDITED</title><path d="M484.17,322.38a22.45,22.45,0,0,1-22.36,22.45h-89.9a17.16,17.16,0,0,1,0-34.32A17,17,0,0,1,376,311a17.69,17.69,0,0,1,27.24-18.58,29.75,29.75,0,0,1,58.54,7.48A22.45,22.45,0,0,1,484.17,322.38Z" style="fill:url(#radial-gradient)"/><path d="M192.8,104.59a25.7,25.7,0,0,0-6.18.75,26.69,26.69,0,0,0-41.09-28A44.85,44.85,0,0,0,57.3,88.64a33.7,33.7,0,1,0,0,67.39H192.8a25.72,25.72,0,0,0,0-51.44Z" style="fill:url(#radial-gradient-2)"/><circle cx="263.52" cy="198" r="162.45" style="fill:url(#radial-gradient-3)"/><path d="M163.13,264.21l-72,.3a10.69,10.69,0,0,1-10.72-10.64l-.41-99a10.71,10.71,0,0,1,10.66-10.74l44.86-.18a10.73,10.73,0,0,1,7.57,3.09l27.26,27a10.67,10.67,0,0,1,3.18,7.57l.3,71.88A10.71,10.71,0,0,1,163.13,264.21Z" style="fill:url(#linear-gradient-2)"/><g id="Layer_4" data-name="Layer 4"><path d="M124.07,160.94H97.47a2.73,2.73,0,0,1,0-5.45h26.6a2.73,2.73,0,1,1,0,5.45Zm2.73,15.11a2.72,2.72,0,0,0-2.73-2.72H97.47a2.73,2.73,0,0,0,0,5.45h26.6A2.73,2.73,0,0,0,126.8,176.05Zm0,17.84a2.72,2.72,0,0,0-2.73-2.72H97.47a2.73,2.73,0,0,0,0,5.45h26.6A2.73,2.73,0,0,0,126.8,193.89Zm23,17.84A2.72,2.72,0,0,0,147.1,209H97.47a2.73,2.73,0,0,0,0,5.45H147.1A2.72,2.72,0,0,0,149.82,211.73ZM159,193.89a2.72,2.72,0,0,0-2.72-2.72H137.92a2.73,2.73,0,1,0,0,5.45h18.36A2.72,2.72,0,0,0,159,193.89ZM140,229.57a2.72,2.72,0,0,0-2.73-2.72H97.47a2.73,2.73,0,0,0,0,5.45h39.75A2.73,2.73,0,0,0,140,229.57Zm16.21,17.84a2.72,2.72,0,0,0-2.72-2.72h-56a2.73,2.73,0,0,0,0,5.45h56A2.72,2.72,0,0,0,156.16,247.41Z" style="fill:#0df"/></g><path d="M424.7,336.75l-104,.43a15.42,15.42,0,0,1-15.48-15.35l-.59-142.9A15.44,15.44,0,0,1,320,163.43l64.77-.27a15.44,15.44,0,0,1,10.92,4.46l39.37,38.93a15.45,15.45,0,0,1,4.58,10.92l.43,103.77A15.45,15.45,0,0,1,424.7,336.75Z" style="fill:url(#linear-gradient-3)"/><g id="Layer_4-2" data-name="Layer 4"><path d="M368.31,187.66h-38.4a3.94,3.94,0,1,1,0-7.87h38.4a3.94,3.94,0,0,1,0,7.87Zm3.93,21.82a3.93,3.93,0,0,0-3.93-3.93h-38.4a3.94,3.94,0,1,0,0,7.87h38.4A3.93,3.93,0,0,0,372.24,209.48Zm0,25.76a3.93,3.93,0,0,0-3.93-3.94h-38.4a3.94,3.94,0,1,0,0,7.87h38.4A3.93,3.93,0,0,0,372.24,235.24ZM405.49,261a3.94,3.94,0,0,0-3.94-3.93H329.91a3.94,3.94,0,1,0,0,7.87h71.64A4,4,0,0,0,405.49,261Zm13.25-25.75a3.93,3.93,0,0,0-3.94-3.94H388.3a3.94,3.94,0,1,0,0,7.87h26.5A3.93,3.93,0,0,0,418.74,235.24Zm-27.51,51.51a3.93,3.93,0,0,0-3.94-3.94H329.91a3.94,3.94,0,1,0,0,7.87h57.38A3.93,3.93,0,0,0,391.23,286.75Zm23.41,25.75a3.94,3.94,0,0,0-3.94-3.93H329.91a3.94,3.94,0,1,0,0,7.87H410.7A4,4,0,0,0,414.64,312.5Z" style="fill:#ff848b"/></g><path d="M337.19,262.07l-123.2.51a18.25,18.25,0,0,1-18.33-18.18L195,75.12a18.29,18.29,0,0,1,18.22-18.37l76.72-.31a18.31,18.31,0,0,1,12.94,5.28l46.63,46.12a18.29,18.29,0,0,1,5.44,12.93l.5,122.93A18.28,18.28,0,0,1,337.19,262.07Z" style="fill:url(#linear-gradient-4)"/><g id="Layer_4-3" data-name="Layer 4"><path d="M270.39,85.46H224.9a4.66,4.66,0,1,1,0-9.32h45.49a4.66,4.66,0,1,1,0,9.32Zm4.66,25.85a4.66,4.66,0,0,0-4.66-4.66H224.9a4.66,4.66,0,1,0,0,9.32h45.49A4.66,4.66,0,0,0,275.05,111.31Zm0,30.51a4.66,4.66,0,0,0-4.66-4.66H224.9a4.66,4.66,0,1,0,0,9.32h45.49A4.66,4.66,0,0,0,275.05,141.82Zm39.38,30.51a4.66,4.66,0,0,0-4.66-4.66H224.9a4.66,4.66,0,0,0,0,9.32h84.87A4.66,4.66,0,0,0,314.43,172.33Zm15.7-30.51a4.66,4.66,0,0,0-4.66-4.66h-31.4a4.66,4.66,0,1,0,0,9.32h31.4A4.65,4.65,0,0,0,330.13,141.82Zm-32.59,61a4.66,4.66,0,0,0-4.66-4.66h-68a4.66,4.66,0,0,0,0,9.32h68A4.66,4.66,0,0,0,297.54,202.84Zm27.73,30.51a4.66,4.66,0,0,0-4.66-4.66H224.9a4.66,4.66,0,0,0,0,9.32h95.71A4.66,4.66,0,0,0,325.27,233.35Z" style="fill:#f9f9fa"/></g><rect x="658.33" y="-24.8" width="1240" height="506.67" style="fill:url(#linear-gradient)"/><g style="clip-path:url(#clip-path)"><path d="M2177.3-489.93a170.94,170.94,0,0,0-226.23-85.25,170.93,170.93,0,0,0-85.24,226.23c127.79,282.33,2.06,616-280.27,743.78s-616,2.07-743.79-280.27a170.95,170.95,0,1,0-311.47,141c205.52,454.08,742.17,656.29,1196.24,450.77S2382.83-35.86,2177.3-489.93Z" style="fill:url(#linear-gradient-6)"/></g></svg>