<svg id="Layer_1" data-name="Layer 1" xmlns="http://www.w3.org/2000/svg" xmlns:xlink="http://www.w3.org/1999/xlink" width="526.97" height="394.83" viewBox="0 0 526.97 394.83">
  <defs>
    <radialGradient id="radial-gradient" cx="297.8" cy="-157.1" r="242.29" gradientTransform="translate(0 362)" gradientUnits="userSpaceOnUse">
      <stop offset="0.26" stop-color="#cdcdd4" stop-opacity="0"/>
      <stop offset="0.4" stop-color="#cdcdd4" stop-opacity="0.02"/>
      <stop offset="0.55" stop-color="#cdcdd4" stop-opacity="0.08"/>
      <stop offset="0.69" stop-color="#cdcdd4" stop-opacity="0.18"/>
      <stop offset="0.72" stop-color="#cdcdd4" stop-opacity="0.2"/>
    </radialGradient>
    <radialGradient id="radial-gradient-2" cx="282.72" cy="-79.99" r="355.96" gradientTransform="translate(0 362)" gradientUnits="userSpaceOnUse">
      <stop offset="0.27" stop-color="#cdcdd4" stop-opacity="0"/>
      <stop offset="0.46" stop-color="#cdcdd4" stop-opacity="0.02"/>
      <stop offset="0.66" stop-color="#cdcdd4" stop-opacity="0.08"/>
      <stop offset="0.86" stop-color="#cdcdd4" stop-opacity="0.18"/>
      <stop offset="0.9" stop-color="#cdcdd4" stop-opacity="0.2"/>
    </radialGradient>
    <radialGradient id="radial-gradient-3" cx="328.9" cy="-61.83" r="309.06" gradientTransform="translate(0 362)" gradientUnits="userSpaceOnUse">
      <stop offset="0.4" stop-color="#cdcdd4" stop-opacity="0"/>
      <stop offset="0.58" stop-color="#cdcdd4" stop-opacity="0.02"/>
      <stop offset="0.77" stop-color="#cdcdd4" stop-opacity="0.08"/>
      <stop offset="0.96" stop-color="#cdcdd4" stop-opacity="0.18"/>
      <stop offset="1" stop-color="#cdcdd4" stop-opacity="0.2"/>
    </radialGradient>
    <linearGradient id="linear-gradient" x1="-46.73" y1="18.71" x2="250.76" y2="-278.78" gradientTransform="translate(0 362)" gradientUnits="userSpaceOnUse">
      <stop offset="0.28" stop-color="#7542e5"/>
      <stop offset="0.42" stop-color="#824deb"/>
      <stop offset="0.79" stop-color="#a067fa"/>
      <stop offset="1" stop-color="#ab71ff"/>
    </linearGradient>
    <linearGradient id="linear-gradient-2" x1="29.87" y1="98.17" x2="369.01" y2="-240.98" gradientTransform="translate(0 362)" gradientUnits="userSpaceOnUse">
      <stop offset="0.43" stop-color="#00b3f4"/>
      <stop offset="0.61" stop-color="#00bbf6"/>
      <stop offset="0.89" stop-color="#00d2fc"/>
      <stop offset="1" stop-color="#0df"/>
    </linearGradient>
    <linearGradient id="linear-gradient-3" x1="77.16" y1="59.22" x2="495.01" y2="-358.63" gradientTransform="translate(0 362)" gradientUnits="userSpaceOnUse">
      <stop offset="0.22" stop-color="#b833e1"/>
      <stop offset="0.91" stop-color="#ff4f5e"/>
    </linearGradient>
    <linearGradient id="linear-gradient-4" x1="386.44" y1="-68.02" x2="457.99" y2="-139.58" gradientTransform="translate(0 362)" gradientUnits="userSpaceOnUse">
      <stop offset="0" stop-color="#ff7139"/>
      <stop offset="1" stop-color="#ffa436"/>
    </linearGradient>
  </defs>
  <title>Tinker-with-Tabs-v2</title>
  <path d="M488.55,323.19a22.47,22.47,0,0,1-22.36,22.45h-89.9a17.16,17.16,0,0,1,0-34.32,16.86,16.86,0,0,1,4.12.52,17.69,17.69,0,0,1,27.24-18.58,29.75,29.75,0,0,1,58.54,7.48A22.47,22.47,0,0,1,488.55,323.19Z" fill="url(#radial-gradient)"/>
  <path d="M197.18,105.4a25.75,25.75,0,0,0-6.18.75,26.68,26.68,0,0,0-41.08-28,44.85,44.85,0,0,0-88.23,11.3,33.7,33.7,0,0,0-1.22,67.39H197.18a25.72,25.72,0,0,0,0-51.44Z" fill="url(#radial-gradient-2)"/>
  <circle cx="263.52" cy="197.28" r="162.45" fill="url(#radial-gradient-3)"/>
  <path d="M194.79,147.22H65.22a9.73,9.73,0,0,0-9.71,9.72v93.18a9.73,9.73,0,0,0,9.71,9.72H198a6.48,6.48,0,0,0,6.48-6.48V156.94A9.72,9.72,0,0,0,194.79,147.22Z" fill="#c689ff"/>
  <path d="M194.28,147.22H127l-.63-12.1H83.66l.24,12.1H64.71A9.73,9.73,0,0,0,55,156.94v93.18a9.73,9.73,0,0,0,9.71,9.72h132.8a6.48,6.48,0,0,0,6.48-6.48V156.94A9.73,9.73,0,0,0,194.28,147.22Zm3.23,13h-136V157a3.24,3.24,0,0,1,3.24-3.24H194.28a3.24,3.24,0,0,1,3.23,3.24Z" fill="url(#linear-gradient)"/>
  <path d="M305.19,194H157.49a11.08,11.08,0,0,0-11.08,11.08h0V311.29a11.08,11.08,0,0,0,11.08,11.08h151.4a7.39,7.39,0,0,0,7.38-7.39V205.06A11.08,11.08,0,0,0,305.19,194Z" fill="#0df"/>
  <path d="M304.61,194H227.9l-.73-13.8H178.51l.28,13.8H156.91a11.08,11.08,0,0,0-11.08,11.08h0V311.29a11.08,11.08,0,0,0,11.08,11.08h151.4a7.39,7.39,0,0,0,7.38-7.39V205.06A11.08,11.08,0,0,0,304.61,194Zm3.7,14.77H153.22v-3.69a3.7,3.7,0,0,1,3.69-3.7h147.7a3.7,3.7,0,0,1,3.7,3.7h0Z" fill="url(#linear-gradient-2)"/>
  <path d="M416.41,93.29h-182a13.65,13.65,0,0,0-13.65,13.65V237.82a13.65,13.65,0,0,0,13.65,13.65H421a9.09,9.09,0,0,0,9.1-9.08h0V106.94a13.65,13.65,0,0,0-13.65-13.65Z" fill="#ff848b"/>
  <path d="M415.7,93.29H321.18l-.9-17H260.33l.34,17h-27A13.67,13.67,0,0,0,220,106.94V237.82a13.67,13.67,0,0,0,13.64,13.65H420.25a9.09,9.09,0,0,0,9.09-9.09h0V106.94A13.67,13.67,0,0,0,415.7,93.29Zm4.55,18.2H229.16v-4.55a4.55,4.55,0,0,1,4.55-4.55h182a4.55,4.55,0,0,1,4.55,4.55Z" fill="url(#linear-gradient-3)"/>
  <path d="M355.66,188.3h-4.37V162.11a8.73,8.73,0,0,0-8.72-8.74H307.63a8.73,8.73,0,0,0-8.73,8.73h0v26.2h-4.37a4.37,4.37,0,0,0,0,8.73h61.13a4.37,4.37,0,0,0,0-8.73Z" fill="#f9f9fa"/>
  <path d="M467.25,269.19h-6.43V230.58A12.87,12.87,0,0,0,448,217.71H396.48a12.87,12.87,0,0,0-12.87,12.87v38.61h-6.43a6.43,6.43,0,1,0,0,12.86h90.11a6.43,6.43,0,0,0,0-12.86Z" fill="url(#linear-gradient-4)"/>
</svg>
