<svg id="Layer_1" data-name="Layer 1" xmlns="http://www.w3.org/2000/svg" viewBox="0 0 526.97 394.83"><title>Tinker-with-Tabs</title><path d="M98.68,234c-1.68,28.87,7,80.5,53.51,94,66.81,19.45,121-46.43,162.91-52.93s99.29,50.3,147,9.66c59.1-50.35,3.19-208.76-187.8-188.22C119.29,113.27,101.27,189.29,98.68,234Z" style="fill:#ccf4ff"/><path d="M270.64,356.18a81.19,81.19,0,0,1-29.43-5.79c-14.06-5.39-22.79-16.76-32.89-29.92-12.66-16.48-27-35.16-56.16-48.09-17.07-7.57-28.2-18.17-33.08-31.48-5.54-15.11-3.06-33.69,7.36-55.2,21.22-43.84,19.8-71.52,19.11-84.83-.09-1.79-.17-3.33-.17-4.57,0-9.51,5.68-15.19,15.19-15.19H366.8A15.21,15.21,0,0,1,382,96.3a1,1,0,1,1-2,0A13.21,13.21,0,0,0,366.8,83.11H160.57c-8.38,0-13.19,4.81-13.19,13.19,0,1.19.08,2.71.17,4.47.69,13.47,2.14,41.5-19.31,85.8-10.18,21-12.63,39.06-7.28,53.64,4.68,12.79,15.46,23,32,30.34,29.63,13.14,44.13,32,56.93,48.7,9.93,12.93,18.5,24.09,32,29.27,29.82,11.42,49.65,3.92,77.09-6.45,25.59-9.67,57.44-21.71,109-21.71,6.56,0,13.18-4.07,13.18-13.18V153.11A13.2,13.2,0,0,0,428,139.92c-.66,0-72.32,4-114.92-40.78a1,1,0,0,1,1.45-1.37c42,44.11,112.7,40.2,113.4,40.15h0a15.21,15.21,0,0,1,15.24,15.19V307.18c0,8.94-6.24,15.18-15.18,15.18-51.2,0-82.87,12-108.31,21.58C302.36,350.51,287.35,356.18,270.64,356.18Z" style="fill:#4030db"/><path d="M362.47,92.65H163.88A5.88,5.88,0,0,0,158,98.51V246.75a5.33,5.33,0,0,0,5.49,5.16H362.86a5.32,5.32,0,0,0,5.52-5.12V98.58a5.88,5.88,0,0,0-5.82-5.93Z" style="fill:#4030db"/><path d="M274.87,118.06v-16H221.75v16H162.09V243.52c0,2.52.93,3.46,3.45,3.46H360.86c2.52,0,3.45-.94,3.45-3.46V118.06Z" style="fill:#fff"/><path d="M425.77,150.05H257.43a5,5,0,0,0-5,5V280.67a4.52,4.52,0,0,0,4.66,4.38h169a4.52,4.52,0,0,0,4.69-4.34V155.07a5,5,0,0,0-4.93-5Z" style="fill:#00c8d7"/><path d="M351,174.25V161.47H308.49v12.78H260.82V274.52c0,2,.74,2.76,2.76,2.76h156.1c2,0,2.75-.75,2.75-2.76V174.25Z" style="fill:#ccf4ff"/><path d="M437.83,113.79a1,1,0,0,1-.7-.29l-26-26a1,1,0,0,1,1.41-1.41l26,26a1,1,0,0,1,0,1.41A1,1,0,0,1,437.83,113.79Z" style="fill:#4030db"/><path d="M411.86,113.79a1,1,0,0,1-.71-.29,1,1,0,0,1,0-1.41l26-26a1,1,0,1,1,1.41,1.41l-26,26A1,1,0,0,1,411.86,113.79Z" style="fill:#4030db"/><path d="M289.28,337a1,1,0,0,1-.71-.29l-37.38-37.39a1,1,0,1,1,1.41-1.42L290,335.32a1,1,0,0,1,0,1.42A1,1,0,0,1,289.28,337Z" style="fill:#4030db"/><path d="M251.89,337a1,1,0,0,1-.7-.29,1,1,0,0,1,0-1.42l37.38-37.39a1,1,0,0,1,1.42,1.42L252.6,336.74A1,1,0,0,1,251.89,337Z" style="fill:#4030db"/><path d="M100.66,153.82c-.8,0-1.61,0-2.44-.11-15.54-1.26-31.52-10.36-43.85-25-12.13-14.39-19.08-32-19.06-48.34,0-20.8,15.25-34.29,30.33-38.43,14.74-4.06,35-.87,47.54,20.21a1,1,0,1,1-1.72,1C99.47,43.09,80.2,40,66.17,43.9,51.82,47.84,37.34,60.65,37.31,80.4c0,15.87,6.76,33,18.59,47.05,12,14.21,27.47,23,42.48,24.27,7.39.6,13.47-1.69,18.08-6.8,9.92-11,11.19-33.43,8.16-49.58-2.75-14.65-11.62-20.1-17-19.3-3.33.5-5,3.19-4.6,7.2.81,7.25,6.9,14.33,11.8,20,4.13,4.8,7.39,8.59,7.39,11.82a4.85,4.85,0,0,1-1.42,3.67c-2.14,2-6.19,1.87-9.77,1.71a23.26,23.26,0,0,0-4.4,0,1,1,0,0,1-.33-2,25.22,25.22,0,0,1,4.82-.06c3.18.14,6.77.3,8.3-1.16a2.9,2.9,0,0,0,.8-2.22c0-2.49-3.35-6.39-6.91-10.52-5.07-5.89-11.39-13.23-12.27-21.1-.56-5,1.91-8.74,6.29-9.4,6.21-.92,16.31,5,19.3,20.91,3.23,17.18,1.8,39.69-8.64,51.28A22.3,22.3,0,0,1,100.66,153.82Z" style="fill:#4030db"/><path d="M122.91,313c-20.48,0-34.95-9.19-43-27.36C63.61,249.19,66.8,215,72.34,192.76c6-24.11,16-39.84,16.08-40a1,1,0,0,1,1.69,1.08c-.1.15-9.94,15.66-15.85,39.46-5.45,21.94-8.58,55.62,7.43,91.51,8.5,19.06,24.36,27.77,47.14,25.92,26.42-2.17,61.87-19,97.27-46.16,30.44-23.37,54.35-49.77,58.13-64.2.84-3.22.23-3.91,0-4-2.7-1.75-16.9,9.57-27.27,17.83-5.66,4.51-11.51,9.18-16.64,12.84-1.56,1.12-3.31,2.4-5.23,3.81-22.41,16.45-69.07,50.68-125.57,43a1,1,0,0,1-.86-1.13,1,1,0,0,1,1.13-.85c55.7,7.55,101.91-26.36,124.12-42.66,1.93-1.41,3.68-2.7,5.25-3.82,5.09-3.63,10.91-8.28,16.55-12.77,15.94-12.7,25.89-20.37,29.61-17.94,2.1,1.36,1.14,5,.82,6.23C278.47,230.24,189.92,307.74,129,312.73Q125.87,313,122.91,313Z" style="fill:#4030db"/><path d="M126.19,97.33a1,1,0,0,1-.76-1.65,137.32,137.32,0,0,1,33.25-26.14C177.8,58.73,208.12,48,243.93,58c32.84,9.23,62.19,32.13,62.48,32.36A1,1,0,0,1,305.18,92c-.29-.23-29.34-22.89-61.79-32-35.13-9.88-64.89.7-83.67,11.31A135.2,135.2,0,0,0,127,97,1,1,0,0,1,126.19,97.33Z" style="fill:#4030db"/><path d="M261.2,236.52a1,1,0,0,1-.7-.29L246.24,222a1,1,0,0,1,0-1.41,1,1,0,0,1,1.42,0l14.25,14.25a1,1,0,0,1-.71,1.71Z" style="fill:#4030db"/><path d="M317.13,62.16a1,1,0,0,1-.71-.29L297.79,43.24a1,1,0,1,1,1.41-1.41l18.63,18.63a1,1,0,0,1-.7,1.7Z" style="fill:#4030db"/><path d="M298.5,62.16a1,1,0,0,1-.71-.29,1,1,0,0,1,0-1.41l18.63-18.63a1,1,0,1,1,1.41,1.41L299.2,61.87A1,1,0,0,1,298.5,62.16Z" style="fill:#4030db"/></svg>