<svg id="Layer_1" data-name="Layer 1" xmlns="http://www.w3.org/2000/svg" xmlns:xlink="http://www.w3.org/1999/xlink" viewBox="0 0 526.97 394.83"><defs><clipPath id="clip-path"><rect x="273.18" y="-986.07" width="1308.51" height="841.87" style="fill:none"/></clipPath></defs><title>Transform-Web-Content</title><path d="M56.77,132.82c13.3-55.63,83.38-88.29,150.41-22.89s89.08,80.53,153.26,55.8,106.69,4.69,118.13,52.1S432.79,365,287.29,374.78,38.79,208,56.77,132.82Z" style="fill:#ccf4ff"/><path d="M278.72,153.58c-5.35,0-10.34-2-14.91-6-11.29-9.84-18.45-26-19.64-44.33C243,85.23,247.68,67.65,257,55,268.91,39,288.38,37.22,302.41,42.63c13.71,5.28,27.54,19.29,25.23,42.76a1,1,0,1,1-2-.2c2.2-22.35-10.93-35.68-24-40.7-13.32-5.13-31.8-3.49-43.07,11.73-9.05,12.25-13.59,29.35-12.45,46.93,1.15,17.8,8.06,33.46,19,42.95,5.36,4.67,11.35,6.36,17.81,5,13.94-2.85,27.68-19.43,34.55-33.62,6.22-12.87,2.49-22.12-2.14-24.58-2.83-1.5-5.67-.41-7.61,2.93-3.5,6-2.83,15-2.29,22.16.45,6.08.81,10.88-1,13.39a4.69,4.69,0,0,1-3.21,2c-2.83.37-5.88-2.09-8.56-4.25a22.39,22.39,0,0,0-3.41-2.48,1,1,0,0,1,.9-1.79,24.76,24.76,0,0,1,3.77,2.71c2.37,1.91,5.05,4.09,7,3.83a2.77,2.77,0,0,0,1.86-1.24c1.41-1.92,1.05-6.84.65-12-.56-7.45-1.25-16.73,2.56-23.32,2.46-4.24,6.5-5.69,10.27-3.69,6.33,3.36,9.18,14.46,3,27.22C312,133.5,298,150.1,283.34,153.1A23,23,0,0,1,278.72,153.58Z" style="fill:#4030db"/><rect x="196.95" y="202.43" width="173.83" height="140.09" style="fill:#fff"/><path d="M344.21,195.26a3.74,3.74,0,1,0-3.74-3.74A3.74,3.74,0,0,0,344.21,195.26Z" style="fill:#ccf"/><path d="M356.28,195.26a3.74,3.74,0,1,0-3.73-3.74A3.74,3.74,0,0,0,356.28,195.26Z" style="fill:#ccf"/><path d="M220.14,195.26a3.74,3.74,0,1,0,.07-7.48h0a3.74,3.74,0,0,0,0,7.48Z" style="fill:#ccf"/><path d="M240.48,195.74h83.45a4,4,0,0,0,4.05-4.05v-.36a4.05,4.05,0,0,0-4.05-4.05H240.48a4.05,4.05,0,0,0-4,4.05v.36h0A4,4,0,0,0,240.48,195.74Z" style="fill:#ccf"/><circle cx="208.14" cy="191.52" r="3.74" style="fill:#ccf"/><path d="M197.29,335.81c0,2.63,1,3.61,3.6,3.61H363.53c2.64,0,3.6-1,3.6-3.61v-131H197.29Z" style="fill:none"/><path d="M365.35,178.33a.41.41,0,0,0-.11,0H199.18a6.12,6.12,0,0,0-6.11,6.11V339.18a5.56,5.56,0,0,0,5.73,5.39H365.65a5.57,5.57,0,0,0,5.77-5.35V184.51A6.13,6.13,0,0,0,365.35,178.33Z" style="fill:#fff"/><path d="M356.28,187.78a3.74,3.74,0,1,1-3.73,3.74A3.73,3.73,0,0,1,356.28,187.78Z" style="fill:#ccf4ff"/><path d="M344.21,187.78a3.74,3.74,0,1,1-3.74,3.74A3.73,3.73,0,0,1,344.21,187.78Z" style="fill:#ccf4ff"/><path d="M367.13,335.81c0,2.63-1,3.61-3.6,3.61H200.89c-2.63,0-3.6-1-3.6-3.61v-131H367.13Z" style="fill:#ccf4ff"/><path d="M236.43,191.69v-.36a4.05,4.05,0,0,1,4-4.05h83.45a4.05,4.05,0,0,1,4.05,4.05v.36a4,4,0,0,1-4.05,4.05H240.48a4,4,0,0,1-4-4.05Z" style="fill:#ccf4ff"/><path d="M220.18,187.78h0a3.74,3.74,0,1,1-3.77,3.74A3.74,3.74,0,0,1,220.21,187.78Z" style="fill:#ccf4ff"/><polygon points="215.61 278.01 218.42 261.86 341.26 289.94 337.05 313.11 293.53 303.28 298.21 298.13 293.77 296.03 264.52 295.56 240.18 291.35 228.25 287.13 215.61 278.01" style="fill:#00c8d7"/><circle cx="208.14" cy="191.52" r="3.74" style="fill:#ccf4ff"/><path d="M299.86,224l-41.19,11.35a1.82,1.82,0,0,1-1-3.51l41.2-11.35a1.82,1.82,0,0,1,1,3.51Zm-1.72,11.57a1.82,1.82,0,0,0-2.24-1.27L261,243.87a1.82,1.82,0,1,0,1,3.5l34.88-9.6A1.84,1.84,0,0,0,298.14,235.53Z" style="fill:#00c8d7"/><path d="M252.19,317.15a97.71,97.71,0,0,1-30.93-5.2c-36.72-12.24-75.26-46.6-91.62-81.69-8.87-19-10.54-36.75-4.81-51.24,7.54-19.07,30.38-34.9,67.88-47.05a346.85,346.85,0,0,1,54-12.54,1,1,0,1,1,.26,2c-1,.14-102.81,14.13-120.29,58.34-5.52,14-3.87,31.14,4.77,49.67,16.15,34.64,54.18,68.55,90.44,80.63,39,13,69.38-2.45,74.36-10.52.51-.82.58-1.36.43-1.51-1.35-1.35-7.9-1.4-15.49-1.45-13-.1-32.55-.25-49.45-6.75-19.73-7.58-68-54-68-90.43a1,1,0,0,1,2,0c0,21.27,16.65,43.76,26.57,55.27,15.1,17.52,31.64,30,40.18,33.3,16.56,6.37,35.16,6.51,48.75,6.61,9.32.07,14.95.11,16.88,2,.54.53,1.23,1.76-.14,4C294.06,306.9,276.83,317.15,252.19,317.15Z" style="fill:#4030db"/><path d="M327.05,260.17c-22.88,0-50.53-5-53.08-11.94-.48-1.34-.38-3.37,2.88-5.46,5.08-3.27,14.17-3.56,25.68-3.92,22.85-.72,57.38-1.81,91-27.74a1,1,0,0,1,1.22,1.58C360.62,239,325.7,240.12,302.6,240.85c-11.2.35-20.05.63-24.67,3.6-1.72,1.11-2.42,2.15-2.08,3.09,1.13,3.1,10.82,6.47,24.68,8.6,14.2,2.17,29.89,2.64,41,1.22,38.28-4.91,62.85-15.43,71.05-30.45,4.65-8.5,4.22-18.68-1.28-30.25-19.63-41.33-92.58-77.45-93.31-77.81a1,1,0,0,1-.46-1.34,1,1,0,0,1,1.34-.46c.74.37,74.31,36.8,94.24,78.75,5.78,12.18,6.2,23,1.23,32.07-8.64,15.82-33.05,26.41-72.56,31.48A118.65,118.65,0,0,1,327.05,260.17Z" style="fill:#4030db"/><path d="M326.87,260.41a1,1,0,0,1-1-.84l-3.39-20.23a1,1,0,0,1,.82-1.15,1,1,0,0,1,1.15.82l3.39,20.23a1,1,0,0,1-.82,1.15Z" style="fill:#4030db"/><path d="M245.8,316.9h-.09a1,1,0,0,1-.91-1.08l2.11-22.8a1,1,0,0,1,2,.18L246.79,316A1,1,0,0,1,245.8,316.9Z" style="fill:#4030db"/><path d="M366.58,355.81H197.45A15.49,15.49,0,0,1,182,340.34V183.17a15.49,15.49,0,0,1,15.47-15.47H366.58a15.49,15.49,0,0,1,15.47,15.47V340.34A15.49,15.49,0,0,1,366.58,355.81ZM197.45,169.7A13.48,13.48,0,0,0,184,183.17V340.34a13.49,13.49,0,0,0,13.47,13.47H366.58a13.49,13.49,0,0,0,13.47-13.47V183.17a13.48,13.48,0,0,0-13.47-13.47Z" style="fill:#4030db"/><path d="M402.41,141H391a1,1,0,0,1,0-2h11.35a1,1,0,0,1,1,1A1,1,0,0,1,402.41,141Zm-22.76,0h-.1a15.29,15.29,0,0,1-10.83-4.48,1,1,0,1,1,1.41-1.42,13.27,13.27,0,0,0,9.42,3.9,1,1,0,0,1,1.05,1A1,1,0,0,1,379.65,141Zm32.94-4.3a1,1,0,0,1-.71-1.7,13.34,13.34,0,0,0,3.87-9.4v-.14a1,1,0,0,1,2,0v.14a15.27,15.27,0,0,1-4.45,10.8A1,1,0,0,1,412.59,136.72Zm-47.44-10.09a1,1,0,0,1-1-1V114.29a1,1,0,0,1,2,0v11.33A1,1,0,0,1,365.15,126.63Zm51.6-11.5a1,1,0,0,1-1-1v-11.3a1,1,0,0,1,1-1,1,1,0,0,1,1,1v11.35A1,1,0,0,1,416.75,115.13Zm-51.6-11.19a1,1,0,0,1-1-1v-.11A15.32,15.32,0,0,1,368.62,92,1,1,0,0,1,370,92a1,1,0,0,1,0,1.41,13.32,13.32,0,0,0-3.89,9.42v.11A1,1,0,0,1,365.15,103.94ZM412.46,93.6a1,1,0,0,1-.71-.29,13.31,13.31,0,0,0-9.4-3.88h-.13a1,1,0,0,1,0-2h.13a15.28,15.28,0,0,1,10.81,4.46,1,1,0,0,1,0,1.41A1,1,0,0,1,412.46,93.6Zm-21.59-4.17H379.55a1,1,0,0,1-1-1,1,1,0,0,1,1-1h11.35a1,1,0,0,1,0,2Z" style="fill:#4030db"/><path d="M429.18,299.62H428a15.35,15.35,0,0,1-10.39-4.05,1,1,0,0,1,1.35-1.48,13.32,13.32,0,0,0,9,3.53h1.21a1,1,0,0,1,0,2Zm11.7-1.23a1,1,0,0,1-.91-.6,1,1,0,0,1,.51-1.32,13.49,13.49,0,0,0,7.27-7.92,1,1,0,0,1,1.89.66,15.52,15.52,0,0,1-8.35,9.09A1,1,0,0,1,440.88,298.39Zm-27.31-13.14a1,1,0,0,1-1-1v-7.17a15.23,15.23,0,0,1,.84-5,1,1,0,0,1,1.89.65,13.48,13.48,0,0,0-.73,4.36v7.11A1,1,0,0,1,413.57,285.25Zm35.9-7.16a1,1,0,0,1-1-1,13.44,13.44,0,0,0-4.34-9.83,1,1,0,0,1-.06-1.41,1,1,0,0,1,1.42-.06,15.45,15.45,0,0,1,5,11.29,1,1,0,0,1-1,1Zm-27.28-13.16a1,1,0,0,1-.41-1.91,15.49,15.49,0,0,1,6.19-1.31h5.92a1,1,0,0,1,0,2H428a13.42,13.42,0,0,0-5.38,1.14A1,1,0,0,1,422.19,264.93Z" style="fill:#4030db"/><path d="M138.25,283.57h-12a1,1,0,0,1,0-2h12a1,1,0,0,1,0,2Zm-24,0h-12a1,1,0,0,1,0-2h12a1,1,0,0,1,0,2Zm-24,0H82.81a15.31,15.31,0,0,1-4.8-.77,1,1,0,0,1,.63-1.9,13.1,13.1,0,0,0,4.17.67h7.44a1,1,0,0,1,0,2Zm55.91-2.38a1,1,0,0,1-.84-.45,1,1,0,0,1,.29-1.39,13.49,13.49,0,0,0,5.88-9.11,1,1,0,1,1,2,.31A15.44,15.44,0,0,1,146.71,281,1,1,0,0,1,146.16,281.19ZM69.67,275a1,1,0,0,1-.91-.59,15.09,15.09,0,0,1-1.35-6.28v-5.95a1,1,0,0,1,2,0v5.95a13.29,13.29,0,0,0,1.17,5.46,1,1,0,0,1-.5,1.32A1,1,0,0,1,69.67,275Zm83-15.64a1,1,0,0,1-1-1v-7.76a13.36,13.36,0,0,0-.58-3.88,1,1,0,0,1,1.91-.59,15.37,15.37,0,0,1,.67,4.47v7.76A1,1,0,0,1,152.65,259.4Zm-84.23-8.18h0a1,1,0,0,1-1-1A15.4,15.4,0,0,1,72.81,239a1,1,0,1,1,1.3,1.51,13.46,13.46,0,0,0-4.69,9.78A1,1,0,0,1,68.42,251.22Zm76-12.58a.94.94,0,0,1-.43-.1,13.2,13.2,0,0,0-5.73-1.3h-5.63a1,1,0,0,1,0-2h5.63a15.16,15.16,0,0,1,6.59,1.49,1,1,0,0,1-.43,1.91Zm-23.79-1.4h-12a1,1,0,0,1,0-2h12a1,1,0,0,1,0,2Zm-24,0h-12a1,1,0,0,1,0-2h12a1,1,0,0,1,0,2Z" style="fill:#4030db"/><path d="M211.64,143.54H180c-2.77-5.08-9.64-16-18.24-17.67-11.42-2.18-13.7,9.2-13.7,9.2s-7.58-19.73-26.78-17.12c-21.36,2.9-11.56,25.21-11.4,25.57H78.08l-.16,0h-.07a2.73,2.73,0,0,0,.23,5.45l133.56,0a2.73,2.73,0,1,0,0-5.46Z" style="fill:#4f42ff"/><path d="M342,132.08a1.06,1.06,0,0,1-.51-.14c-.41-.24-10-6-10.5-14.09-.25-4.21,2-8.19,6.72-11.84,5.34-4.12,10.65-15.22,3.41-28.89-1.36-2.56-2.55-4.9-3.71-7.17a229,229,0,0,0-19-31.71c-8.5-12.2-23.91-19.49-39.26-18.58-17.1,1-31.81,11.5-41.42,29.51-2.74,5.14-6.86,13.21-10.84,21-4.66,9.12-9.05,17.73-11.23,21.65-10.45,18.82,7,31.27,7.79,31.8a1,1,0,1,1-1.14,1.64c-.2-.14-19.74-14-8.4-34.41,2.17-3.89,6.55-12.49,11.2-21.59,4-7.81,8.11-15.89,10.86-21.05,10-18.65,25.24-29.51,43.06-30.57,16-1,32.13,6.68,41,19.43a229.64,229.64,0,0,1,19.17,32c1.16,2.25,2.35,4.58,3.69,7.13,7.82,14.77,1.93,26.88-3.95,31.42-4.16,3.21-6.16,6.62-5.94,10.13.43,7,9.43,12.43,9.52,12.49a1,1,0,0,1,.35,1.37A1,1,0,0,1,342,132.08Z" style="fill:#4030db"/><g style="clip-path:url(#clip-path)"><path d="M691.74-254.82h-389a14.35,14.35,0,0,0-14.33,14.33V122a13,13,0,0,0,13.42,12.63H692.69a13,13,0,0,0,13.51-12.53v-362.4A14.36,14.36,0,0,0,692-254.82Zm-21,22.14a8.76,8.76,0,0,1,8.76,8.76,8.76,8.76,0,0,1-8.76,8.76,8.76,8.76,0,0,1-8.76-8.76,8.76,8.76,0,0,1,8.76-8.76Zm-28.28,0a8.76,8.76,0,0,1,8.76,8.76,8.76,8.76,0,0,1-8.76,8.76,8.76,8.76,0,0,1-8.76-8.76,8.76,8.76,0,0,1,8.76-8.76ZM390-224.35a9.49,9.49,0,0,1,9.49-9.49H595a9.49,9.49,0,0,1,9.49,9.49v.84A9.49,9.49,0,0,1,595-214H399.49a9.49,9.49,0,0,1-9.49-9.49h0Zm-38-8.33a8.77,8.77,0,0,1,8.68,8.84,8.76,8.76,0,0,1-8.84,8.68,8.75,8.75,0,0,1-8.68-8.76,8.76,8.76,0,0,1,8.76-8.76Zm-28.28,0a8.76,8.76,0,0,1,8.76,8.76,8.76,8.76,0,0,1-8.76,8.76,8.76,8.76,0,0,1-8.76-8.76h0A8.76,8.76,0,0,1,323.73-232.68ZM696.17,114.08c0,6.17-2.27,8.46-8.43,8.46h-381c-6.17,0-8.44-2.29-8.44-8.46V-192.69H696.17Z" style="fill:#00c8d7"/><path d="M408.24,504.15c-19.77.23-36-15-36.27-33.91l-8.64-736.1a37.83,37.83,0,0,1,37.34-38.24l790.15-9.27A37.83,37.83,0,0,1,1229.06-276l8.64,736.11c.23,18.92-15.68,34.51-35.46,34.74Z" style="fill:#4f42ff"/></g></svg>