<svg id="Layer_1" data-name="Layer 1" xmlns="http://www.w3.org/2000/svg" viewBox="0 0 526.97 394.83"><title>Bring-Extension-Firefox</title><path d="M129,41.48C64.15,59.75,39.91,130.55,67.73,213.16,98.32,303.94,286,338.88,363,328.06c70-9.84,118-80.38,97.14-146.78S191.72,23.81,129,41.48Z" style="fill:#ccf4ff"/><rect x="249.81" y="115.97" width="189.68" height="152.86" style="fill:#fff"/><path d="M436.88,283.26H252.33a16.8,16.8,0,0,1-16.79-16.78V95a16.81,16.81,0,0,1,16.79-16.79H436.88A16.81,16.81,0,0,1,453.67,95v171.5A16.8,16.8,0,0,1,436.88,283.26ZM252.33,80.19A14.81,14.81,0,0,0,237.54,95v171.5a14.8,14.8,0,0,0,14.79,14.78H436.88a14.8,14.8,0,0,0,14.79-14.78V95a14.81,14.81,0,0,0-14.79-14.79Z" style="fill:#4030db"/><path d="M396.72,151.42s.8,4.54,2.34,6.07,6.07,2.33,6.07,2.33-4.54.74-6.07,2.27-2.34,6.14-2.34,6.14-.73-4.6-2.27-6.14-6.13-2.27-6.13-2.27,4.6-.8,6.13-2.33,2.27-6.07,2.27-6.07m0-3.37h0a3.38,3.38,0,0,0-3.3,2.82,13.35,13.35,0,0,1-1.33,4.24,14.12,14.12,0,0,1-4.33,1.4,3.36,3.36,0,0,0,.05,6.63,13.94,13.94,0,0,1,4.28,1.33,13.4,13.4,0,0,1,1.33,4.29,3.37,3.37,0,0,0,3.3,2.83h0a3.36,3.36,0,0,0,3.32-2.78,14.1,14.1,0,0,1,1.4-4.34,13.91,13.91,0,0,1,4.23-1.33,3.36,3.36,0,0,0,0-6.63,13.64,13.64,0,0,1-4.27-1.4,13.55,13.55,0,0,1-1.4-4.28,3.37,3.37,0,0,0-3.32-2.78Z" style="fill:#00c8d7"/><path d="M389.86,168.24a5.32,5.32,0,0,1-2-.7,5.36,5.36,0,0,1-.7-2,.84.84,0,0,0-1.66,0,5,5,0,0,1-.67,2,5.07,5.07,0,0,1-2,.7.85.85,0,0,0-.7.84.83.83,0,0,0,.71.82,5.07,5.07,0,0,1,2,.67,5.13,5.13,0,0,1,.67,2,.85.85,0,0,0,.83.7h0a.84.84,0,0,0,.83-.69,5.36,5.36,0,0,1,.7-2,5,5,0,0,1,2-.67.84.84,0,0,0,.71-.82A.85.85,0,0,0,389.86,168.24Z" style="fill:#00c8d7"/><path d="M388.18,149.75a4.3,4.3,0,0,1-1.57-.55,4.35,4.35,0,0,1-.55-1.57.84.84,0,0,0-.83-.7h0a.85.85,0,0,0-.83.71,4.25,4.25,0,0,1-.52,1.56,4.41,4.41,0,0,1-1.59.55.84.84,0,0,0-.7.83.85.85,0,0,0,.71.83,4.07,4.07,0,0,1,1.58.52,4,4,0,0,1,.52,1.58.86.86,0,0,0,.83.71h0a.85.85,0,0,0,.83-.7,4.26,4.26,0,0,1,.55-1.59,4.09,4.09,0,0,1,1.56-.53.84.84,0,0,0,0-1.65Z" style="fill:#00c8d7"/><rect x="79.21" y="107.49" width="121.14" height="157.86" rx="2" transform="translate(-0.34 0.25) rotate(-0.1)" style="fill:#00c8d7"/><path d="M81.35,266.45a3,3,0,0,1-3-3l-.28-153.85a3,3,0,0,1,3-3l117.14-.21h0a3,3,0,0,1,3,3l.28,153.86a3,3,0,0,1-3,3l-117.15.21ZM198.21,108.39h0l-117.14.21a1,1,0,0,0-1,1l.28,153.86a1,1,0,0,0,1,1h0l117.14-.21h0a1,1,0,0,0,1-1l-.28-153.85A1,1,0,0,0,198.21,108.39Z" style="fill:#4030db"/><path d="M177.6,120.52a1.47,1.47,0,0,0-2.07,2.08l6.31,6.29-17,0a1.47,1.47,0,0,0,0,2.94l17,0-6.29,6.32a1.47,1.47,0,0,0,2.08,2.07l8.79-8.83a1.47,1.47,0,0,0,0-2.07Z" style="fill:#ccf4ff"/><path d="M141,133l-46.62.09a2,2,0,0,1,0-4L141,129a2,2,0,1,1,0,4Zm-5.14,11.68a2,2,0,0,0-2-2l-39.48.07a2,2,0,1,0,0,4l39.47-.07A2,2,0,0,0,135.86,144.64Z" style="fill:#ccf4ff"/><path d="M144.8,160.24a2,2,0,0,0-2-2l-48.37.09a2,2,0,1,0,0,4l48.37-.08A2,2,0,0,0,144.8,160.24Z" style="fill:#ccf4ff"/><path d="M172.4,222.6s1,5.61,2.88,7.5,7.5,2.88,7.5,2.88-5.6.91-7.5,2.81-2.88,7.57-2.88,7.57-.9-5.68-2.8-7.57S162,233,162,233s5.69-1,7.58-2.88,2.8-7.5,2.8-7.5m0-4.15h0a4.15,4.15,0,0,0-4.07,3.49,16.69,16.69,0,0,1-1.65,5.23,17.24,17.24,0,0,1-5.35,1.72,4.15,4.15,0,0,0,.06,8.19,17.39,17.39,0,0,1,5.29,1.64,16.84,16.84,0,0,1,1.64,5.3,4.17,4.17,0,0,0,4.08,3.5h0a4.15,4.15,0,0,0,4.09-3.45,17.75,17.75,0,0,1,1.73-5.35,17,17,0,0,1,5.23-1.64,4.15,4.15,0,0,0,.05-8.19,17,17,0,0,1-5.28-1.73,17,17,0,0,1-1.73-5.28,4.15,4.15,0,0,0-4.09-3.43Z" style="fill:#ccf4ff"/><path d="M163.93,243.38a6.53,6.53,0,0,1-2.44-.86,6.44,6.44,0,0,1-.87-2.45,1.07,1.07,0,0,0-1-.86,1,1,0,0,0-1,.87,6.1,6.1,0,0,1-.83,2.43,6.49,6.49,0,0,1-2.48.87,1,1,0,0,0,0,2.05,6.33,6.33,0,0,1,2.47.83,6.28,6.28,0,0,1,.83,2.46,1,1,0,0,0,1,.87h0a1,1,0,0,0,1-.86,6.56,6.56,0,0,1,.87-2.47,6.23,6.23,0,0,1,2.43-.83,1,1,0,0,0,0-2.05Z" style="fill:#ccf4ff"/><path d="M161.86,220.54a5.42,5.42,0,0,1-2-.67,5.2,5.2,0,0,1-.67-1.94,1,1,0,0,0-1-.86h0a1,1,0,0,0-1,.87,5.25,5.25,0,0,1-.64,1.93,5.33,5.33,0,0,1-2,.67,1,1,0,0,0-.86,1,1,1,0,0,0,.87,1,5.36,5.36,0,0,1,2,.64,5.36,5.36,0,0,1,.64,2,1,1,0,0,0,1,.87h0a1,1,0,0,0,1-.86,5.33,5.33,0,0,1,.67-2,5.3,5.3,0,0,1,1.94-.64,1,1,0,0,0,0-2.05Z" style="fill:#ccf4ff"/><path d="M433.45,89.67H252.25a6.69,6.69,0,0,0-6.68,6.67V265.18a6.09,6.09,0,0,0,6.26,5.89H433.89a6.05,6.05,0,0,0,6.29-5.83V96.42a6.68,6.68,0,0,0-6.62-6.75ZM423.67,100a4.08,4.08,0,1,1-4.08,4.08,4.08,4.08,0,0,1,4.08-4.08Zm-13.17,0a4.08,4.08,0,1,1-4.08,4.08A4.08,4.08,0,0,1,410.5,100Zm-117.61,3.88a4.42,4.42,0,0,1,4.42-4.42h91.06a4.42,4.42,0,0,1,4.42,4.42v.39a4.42,4.42,0,0,1-4.42,4.42H297.31a4.42,4.42,0,0,1-4.42-4.42h0ZM275.2,100a4.08,4.08,0,1,1-4.12,4.08A4.08,4.08,0,0,1,275.2,100ZM262,100a4.08,4.08,0,1,1-4.08,4.08h0A4.08,4.08,0,0,1,262,100ZM435.51,261.5c0,2.88-1.06,3.95-3.93,3.95H254.11c-2.87,0-3.93-1.07-3.93-3.95V118.61H435.51Z" style="fill:#4f42ff"/><path d="M382.07,201.14H308.3a4,4,0,0,0-3.95,4v124a4,4,0,0,0,3.95,4h73.77a4,4,0,0,0,3.95-4v-124A4,4,0,0,0,382.07,201.14Z" style="fill:#fff"/><path d="M135.93,173.91a2,2,0,0,0-2-2L94.47,172a2,2,0,0,0,0,4L134,175.9A2,2,0,0,0,135.93,173.91Z" style="fill:#ccf4ff"/><path d="M381.84,361.6H307.9a11,11,0,0,1-11-11V205.14a11,11,0,0,1,11-11c.2,0,13,.79,21.36-7.12,5-4.71,7.4-11.57,7.25-20.39a1,1,0,0,1,1-1h0a1,1,0,0,1,1,1c.16,9.4-2.5,16.77-7.89,21.88-9,8.52-22.22,7.7-22.79,7.66a9,9,0,0,0-8.9,9V350.62a9,9,0,0,0,9,9h73.94a9,9,0,0,0,9-9V205.14c0-.1-1.6-18.72,13.09-27.12a1,1,0,0,1,1.36.38,1,1,0,0,1-.37,1.36c-13.58,7.76-12.1,25.11-12.09,25.28V350.62A11,11,0,0,1,381.84,361.6Z" style="fill:#4030db"/><path d="M382.28,334.09H307.7a5,5,0,0,1-5-5V205a5,5,0,0,1,5-5h74.58a5,5,0,0,1,5,5V329.09A5,5,0,0,1,382.28,334.09ZM307.7,202a3,3,0,0,0-3,3V329.09a3,3,0,0,0,3,3h74.58a3,3,0,0,0,3-3V205a3,3,0,0,0-3-3Z" style="fill:#4f42ff"/><g id="Layer_6" data-name="Layer 6"><rect x="332.71" y="342.93" width="24.32" height="10.14" rx="4.99" style="fill:#4f42ff"/><path d="M352.05,343.43a4.48,4.48,0,0,1,4.48,4.49v.16a4.48,4.48,0,0,1-4.48,4.49H337.7a4.49,4.49,0,0,1-4.49-4.49v-.16a4.49,4.49,0,0,1,4.49-4.49h14.35m0-1H337.7a5.49,5.49,0,0,0-5.49,5.49v.16a5.5,5.5,0,0,0,5.49,5.49h14.35a5.49,5.49,0,0,0,5.48-5.49v-.16a5.49,5.49,0,0,0-5.48-5.49Z" style="fill:#4030db"/></g><path d="M337.51,167.64a1,1,0,0,1-1-.9c-2.92-27.34,1.07-42.08,4.28-53.93,3-10.91,5.29-19.53.86-33.7-12.28-39.33-68-46.64-114.17-33.55-27,7.63-26.71,35.56-26.4,70.92,0,3.72.06,7.51.06,11.35a1,1,0,0,1-2,0c0-3.83,0-7.61-.06-11.33-.31-34.78-.57-64.81,27.85-72.87C274,30.29,330.91,38,343.57,78.51c4.61,14.73,2.2,23.6-.84,34.82-3.16,11.69-7.1,26.23-4.22,53.2a1,1,0,0,1-.89,1.1Z" style="fill:#4030db"/><path d="M348.24,252.5s1,5.63,2.89,7.53,7.54,2.9,7.54,2.9-5.64.91-7.54,2.82-2.89,7.61-2.89,7.61-.92-5.71-2.82-7.61-7.61-2.82-7.61-2.82,5.71-1,7.61-2.9,2.82-7.53,2.82-7.53m0-4.17h0a4.16,4.16,0,0,0-4.09,3.5,17,17,0,0,1-1.65,5.25,17.39,17.39,0,0,1-5.38,1.74,4.17,4.17,0,0,0,.06,8.23,17.31,17.31,0,0,1,5.32,1.65,17.31,17.31,0,0,1,1.65,5.32,4.17,4.17,0,0,0,4.09,3.51h0a4.18,4.18,0,0,0,4.11-3.46,17.53,17.53,0,0,1,1.73-5.37,16.83,16.83,0,0,1,5.26-1.65,4.17,4.17,0,0,0,.05-8.23,17.1,17.1,0,0,1-5.31-1.74,16.89,16.89,0,0,1-1.73-5.3,4.18,4.18,0,0,0-4.11-3.45Z" style="fill:#00c8d7"/><path d="M339.72,273.38a6.69,6.69,0,0,1-2.45-.87,6.33,6.33,0,0,1-.87-2.46,1.07,1.07,0,0,0-1-.86,1,1,0,0,0-1,.87,6.28,6.28,0,0,1-.83,2.45,6.72,6.72,0,0,1-2.49.87,1,1,0,0,0,0,2.05,2.94,2.94,0,0,1,3.31,3.31,1.06,1.06,0,0,0,1,.88h0a1.05,1.05,0,0,0,1-.87,6.62,6.62,0,0,1,.87-2.48,6.2,6.2,0,0,1,2.44-.84,1.05,1.05,0,0,0,.88-1A1,1,0,0,0,339.72,273.38Z" style="fill:#00c8d7"/><path d="M337.64,250.43a5.46,5.46,0,0,1-2-.68,5.27,5.27,0,0,1-.67-1.95,1,1,0,0,0-1-.86h0a1,1,0,0,0-1,.87,5.24,5.24,0,0,1-.64,1.94,5.55,5.55,0,0,1-2,.68,1,1,0,0,0-.86,1,1.07,1.07,0,0,0,.88,1A2.28,2.28,0,0,1,333,255.1a1,1,0,0,0,1,.87h0a1,1,0,0,0,1-.86,2.32,2.32,0,0,1,2.62-2.62,1,1,0,0,0,0-2.06Z" style="fill:#00c8d7"/><path d="M404.22,179.71a1,1,0,0,1-.9-.56,1,1,0,0,1,.45-1.34,20.44,20.44,0,1,0-27.39-9.26,1,1,0,0,1-1.8.89,22.45,22.45,0,1,1,30.08,10.17A1,1,0,0,1,404.22,179.71Z" style="fill:#4030db"/><path d="M144.43,72.82a1,1,0,0,1-.71-.3,1,1,0,0,1,0-1.41l18.79-18.79a2.82,2.82,0,0,0,0-4l-18.79-18.8a1,1,0,0,1,1.41-1.41l18.8,18.79a4.83,4.83,0,0,1,0,6.82l-18.8,18.79A1,1,0,0,1,144.43,72.82Z" style="fill:#4030db"/><path d="M217.93,347a1,1,0,0,1-.71-.3,1,1,0,0,1,0-1.41l25-25a4.1,4.1,0,0,0,0-5.78l-25-25a1,1,0,0,1,0-1.42,1,1,0,0,1,1.41,0l25,25a6.11,6.11,0,0,1,0,8.62l-25,25A1,1,0,0,1,217.93,347Z" style="fill:#4030db"/><path d="M376.63,53.64a1,1,0,0,1-.7-.29,1,1,0,0,1,0-1.41L387,40.82a1.22,1.22,0,0,0,.37-.89A1.26,1.26,0,0,0,387,39L375.93,27.93a1,1,0,1,1,1.41-1.42l11.11,11.12a3.21,3.21,0,0,1,1,2.3,3.25,3.25,0,0,1-1,2.31L377.34,53.35A1,1,0,0,1,376.63,53.64Z" style="fill:#4030db"/></svg>