<svg id="Layer_1" data-name="Layer 1" xmlns="http://www.w3.org/2000/svg" viewBox="0 0 526.97 394.83"><title>Create-New-Extension</title><path d="M146.41,60.27C86.83,96.8,35.28,202,89.51,267.46c89.86,108.38,300.75,46.64,364.87-.66,57.44-42.36,45.66-71.43,3.43-124.36S204,24.94,146.41,60.27Z" style="fill:#ccf4ff"/><path d="M203,98H168.53c-3-5.54-10.53-17.49-19.91-19.28-12.46-2.38-14.94,10-14.94,10S125.4,67.18,104.45,70C81.15,73.2,91.84,97.55,92,97.93H57.3l-.18,0h-.07a3,3,0,0,0,.25,5.94l145.74,0a3,3,0,0,0,0-6Z" style="fill:#4f42ff"/><rect x="192.75" y="50.51" width="177.71" height="222.88" rx="2" transform="translate(-0.29 0.51) rotate(-0.1)" style="fill:#00c8d7"/><path d="M194.94,274.55a3,3,0,0,1-3-3l-.39-218.88a3,3,0,0,1,3-3l173.71-.32h0a3,3,0,0,1,2.12.88,3,3,0,0,1,.88,2.12l.39,218.88a3,3,0,0,1-3,3L195,274.55ZM368.26,51.35h0l-173.71.32a1,1,0,0,0-1,1l.39,218.88a1,1,0,0,0,1,1h0l173.72-.32a1,1,0,0,0,1-1l-.39-218.88a1,1,0,0,0-1-1Z" style="fill:#4030db"/><path d="M233.28,230a3,3,0,0,1-3-3l-.23-128a3,3,0,0,1,3-3l97.32-.18h0a3,3,0,0,1,3,3l.23,128a3,3,0,0,1-3,3h0l-97.33.17Zm97.33-1.17h0Zm-.23-131h0l-97.33.18a1,1,0,0,0-1,1l.23,128a1,1,0,0,0,1,1h0l97.32-.17h0a1,1,0,0,0,1-1l-.23-128a1,1,0,0,0-1-1Z" style="fill:#fff"/><path d="M313.47,107.74a1.23,1.23,0,0,0-1.74,1.74l5.29,5.27-14.23,0a1.23,1.23,0,0,0,0,2.46l14.23,0-5.26,5.29a1.23,1.23,0,0,0,.87,2.09,1.24,1.24,0,0,0,.87-.36l7.35-7.38a1.23,1.23,0,0,0,0-1.74Z" style="fill:#ccf4ff"/><path d="M255.1,62.92a2,2,0,0,0-2-2L204.75,61a2,2,0,1,0,0,4l48.37-.09A2,2,0,0,0,255.1,62.92Z" style="fill:#ccf4ff"/><path d="M309.87,193.88s.83,4.69,2.41,6.27,6.27,2.41,6.27,2.41-4.68.76-6.27,2.35-2.41,6.34-2.41,6.34-.76-4.76-2.34-6.34-6.34-2.35-6.34-2.35,4.75-.82,6.34-2.41,2.34-6.27,2.34-6.27m0-3.47h0a3.48,3.48,0,0,0-3.41,2.91,14,14,0,0,1-1.37,4.38,14.51,14.51,0,0,1-4.47,1.44,3.47,3.47,0,0,0,0,6.85,14,14,0,0,1,4.43,1.38,13.8,13.8,0,0,1,1.37,4.42,3.48,3.48,0,0,0,3.41,2.93h0a3.48,3.48,0,0,0,3.42-2.88,14.54,14.54,0,0,1,1.45-4.47,13.63,13.63,0,0,1,4.37-1.38,3.48,3.48,0,0,0,.05-6.85,14.28,14.28,0,0,1-4.42-1.44,14.07,14.07,0,0,1-1.45-4.42,3.47,3.47,0,0,0-3.42-2.87Z" style="fill:#ccf4ff"/><path d="M302.79,211.26a5.39,5.39,0,0,1-2.05-.72,5.5,5.5,0,0,1-.72-2,.9.9,0,0,0-.86-.72.87.87,0,0,0-.85.73,5.24,5.24,0,0,1-.7,2,5.49,5.49,0,0,1-2.07.72.87.87,0,0,0,0,1.71,5.3,5.3,0,0,1,2.06.7,5.24,5.24,0,0,1,.7,2.05.85.85,0,0,0,.85.73h0a.86.86,0,0,0,.86-.71,5.32,5.32,0,0,1,.72-2.07,5.24,5.24,0,0,1,2-.7.87.87,0,0,0,0-1.71Z" style="fill:#ccf4ff"/><path d="M301.05,192.16a2,2,0,0,1-2.19-2.19.86.86,0,0,0-.85-.72h0a.87.87,0,0,0-.85.73,4.45,4.45,0,0,1-.54,1.62,4.56,4.56,0,0,1-1.65.56.87.87,0,0,0-.72.86.89.89,0,0,0,.74.85,4.45,4.45,0,0,1,1.63.54,4.38,4.38,0,0,1,.54,1.64.89.89,0,0,0,.85.73h0a.87.87,0,0,0,.85-.72,4.56,4.56,0,0,1,.56-1.65,4.38,4.38,0,0,1,1.62-.54.87.87,0,0,0,0-1.71Z" style="fill:#ccf4ff"/><path d="M231.16,244.67a1,1,0,0,1-1-1V86.07a1,1,0,0,1,2,0v157.6A1,1,0,0,1,231.16,244.67Z" style="fill:#ccf4ff"/><path d="M332.24,244.3a1,1,0,0,1-1-1V85.69a1,1,0,0,1,2,0V243.3A1,1,0,0,1,332.24,244.3Z" style="fill:#ccf4ff"/><path d="M342.22,97.75H221.78a1,1,0,1,1,0-2H342.22a1,1,0,0,1,0,2Z" style="fill:#ccf4ff"/><path d="M342.22,229.67H221.78a1,1,0,0,1,0-2H342.22a1,1,0,0,1,0,2Z" style="fill:#ccf4ff"/><path d="M238.88,176.51A33.35,33.35,0,0,1,228,174.56a24.79,24.79,0,0,1-6.74-3.4c-4.13-3.09-7.11-8.2-8.39-14.41-1.13-5.47-.91-11.08-.7-16.5a1,1,0,0,1,1-1,1,1,0,0,1,1,1c-.21,5.3-.42,10.78.66,16,1.18,5.72,3.89,10.41,7.63,13.2a22.27,22.27,0,0,0,6.2,3.12A28.45,28.45,0,0,0,243.67,174a18.33,18.33,0,0,0,12.06-8.2,1,1,0,1,1,1.72,1A20.3,20.3,0,0,1,244.08,176,25.34,25.34,0,0,1,238.88,176.51Z" style="fill:#ccf4ff"/><path d="M304.74,108.85a1,1,0,0,1-.93-.62A23.56,23.56,0,0,1,305,88a16.51,16.51,0,0,1,.93-1.48,1,1,0,0,1,1.39-.26,1,1,0,0,1,.25,1.4,13.13,13.13,0,0,0-.82,1.32,21.5,21.5,0,0,0-1,18.44,1,1,0,0,1-.54,1.31A1,1,0,0,1,304.74,108.85Z" style="fill:#ccf4ff"/><path d="M350.14,172.76a1,1,0,0,1-.89-.54c-4.51-8.8-13-15.18-22.28-16.67a29.88,29.88,0,0,0-25.83,8.9,1,1,0,0,1-1.45-1.38,31.88,31.88,0,0,1,27.59-9.49c9.86,1.58,19,8.38,23.75,17.73a1,1,0,0,1-.44,1.34A.91.91,0,0,1,350.14,172.76Z" style="fill:#ccf4ff"/><circle cx="110.63" cy="257.91" r="22.4" style="fill:#fff"/><path d="M110.63,281.31a23.41,23.41,0,1,1,23.4-23.4A23.43,23.43,0,0,1,110.63,281.31Zm0-44.81A21.41,21.41,0,1,0,132,257.91,21.43,21.43,0,0,0,110.63,236.5Z" style="fill:#4030db"/><path d="M303.4,241.18a1,1,0,0,1-.52-1.86,19.41,19.41,0,0,0,8.83-19.85,1,1,0,0,1,.79-1.18,1,1,0,0,1,1.17.79A21.47,21.47,0,0,1,303.91,241,1,1,0,0,1,303.4,241.18Z" style="fill:#ccf4ff"/><path d="M477.38,85.27H442.77a1,1,0,0,1,0-2h34.61a1,1,0,0,1,0,2Z" style="fill:#4030db"/><path d="M460.08,102.58a1,1,0,0,1-1-1V67a1,1,0,1,1,2,0v34.61A1,1,0,0,1,460.08,102.58Z" style="fill:#4030db"/><path d="M125.74,170.82H78.63a1,1,0,0,1,0-2h47.11a1,1,0,1,1,0,2Z" style="fill:#4030db"/><path d="M102.18,194.37a1,1,0,0,1-1-1V146.26a1,1,0,0,1,2,0v47.11A1,1,0,0,1,102.18,194.37Z" style="fill:#4030db"/><path d="M367.93,289.09H195.09a15.42,15.42,0,0,1-15.4-15.4V259H133.17a1,1,0,0,1,0-2h46.52V51.16a15.41,15.41,0,0,1,15.4-15.4H367.93a15.41,15.41,0,0,1,15.4,15.4,1,1,0,1,1-2,0,13.41,13.41,0,0,0-13.4-13.4H195.09a13.41,13.41,0,0,0-13.4,13.4V257h183c6.75,0,11.81,1.87,15,5.55,4.53,5.17,3.67,12,3.63,12.26a1.06,1.06,0,0,1,0,.19A15.43,15.43,0,0,1,367.93,289.09ZM181.69,259v14.73a13.41,13.41,0,0,0,13.4,13.4H367.93a13.41,13.41,0,0,0,13.4-13.4,1.11,1.11,0,0,1,.07-.37,14.41,14.41,0,0,0-3.23-9.51c-2.82-3.22-7.37-4.85-13.51-4.85Z" style="fill:#4030db"/><path d="M282.52,117.71l-37.63.09a2,2,0,1,1,0-4l37.63-.09a2,2,0,0,1,0,4Zm-5.15,11.68a2,2,0,0,0-2-2l-30.47.07a2,2,0,1,0,0,4l30.47-.07A2,2,0,0,0,277.37,129.39Z" style="fill:#ccf4ff"/><path d="M282.41,144.92l-37.62.09a2,2,0,1,1,0-4l37.63-.08a2,2,0,0,1,0,4Zm-5.15,11.69a2,2,0,0,0-2-2l-30.48.07a2,2,0,0,0,0,4l30.47-.08A2,2,0,0,0,277.26,156.61Z" style="fill:#ccf4ff"/><path d="M214.93,214.19A91.13,91.13,0,0,1,200.32,213c-17.71-2.89-33.16-11.73-42.39-24.26-7.37-10-11.31-22.93-11.1-36.41a36,36,0,0,1,2-12.28c2.87-7.6,10.18-15.47,20.07-15.91,8.9-.4,19.62,6.55,24.57,10.71a1,1,0,1,1-1.29,1.53c-4.72-4-14.91-10.6-23.19-10.24-9,.39-15.65,7.63-18.29,14.62a34.07,34.07,0,0,0-1.87,11.6c-.2,13,3.6,25.54,10.71,35.2,8.92,12.1,23.9,20.66,41.1,23.46,14.2,2.32,30,1.06,48.36-3.85a198,198,0,0,0,92-54.5c11.54-12.09,19.94-24,25.7-36.31,8.28-17.76,15.81-38.05,14.79-65.92a1,1,0,0,1,1-1,1,1,0,0,1,1,1c1,28.3-6.59,48.86-15,66.85-5.85,12.54-14.37,24.59-26.07,36.84a200,200,0,0,1-92.9,55.06C236.93,212.51,225.5,214.19,214.93,214.19Z" style="fill:#4030db"/><path d="M402.56,228.52a53.05,53.05,0,0,1-32.79-11.13,1,1,0,1,1,1.24-1.57c12.88,10.17,30.86,13.38,46.93,8.38a56,56,0,0,0,34.94-33c3.21-8.19,4.56-16.89,5.6-27.44,1.15-11.68,1.07-19.2.93-31.65-.06-4.94-.12-10.54-.12-17.48a1,1,0,0,1,2,0c0,6.93.06,12.52.12,17.46.14,12.52.23,20.07-.94,31.86-1.05,10.72-2.43,19.58-5.73,28a58,58,0,0,1-36.21,34.14A53.74,53.74,0,0,1,402.56,228.52Z" style="fill:#4030db"/><path d="M223.64,132.41a2,2,0,0,0-2-2l-16,.09a2,2,0,0,0,0,4l16-.09A2,2,0,0,0,223.64,132.41Z" style="fill:#ccf4ff"/><path d="M318,79.11a2,2,0,0,0-2-2l-16,.09a2,2,0,0,0,0,4l16-.09A2,2,0,0,0,318,79.11Z" style="fill:#ccf4ff"/><path d="M360.58,178.65a2,2,0,0,0-2-2l-16,.08a2,2,0,0,0,0,4l16-.09A2,2,0,0,0,360.58,178.65Z" style="fill:#ccf4ff"/><path d="M296.79,240.33a2,2,0,0,0-2-2l-16,.09a2,2,0,1,0,0,4l16-.09A2,2,0,0,0,296.79,240.33Z" style="fill:#ccf4ff"/><path d="M137.81,351.71c-9.25,0-18.6-4-25.3-8.73a1,1,0,0,1-.25-1.4,1,1,0,0,1,1.4-.24c13.31,9.31,26,9.58,33.38,6.73,8.82-3.4,14.85-11.9,17.92-25.29,9.63-42-3.4-81.74-34.87-106.22-16.78-13.05-37.84-18.07-57.79-13.78-16.15,3.48-29.16,12.57-35.69,24.95-4.68,8.86-5.48,16.5-2.26,21.54,2.41,3.76,6.94,5.87,12.12,5.58a15.78,15.78,0,0,0,13.41-8.42C72.1,222,94.39,217,111.16,220.39c17.47,3.57,35.74,17.7,37.17,41.22,1.11,18.32-5.5,38.54-18.15,55.49-12.84,17.22-30.15,28.49-47.49,30.95-9,1.26-16.53-1.1-22.55-7-9-8.85-16.52-29.88-13.1-56.91,2.28-18.05,13.16-25.29,20.14-24.67,4.89.43,7.87,4.36,7.58,10-.45,8.86-7,17.51-12.34,24.46-3.73,4.89-7.25,9.51-7.08,12.36a3.33,3.33,0,0,0,1.09,2.52c1.86,1.58,5.91,1.15,9.49.78a28.16,28.16,0,0,1,5.4-.25,1,1,0,0,1-.21,2,26.75,26.75,0,0,0-5,.25c-4,.41-8.49.89-11-1.24a5.32,5.32,0,0,1-1.8-3.93c-.21-3.59,3.18-8.05,7.49-13.7C66,286,72.34,277.58,72.76,269.34c.24-4.61-1.91-7.57-5.76-7.91-6.18-.53-15.86,6.2-18,22.93-2.32,18.37.61,43.49,12.53,55.24,5.54,5.46,12.56,7.64,20.86,6.47,16.81-2.38,33.64-13.37,46.17-30.16,12.37-16.58,18.84-36.33,17.75-54.18-1.37-22.46-18.85-36-35.57-39.38-16.05-3.28-37.38,1.56-49.09,25a17.77,17.77,0,0,1-15.09,9.52c-5.92.31-11.12-2.11-13.92-6.49-2.56-4-4.26-11.35,2.18-23.55,6.81-12.9,20.31-22.37,37-26,20.52-4.42,42.19.74,59.43,14.15,32.1,25,45.41,65.44,35.6,108.25-3.23,14.07-9.67,23.06-19.15,26.71A27.75,27.75,0,0,1,137.81,351.71Z" style="fill:#4030db"/><path d="M112.16,249.56s.8,4.54,2.33,6.07,6.08,2.33,6.08,2.33-4.54.74-6.08,2.27-2.33,6.14-2.33,6.14-.74-4.6-2.27-6.14-6.14-2.27-6.14-2.27,4.6-.8,6.14-2.33,2.27-6.07,2.27-6.07m0-3.37h0a3.37,3.37,0,0,0-3.29,2.82,13.62,13.62,0,0,1-1.33,4.24,13.94,13.94,0,0,1-4.33,1.4,3.36,3.36,0,0,0,0,6.63,14.41,14.41,0,0,1,4.29,1.33,13.93,13.93,0,0,1,1.33,4.29,3.35,3.35,0,0,0,3.3,2.83h0a3.36,3.36,0,0,0,3.31-2.78,14.1,14.1,0,0,1,1.4-4.34,13.89,13.89,0,0,1,4.24-1.33,3.36,3.36,0,0,0,0-6.63,13.71,13.71,0,0,1-4.28-1.4,13.81,13.81,0,0,1-1.4-4.28,3.36,3.36,0,0,0-3.31-2.78Z" style="fill:#00c8d7"/><path d="M105.3,266.38a5.08,5.08,0,0,1-2-.7,5,5,0,0,1-.7-2,.87.87,0,0,0-.84-.69.83.83,0,0,0-.82.7,5,5,0,0,1-.67,2,5.13,5.13,0,0,1-2,.7.84.84,0,0,0-.69.84.83.83,0,0,0,.7.82,5.3,5.3,0,0,1,2,.67,5.13,5.13,0,0,1,.67,2,.85.85,0,0,0,.82.71h0a.85.85,0,0,0,.83-.7,5.43,5.43,0,0,1,.7-2,5,5,0,0,1,2-.67.83.83,0,0,0,.7-.82A.86.86,0,0,0,105.3,266.38Z" style="fill:#00c8d7"/><path d="M103.62,247.89a4.36,4.36,0,0,1-1.58-.55,4.19,4.19,0,0,1-.54-1.57.85.85,0,0,0-.83-.7h0a.84.84,0,0,0-.82.71,4.45,4.45,0,0,1-.52,1.56,4.4,4.4,0,0,1-1.6.55.85.85,0,0,0-.7.83.87.87,0,0,0,.71.83,4.2,4.2,0,0,1,1.59.52,4.37,4.37,0,0,1,.52,1.58.83.83,0,0,0,.82.71h0a.85.85,0,0,0,.83-.7,4.19,4.19,0,0,1,.54-1.59,4,4,0,0,1,1.57-.52.85.85,0,0,0,.7-.83A.84.84,0,0,0,103.62,247.89Z" style="fill:#00c8d7"/><path d="M416.91,189.28H395.54a1,1,0,0,1,0-2h21.37a1,1,0,0,1,0,2Z" style="fill:#4030db"/><path d="M406.22,200a1,1,0,0,1-1-1V177.6a1,1,0,0,1,2,0V199A1,1,0,0,1,406.22,200Z" style="fill:#4030db"/></svg>