<svg id="Layer_1" data-name="Layer 1" xmlns="http://www.w3.org/2000/svg" xmlns:xlink="http://www.w3.org/1999/xlink" viewBox="0 0 1959.14 488.32"><defs><clipPath id="clip-path"><rect x="-3.04" y="-1.26" width="1965.45" height="491.34" style="fill:none"/></clipPath></defs><title>extension</title><g style="clip-path:url(#clip-path)"><rect x="-96.92" y="-52.12" width="2089.31" height="589.4" style="fill:#00c8d7"/><path d="M1585.68,21.39s2.23,12.65,6.51,16.93,16.93,6.5,16.93,6.5-12.66,2-16.93,6.33-6.51,17.1-6.51,17.1-2-12.83-6.32-17.1-17.11-6.33-17.11-6.33,12.83-2.23,17.11-6.5,6.32-16.93,6.32-16.93m0-9.37h-.06a9.38,9.38,0,0,0-9.19,7.86c-.76,4.64-2.54,10.3-3.71,11.81-1.55,1.2-7.33,3.07-12.07,3.9a9.37,9.37,0,0,0,.12,18.49c4.68.76,10.4,2.54,12,3.7,1.18,1.57,3,7.28,3.71,12a9.37,9.37,0,0,0,9.19,7.9h.06a9.38,9.38,0,0,0,9.24-7.77c.83-4.75,2.71-10.54,3.9-12.08,1.51-1.16,7.17-2.94,11.81-3.71a9.37,9.37,0,0,0,.11-18.48c-4.69-.84-10.42-2.72-11.92-3.9-1.2-1.52-3.08-7.24-3.91-11.93a9.36,9.36,0,0,0-9.23-7.74Z" style="fill:#ccf4ff"/><path d="M1352.16,378.48a1,1,0,0,1,0-2c1.6,0,162.72-4.72,325.15-51.88,95.33-27.67,172.45-64.34,229.21-109,70.84-55.73,110-124.13,116.31-203.29a1,1,0,1,1,2,.16c-6.38,79.75-45.77,148.62-117.08,204.71-57,44.81-134.32,81.6-229.91,109.35-162.67,47.21-324,51.9-325.62,51.94Z" style="fill:#4030db"/><path d="M1916,160h-59.32c-5.31-9.74-18.42-30.59-34.82-33.72-21.82-4.17-26.18,17.58-26.18,17.58s-14.49-37.7-51.17-32.72c-40.32,5.48-22.53,47.16-21.81,48.82l-61.9,0a2.91,2.91,0,0,0,0,5.81l255.2.07a2.91,2.91,0,1,0,0-5.81Z" style="fill:#ccf4ff"/><path d="M984.21,283.51c-.76,0-1.53,0-2.32-.09-16.56-1.18-33.68-10.72-47-26.17-13.08-15.21-20.66-33.91-20.81-51.31-.18-22.15,15.89-36.67,31.91-41.23,15.66-4.47,37.23-1.28,50.83,21a1,1,0,0,1-1.71,1c-13-21.36-33.62-24.42-48.57-20.16-15.29,4.36-30.63,18.2-30.46,39.29.14,16.94,7.55,35.17,20.32,50C949.38,271,966,280.28,982,281.43c7.91.57,14.39-1.95,19.26-7.47,10.49-11.87,11.62-35.8,8.22-53-3.09-15.65-12.65-21.4-18.45-20.47-3.58.57-5.4,3.48-4.88,7.8.93,7.74,7.51,15.24,12.8,21.26,4.45,5.07,8,9.07,8,12.5a5.07,5.07,0,0,1-1.46,3.87c-2.24,2.19-6.55,2-10.35,1.91a25.23,25.23,0,0,0-4.71.08,1,1,0,0,1-1.16-.81,1,1,0,0,1,.81-1.16,27.22,27.22,0,0,1,5.13-.11c3.4.12,7.25.25,8.89-1.34a3.18,3.18,0,0,0,.85-2.43c0-2.68-3.65-6.81-7.49-11.19-5.47-6.23-12.28-14-13.29-22.34-.64-5.35,1.93-9.28,6.56-10,6.59-1.05,17.38,5.1,20.72,22,5,25.35-.75,45.75-8.68,54.72A23.77,23.77,0,0,1,984.21,283.51Z" style="fill:#4030db"/><path d="M1643.18,437.7H1290.62c-13.88,0-23.15-5.23-24.79-14-1.8-9.57,6.05-19.79,19.08-24.86a1,1,0,1,1,.73,1.87c-10.23,4-19.65,13-17.85,22.62,1.46,7.75,10,12.37,22.83,12.37h352.56a29.19,29.19,0,0,0,29.16-29.16V78.93a29.19,29.19,0,0,0-29.16-29.16H1290.62a29.19,29.19,0,0,0-29.16,29.16,1,1,0,1,1-2,0,31.2,31.2,0,0,1,31.16-31.16h352.56a31.2,31.2,0,0,1,31.16,31.16V406.54A31.2,31.2,0,0,1,1643.18,437.7Z" style="fill:#4030db"/><path d="M1639.49,68.78H1293.35a12.77,12.77,0,0,0-12.75,12.75V404.07a11.61,11.61,0,0,0,12,11.24h347.78a11.59,11.59,0,0,0,12-11.15V81.68a12.77,12.77,0,0,0-12.65-12.9Z" style="fill:#4f42ff"/><path d="M1620.82,88.48a7.8,7.8,0,1,1-7.79,7.8,7.8,7.8,0,0,1,7.79-7.8Z" style="fill:#ccf4ff"/><path d="M1595.66,88.48a7.8,7.8,0,1,1-7.8,7.8,7.8,7.8,0,0,1,7.8-7.8Z" style="fill:#ccf4ff"/><path d="M1371,95.89a8.44,8.44,0,0,1,8.45-8.44h173.94a8.44,8.44,0,0,1,8.45,8.44v.75a8.45,8.45,0,0,1-8.45,8.45H1379.44a8.45,8.45,0,0,1-8.45-8.45h0Z" style="fill:#ccf4ff"/><path d="M1337.19,88.48a7.84,7.84,0,1,1-.07,0Z" style="fill:#ccf4ff"/><path d="M1312,88.48a7.8,7.8,0,1,1-7.79,7.8h0A7.8,7.8,0,0,1,1312,88.48Z" style="fill:#ccf4ff"/><path d="M1643.44,397c0,5.49-2,7.53-7.51,7.53h-339c-5.48,0-7.5-2-7.5-7.53v-273h354Z" style="fill:#fff"/><path d="M1377.27,460.17c-2-.36-4.82-1.25-5.52-1.95s-1.58-3.43-2-5.53a2.4,2.4,0,0,0-2.32-1.93,2.36,2.36,0,0,0-2.3,2c-.34,2.09-1.18,4.8-1.87,5.5s-3.46,1.57-5.59,1.95a2.34,2.34,0,0,0,0,4.62c2.12.34,4.86,1.18,5.56,1.87s1.53,3.44,1.87,5.56a2.36,2.36,0,0,0,2.3,2h0a2.36,2.36,0,0,0,2.31-1.94c.36-2.08,1.25-4.89,2-5.59s3.4-1.53,5.48-1.87a2.34,2.34,0,0,0,0-4.62Z" style="fill:#ccf4ff"/><path d="M1335.5,173.91l-58,0c-5.2-9.52-18-29.92-34.08-33-21.35-4.08-25.61,17.21-25.61,17.21s-14.18-36.9-50.08-32c-39.45,5.36-22,46.14-21.34,47.77l-60.57,0a2.85,2.85,0,0,0,0,5.69l249.73.06a2.84,2.84,0,0,0,0-5.68Z" style="fill:#ccf4ff"/><path d="M978.86,571.92a.92.92,0,0,1-.28,0,1,1,0,0,1-.67-1.24c.28-1,28.3-97.17-10.25-160.83-16.9-27.91-44.17-45.7-81.06-52.88C845.77,349,820.26,322.78,810.76,279c-7.85-36.17-3.27-75.59-.24-101.68.91-7.89,1.64-14.12,1.8-18.52.46-12,4.23-28.26,9.84-42.39,2.8-7.06,10.11-23.54,17.32-24h.32c3.72,0,6.31,4.26,7.71,12.67a110.62,110.62,0,0,1,.18,33.73c-1.44,9-4.87,20.95-13,26.87-5.82,4.21-7.71,23.76-4.61,47.54,3.6,27.58,12.67,53.38,24.89,70.76,8.7,12.39,20.18,19.73,34.12,21.83,36.59,5.5,78.77-26.82,79.19-27.15a1,1,0,0,1,1.41.18,1,1,0,0,1-.18,1.4c-.43.33-43.27,33.18-80.72,27.55-14.5-2.18-26.43-9.8-35.46-22.66-27.07-38.53-33.39-111.24-19.81-121.07,12.65-9.17,15.66-37.06,12.06-58.65-1.21-7.26-3.35-11.16-5.93-11-4.09.26-10.21,9.18-15.59,22.74-5.54,13.93-9.25,29.91-9.7,41.72-.17,4.49-.89,10.75-1.82,18.68-3,26-7.57,65.18.22,101C822,321.5,847,347.18,887,355c37.47,7.29,65.19,25.39,82.39,53.81,11.26,18.6,23.88,52,20,105.7a295.09,295.09,0,0,1-9.58,56.73A1,1,0,0,1,978.86,571.92Z" style="fill:#4030db"/><path d="M1156.1,406.4c-24.2,0-45.84-12.21-58.76-34-22.52-38-3.3-69.83,9.41-90.91,37.85-62.74-.39-126-18.76-156.36l-2.14-3.55c-12.82-21.37-40.3-45.12-48.2-41.66-2.64,1.15-2.87,6-.64,13.62,9.26,31.76,17.35,34.07,24.49,36.11a29.72,29.72,0,0,1,4.82,1.68c15.24,7.28,37.4,36.48,32,83.88-1.92,16.87-9,30.11-21,39.37-26.57,20.45-69,14.5-69.39,14.43a1,1,0,0,1,.3-2c.41.07,42,5.9,67.88-14,11.59-8.92,18.4-21.7,20.25-38,3-26.26-2.91-45.11-8.39-56.3-7-14.24-16.18-22.54-22.5-25.55a27.93,27.93,0,0,0-4.51-1.57c-7.64-2.18-16.29-4.65-25.86-37.47-2.62-9-2-14.36,1.76-16,9.63-4.22,38,21.32,50.72,42.47l2.13,3.54c18.58,30.73,57.23,94.66,18.77,158.44-13.22,21.91-31.32,51.91-9.41,88.85,15.29,25.76,43.17,37.74,72.78,31.26,33.35-7.29,71.61-40.09,79-110.28,12.39-117.7,8.66-212.46,8.62-213.41a1,1,0,0,1,1-1,1.05,1.05,0,0,1,1,1c0,1,3.77,95.85-8.63,213.69-7.5,71.26-46.53,104.6-80.56,112A76,76,0,0,1,1156.1,406.4Z" style="fill:#4030db"/><path d="M826.72,177.55h-.11l-16.33-1.63a1,1,0,1,1,.2-2l16.33,1.63a1,1,0,0,1-.09,2Z" style="fill:#4030db"/><path d="M1080,143.24a1,1,0,0,1-.8-.4,1,1,0,0,1,.2-1.4l13.07-9.8a1,1,0,0,1,1.4.2,1,1,0,0,1-.2,1.4l-13.07,9.8A1,1,0,0,1,1080,143.24Z" style="fill:#4030db"/><path d="M1547.92,159.23c-2.05-.36-4.82-1.25-5.51-1.95s-1.59-3.43-2-5.52a2.4,2.4,0,0,0-2.32-1.94,2.36,2.36,0,0,0-2.3,2c-.34,2.09-1.17,4.79-1.87,5.49s-3.46,1.58-5.59,1.95a2.34,2.34,0,0,0,0,4.62c2.12.34,4.86,1.18,5.56,1.88s1.53,3.43,1.87,5.55a2.35,2.35,0,0,0,2.3,2h0a2.36,2.36,0,0,0,2.31-1.94c.36-2.08,1.25-4.89,2-5.59s3.4-1.53,5.48-1.87a2.34,2.34,0,0,0,0-4.62Z" style="fill:#00c8d7"/><path d="M1254.71,378.5a12.13,12.13,0,0,1-4.39-1.52,12.08,12.08,0,0,1-1.52-4.39,2.35,2.35,0,0,0-2.3-1.94h0a2.36,2.36,0,0,0-2.3,2,12,12,0,0,1-1.45,4.36,12.27,12.27,0,0,1-4.45,1.52,2.34,2.34,0,0,0,0,4.62,12.14,12.14,0,0,1,4.41,1.45,11.93,11.93,0,0,1,1.45,4.42,2.36,2.36,0,0,0,2.3,2h0a2.36,2.36,0,0,0,2.31-1.94,12.11,12.11,0,0,1,1.51-4.45,11.73,11.73,0,0,1,4.37-1.45,2.34,2.34,0,0,0,0-4.62Z" style="fill:#ccf4ff"/><path d="M1146.19,318.17s2.22,12.65,6.5,16.93,16.93,6.5,16.93,6.5-12.65,2-16.93,6.33-6.5,17.1-6.5,17.1-2-12.83-6.33-17.1-17.11-6.33-17.11-6.33,12.83-2.23,17.11-6.5,6.33-16.93,6.33-16.93m0-9.38h-.07a9.39,9.39,0,0,0-9.19,7.87c-.76,4.64-2.54,10.29-3.71,11.8-1.54,1.21-7.33,3.08-12.07,3.9a9.38,9.38,0,0,0,.12,18.5c4.69.76,10.41,2.53,12,3.7,1.18,1.56,3,7.28,3.7,11.95a9.37,9.37,0,0,0,9.19,7.9h.07a9.38,9.38,0,0,0,9.23-7.77c.84-4.75,2.71-10.55,3.9-12.08,1.51-1.16,7.17-2.95,11.81-3.71a9.37,9.37,0,0,0,.11-18.48c-4.69-.84-10.42-2.72-11.92-3.91-1.2-1.51-3.08-7.23-3.9-11.92a9.38,9.38,0,0,0-9.23-7.75Z" style="fill:#ccf4ff"/><path d="M1623.79,302.7a12.35,12.35,0,0,1-4.39-1.51,12.15,12.15,0,0,1-1.52-4.4,2.33,2.33,0,0,0-2.3-1.93h0a2.34,2.34,0,0,0-2.29,2,12,12,0,0,1-1.46,4.36,12.16,12.16,0,0,1-4.45,1.51,2.35,2.35,0,0,0,0,4.63,11.88,11.88,0,0,1,4.41,1.45,11.82,11.82,0,0,1,1.46,4.42,2.33,2.33,0,0,0,2.29,2h0a2.34,2.34,0,0,0,2.31-1.93,12.11,12.11,0,0,1,1.51-4.45,11.77,11.77,0,0,1,4.37-1.46,2.34,2.34,0,0,0,0-4.62Z" style="fill:#00c8d7"/><path d="M1573.13,329.94s2.22,12.65,6.5,16.93,16.93,6.5,16.93,6.5-12.65,2.05-16.93,6.33-6.5,17.11-6.5,17.11-2.05-12.83-6.33-17.11-17.11-6.33-17.11-6.33,12.83-2.22,17.11-6.5,6.33-16.93,6.33-16.93m0-9.37h-.07a9.36,9.36,0,0,0-9.18,7.86c-.77,4.64-2.55,10.3-3.71,11.81-1.55,1.2-7.34,3.08-12.08,3.9a9.37,9.37,0,0,0,.13,18.49c4.68.76,10.4,2.54,12,3.7,1.18,1.57,2.95,7.28,3.7,11.95a9.37,9.37,0,0,0,9.19,7.9h.07a9.38,9.38,0,0,0,9.23-7.77c.84-4.75,2.71-10.54,3.9-12.08,1.51-1.16,7.17-2.94,11.81-3.71a9.37,9.37,0,0,0,.11-18.48c-4.69-.84-10.42-2.72-11.92-3.9-1.2-1.52-3.08-7.24-3.9-11.93a9.37,9.37,0,0,0-9.23-7.74Z" style="fill:#00c8d7"/><path d="M1192,152.11c-2-.36-4.82-1.25-5.52-2s-1.58-3.43-2-5.52a2.41,2.41,0,0,0-2.33-1.94,2.34,2.34,0,0,0-2.29,2c-.35,2.08-1.18,4.79-1.88,5.49s-3.46,1.57-5.59,2a2.34,2.34,0,0,0,0,4.62c2.12.34,4.86,1.18,5.56,1.87s1.53,3.44,1.88,5.56a2.33,2.33,0,0,0,2.29,2h0a2.35,2.35,0,0,0,2.31-1.94c.36-2.08,1.25-4.89,2-5.59s3.4-1.53,5.49-1.87a2.34,2.34,0,0,0,0-4.62Z" style="fill:#00c8d7"/><path d="M1087.18,423.91c-2-.36-4.82-1.25-5.52-2s-1.58-3.43-2-5.52a2.41,2.41,0,0,0-2.32-1.94,2.36,2.36,0,0,0-2.3,2c-.34,2.09-1.18,4.79-1.87,5.49s-3.46,1.58-5.59,2a2.34,2.34,0,0,0,0,4.62c2.12.34,4.86,1.18,5.56,1.88s1.53,3.43,1.87,5.55a2.35,2.35,0,0,0,2.3,2h0a2.33,2.33,0,0,0,2.31-1.94c.36-2.08,1.26-4.89,2-5.59s3.4-1.53,5.48-1.87a2.34,2.34,0,0,0,0-4.62Z" style="fill:#ccf4ff"/><path d="M1803.64,228.32c-2.05-.36-4.82-1.25-5.52-1.95s-1.58-3.43-1.95-5.52a2.42,2.42,0,0,0-2.32-1.94,2.35,2.35,0,0,0-2.3,2c-.34,2.09-1.18,4.79-1.87,5.49s-3.46,1.58-5.59,1.95a2.34,2.34,0,0,0,0,4.62c2.12.34,4.86,1.18,5.56,1.88s1.53,3.43,1.87,5.55a2.33,2.33,0,0,0,2.3,2h0a2.33,2.33,0,0,0,2.31-1.94c.36-2.08,1.25-4.89,2-5.59s3.39-1.53,5.48-1.87a2.34,2.34,0,0,0,0-4.62Z" style="fill:#ccf4ff"/><path d="M1027,148.22a12.25,12.25,0,0,1-4.39-1.52,12.07,12.07,0,0,1-1.52-4.4,2.35,2.35,0,0,0-2.31-1.93h0a2.34,2.34,0,0,0-2.3,2,12,12,0,0,1-1.45,4.36,12.27,12.27,0,0,1-4.45,1.52,2.34,2.34,0,0,0,0,4.62,12,12,0,0,1,4.42,1.45,11.93,11.93,0,0,1,1.45,4.42,2.34,2.34,0,0,0,2.3,2h0a2.34,2.34,0,0,0,2.31-1.94,12.27,12.27,0,0,1,1.52-4.45,11.73,11.73,0,0,1,4.36-1.45,2.34,2.34,0,0,0,0-4.62Z" style="fill:#ccf4ff"/><path d="M939.79,426c-1.65-.29-3.88-1-4.39-1.52a12.08,12.08,0,0,1-1.52-4.39,2.35,2.35,0,0,0-2.31-1.94h0a2.34,2.34,0,0,0-2.29,2,12,12,0,0,1-1.45,4.36,12.27,12.27,0,0,1-4.45,1.52,2.34,2.34,0,0,0,0,4.62,12,12,0,0,1,4.42,1.45,11.93,11.93,0,0,1,1.45,4.42,2.34,2.34,0,0,0,2.3,2h0a2.35,2.35,0,0,0,2.31-1.94A12.27,12.27,0,0,1,935.4,432a11.73,11.73,0,0,1,4.36-1.45,2.34,2.34,0,0,0,0-4.62Z" style="fill:#00c8d7"/><path d="M1132.65,51.67c-2.05-.36-4.82-1.25-5.51-2s-1.59-3.42-2-5.52a2.4,2.4,0,0,0-2.32-1.93,2.34,2.34,0,0,0-2.3,2c-.34,2.09-1.17,4.79-1.87,5.49s-3.46,1.58-5.59,2a2.35,2.35,0,0,0,0,4.63c2.12.34,4.86,1.17,5.56,1.87s1.53,3.43,1.87,5.56a2.36,2.36,0,0,0,2.3,2h0a2.36,2.36,0,0,0,2.31-1.94c.36-2.09,1.25-4.89,2-5.59s3.4-1.53,5.48-1.88a2.34,2.34,0,0,0,0-4.62Z" style="fill:#ccf4ff"/><path d="M876.42,197.09c-2-.36-4.82-6.78-5.52-7.48s-1.58,2.1-1.95,0a2.41,2.41,0,0,0-2.32-1.93,2.34,2.34,0,0,0-2.3,2c-.34,2.09-1.18,4.8-1.88,5.49s-3.46,1.58-5.59,2a2.34,2.34,0,0,0,0,4.62c2.12.34,4.86,1.17,5.55,1.87s1.54,3.44,1.88,5.56a2.34,2.34,0,0,0,2.3,2h0a2.34,2.34,0,0,0,2.31-1.94c.36-2.08,1.25-4.89,1.95-5.59s3.4-1.53,5.49-1.87a2.34,2.34,0,0,0,0-4.62Z" style="fill:#ccf4ff"/><path d="M892.48,415.74c-2.05-.36-4.82-6.77-5.52-7.47s-1.58,2.1-2,0a2.41,2.41,0,0,0-2.33-1.93,2.32,2.32,0,0,0-2.29,2c-.35,2.09-1.18,4.79-1.88,5.49s-3.46,1.58-5.59,1.95a2.35,2.35,0,0,0,0,4.63c2.12.34,4.86,1.17,5.56,1.87s1.53,3.43,1.88,5.56a2.34,2.34,0,0,0,2.29,2h0a2.35,2.35,0,0,0,2.31-1.94c.36-2.09,1.25-4.89,2-5.59s3.4-1.53,5.49-1.88a2.34,2.34,0,0,0,0-4.62Z" style="fill:#ccf4ff"/><path d="M1873.59,70.6c-2-.36-4.82-1.25-5.51-1.95s-1.59-3.43-2-5.53a2.4,2.4,0,0,0-2.32-1.93,2.36,2.36,0,0,0-2.3,2c-.34,2.09-1.17,4.8-1.87,5.49s-3.46,1.58-5.59,2a2.33,2.33,0,0,0-1.94,2.32,2.36,2.36,0,0,0,2,2.3c2.12.34,4.86,1.17,5.56,1.87s1.53,3.44,1.87,5.56a2.36,2.36,0,0,0,2.3,2h0a2.36,2.36,0,0,0,2.31-1.94c.36-2.08,1.25-4.89,1.95-5.59s3.4-1.53,5.48-1.87a2.36,2.36,0,0,0,2-2.3A2.33,2.33,0,0,0,1873.59,70.6Z" style="fill:#ccf4ff"/><path d="M771.82,104.53H740.76c-2.78-5.09-9.64-16-18.23-17.65-11.42-2.18-13.7,9.21-13.7,9.21S701.24,76.34,682,79c-21.1,2.87-11.79,24.69-11.41,25.55H638.21a1.52,1.52,0,1,0,0,3l133.61,0a1.52,1.52,0,0,0,0-3Z" style="fill:#ccf4ff"/><path d="M1920.16,378.16c-2.05-.36-4.82-1.25-5.52-2s-1.58-3.42-2-5.52a2.41,2.41,0,0,0-2.33-1.93,2.34,2.34,0,0,0-2.29,2c-.34,2.09-1.18,4.8-1.88,5.49s-3.46,1.58-5.59,2a2.35,2.35,0,0,0,0,4.63c2.13.34,4.87,1.17,5.56,1.87s1.54,3.44,1.88,5.56a2.34,2.34,0,0,0,2.29,2h0a2.35,2.35,0,0,0,2.31-1.94c.36-2.08,1.25-4.89,2-5.59s3.4-1.53,5.49-1.87a2.35,2.35,0,0,0,0-4.63Z" style="fill:#ccf4ff"/><path d="M1205.67,262.81a1,1,0,0,1-.71-.29l-11.18-11.19a1,1,0,0,1,1.41-1.41l10.34,10.34L1231,224a1,1,0,0,1,1.64,1.15l-26.1,37.28a1,1,0,0,1-.73.43Z" style="fill:#4030db"/><path d="M1756.29,140.58a1,1,0,0,1-.7-.29l-17.7-17.7a1,1,0,0,1,1.41-1.41L1756.16,138l40.61-58a1,1,0,0,1,1.64,1.15l-41.3,59a1,1,0,0,1-.73.42Z" style="fill:#4030db"/><path d="M1763.23,416.22a1,1,0,0,1-.71-.3l-26.38-26.38a1,1,0,0,1,1.41-1.41l25.54,25.54,60.87-87a1,1,0,1,1,1.64,1.15l-61.55,87.93a1,1,0,0,1-.74.42Z" style="fill:#4030db"/><path d="M1341,287.38c-2-.36-4.82-1.25-5.52-1.95s-1.58-3.43-2-5.52a2.4,2.4,0,0,0-2.32-1.94,2.36,2.36,0,0,0-2.3,2c-.34,2.08-1.18,4.79-1.87,5.49s-3.46,1.57-5.59,1.95a2.34,2.34,0,0,0,0,4.62c2.12.34,4.86,1.18,5.56,1.87s1.53,3.44,1.87,5.56a2.35,2.35,0,0,0,2.3,2h0a2.36,2.36,0,0,0,2.31-1.94c.36-2.08,1.25-4.89,2-5.59s3.4-1.53,5.48-1.87a2.34,2.34,0,0,0,0-4.62Z" style="fill:#00c8d7"/><path d="M1508.26,28.28c-2-.36-4.82-1.25-5.52-2s-1.58-3.42-2-5.52a2.43,2.43,0,0,0-2.33-1.94,2.34,2.34,0,0,0-2.29,2c-.34,2.09-1.18,4.79-1.88,5.49s-3.46,1.58-5.59,2a2.34,2.34,0,0,0,0,4.62c2.13.35,4.87,1.18,5.56,1.88s1.54,3.43,1.88,5.56a2.33,2.33,0,0,0,2.29,2h0a2.34,2.34,0,0,0,2.31-1.94c.36-2.08,1.25-4.88,2-5.58s3.4-1.54,5.49-1.88a2.34,2.34,0,0,0,0-4.62Z" style="fill:#ccf4ff"/></g><path d="M1492.84,334.74a26.91,26.91,0,0,1-10.6-2.06,12.7,12.7,0,0,1-8-12.25c0-4.72,2.74-7.61,5.38-10.41,2.89-3,5.61-5.92,5.61-11.39,0-4.53-6.13-11.09-17.23-11.09-11.27,0-16.52,6.62-16.52,11.09,0,5.46,2.81,8.33,5.78,11.37,2.74,2.8,5.56,5.69,5.56,10.43,0,10.55-9.59,14.31-18.56,14.31-.75,0-1.18,0-1.18,0H1406a13,13,0,0,1-12.92-13.06l0-34.8c0-.24-.6-8.93,4.36-14.26a12.93,12.93,0,0,1,9.91-4c4.8,0,7.45,2.95,10,5.81,2.72,3,5.3,5.9,10.68,5.9,4.89,0,9.85-5.54,9.85-16.13,0-10.75-5-15.56-9.85-15.56-5.38,0-7.95,2.88-10.68,5.92-2.56,2.86-5.21,5.81-10,5.81a12.8,12.8,0,0,1-9.77-3.94c-5.11-5.48-4.53-14.63-4.5-15l0-22.15a13.05,13.05,0,0,1,2.44-7.6,12.89,12.89,0,0,1,10.48-5.47h27.58c-.09,0,8.17-1.56,8.17-7,0-2.14-1.2-3.45-3.31-5.58-2.9-2.94-6.52-6.59-6.52-14.74,0-6.85,3.16-18.35,24.33-18.35,22.78,0,25.24,12.84,25.24,18.35,0,8.19-4,11.85-7.13,14.79-2.3,2.13-3.6,3.43-3.6,5.53,0,5.48,8.37,7,8.45,7l29.56,0a13,13,0,0,1,12.94,13.07v16.6s1.08,9.06,6.4,9.06c2.06,0,3.14-1.18,5-3.42,2.48-3,5.87-7,14.11-7,7.19,0,19.24,3.12,19.24,24,0,23.13-14.72,24.93-19.24,24.93-8.27,0-11.66-4.28-14.14-7.41-1.88-2.38-3-3.62-5-3.62-5.35,0-6.41,8.86-6.41,8.95v40.28a13,13,0,0,1-12.93,13.06h-14.86S1493.49,334.74,1492.84,334.74Z" style="fill:#00c8d7"/><path d="M1472,270a4.13,4.13,0,0,1-2.92-1.21l-12.42-12.41a4.14,4.14,0,0,1,5.85-5.85l8.93,8.92,26.13-37.33a4.14,4.14,0,0,1,6.79,4.74l-29,41.38a4.15,4.15,0,0,1-3,1.75Z" style="fill:#fff"/></svg>