<svg id="Layer_1" data-name="Layer 1" xmlns="http://www.w3.org/2000/svg" xmlns:xlink="http://www.w3.org/1999/xlink" viewBox="0 0 1301.39 806.55"><defs><clipPath id="clip-path"><rect x="7.36" y="-30.48" width="1308.51" height="841.87" style="fill:none"/></clipPath></defs><title>header-b</title><g style="clip-path:url(#clip-path)"><path d="M233.55,818.36c49.78-11.06,209-29.66,327.43-144.91,163.71-159.28,226.9-350.36,379.55-401.24,177.91-59.3,324.12,54.49,250.07,229.12-42.5,100.24-117.35,150.88-68.81,313.71C1124.4,823.78,233.55,818.36,233.55,818.36Z" style="fill:#ccf4ff"/><path d="M425.92,700.77h-389A14.35,14.35,0,0,0,22.59,715.1v362.47A13,13,0,0,0,36,1090.2H426.86a13,13,0,0,0,13.52-12.53V715.26a14.35,14.35,0,0,0-14.22-14.49Zm-21,22.14a8.76,8.76,0,1,1-8.76,8.76,8.76,8.76,0,0,1,8.76-8.76Zm-28.28,0a8.76,8.76,0,1,1-8.76,8.76,8.76,8.76,0,0,1,8.76-8.76Zm-252.48,8.33a9.49,9.49,0,0,1,9.49-9.49H329.15a9.49,9.49,0,0,1,9.49,9.49v.84a9.49,9.49,0,0,1-9.49,9.49H133.66a9.49,9.49,0,0,1-9.49-9.49h0Zm-38-8.33a8.81,8.81,0,1,1-.09,0Zm-28.29,0a8.76,8.76,0,1,1-8.76,8.76h0A8.76,8.76,0,0,1,57.9,722.91Zm372.45,346.76c0,6.17-2.27,8.46-8.44,8.46h-381c-6.16,0-8.43-2.29-8.43-8.46V762.9H430.35Z" style="fill:#00c8d7"/><circle cx="57.9" cy="731.67" r="8.76" style="fill:#fff"/><circle cx="86.19" cy="731.67" r="8.76" style="fill:#fff"/><rect x="124.2" y="721.75" width="214.46" height="19.82" rx="9.49" style="fill:#fff"/><circle cx="376.65" cy="731.67" r="8.76" style="fill:#fff"/><circle cx="404.93" cy="731.67" r="8.76" style="fill:#fff"/><path d="M142.42,1459.74c-19.78.23-36-15-36.27-33.91L97.5,689.73a37.85,37.85,0,0,1,37.34-38.24L925,642.21a37.85,37.85,0,0,1,38.24,37.35l8.64,736.11c.22,18.92-15.69,34.51-35.46,34.74Z" style="fill:#4f42ff"/><g id="Layer_3" data-name="Layer 3"><circle cx="178.33" cy="724.16" r="17.8" style="fill:#fff"/></g><g id="Layer_5" data-name="Layer 5"><circle cx="235.75" cy="723.49" r="17.8" style="fill:#fff"/></g><g id="Layer_6" data-name="Layer 6"><path d="M748.61,718.33l0-1.72a19.28,19.28,0,0,0-19.5-19.05L332,702.23a19.26,19.26,0,0,0-19,19.49l0,1.72a19.27,19.27,0,0,0,19.49,19l397.09-4.67A19.27,19.27,0,0,0,748.61,718.33Z" style="fill:#fff"/></g><g id="Layer_3-2" data-name="Layer 3"><circle cx="825.81" cy="716.56" r="17.8" style="fill:#fff"/></g><g id="Layer_5-2" data-name="Layer 5"><circle cx="883.24" cy="715.89" r="17.8" style="fill:#fff"/></g><path d="M726,715.78a1,1,0,0,1-1-1V605.41a1,1,0,0,1,2,0V714.78A1,1,0,0,1,726,715.78Z" style="fill:#4030db"/><path d="M1161.93,470.85a13.21,13.21,0,0,1-5.21-1,6.25,6.25,0,0,1-3.93-6c0-2.33,1.35-3.75,2.65-5.12s2.76-2.92,2.76-5.61c0-2.23-3-5.45-8.48-5.45s-8.12,3.26-8.12,5.45c0,2.69,1.38,4.1,2.84,5.6s2.74,2.8,2.74,5.13c0,5.19-4.72,7-9.14,7-.36,0-.58,0-.58,0h-18.24a6.4,6.4,0,0,1-6.36-6.42V447.29c0-.12-.29-4.4,2.15-7a6.37,6.37,0,0,1,4.88-2c2.36,0,3.66,1.46,4.92,2.86s2.61,2.9,5.25,2.9c2.41,0,4.85-2.72,4.85-7.93s-2.43-7.66-4.85-7.66c-2.64,0-3.91,1.42-5.25,2.92s-2.56,2.86-4.92,2.86a6.29,6.29,0,0,1-4.81-1.95c-2.51-2.69-2.23-7.19-2.22-7.38V414a6.43,6.43,0,0,1,6.36-6.43h13.56s4-.77,4-3.43c0-1.06-.58-1.7-1.62-2.75a9.14,9.14,0,0,1-3.21-7.25c0-3.37,1.55-9,12-9,11.2,0,12.41,6.32,12.41,9,0,4-1.94,5.83-3.5,7.28-1.14,1-1.77,1.68-1.77,2.72,0,2.69,4.11,3.43,4.15,3.44h14.54a6.41,6.41,0,0,1,6.37,6.43v8.17s.53,4.45,3.15,4.45c1,0,1.54-.57,2.47-1.68a8.08,8.08,0,0,1,6.94-3.45c3.54,0,9.47,1.54,9.47,11.83,0,11.38-7.25,12.27-9.47,12.27a7.93,7.93,0,0,1-7-3.65c-.93-1.17-1.46-1.78-2.46-1.78-2.63,0-3.15,4.36-3.16,4.4v19.82a6.4,6.4,0,0,1-6.37,6.42h-7.3S1162.25,470.85,1161.93,470.85Z" style="fill:#00c8d7"/><path d="M1255.49,319.06H1047.42a7.67,7.67,0,0,0-7.66,7.66V520.6a7,7,0,0,0,7.18,6.76H1256a7,7,0,0,0,7.23-6.7V326.81a7.68,7.68,0,0,0-7.61-7.75Zm-11.22,11.84a4.69,4.69,0,1,1-4.68,4.69,4.69,4.69,0,0,1,4.68-4.69Zm-15.13,0a4.69,4.69,0,1,1-4.68,4.69,4.69,4.69,0,0,1,4.68-4.69Zm-135.05,4.46a5.08,5.08,0,0,1,5.08-5.08h104.56a5.07,5.07,0,0,1,5.08,5.08v.44a5.07,5.07,0,0,1-5.08,5.08H1099.17a5.08,5.08,0,0,1-5.08-5.08h0Zm-20.32-4.46a4.69,4.69,0,1,1-4.72,4.69,4.7,4.7,0,0,1,4.72-4.69Zm-15.12,0a4.69,4.69,0,1,1-4.69,4.69h0A4.69,4.69,0,0,1,1058.65,330.9Zm199.22,185.48c0,3.3-1.22,4.53-4.52,4.53H1049.56c-3.29,0-4.51-1.23-4.51-4.53V352.29h212.82Z" style="fill:#4f42ff"/><circle cx="1058.65" cy="335.59" r="4.69" style="fill:#fff"/><circle cx="1073.77" cy="335.59" r="4.69" style="fill:#fff"/><rect x="1094.11" y="330.28" width="114.72" height="10.6" rx="5.08" style="fill:#fff"/><circle cx="1229.14" cy="335.59" r="4.69" style="fill:#fff"/><circle cx="1244.27" cy="335.59" r="4.69" style="fill:#fff"/><circle cx="627" cy="420.91" r="36.26" style="fill:#4f42ff"/><path d="M627,458.17a37.26,37.26,0,1,1,37.26-37.26A37.3,37.3,0,0,1,627,458.17Zm0-72.52a35.26,35.26,0,1,0,35.26,35.26A35.29,35.29,0,0,0,627,385.65Z" style="fill:#4030db"/><path d="M644.12,405.1a2.32,2.32,0,0,0-2.33,2.32v6.31a16.24,16.24,0,1,0-3.21,18.37,2.33,2.33,0,0,0-3.29-3.29,11.52,11.52,0,0,1-8.22,3.41A11.63,11.63,0,1,1,638,416.72H632.5a2.33,2.33,0,1,0,0,4.65h11.62a2.32,2.32,0,0,0,2.32-2.32V407.42A2.32,2.32,0,0,0,644.12,405.1Z" style="fill:#fff"/><path d="M1019.94,644.12l-14.88-14.87a18.57,18.57,0,1,0-4.36,4.36l14.88,14.88a3.09,3.09,0,1,0,4.36-4.37Zm-30-13.24a12.34,12.34,0,1,1,12.34-12.34A12.36,12.36,0,0,1,990,630.88Z" style="fill:#00c8d7"/><path d="M780.18,322.19a2.06,2.06,0,1,0,2.06,2.06A2.06,2.06,0,0,0,780.18,322.19Zm-5.65,16.46h11.31a1.55,1.55,0,0,0,0-3.09H774.53a1.55,1.55,0,1,0,0,3.09Zm0,6.17h6.17a1.55,1.55,0,0,0,0-3.09h-6.17a1.55,1.55,0,1,0,0,3.09ZM791,323.26a1,1,0,0,0-.17,0h-3.18a.41.41,0,0,1-.41-.34,7.16,7.16,0,0,0-14.07,0,.42.42,0,0,1-.41.34h-3.19a1,1,0,0,0-.17,0,6.07,6.07,0,0,0-5.65,6.13v30.85a6.08,6.08,0,0,0,6,6.17h20.94a6.08,6.08,0,0,0,6-6.17V329.39A6.07,6.07,0,0,0,791,323.26Zm-.51,21.56a3,3,0,0,1-2.94,3.08H772.84a3,3,0,0,1-2.94-3.08V332.48h20.57Zm0-15.43H769.9v-3.08h2.84a3.51,3.51,0,0,0,3.43-2.85,4.08,4.08,0,0,1,8,0,3.51,3.51,0,0,0,3.44,2.85h2.84Z" style="fill:#4f42ff"/><path d="M732.68,390.63s1.47,8.33,4.28,11.15,11.15,4.28,11.15,4.28-8.33,1.35-11.15,4.16-4.28,11.26-4.28,11.26-1.35-8.44-4.16-11.26-11.26-4.16-11.26-4.16,8.44-1.47,11.26-4.28,4.16-11.15,4.16-11.15m0-6.17h0a6.18,6.18,0,0,0-6,5.18c-.5,3.05-1.68,6.78-2.44,7.77-1,.79-4.83,2-7.95,2.57a6.17,6.17,0,0,0,.08,12.17c3.08.5,6.85,1.67,7.87,2.44.78,1,2,4.79,2.44,7.87a6.15,6.15,0,0,0,6,5.19h0a6.16,6.16,0,0,0,6.08-5.11c.55-3.13,1.78-6.94,2.57-8,1-.77,4.72-1.94,7.77-2.44a6.17,6.17,0,0,0,.08-12.17c-3.09-.55-6.87-1.79-7.85-2.57-.79-1-2-4.76-2.57-7.85a6.18,6.18,0,0,0-6.08-5.1Z" style="fill:#4f42ff"/><path d="M720.09,421.51a9.67,9.67,0,0,1-3.63-1.29,9.47,9.47,0,0,1-1.29-3.63,1.59,1.59,0,0,0-1.52-1.28,1.56,1.56,0,0,0-1.52,1.3,9.19,9.19,0,0,1-1.23,3.61,9.64,9.64,0,0,1-3.68,1.29,1.54,1.54,0,0,0,0,3,9.46,9.46,0,0,1,3.66,1.23,9.3,9.3,0,0,1,1.23,3.66,1.55,1.55,0,0,0,1.52,1.3h0a1.54,1.54,0,0,0,1.52-1.28,9.68,9.68,0,0,1,1.28-3.68,9.19,9.19,0,0,1,3.61-1.23,1.54,1.54,0,0,0,0-3Z" style="fill:#4f42ff"/><path d="M717,387.57a7.92,7.92,0,0,1-2.89-1,7.77,7.77,0,0,1-1-2.89,1.54,1.54,0,0,0-1.52-1.27h0a1.54,1.54,0,0,0-1.51,1.29,3.45,3.45,0,0,1-3.89,3.87,1.54,1.54,0,0,0,0,3,3.4,3.4,0,0,1,3.87,3.87,1.54,1.54,0,0,0,1.51,1.29h0a1.54,1.54,0,0,0,1.52-1.27,7.9,7.9,0,0,1,1-2.93,7.77,7.77,0,0,1,2.87-1,1.54,1.54,0,0,0,0-3Z" style="fill:#4f42ff"/><path d="M1220.53,272.35h-27.76c-2.43-4.46-8.46-14.06-16-15.5-10-1.92-12,8.07-12,8.07s-6.65-17.31-23.5-15c-18.74,2.54-10.15,22.13-10,22.44h-28.11a2.39,2.39,0,0,0,.2,4.78l117.21,0a2.4,2.4,0,1,0,0-4.8Z" style="fill:#4f42ff"/><path d="M1257.44,540.79H1046.17a19.09,19.09,0,0,1-19.08-19.07V325.4a19.09,19.09,0,0,1,19.08-19.07h211.27a19.09,19.09,0,0,1,19.07,19.07V521.72A19.09,19.09,0,0,1,1257.44,540.79ZM1046.17,308.33a17.09,17.09,0,0,0-17.08,17.07V521.72a17.09,17.09,0,0,0,17.08,17.07h211.27a17.09,17.09,0,0,0,17.07-17.07V325.4a17.09,17.09,0,0,0-17.07-17.07Z" style="fill:#4030db"/><circle cx="834.75" cy="568.64" r="4.69" style="fill:#4f42ff"/><circle cx="849.88" cy="568.64" r="4.69" style="fill:#4f42ff"/><rect x="870.21" y="563.33" width="114.72" height="10.6" rx="5.08" style="fill:#4f42ff"/><circle cx="1005.24" cy="568.64" r="4.69" style="fill:#4f42ff"/><circle cx="1020.37" cy="568.64" r="4.69" style="fill:#4f42ff"/><path d="M784,607.2a3,3,0,0,1-3.15,2.85l-113.2,1a3,3,0,0,1-3.2-2.79l0-1.5a2.66,2.66,0,0,1,.2-1l9.67-23.22a3.17,3.17,0,0,1,3-1.84l92.8-.84a3.18,3.18,0,0,1,3,1.74l10.74,23.06a2.73,2.73,0,0,1,.24,1.05ZM674.75,572.75l-.53-58.43a5.1,5.1,0,0,1,5-5.15l88.12-.79a5.09,5.09,0,0,1,5.14,5l.53,58.43a5.1,5.1,0,0,1-5,5.14l-88.12.8A5.09,5.09,0,0,1,674.75,572.75Z" style="fill:#4f42ff"/><rect x="679.29" y="517.34" width="88.73" height="55.34" rx="3" transform="translate(-4.9 6.56) rotate(-0.52)" style="fill:#fff"/><path d="M764.78,518.4a1.58,1.58,0,0,1,1.58,1.56l.45,49.33a1.57,1.57,0,0,1-1.56,1.58l-82.72.75a1.57,1.57,0,0,1-1.58-1.56l-.45-49.33a1.58,1.58,0,0,1,1.56-1.58l82.72-.75" style="fill:#fff"/><path d="M743.06,602.28l-37.69.34c-.62,0-1.16-.35-1.14-.76.45-2.45.65-3.72,1.12-6.29,0-.35.42-.62,1-.63l36.34-.6c.55,0,1,.24,1,.58a63.75,63.75,0,0,1,.68,6.5C744.27,601.86,743.68,602.27,743.06,602.28Zm-44.2-13.19-5.61.07c-.49,0-.88.21-.94.52-.16.69-.24,1-.38,1.71-.11.48.56,1,1.31.94l5.49-.08a.94.94,0,0,0,.95-.52c.19-.68.28-1,.48-1.71C700.3,589.55,699.64,589.08,698.86,589.09ZM713,588.9l-5.84.08c-.55,0-1,.25-1,.59-.12.68-.18,1-.29,1.7-.08.45.54.86,1.26.85l5.66-.08c.54,0,1-.25,1.06-.59.17-.67.25-1,.43-1.69C714.33,589.31,713.74,588.89,713,588.9Zm29.53,1.83-.25-1.66c0-.33-.48-.56-1-.55l-5.84.08c-.75,0-1.36.44-1.26.88.16.67.24,1,.39,1.66.07.33.51.55,1.05.55l5.66-.09C742,591.59,742.58,591.17,742.52,590.73Zm-14.25.26-.3-1.67c-.06-.36-.55-.61-1.14-.61l-5.27.08c-.59,0-1.09.27-1.16.63-.14.68-.21,1-.34,1.69-.09.43.46.81,1.16.8l5.87-.09C727.79,591.81,728.35,591.41,728.27,591Zm28.13-.53c-.14-.65-.2-1-.34-1.64-.06-.29-.44-.48-.93-.48l-5.61.07c-.78,0-1.45.49-1.33,1,.18.66.27,1,.44,1.64.08.29.46.48,1,.48l5.48-.08C755.81,591.38,756.49,590.91,756.4,590.46Zm-56.17-6.66-5.31.07c-.47,0-.84.19-.92.47-.19.63-.28.95-.45,1.58-.12.43.49.87,1.2.86l5.19-.06a1,1,0,0,0,.93-.48c.21-.63.32-.94.54-1.57C701.57,584.23,701,583.79,700.23,583.8Zm13.43-.16-5.56.07c-.52,0-1,.23-1,.54-.15.63-.22,1-.36,1.58-.09.42.48.8,1.17.79l5.41-.06c.52,0,1-.24,1-.54.18-.63.28-.95.47-1.58C714.93,584,714.38,583.63,713.66,583.64Zm28.15,1.75c-.1-.62-.15-.94-.24-1.57-.05-.31-.46-.53-1-.53l-5.56.07c-.71,0-1.3.42-1.2.84l.35,1.57c.07.3.49.52,1,.51l5.42-.07C741.29,586.2,741.87,585.81,741.81,585.39Zm-13.61.22c-.11-.63-.16-.94-.26-1.57-.06-.34-.51-.58-1.08-.57l-5,.06c-.56,0-1,.26-1.12.6-.16.63-.23,1-.38,1.58-.09.4.43.75,1.1.74l5.63-.07C727.73,586.37,728.26,586,728.2,585.61Zm26.78-.44c-.13-.62-.2-.93-.33-1.57-.06-.28-.42-.47-.88-.47l-5.31.07c-.74,0-1.38.47-1.26.9.18.63.26.95.43,1.57.08.27.45.45.91.45l5.19-.06C754.44,586.05,755.07,585.6,755,585.17Zm-68.91,4.07-5.36.06a1,1,0,0,0-1,.53,12.82,12.82,0,0,0-.55,1.73c-.12.48.54,1,1.26,1l5.31-.08c.47,0,.83-.21.9-.52a11.74,11.74,0,0,1,.54-1.72C687.38,589.71,686.82,589.23,686.07,589.24Zm1.85-5.29-5,0a.82.82,0,0,0-.85.47,12,12,0,0,1-.51,1.57c-.16.44.34.88,1,.87l5,0a1,1,0,0,0,1-.48c.28-.63.41-.94.63-1.57C689.22,584.37,688.62,583.94,687.92,584ZM761,589.19a10.53,10.53,0,0,1,.51,1.63c.06.29.42.48.89.47l5.3-.07c.73,0,1.4-.48,1.29-.92a13.26,13.26,0,0,0-.51-1.63,1,1,0,0,0-1-.47l-5.36.06C761.38,588.27,760.81,588.74,761,589.19ZM759.35,584a12.6,12.6,0,0,0,.53,1.57,1,1,0,0,0,.92.45l5-.05c.67,0,1.2-.45,1.06-.88a10.75,10.75,0,0,1-.4-1.58c0-.28-.37-.47-.8-.47l-5,.06C759.88,583.06,759.23,583.53,759.35,584Z" style="fill:#fff"/><g id="Layer_4" data-name="Layer 4"><path d="M724.79,511.23a1.66,1.66,0,1,1-1.64,1.67A1.66,1.66,0,0,1,724.79,511.23Z" style="fill:#4f42ff"/></g><rect x="757.78" y="541.84" width="49.41" height="84.88" rx="6.38" transform="translate(-5.25 7.09) rotate(-0.52)" style="fill:#4f42ff"/><rect x="763.94" y="548.76" width="37.04" height="65.02" rx="2.47" transform="translate(-5.22 7.09) rotate(-0.52)" style="fill:#fff"/><path d="M798.23,550.05a1,1,0,0,1,1,1l.55,60.08a1.05,1.05,0,0,1-1,1.05l-32.09.29a1.05,1.05,0,0,1-1.05-1l-.54-60.08a1,1,0,0,1,1-1l32.09-.29" style="fill:#fff"/><path d="M725.74,568a3.53,3.53,0,0,1-2.23-.77L701.86,550a17.8,17.8,0,0,1-5.3-5.21,18.22,18.22,0,0,1,15-28.34,18.11,18.11,0,0,1,13,5.24,1,1,0,0,0,.71.32,1,1,0,0,0,.69-.31,18.23,18.23,0,1,1,23.22,27.88L728,567.18A3.61,3.61,0,0,1,725.74,568Zm59.06,33.47,15.63-13a13.66,13.66,0,0,0,3.86-3.94,13.87,13.87,0,0,0-21.54-17.27.34.34,0,0,1-.24.11.34.34,0,0,1-.26-.12,13.87,13.87,0,0,0-19.6.13A13.93,13.93,0,0,0,761,584.81a13.56,13.56,0,0,0,4,4l16,12.73a3,3,0,0,0,3.77,0Z" style="fill:#00c8d7"/><path d="M701.73,537.15h-.23a2.82,2.82,0,0,1-2.6-3,12.45,12.45,0,0,1,9.65-11.28,2.81,2.81,0,1,1,1.27,5.47,6.91,6.91,0,0,0-5.33,6.23A2.81,2.81,0,0,1,701.73,537.15Z" style="fill:#f9f9fa"/><path d="M765.13,578.93H765A2.08,2.08,0,0,1,763,576.7a9.23,9.23,0,0,1,7.15-8.36,2.08,2.08,0,1,1,.94,4,5.1,5.1,0,0,0-3.94,4.62A2.08,2.08,0,0,1,765.13,578.93Z" style="fill:#f9f9fa"/><rect x="845.34" y="277.78" width="133.78" height="174.33" rx="2" transform="translate(-0.66 1.64) rotate(-0.1)" style="fill:#00c8d7"/><circle cx="967.56" cy="249.45" r="4.86" style="fill:#00c8d7"/><circle cx="967.53" cy="235.52" r="4.86" style="fill:#00c8d7"/><circle cx="967.51" cy="221.59" r="4.86" style="fill:#00c8d7"/><rect x="927.49" y="331.49" width="34.86" height="14.59" rx="4.5" transform="translate(-0.61 1.7) rotate(-0.1)" style="fill:#fff"/><circle cx="955.56" cy="338.54" r="10.95" style="fill:#fff"/><path d="M874.62,288.06a1.62,1.62,0,1,0-2.29,2.29l7,6.95-18.79,0a1.62,1.62,0,1,0,0,3.24l18.79,0-6.95,7a1.62,1.62,0,1,0,2.3,2.29l9.71-9.75a1.61,1.61,0,0,0,0-2.29Z" style="fill:#f9f9fa"/><path d="M965.89,287.42a1.62,1.62,0,0,0-1.62,1.62V293a11.34,11.34,0,1,0-1.68,13.84,1.62,1.62,0,0,0-2.3-2.29,8.14,8.14,0,1,1,1.63-9h-4.14a1.62,1.62,0,0,0,0,3.24h8.11a1.63,1.63,0,0,0,1.62-1.63l0-8.1A1.62,1.62,0,0,0,965.89,287.42Z" style="fill:#f9f9fa"/><path d="M909.6,332.74l-51.49.1a2.2,2.2,0,0,1,0-4.39l51.5-.09a2.19,2.19,0,0,1,0,4.38Zm-5.68,12.9a2.2,2.2,0,0,0-2.2-2.19l-43.59.08a2.2,2.2,0,0,0,0,4.39l43.59-.08A2.2,2.2,0,0,0,903.92,345.64Z" style="fill:#fff"/><path d="M913.79,375.79a2.2,2.2,0,0,0-2.2-2.19l-53.41.1a2.19,2.19,0,1,0,0,4.38l53.41-.1A2.19,2.19,0,0,0,913.79,375.79Z" style="fill:#f9f9fa"/><path d="M904,390.89a2.2,2.2,0,0,0-2.2-2.19l-43.59.08a2.19,2.19,0,1,0,0,4.38l43.59-.08A2.19,2.19,0,0,0,904,390.89Z" style="fill:#f9f9fa"/><path d="M913.88,421a2.19,2.19,0,0,0-2.19-2.19l-53.43.1a2.19,2.19,0,0,0,0,4.38l53.43-.09A2.19,2.19,0,0,0,913.88,421Z" style="fill:#f9f9fa"/><path d="M922,436.1a2.2,2.2,0,0,0-2.2-2.19l-61.54.11a2.19,2.19,0,1,0,0,4.38l61.54-.11A2.19,2.19,0,0,0,922,436.1Z" style="fill:#f9f9fa"/><path d="M984.48,527H835.84a11.2,11.2,0,0,1-11.19-11.19V275.23A11.2,11.2,0,0,1,835.84,264H984.48a11.2,11.2,0,0,1,11.19,11.19V515.76A11.2,11.2,0,0,1,984.48,527ZM835.84,266a9.2,9.2,0,0,0-9.19,9.19V515.76a9.2,9.2,0,0,0,9.19,9.19H984.48a9.2,9.2,0,0,0,9.19-9.19V275.23a9.2,9.2,0,0,0-9.19-9.19Z" style="fill:#4030db"/><path d="M925.52,505.7H894.79a10.19,10.19,0,0,1,0-20.37h30.73a10.19,10.19,0,1,1,0,20.37Z" style="fill:#00c8d7"/><path d="M725.77,540.53a1,1,0,0,1-1-1V486.11a11.88,11.88,0,0,1,11.87-11.86h66.62a11.87,11.87,0,0,1,11.86,11.86v28.62a22.07,22.07,0,0,0,22,22h146a22.07,22.07,0,0,0,22.05-22V276.56a22.07,22.07,0,0,0-22.05-22.05h-146a22.07,22.07,0,0,0-22,22.05V438.5a11.88,11.88,0,0,1-11.86,11.87H689.85A11.88,11.88,0,0,1,678,438.5V375.56a1,1,0,1,1,2,0V438.5a9.88,9.88,0,0,0,9.86,9.87H803.26a9.88,9.88,0,0,0,9.86-9.87V276.56a24.08,24.08,0,0,1,24-24.05h146a24.08,24.08,0,0,1,24.05,24.05V514.73a24.07,24.07,0,0,1-24.05,24h-146a24.07,24.07,0,0,1-24-24V486.11a9.87,9.87,0,0,0-9.86-9.86H736.64a9.88,9.88,0,0,0-9.87,9.86v53.42A1,1,0,0,1,725.77,540.53Z" style="fill:#4030db"/><path d="M645.08,273.82a3.88,3.88,0,0,1-3.87-3.88V256.46a3.88,3.88,0,1,1,7.75,0v13.48A3.88,3.88,0,0,1,645.08,273.82Z" style="fill:#00c8d7"/><path d="M689.86,376.58a1,1,0,0,1-.71-.3L665.89,353a1,1,0,0,1,0-1.41,1,1,0,0,1,1.42,0l23.25,23.25a1,1,0,0,1,0,1.41A1,1,0,0,1,689.86,376.58Z" style="fill:#4030db"/><path d="M666.6,376.58a1,1,0,0,1-.71-.3,1,1,0,0,1,0-1.41l23.26-23.25a1,1,0,1,1,1.41,1.41l-23.25,23.25A1,1,0,0,1,666.6,376.58Z" style="fill:#4030db"/><path d="M678.23,503.41a4.89,4.89,0,0,1-4.88-4.88V485.05a4.88,4.88,0,1,1,9.75,0v13.48A4.88,4.88,0,0,1,678.23,503.41Zm0-21.24a2.88,2.88,0,0,0-2.88,2.88v13.48a2.88,2.88,0,1,0,5.75,0V485.05A2.88,2.88,0,0,0,678.23,482.17Z" style="fill:#4030db"/><path d="M1066.71,396.57h-121a13.34,13.34,0,0,1-13.32-13.32V292.8a13.33,13.33,0,0,1,13.32-13.32h121A13.33,13.33,0,0,1,1080,292.8v90.45A13.33,13.33,0,0,1,1066.71,396.57Zm-121-115.09a11.34,11.34,0,0,0-11.32,11.32v90.45a11.34,11.34,0,0,0,11.32,11.32h121A11.33,11.33,0,0,0,1078,383.25V292.8a11.33,11.33,0,0,0-11.31-11.32Z" style="fill:#4030db"/><path d="M990.83,209a4.06,4.06,0,0,1-2.88-1.19l-15.12-15.12a1,1,0,0,1,0-1.41,1,1,0,0,1,1.42,0l15.11,15.11a2.07,2.07,0,0,0,2.93,0l15.12-15.11a1,1,0,1,1,1.41,1.41l-15.11,15.12A4.09,4.09,0,0,1,990.83,209Z" style="fill:#4030db"/><path d="M725.77,310.89a4.09,4.09,0,0,1-2.88-1.19l-15.11-15.12a1,1,0,1,1,1.41-1.41l15.12,15.11a2.07,2.07,0,0,0,2.93,0l15.11-15.11a1,1,0,0,1,1.41,0,1,1,0,0,1,0,1.41L728.65,309.7A4.07,4.07,0,0,1,725.77,310.89Z" style="fill:#4030db"/><path d="M725.77,548.21a8.68,8.68,0,1,1,8.68-8.68A8.68,8.68,0,0,1,725.77,548.21Zm0-15.36a6.68,6.68,0,1,0,6.68,6.68A6.69,6.69,0,0,0,725.77,532.85Z" style="fill:#4030db"/><path d="M726,731.56a14.7,14.7,0,1,1,14.7-14.7A14.71,14.71,0,0,1,726,731.56Zm0-27.39a12.7,12.7,0,1,0,12.7,12.69A12.71,12.71,0,0,0,726,704.17Z" style="fill:#4030db"/><path d="M985.92,857.17a1,1,0,0,1-.59-.19,1,1,0,0,1-.21-1.4c.27-.36,26.75-36.2,51.23-97.22,22.58-56.29,48-146.14,41-254.48-.59-9.22-3.48-16-8.57-20-6.82-5.46-15.33-4.2-15.42-4.19l-.16,0H1029a1,1,0,0,1,0-2h24.14c1-.15,9.68-1.17,16.9,4.61,5.55,4.44,8.68,11.66,9.32,21.47,7,108.75-18.52,198.92-41.19,255.43-24.58,61.23-51.19,97.24-51.45,97.59A1,1,0,0,1,985.92,857.17Z" style="fill:#4030db"/></g></svg>