<svg id="Layer_1" data-name="Layer 1" xmlns="http://www.w3.org/2000/svg" viewBox="0 0 526.97 394.83"><title>Optimize-Product-Page</title><path d="M448.94,106.3c-12.51-52.3-78.39-83-141.41-21.52s-83.76,75.71-144.09,52.46-100.3,4.41-111.06,49,43,138.34,179.83,147.56S465.84,177,448.94,106.3Z" style="fill:#ccf4ff"/><path d="M187.36,95.25a20.9,20.9,0,0,1-5.89,5.89L154.8,122.9a2.63,2.63,0,0,1-3.29,0l-26.85-21.73a20.5,20.5,0,0,1-6.1-6.07,21.13,21.13,0,0,1,2.75-26.28,20.89,20.89,0,0,1,29.54.06l0,0a3,3,0,0,0,4.24,0l0,0a20.92,20.92,0,0,1,32.21,26.37Z" style="fill:#00c8d7"/><path d="M123.59,86.58h-.28a3.52,3.52,0,0,1-3.21-3.77,15.52,15.52,0,0,1,12.15-14,3.5,3.5,0,0,1,1.53,6.83,8.59,8.59,0,0,0-6.72,7.7A3.48,3.48,0,0,1,123.59,86.58Z" style="fill:#f9f9fa"/><rect x="166.72" y="129.25" width="178.33" height="143.71" style="fill:#fff"/><path d="M342.6,286.59H169.09a15.85,15.85,0,0,1-15.84-15.84V109.52a15.85,15.85,0,0,1,15.84-15.84H342.6a15.85,15.85,0,0,1,15.84,15.84V270.75A15.85,15.85,0,0,1,342.6,286.59ZM169.09,95.68a13.85,13.85,0,0,0-13.84,13.84V270.75a13.86,13.86,0,0,0,13.84,13.84H342.6a13.86,13.86,0,0,0,13.84-13.84V109.52A13.85,13.85,0,0,0,342.6,95.68Z" style="fill:#4030db"/><path d="M339.37,104.52H169a6.29,6.29,0,0,0-6.28,6.28V269.53a5.71,5.71,0,0,0,5.88,5.53H339.78a5.7,5.7,0,0,0,5.92-5.48V110.87a6.28,6.28,0,0,0-6.22-6.35Zm-9.19,9.7a3.84,3.84,0,1,1-3.84,3.84,3.84,3.84,0,0,1,3.84-3.84Zm-12.39,0a3.84,3.84,0,1,1-3.83,3.84,3.84,3.84,0,0,1,3.83-3.84Zm-110.56,3.65a4.15,4.15,0,0,1,4.15-4.16H297a4.16,4.16,0,0,1,4.16,4.16v.36a4.16,4.16,0,0,1-4.16,4.16H211.38a4.15,4.15,0,0,1-4.15-4.16h0Zm-16.64-3.65a3.84,3.84,0,1,1-3.87,3.84,3.83,3.83,0,0,1,3.87-3.84Zm-12.39,0a3.84,3.84,0,1,1-3.83,3.84h0A3.84,3.84,0,0,1,178.2,114.22ZM341.31,266.08c0,2.7-1,3.7-3.69,3.7H170.77c-2.7,0-3.7-1-3.7-3.7V131.73H341.31Z" style="fill:#4f42ff"/><path d="M76.67,168.82a5.8,5.8,0,0,1-4.09-1.69L49.05,143.59a1,1,0,1,1,1.41-1.41L74,165.71a3.8,3.8,0,0,0,5.36,0l23.53-23.53a1,1,0,1,1,1.41,1.41L80.76,167.13A5.8,5.8,0,0,1,76.67,168.82Z" style="fill:#4030db"/><path d="M119.72,257.53a3.06,3.06,0,0,1-2.21-.92l-10.45-10.44a1,1,0,0,1,0-1.42,1,1,0,0,1,1.41,0l10.45,10.45a1.12,1.12,0,0,0,1.59,0L131,244.75a1,1,0,0,1,1.41,0,1,1,0,0,1,0,1.42l-10.45,10.44A3.05,3.05,0,0,1,119.72,257.53Z" style="fill:#4030db"/><rect x="189.71" y="155.08" width="126.7" height="40.6" rx="14.4" transform="translate(506.12 350.77) rotate(-180)" style="fill:#00c8d7"/><path d="M218.54,176.05l-5.27,5.27V163.9a2.3,2.3,0,1,0-4.59,0v17.42l-5.27-5.27a2.31,2.31,0,0,0-3.25,0,2.29,2.29,0,0,0,0,3.25l9.18,9.18a2.25,2.25,0,0,0,.77.51h0a2.24,2.24,0,0,0,1.71,0h0a2.35,2.35,0,0,0,.77-.51l9.18-9.18a2.3,2.3,0,0,0-3.25-3.25Z" style="fill:#fff"/><path d="M287.91,214.38a1.87,1.87,0,0,0-1.87-1.86l-72.65.07a1.87,1.87,0,0,0,0,3.73l72.65-.07A1.87,1.87,0,0,0,287.91,214.38Z" style="fill:#4f42ff"/><path d="M292.75,229l-79.37.08a1.87,1.87,0,0,1,0-3.73l79.38-.08a1.87,1.87,0,1,1,0,3.73ZM269.3,240a1.88,1.88,0,0,0-1.87-1.87l-54,.07a1.87,1.87,0,1,0,0,3.73l54-.06A1.88,1.88,0,0,0,269.3,240Z" style="fill:#4f42ff"/><path d="M369.6,63.08a15.72,15.72,0,0,1-4.47,4.47L344.92,84a2,2,0,0,1-2.5,0L322.07,67.57a15.37,15.37,0,0,1-4.63-4.6,16,16,0,0,1,2.08-19.92,15.85,15.85,0,0,1,22.4,0l0,0a2.25,2.25,0,0,0,3.21,0l0,0a15.86,15.86,0,0,1,24.42,20Z" style="fill:#00c8d7"/><path d="M321.25,56.51H321a2.66,2.66,0,0,1-2.43-2.86,11.77,11.77,0,0,1,9.21-10.57A2.65,2.65,0,0,1,329,48.25a6.5,6.5,0,0,0-5.09,5.83A2.65,2.65,0,0,1,321.25,56.51Z" style="fill:#f9f9fa"/><path d="M243,50.55a14.29,14.29,0,0,1-4.05,4l-18.3,14.93a1.78,1.78,0,0,1-2.26,0L200,54.61a13.87,13.87,0,0,1-4.19-4.17,14.35,14.35,0,0,1,22.16-18l0,0a2,2,0,0,0,2.91,0l0,0A14.36,14.36,0,0,1,243,50.55Z" style="fill:#4f42ff"/><path d="M434.09,122.13a8.39,8.39,0,0,1-6-2.47L391.47,83a1,1,0,0,1,1.41-1.41l36.65,36.65a6.46,6.46,0,0,0,9.12,0L475.3,81.6a1,1,0,0,1,1.42,0,1,1,0,0,1,0,1.41l-36.65,36.65A8.42,8.42,0,0,1,434.09,122.13Z" style="fill:#4030db"/><path d="M412.75,288.18a21.06,21.06,0,0,1-16.48-7.28c-9.72-11-10.86-32.21-7.68-48.34,2.69-13.63,11.48-20.65,18.4-19.53,4.15.66,6.46,4.17,5.88,9-.9,7.4-6.91,14.25-11.74,19.76-3.37,3.84-6.55,7.47-6.57,9.79a2.67,2.67,0,0,0,.71,2.05c1.41,1.37,4.78,1.25,7.75,1.14a24.35,24.35,0,0,1,4.54.11,1,1,0,0,1-.34,2,23.43,23.43,0,0,0-4.13-.08c-3.38.12-7.2.25-9.21-1.71a4.61,4.61,0,0,1-1.32-3.5c0-3.07,3.13-6.61,7.07-11.09,4.65-5.3,10.43-11.89,11.25-18.68.45-3.74-1.12-6.26-4.2-6.75-5.07-.8-13.42,4.23-16.13,17.95-3,15.14-2,36.19,7.22,46.63,4.27,4.83,10,7,16.88,6.54,14.11-1,28.73-9.18,40.11-22.42,11.24-13.08,17.76-29.12,17.89-44,.15-18.53-13.33-30.69-26.76-34.52-13.14-3.74-31.25-1.05-42.69,17.72a1,1,0,0,1-1.37.33,1,1,0,0,1-.34-1.37c12-19.73,31.1-22.54,44.95-18.6,14.15,4,28.37,16.87,28.21,36.46-.13,15.37-6.83,31.88-18.37,45.31-11.73,13.64-26.85,22.06-41.48,23.11C414.1,288.16,413.42,288.18,412.75,288.18Z" style="fill:#4030db"/><path d="M370.53,357.51c-41.67,0-84.54-18.06-113.7-48.34-19-19.79-31.25-50.05-27-55.07.8-.95,2.4-1.62,5.46.51,4.73,3.29,9,7.71,14,12.83,10.41,10.72,23.37,24.06,49.75,38,49.83,26.33,93.66,2.42,94.1,2.17a1,1,0,1,1,1,1.75c-.44.25-45.23,24.68-96-2.15-26.65-14.08-40.29-28.12-50.24-38.37-4.9-5-9.14-9.4-13.71-12.58-.52-.36-2.26-1.49-2.8-.86-2.93,3.44,7.82,32.58,26.89,52.39,30.82,32,77.16,50.2,120.92,47.47,30.38-1.89,50.85-10.23,60.86-24.78,8.84-12.86,9.71-30.9,2.58-53.62a1,1,0,0,1,1.91-.6c7.32,23.34,6.36,42-2.84,55.35-10.37,15.08-31.36,23.71-62.38,25.64C376.4,357.42,373.46,357.51,370.53,357.51Z" style="fill:#4030db"/><path d="M412.86,190.66a1,1,0,0,1-.89-.54c-20.8-39.71-54.66-71.43-55-71.74a1,1,0,0,1,1.36-1.47c.34.32,34.45,32.27,55.41,72.28a1,1,0,0,1-.42,1.35A1,1,0,0,1,412.86,190.66Z" style="fill:#4030db"/><path d="M377,199.51a1,1,0,0,1-.93-.66c-5.32-14.63-19.12-33.86-19.26-34a1,1,0,0,1,.23-1.4,1,1,0,0,1,1.39.23c.14.19,14.1,19.65,19.51,34.54a1,1,0,0,1-.59,1.28A1.07,1.07,0,0,1,377,199.51Z" style="fill:#4030db"/><path d="M327.4,95.6a1,1,0,0,1-.59-.2,62.64,62.64,0,0,0-13.11-6.74,92.09,92.09,0,0,0-36.19-6C251,83.46,239.9,94.7,239.8,94.81a1,1,0,0,1-1.45-1.38c.46-.48,11.65-11.94,39.1-12.79,31.23-.94,50.36,13,50.55,13.16a1,1,0,0,1,.21,1.4A1,1,0,0,1,327.4,95.6Z" style="fill:#4030db"/><path d="M248.91,299.75a1,1,0,0,1-.85-.47,1,1,0,0,1,.33-1.38L267.83,286a1,1,0,1,1,1.05,1.71l-19.45,11.88A1,1,0,0,1,248.91,299.75Z" style="fill:#4030db"/><path d="M280.36,95.12a1,1,0,0,1-1-1l-.48-11.52a1,1,0,0,1,1-1,1,1,0,0,1,1,1l.48,11.52a1,1,0,0,1-1,1Z" style="fill:#4030db"/></svg>