<svg xmlns="http://www.w3.org/2000/svg" xmlns:xlink="http://www.w3.org/1999/xlink" width="24" height="24" viewBox="0 0 24 24">
  <defs>
    <path id="browser-api-a" d="M11,5.5 L13,5.5 L13,3 C13,2.44771525 13.4477153,2 14,2 C14.5522847,2 15,2.44771525 15,3 L15,5.5 L17,5.5 C17.5522847,5.5 18,5.94771525 18,6.5 C18,7.05228475 17.5522847,7.5 17,7.5 L7,7.5 C6.44771525,7.5 6,7.05228475 6,6.5 C6,5.94771525 6.44771525,5.5 7,5.5 L9,5.5 L9,3 C9,2.44771525 9.44771525,2 10,2 C10.5522847,2 11,2.44771525 11,3 L11,5.5 Z M15,14 L15,15 C15,15.5522847 14.5522847,16 14,16 L13,16 L13,22 L11,22 L11,16 L10,16 C9.44771525,16 9,15.5522847 9,15 L9,14 L8,14 C7.44771525,14 7,13.5522847 7,13 L7,9 C7,8.44771525 7.44771525,8 8,8 L16,8 C16.5522847,8 17,8.44771525 17,9 L17,13 C17,13.5522847 16.5522847,14 16,14 L15,14 Z"/>
  </defs>
  <g fill="none" fill-rule="evenodd">
    <mask id="browser-api-b" fill="#fff">
      <use xlink:href="#browser-api-a"/>
    </mask>
    <use fill="#0060DF" fill-rule="nonzero" xlink:href="#browser-api-a"/>
    <g fill="#0060DF" fill-rule="nonzero" mask="url(#browser-api-b)">
      <rect width="24" height="24"/>
    </g>
  </g>
</svg>
