<svg id="Layer_1" data-name="Layer 1" xmlns="http://www.w3.org/2000/svg" width="24" height="24" viewBox="0 0 24 24">
  <title>get-involved</title>
  <path d="M7,10a5,5,0,1,1,5-5A5,5,0,0,1,7,10ZM7,8A3,3,0,1,0,4,5,3,3,0,0,0,7,8Zm10,6a3,3,0,1,0-3-3A3,3,0,0,0,17,14Zm-5,9a1,1,0,0,1-2,0,7,7,0,0,1,2.35-5.24A1,1,0,0,1,12,17,5,5,0,0,0,2,17a1,1,0,0,1-2,0,7,7,0,0,1,12.16-4.73A5.26,5.26,0,0,1,12,11a5,5,0,1,1,1.6,3.67,6.7,6.7,0,0,1,.39,2A6.89,6.89,0,0,1,17,16a7,7,0,0,1,7,7,1,1,0,0,1-2,0,5,5,0,0,0-10,0Z"/>
</svg>
