<svg xmlns="http://www.w3.org/2000/svg" xmlns:xlink="http://www.w3.org/1999/xlink" width="24" height="24" viewBox="0 0 24 24">
  <defs>
    <path id="get-involved-a" d="M12.3543627,17.763672 C12.1376121,17.5802382 12,17.3061896 12,17 L2,17 C2,17.5522847 1.55228475,18 1,18 C0.44771525,18 0,17.5522847 0,17 C0,13.1340068 3.13400675,10 7,10 C9.04430879,10 10.8839383,10.8763362 12.1637213,12.2738413 C12.0568908,11.8671492 12,11.4402184 12,11 C12,8.23857625 14.2385763,6 17,6 C19.7614237,6 22,8.23857625 22,11 C22,13.7614237 19.7614237,16 17,16 C15.6880562,16 14.4941281,15.4947152 13.6022058,14.668136 C13.8257285,15.3009918 13.9608349,15.9755968 13.9926852,16.6771113 C14.9037989,16.2429894 15.9235228,16 17,16 C20.8659932,16 24,19.1340068 24,23 C24,23.5522847 23.5522847,24 23,24 C22.4477153,24 22,23.5522847 22,23 L12,23 C12,23.5522847 11.5522847,24 11,24 C10.4477153,24 10,23.5522847 10,23 C10,20.9167043 10.91008,19.0459692 12.3543627,17.763672 Z M7,10 C4.23857625,10 2,7.76142375 2,5 C2,2.23857625 4.23857625,0 7,0 C9.76142375,0 12,2.23857625 12,5 C12,7.76142375 9.76142375,10 7,10 Z M7,8 C8.65685425,8 10,6.65685425 10,5 C10,3.34314575 8.65685425,2 7,2 C5.34314575,2 4,3.34314575 4,5 C4,6.65685425 5.34314575,8 7,8 Z M17,14 C18.6568542,14 20,12.6568542 20,11 C20,9.34314575 18.6568542,8 17,8 C15.3431458,8 14,9.34314575 14,11 C14,12.6568542 15.3431458,14 17,14 Z M12,17 C12,14.2385763 9.76142375,12 7,12 C4.23857625,12 2,14.2385763 2,17 L12,17 Z M22,23 C22,20.2385763 19.7614237,18 17,18 C14.2385763,18 12,20.2385763 12,23 L22,23 Z"/>
  </defs>
  <g fill="none" fill-rule="evenodd">
    <mask id="get-involved-b" fill="#fff">
      <use xlink:href="#get-involved-a"/>
    </mask>
    <use fill="#0060DF" fill-rule="nonzero" xlink:href="#get-involved-a"/>
    <g fill="#0060DF" fill-rule="nonzero" mask="url(#get-involved-b)">
      <rect width="24" height="24"/>
    </g>
  </g>
</svg>
