<svg id="Layer_1" data-name="Layer 1" xmlns="http://www.w3.org/2000/svg" width="24" height="24" viewBox="0 0 24 24">
  <title>quick-link-publish</title>
  <path d="M8.9,19.59a1.27,1.27,0,1,1,0,2.54H6.37a3.8,3.8,0,0,1-3.8-3.8V5.67a3.8,3.8,0,0,1,3.8-3.8H16.49a3.8,3.8,0,0,1,3.8,3.8v3.8a1.27,1.27,0,0,1-2.53,0V5.67a1.26,1.26,0,0,0-1.27-1.26H6.37A1.26,1.26,0,0,0,5.1,5.67V18.33a1.26,1.26,0,0,0,1.27,1.26ZM14.6,6.94a.63.63,0,1,1,0,1.26H8.27a.63.63,0,1,1,0-1.26Zm0,2.53a.63.63,0,0,1,0,1.26H8.27a.63.63,0,1,1,0-1.26ZM10.8,12a.63.63,0,0,1,.63.63.64.64,0,0,1-.63.64H8.27a.64.64,0,0,1-.64-.64A.64.64,0,0,1,8.27,12ZM9.53,15.8H8.27a.64.64,0,0,1-.64-.64.64.64,0,0,1,.64-.63H9.53a.64.64,0,0,1,.64.63A.64.64,0,0,1,9.53,15.8Zm10.81-.94a1.37,1.37,0,0,1,1,.89,1.39,1.39,0,0,1-.3,1.32l-1.34,1.44.28,2a1.37,1.37,0,0,1-.57,1.28,1.29,1.29,0,0,1-.74.22,1.26,1.26,0,0,1-.63-.16L16.43,21l-1.66.87a1.33,1.33,0,0,1-1.92-1.36l.28-2-1.35-1.46a1.38,1.38,0,0,1-.28-1.32,1.35,1.35,0,0,1,1-.87l1.84-.33.88-1.77a1.32,1.32,0,0,1,2.36,0h0l.88,1.77Z" fill="#231f20" fill-rule="evenodd"/>
</svg>
