<svg id="anatomy-of-an-extension-graphic-mobile" xmlns="http://www.w3.org/2000/svg" xmlns:xlink="http://www.w3.org/1999/xlink" viewBox="0 0 270 424">
	<defs>
		<radialGradient id="radial-gradient" cx="-38.68" cy="1269.55" r="300.06" gradientTransform="translate(1132.01 -554.05) rotate(44.6)" gradientUnits="userSpaceOnUse"><stop offset="0.4" stop-color="#cdcdd4" stop-opacity="0"/><stop offset="0.58" stop-color="#cdcdd4" stop-opacity="0.02"/><stop offset="0.77" stop-color="#cdcdd4" stop-opacity="0.08"/><stop offset="0.96" stop-color="#cdcdd4" stop-opacity="0.18"/><stop offset="1" stop-color="#cdcdd4" stop-opacity="0.2"/></radialGradient><radialGradient id="radial-gradient-2" cx="1545.5" cy="-274.99" r="300.06" gradientTransform="translate(1353.98 930.66) rotate(-135.4)" xlink:href="#radial-gradient"/><radialGradient id="radial-gradient-3" cx="190.27" cy="166.6" r="103.31" gradientUnits="userSpaceOnUse"><stop offset="0.26" stop-color="#cdcdd4" stop-opacity="0"/><stop offset="0.4" stop-color="#cdcdd4" stop-opacity="0.02"/><stop offset="0.55" stop-color="#cdcdd4" stop-opacity="0.08"/><stop offset="0.69" stop-color="#cdcdd4" stop-opacity="0.18"/><stop offset="0.72" stop-color="#cdcdd4" stop-opacity="0.2"/></radialGradient><radialGradient id="radial-gradient-4" cx="132.1" cy="164.1" r="151.78" gradientUnits="userSpaceOnUse"><stop offset="0.27" stop-color="#cdcdd4" stop-opacity="0"/><stop offset="0.46" stop-color="#cdcdd4" stop-opacity="0.02"/><stop offset="0.66" stop-color="#cdcdd4" stop-opacity="0.08"/><stop offset="0.86" stop-color="#cdcdd4" stop-opacity="0.18"/><stop offset="0.9" stop-color="#cdcdd4" stop-opacity="0.2"/></radialGradient>
	</defs>
	
	<g id="mobile-graphic"><path d="M97.32,272.37a17.09,17.09,0,0,0-.24-34.18,56.19,56.19,0,0,1-.78-112.38,17.1,17.1,0,0,0-.24-34.19,90.38,90.38,0,1,0,1.26,180.75Z" style="fill:url(#radial-gradient)"/><path d="M176.19,91.63a17.09,17.09,0,1,0,.24,34.18,56.19,56.19,0,1,1,.78,112.38,17.1,17.1,0,0,0,.24,34.19,90.38,90.38,0,0,0-1.26-180.75Z" style="fill:url(#radial-gradient-2)"/><path d="M263.86,125.6a9.57,9.57,0,0,1-9.53,9.57H216a7.32,7.32,0,0,1,0-14.63,7.23,7.23,0,0,1,1.75.22,7.39,7.39,0,0,1-.2-1.7,7.55,7.55,0,0,1,11.82-6.22,12.69,12.69,0,0,1,25,3.19A9.57,9.57,0,0,1,263.86,125.6Z" style="fill:url(#radial-gradient-3)"/><path d="M75,228.69a10.89,10.89,0,0,0-2.63.33A11.38,11.38,0,0,0,54.8,217.09a19.12,19.12,0,0,0-37.62,4.81,14.37,14.37,0,1,0,0,28.73H75a11,11,0,1,0,0-21.94Z" style="fill:url(#radial-gradient-4)"/></g>
	
	<g class="tile popup-action" id="mobile-background" data-panel="anatomy-background"><path d="M246.06,281.24a.32.32,0,0,0-.25-.26L129.26,254.05a.29.29,0,0,0-.16,0L21.21,281a.35.35,0,0,0-.25.26h0v9.88H21a.28.28,0,0,0-.06.18.33.33,0,0,0,.26.32L129.1,318.56h.16l116.55-26.93a.33.33,0,0,0,.21-.51h.06v-9.88Z" style="fill:#4f42ff"/><path d="M246.06,281.24a.14.14,0,0,1,0,.07v-.07Z" style="fill:#3e3ee5"/><path d="M245.81,281.64,129.26,308.57h-.16L21.21,281.64a.35.35,0,0,1-.26-.33v9.81H21a.28.28,0,0,0-.06.18.33.33,0,0,0,.26.32L129.1,318.56h.16l116.55-26.93a.33.33,0,0,0,.21-.51h.06v-9.81A.34.34,0,0,1,245.81,281.64Z" style="fill:#592acb"/><path d="M21,281.24v.07s0-.05,0-.07Z" style="fill:#3e3ee5"/><path d="M245.81,281,129.26,254.05a.29.29,0,0,0-.16,0L21.21,281a.35.35,0,0,0-.25.26s0,0,0,.07a.35.35,0,0,0,.26.33L129.1,308.57h.16l116.55-26.93a.34.34,0,0,0,.27-.33.14.14,0,0,0,0-.07A.32.32,0,0,0,245.81,281Z" style="fill:#7542e5"/><path d="M126.74,258.37c-28.82,7.3-57.72,14.27-86.53,21.57-1.51.39-1.54,1,0,1.41,28.95,7.8,58.1,14.84,87.15,22.23a11.07,11.07,0,0,0,4.58-.07h0c31.43-7.42,62.91-14.6,94.39-21.79,1.32-.28,1.21-.78-.27-1.17h0c-31.44-7.8-63-15-94.59-22.32a11,11,0,0,0-4.65.15Zm-.47,1.8a7.69,7.69,0,0,1,3.2-.07c.88.2.93.57,0,.81a8.36,8.36,0,0,1-3.34,0c-.89-.2-.8-.55.13-.79Zm-5.6,1.44a8.09,8.09,0,0,1,3.35-.09c.9.2.89.58-.09.84a8.71,8.71,0,0,1-3.48.08c-.91-.21-.77-.58.22-.83ZM64.15,276.8c-1-.27-.88-.73.31-1h0q22.91-5.83,45.82-11.61a9.48,9.48,0,0,1,3.84-.13l.16,0c1,.23.92.67-.24,1q-22.83,5.9-45.66,11.75a9.61,9.61,0,0,1-4.06,0h0Zm-9.92,1.7a8.36,8.36,0,0,1,3.59,0c1,.26.93.69-.1.95a8.29,8.29,0,0,1-3.61,0c-1-.26-.92-.67.1-.93ZM48.42,280a8.1,8.1,0,0,1,3.5,0c1,.26,1,.69.06.94a7.94,7.94,0,0,1-3.53,0h0C47.46,280.66,47.46,280.26,48.42,280Zm174.22.49c1.36.33,1.45.54.35.8-30.71,7.11-61.43,14.14-92.09,21.47a5.73,5.73,0,0,1-3.1,0c-25.23-6.43-50.5-12.68-75.69-19.24,28.81-7.8,57.79-15,86.59-22.8C166.71,267.22,194.74,273.61,222.64,280.5Z" style="fill:#c689ff"/><path d="M152.63,282.7q-21.74,5.54-43.44,11.16a4.9,4.9,0,0,1-2,0c-.62-.16-.73-.39-.24-.52,14.41-3.79,28.84-7.48,43.27-11.18a5.61,5.61,0,0,1,2.27,0C153.15,282.3,153.22,282.55,152.63,282.7Zm4.18,2.36a5.68,5.68,0,0,0-2.25,0q-20,5-40,10.15c-.49.13-.41.36.19.51a4.64,4.64,0,0,0,2,0q20.07-5.14,40.17-10.14C157.48,285.46,157.45,285.22,156.81,285.06Z" style="fill:#c689ff"/><path d="M168.43,286.48q-22.37,5.47-44.71,11a4.51,4.51,0,0,1-1.9,0c-.56-.14-.61-.36-.11-.49Q144,291.41,166.23,286a5.39,5.39,0,0,1,2.19,0C169,286.09,169,286.33,168.43,286.48Zm-7.87,4.86a5.27,5.27,0,0,0-2.09,0q-15,3.64-30.07,7.34c-.5.13-.5.33,0,.46a4.3,4.3,0,0,0,1.82,0q15.09-3.69,30.19-7.32C161,291.7,161.1,291.47,160.56,291.34Z" style="fill:#c689ff"/><path d="M108.84,274.59c-12.3,3.25-24.6,6.5-36.88,9.85a4.56,4.56,0,0,1-1.94,0c-.6-.15-.7-.38-.22-.51,12.26-3.34,24.55-6.58,36.84-9.83a5.17,5.17,0,0,1,2.11,0C109.36,274.2,109.4,274.44,108.84,274.59Zm17.85-1.35a5.47,5.47,0,0,0-2.17,0c-15.73,4.17-31.46,8.31-47.16,12.59-.47.13-.35.36.27.52a4.65,4.65,0,0,0,2,.05c15.73-4.28,31.49-8.43,47.25-12.6C127.42,273.64,127.34,273.4,126.69,273.24Z" style="fill:#c689ff"/><path d="M120.12,279.65c-10.9,2.88-21.8,5.76-32.68,8.73a4.65,4.65,0,0,1-2-.06c-.64-.16-.77-.39-.29-.52,10.85-3,21.72-5.85,32.6-8.72a5.41,5.41,0,0,1,2.23,0C120.62,279.25,120.69,279.5,120.12,279.65Zm-5.9,5.13a5.5,5.5,0,0,0-2.21,0q-9.45,2.5-18.9,5.06c-.49.13-.35.37.29.53a4.84,4.84,0,0,0,2,.05q9.46-2.56,19-5.05C115,285.19,114.87,284.94,114.22,284.78Z" style="fill:#c689ff"/></g>
	
	<g class="tile popup-action" id="mobile-content" data-panel="anatomy-content"><path d="M246,176.25a.34.34,0,0,0-.26-.33L129.22,149a.22.22,0,0,0-.16,0L21.2,175.92a.33.33,0,0,0-.25.33h0v9.87H21a.31.31,0,0,0-.07.2.34.34,0,0,0,.25.33l107.86,26.92h.16l116.52-26.92a.34.34,0,0,0,.26-.33.37.37,0,0,0-.07-.2H246v-9.87h0Z" style="fill:#00c8d7"/><path d="M245.74,176.58,129.22,203.5h-.16L21.2,176.58a.34.34,0,0,1-.25-.32h0v9.87H21a.31.31,0,0,0-.07.2.34.34,0,0,0,.25.33l107.86,26.92h.16l116.52-26.92a.34.34,0,0,0,.26-.33.37.37,0,0,0-.07-.2H246v-9.87h0A.35.35,0,0,1,245.74,176.58Z" style="fill:#c60084"/><path d="M21.2,176.58,129.06,203.5h.16l116.52-26.92a.35.35,0,0,0,.26-.32h0a.34.34,0,0,0-.26-.33L129.22,149a.22.22,0,0,0-.16,0L21.2,175.92a.33.33,0,0,0-.25.33h0A.34.34,0,0,0,21.2,176.58Z" style="fill:#e31587"/><path d="M164.72,171.64c-15.31,4.17-30.67,8.12-46,12.14a7.43,7.43,0,0,1-2.92-.06c-.94-.21-1.16-.52-.49-.7,15.25-4,30.51-8,45.71-12.16a7.93,7.93,0,0,1,2.58.19C164.61,171.27,165.12,171.53,164.72,171.64Zm8.69,2.74a7.57,7.57,0,0,0-2.58-.15c-14.65,3.85-29.33,7.58-44,11.36-.69.18-.52.49.37.69a7.47,7.47,0,0,0,2.86,0c14.76-3.79,29.53-7.53,44.28-11.37C174.8,174.83,174.38,174.58,173.41,174.38Z" style="fill:#ff6bba"/><path d="M188.35,176.56c-16,4.08-32,8.06-47.95,12.09a6.91,6.91,0,0,1-2.72,0c-.81-.18-.9-.48-.19-.66,15.91-4,31.83-8,47.72-12.08a6.92,6.92,0,0,1,2.29.15C188.37,176.24,188.75,176.46,188.35,176.56Zm-2.87,4.52a6.73,6.73,0,0,0-2.37,0l-36.15,9c-.73.18-.75.46-.08.61a6.27,6.27,0,0,0,2.51-.06l36.29-9.08C186.27,181.46,186.19,181.23,185.48,181.08Z" style="fill:#ff6bba"/><path d="M107.72,161.6c-13.17,3.65-26.37,7.18-39.56,10.74a5.49,5.49,0,0,1-2.21,0c-.59-.15-.55-.39.07-.55,13.23-3.53,26.47-7,39.68-10.64a4.36,4.36,0,0,1,1.84,0C108.1,161.26,108.2,161.46,107.72,161.6Zm15.43-.92a5,5,0,0,0-2-.09c-15.62,4.62-31.37,8.82-47.08,13.14-.61.17-.53.44.22.61a6.09,6.09,0,0,0,2.48,0c15.69-4.33,31.44-8.53,47-13.19C124.22,161.05,123.88,160.83,123.15,160.68Z" style="fill:#ff6bba"/><path d="M122.88,166.65c-12,3.41-24,6.69-35.95,10a6.62,6.62,0,0,1-2.69,0c-.86-.19-1-.49-.41-.66,11.94-3.31,23.88-6.58,35.79-10a6.59,6.59,0,0,1,2.51.08C123,166.24,123.38,166.51,122.88,166.65Zm-2.5,5.6a7.42,7.42,0,0,0-2.84-.06l-22.72,6.25c-.63.17-.41.48.51.69a7.2,7.2,0,0,0,2.84.05l22.89-6.26C121.66,172.75,121.35,172.45,120.38,172.25Z" style="fill:#ff6bba"/><path d="M62.53,179.58c1.34-.39.45-.79-.66-1.06s-2.19-.49-3.25-.71-2.17-.46-3.2-.72c-3.55-.89-3.5-1.7-.8-2.44l.55-.14,2.64.68-.43.12c-1.08.3-.46.69.94,1,.84.22,1.73.41,2.56.59s1.67.35,2.47.55c2.57.64,3.62,1.27,3,1.82l.08,0a22.47,22.47,0,0,1,7.51.74c.9.21,1.81.46,2.77.72s1.8.48,2.78.72a10.8,10.8,0,0,0,4.85.35l.37-.1,3.89.92-.58.16c-3.52.91-7.4.35-10.86-.49-1.31-.31-2.46-.62-3.62-.94s-2.28-.62-3.45-.9A8.86,8.86,0,0,0,66,180.4Z" style="fill:#ff6bba"/><path d="M192,170.21c-1.74.49-.7.93.38,1.19s2.5.54,3.81.8,2.67.53,4,.85c5.1,1.2,4.74,2.25,2.18,3l-.65.18-3.92-.92.4-.12c1.23-.44.15-.86-1.6-1.27-1-.24-2-.45-3-.66s-2.12-.44-3-.65c-3.09-.74-4-1.38-3.11-2l-.08,0a21,21,0,0,1-7.39-.55c-.79-.2-1.47-.4-2.21-.61s-1.45-.43-2.28-.64a9,9,0,0,0-4.08-.15l-.46.12-2.59-.67.56-.15a19.5,19.5,0,0,1,9.63-.07c1,.25,1.88.52,2.78.79s1.75.53,2.85.8a8.89,8.89,0,0,0,4.42,0Z" style="fill:#ff6bba"/></g>
	
	<g class="tile popup-action" id="mobile-interface" data-panel="anatomy-ui"><path d="M247.14,71.2a.34.34,0,0,0-.26-.33L130.34,43.94h-.16L22.3,70.88a.33.33,0,0,0-.26.32h0v9.88h.07a.32.32,0,0,0-.07.2.34.34,0,0,0,.26.32l107.88,26.93h.16L246.88,81.61a.32.32,0,0,0,.26-.32.32.32,0,0,0-.06-.2h.06V71.21h0Z" style="fill:#ccf4ff"/><path d="M246.88,71.53,130.34,98.46h-.16L22.3,71.53a.33.33,0,0,1-.25-.32h0v9.88h.07a.32.32,0,0,0-.07.2.34.34,0,0,0,.26.32l107.88,26.93h.16L246.88,81.61a.32.32,0,0,0,.26-.32.32.32,0,0,0-.06-.2h.06V71.21h0A.33.33,0,0,1,246.88,71.53Z" style="fill:#ff7139"/><path d="M22.3,71.53,130.18,98.46h.16L246.88,71.53a.33.33,0,0,0,.26-.32h0a.34.34,0,0,0-.26-.33L130.34,43.94h-.16L22.3,70.88a.33.33,0,0,0-.26.32h0A.33.33,0,0,0,22.3,71.53Z" style="fill:#ff8a50"/><path d="M171.23,62.88c1.58.3,1.79.85.45,1.23a13.88,13.88,0,0,1-5.28.13c-1.56-.3-1.74-.85-.41-1.23A13.66,13.66,0,0,1,171.23,62.88Z" style="fill:#ffb587"/><path d="M163.1,61.32c1.56.3,1.77.84.44,1.22a13.56,13.56,0,0,1-5.22.14c-1.56-.3-1.73-.85-.42-1.23A13.27,13.27,0,0,1,163.1,61.32Z" style="fill:#ffb587"/><path d="M152.37,59.57c2,0,3.79.29,4,.77s-1.33.91-3.35,1-3.79-.29-3.95-.77S150.36,59.63,152.37,59.57Z" style="fill:#ffb587"/><path d="M148.31,82.79,129,87.44a21.64,21.64,0,0,1-8.11-.25L115,85.86c-2.56-.58-3.1-1.43-1.22-1.88l19.29-4.66a21.2,21.2,0,0,1,8,.27l5.83,1.33C149.49,81.51,150.13,82.35,148.31,82.79Z" style="fill:#ffd5b2"/><path d="M146.77,79.47c6.31,1.44,7.89,3.48,3.42,4.55s-13.26.77-19.54-.66-7.68-3.47-3.25-4.55S140.47,78,146.77,79.47Z" style="fill:#ffb587"/><path d="M118.5,51.76c-1.22,0-2.21.22-2.22.5s1,.51,2.19.52l13.4,0C124.68,54.46,121,55.28,113.54,57c-.9.2-.92.53-.06.73a8.5,8.5,0,0,0,3.18,0L135,53.56c0,1.24.06,1.86.08,3.11,0,.29,1,.52,2.26.53a7,7,0,0,0,1.58-.14c.41-.09.65-.22.65-.36-.07-1.75-.11-2.62-.22-4.34,0-.28-1-.51-2.23-.52C129.68,51.79,126,51.78,118.5,51.76Z" style="fill:#ffb587"/><path d="M193.88,65.74c-.63.15-.52.42.26.6l3.4.78a41.6,41.6,0,0,0-11.73.54c-4.49,1.06-3.87,3,1.56,4.2s13.7,1.41,18.23.35c2.19-.52,3.19-1.24,2.83-2-.11-.24-1-.44-2-.46s-1.74.15-1.63.38c.24.57-.47,1.08-2,1.45a34.36,34.36,0,0,1-13-.25c-3.89-.89-4.36-2.24-1.15-3A31.57,31.57,0,0,1,198.1,68l-2.95.7c-.64.15-.53.42.25.6a6.83,6.83,0,0,0,2.58.05L203.75,68c.63-.15.5-.42-.28-.6l-7.05-1.62A6.63,6.63,0,0,0,193.88,65.74Z" style="fill:#ffb587"/><path d="M78.92,66.1l-19.4,5a5,5,0,0,1-2.1-.12c-.71-.18-.92-.42-.46-.53,7.68-2,11.53-3,19.44-5a5.3,5.3,0,0,1,2.1.1C79.2,65.75,79.39,66,78.92,66.1Zm5.34,2.45a5.25,5.25,0,0,0-2.12-.11L65.82,72.69c-.45.12-.23.36.49.55a5.21,5.21,0,0,0,2.11.11l16.3-4.26C85.17,69,85,68.73,84.26,68.55Z" style="fill:#ffb587"/><path d="M106,72.07A5.46,5.46,0,0,0,103.8,72c-8.11,2.14-12.07,3.19-20,5.3-.45.12-.22.37.5.55a5.21,5.21,0,0,0,2.14.12c7.91-2.11,11.86-3.17,20-5.31C106.91,72.5,106.69,72.25,106,72.07Z" style="fill:#ffb587"/><path d="M111.4,75.35a5.54,5.54,0,0,0-2.17-.12L92.94,79.57c-.44.12-.21.36.52.55a5.45,5.45,0,0,0,2.15.12c6.47-1.73,9.71-2.59,16.3-4.33C112.37,75.79,112.14,75.54,111.4,75.35Z" style="fill:#ffb587"/></g>

</svg>