<?xml version="1.0" encoding="utf-8"?>
<!-- Generator: Adobe Illustrator 22.1.0, SVG Export Plug-In . SVG Version: 6.00 Build 0)  -->
<svg version="1.1" id="illustration" xmlns="http://www.w3.org/2000/svg" xmlns:xlink="http://www.w3.org/1999/xlink" x="0px"
	 y="0px" viewBox="0 0 702.7 518.9" style="enable-background:new 0 0 702.7 518.9;" xml:space="preserve">
<style type="text/css">
	.st0{fill:#4030DB;}
	.st1{fill:#4F42FF;}
	.st2{fill:#3E3EE5;}
	.st3{fill:#CCCCFF;}
	.st4{fill:#00C8D7;}
	.st5{fill:#00B2B2;}
	.st6{fill:#CCF4FF;}
	.st7{fill:#BADDE5;}
	.st8{fill:#00FEFF;}
	.st9{fill:url(#SVGID_1_);}
</style>
<g id="box_bottom_front">
	<path class="st0" d="M1127.4,354.6c-0.2,0-0.3,0-0.5-0.1L848.1,285c-0.8-0.2-1.4-0.9-1.4-1.8c0-0.6,0.4-1,1-1c0,0,0,0,0,0
		c0.5,0,0.9,0.4,1,0.9l278.8,69.6l301.1-69.6c0.1-0.5,0.5-0.9,1-0.9c0,0,0,0,0,0c0.6,0,1,0.5,1,1c0,0.9-0.6,1.6-1.4,1.8l-301.3,69.6
		C1127.7,354.6,1127.5,354.6,1127.4,354.6z"/>
</g>
<g id="box_bottom_front_2_">
	<path class="st0" d="M1127.4,315c-0.2,0-0.3,0-0.5-0.1l-278.9-69.6c-0.8-0.2-1.4-0.9-1.4-1.8c0-0.6,0.4-1,1-1c0,0,0,0,0,0
		c0.5,0,0.9,0.4,1,0.9l278.8,69.6l301.1-69.6c0.1-0.5,0.5-0.9,1-0.9c0,0,0,0,0,0c0.6,0,1,0.5,1,1c0,0.9-0.6,1.6-1.4,1.8L1127.8,315
		C1127.7,315,1127.5,315,1127.4,315z"/>
</g>
<g id="box_sides">
	<path class="st0" d="M1429.5,285c-1.2,0-1-1-1-2.4l0-37.8c0-1.5,0-2,1-2s1,0,1,2v37.7C1430.5,284.4,1430.5,285,1429.5,285z"/>
	<path class="st0" d="M847.7,284.7c-0.6,0-1-0.4-1-1V244c0-0.6,0.4-1,1-1s1,0.4,1,1v39.7C848.7,284.3,848.3,284.7,847.7,284.7z"/>
</g>
<g id="box_top_back">
	<path class="st0" d="M1429.5,244.9c-0.5,0-0.9-0.4-1-0.9l-301-69.6c0,0-0.1,0-0.1,0l0,0L848.7,244c0,0.5-0.5,0.9-1,0.9
		c-0.5,0-0.9-0.3-1-0.8c0-0.1,0-0.2,0-0.2c0-0.2,0-0.3,0.1-0.4c0.2-0.7,0.7-1.3,1.4-1.4l278.9-69.6c0.2-0.1,0.4,0,0.6,0
		c0.1,0,0.2,0,0.3,0l301.3,69.6c0.7,0.2,1.2,0.7,1.4,1.4c0,0.1,0.1,0.2,0.1,0.4c0,0.1,0,0.2,0,0.2
		C1430.4,244.5,1430,244.9,1429.5,244.9z M848.7,243.9C848.7,243.9,848.7,243.9,848.7,243.9C848.7,243.9,848.7,243.9,848.7,243.9z
		 M1127.3,174.4c0,0,0,0,0.1,0L1127.3,174.4L1127.3,174.4z"/>
</g>
<g id="box_bottom_back_1_">
	<path class="st0" d="M642.9,403.8c-0.5,0-0.9-0.4-1-0.9l-301-69.6c0,0-0.1,0-0.1,0l0,0L62,402.9c0,0.5-0.5,0.9-1,0.9
		c-0.5,0-0.9-0.3-1-0.8c0-0.1,0-0.2,0-0.2c0-0.2,0-0.3,0.1-0.4c0.2-0.7,0.7-1.3,1.4-1.4l278.9-69.6c0.2-0.1,0.4,0,0.6,0
		c0.1,0,0.2,0,0.3,0L642.4,401c0.7,0.2,1.2,0.7,1.4,1.4c0,0.1,0.1,0.2,0.1,0.4c0,0.1,0,0.2,0,0.2
		C643.7,403.5,643.3,403.8,642.9,403.8z M62,402.8C62,402.8,62,402.8,62,402.8C62,402.8,62,402.8,62,402.8z M340.7,332.3l0,1
		c0,0,0,0,0.1,0l0-0.1L340.7,332.3z"/>
	<path class="st0" d="M340.8,332.4c-0.6,0-1-0.4-1-1V49.9c0-0.6,0.4-1,1-1s1,0.4,1,1v281.5C341.8,331.9,341.3,332.4,340.8,332.4z"/>
</g>
<g id="box_bottom_front_1_">
	<path class="st0" d="M340.7,474.3c-0.2,0-0.3,0-0.5-0.1L61.4,404.6c-0.8-0.2-1.4-0.9-1.4-1.8c0-0.6,0.4-1,1-1c0,0,0,0,0,0
		c0.5,0,0.9,0.4,1,0.9l278.8,69.6l301.1-69.6c0.1-0.5,0.5-0.9,1-0.9c0,0,0,0,0,0c0.6,0,1,0.5,1,1c0,0.9-0.6,1.6-1.4,1.8l-301.3,69.6
		C341,474.3,340.9,474.3,340.7,474.3z"/>
</g>
<g id="background_1_">
	<g>
		<path class="st1" d="M599.1,337.7c-0.1-0.3-0.3-0.5-0.6-0.6l-260-60.1c-0.1,0-0.2,0-0.4,0L97.6,337.1c-0.3,0.1-0.5,0.3-0.5,0.6h0
			v0.2v21.9h0.1c-0.1,0.1-0.1,0.3-0.1,0.4c0,0.3,0.2,0.6,0.6,0.7l240.6,60.1c0.1,0,0.1,0,0.2,0c0.1,0,0.1,0,0.2,0l260-60.1
			c0.3-0.1,0.6-0.4,0.6-0.7c0-0.1-0.1-0.3-0.1-0.4h0.1v-21.9L599.1,337.7L599.1,337.7z"/>
		<g>
			<path class="st2" d="M599.1,337.7c0,0.1,0,0.1,0,0.2L599.1,337.7L599.1,337.7z"/>
			<path class="st2" d="M598.5,338.6l-260,60.1c-0.1,0-0.1,0-0.2,0c-0.1,0-0.1,0-0.2,0L97.6,338.5c-0.3-0.1-0.6-0.4-0.6-0.7v21.9
				h0.1c-0.1,0.1-0.1,0.3-0.1,0.4c0,0.3,0.2,0.6,0.6,0.7l240.6,60.1c0.1,0,0.1,0,0.2,0c0.1,0,0.1,0,0.2,0l260-60.1
				c0.3-0.1,0.6-0.4,0.6-0.7c0-0.1-0.1-0.3-0.1-0.4h0.1v-21.9C599.1,338.2,598.9,338.5,598.5,338.6z"/>
			<path class="st2" d="M97,337.7v0.2C97,337.8,97,337.7,97,337.7L97,337.7z"/>
			<path class="st1" d="M598.5,337.1l-260-60.1c-0.1,0-0.2,0-0.4,0L97.6,337.1c-0.3,0.1-0.5,0.3-0.5,0.6c0,0.1,0,0.1,0,0.2
				c0,0.3,0.2,0.6,0.6,0.7l240.6,60.1c0.1,0,0.1,0,0.2,0c0.1,0,0.1,0,0.2,0l260-60.1c0.3-0.1,0.6-0.4,0.6-0.7c0-0.1,0-0.1,0-0.2
				C599,337.4,598.8,337.2,598.5,337.1z"/>
		</g>
	</g>
	<g>
		<g>
			<path class="st3" d="M333,286.7c-64.3,16.3-128.7,31.8-193,48.1c-3.4,0.9-3.4,2.2-0.1,3.1c64.6,17.4,129.6,33.1,194.4,49.6
				c2.8,0.7,7.2,0.6,10.2-0.2c0,0,0,0,0,0c70.1-16.5,140.3-32.6,210.5-48.6c2.9-0.6,2.7-1.7-0.6-2.6c0,0,0,0,0,0
				c-70.1-17.4-140.6-33.4-211-49.8C340.7,285.6,336.3,285.8,333,286.7C333,286.6,333,286.6,333,286.7z M331.9,290.7
				c2.1-0.5,5.2-0.6,7.1-0.2c2,0.5,2.1,1.3,0,1.8c-2,0.5-5.5,0.6-7.4,0.1C329.6,292,329.8,291.2,331.9,290.7L331.9,290.7z
				 M319.4,293.9c2.2-0.6,5.5-0.7,7.5-0.2c2,0.5,2,1.3-0.2,1.9c-2.2,0.6-5.7,0.6-7.8,0.2C316.9,295.3,317.2,294.4,319.4,293.9
				L319.4,293.9z M193.4,327.8c-2.3-0.6-2-1.6,0.7-2.3l0,0c34.1-8.7,68.1-17.2,102.2-25.9c2.6-0.7,6.4-0.8,8.6-0.3
				c0.1,0,0.2,0,0.4,0.1c2.2,0.5,2.1,1.5-0.5,2.2c-33.9,8.8-67.9,17.4-101.8,26.2c-2.6,0.7-6.7,0.7-9.1,0.1l0,0
				C193.6,327.8,193.5,327.8,193.4,327.8z M171.2,331.6c2.3-0.6,5.9-0.6,8,0c2.1,0.6,2.1,1.5-0.2,2.1c-2.3,0.6-5.9,0.6-8.1,0
				C168.8,333.1,168.9,332.2,171.2,331.6C171.2,331.6,171.2,331.6,171.2,331.6z M158.3,334.9c2.1-0.6,5.6-0.6,7.8,0s2.3,1.5,0.1,2.1
				c-2.1,0.6-5.7,0.5-7.9-0.1l0,0C156.2,336.4,156.1,335.5,158.3,334.9z M546.9,336c3,0.7,3.2,1.2,0.8,1.8
				c-68.5,15.9-137,31.6-205.4,47.9c-2.7,0.6-4.5,0.7-6.9,0c-56.3-14.3-112.6-28.3-168.8-42.9c64.3-17.4,128.9-33.4,193.1-50.9
				C422.1,306.4,484.6,320.7,546.9,336z"/>
			<g>
				<path class="st3" d="M390.7,340.9c-32.3,8.2-64.6,16.5-96.9,24.9c-1.1,0.3-3.1,0.2-4.5-0.1c-1.4-0.3-1.6-0.9-0.5-1.2
					c32.1-8.5,64.3-16.7,96.5-24.9c1.3-0.3,3.6-0.3,5.1,0C391.9,340,392,340.6,390.7,340.9z M400,346.2c-1.4-0.3-3.7-0.3-5,0
					c-29.8,7.5-59.5,15-89.2,22.7c-1.1,0.3-0.9,0.8,0.4,1.1c1.3,0.3,3.3,0.4,4.4,0.1c29.8-7.7,59.7-15.1,89.6-22.6
					C401.5,347.1,401.4,346.5,400,346.2z"/>
				<path class="st3" d="M425.9,349.3c-33.3,8.1-66.5,16.3-99.7,24.6c-1.1,0.3-3,0.3-4.2,0c-1.2-0.3-1.4-0.8-0.2-1.1
					c33.1-8.4,66.2-16.5,99.3-24.7c1.3-0.3,3.5-0.3,4.9,0S427.3,349,425.9,349.3z M408.4,360.2c-1.2-0.3-3.3-0.3-4.7,0.1
					c-22.4,5.4-44.7,10.9-67.1,16.4c-1.1,0.3-1.1,0.7,0,1c1.1,0.3,2.9,0.3,4.1,0c22.4-5.5,44.9-10.9,67.3-16.3
					C409.4,361,409.6,360.5,408.4,360.2z"/>
				<path class="st3" d="M293,322.8c-27.4,7.3-54.9,14.5-82.3,22c-1.1,0.3-3,0.2-4.3-0.1c-1.3-0.3-1.6-0.8-0.5-1.1
					c27.4-7.5,54.8-14.7,82.2-21.9c1.2-0.3,3.3-0.3,4.7,0S294.3,322.5,293,322.8z M332.8,319.8c-1.4-0.3-3.6-0.3-4.8,0
					c-35.1,9.3-70.2,18.5-105.2,28.1c-1.1,0.3-0.8,0.8,0.6,1.2c1.4,0.4,3.4,0.4,4.4,0.1c35.1-9.6,70.2-18.8,105.4-28.1
					C334.5,320.7,334.3,320.2,332.8,319.8z"/>
				<path class="st3" d="M318.2,334.1c-24.3,6.4-48.6,12.8-72.9,19.5c-1.1,0.3-3.1,0.2-4.5-0.1c-1.4-0.4-1.7-0.9-0.7-1.2
					c24.2-6.6,48.5-13,72.7-19.4c1.3-0.3,3.5-0.3,5,0C319.3,333.2,319.5,333.8,318.2,334.1z M305,345.6c-1.5-0.4-3.7-0.4-4.9-0.1
					c-14.1,3.7-28.1,7.5-42.2,11.3c-1.1,0.3-0.8,0.8,0.7,1.2c1.4,0.4,3.5,0.4,4.5,0.1c14.1-3.8,28.2-7.5,42.3-11.3
					C306.7,346.5,306.5,345.9,305,345.6z"/>
			</g>
		</g>
	</g>
</g>
<g id="content_1_">
	<g>
		<path class="st4" d="M599.1,254.5c0-0.3-0.2-0.7-0.6-0.7l-260-60.1c-0.1,0-0.2,0-0.4,0L97.6,253.7c-0.3,0.1-0.6,0.4-0.6,0.7
			c0,0,0,0,0,0h0v22h0.1c-0.1,0.1-0.1,0.3-0.1,0.4c0,0.3,0.2,0.6,0.6,0.7l240.6,60.1c0.1,0,0.1,0,0.2,0c0.1,0,0.1,0,0.2,0l260-60.1
			c0.3-0.1,0.6-0.4,0.6-0.7c0-0.2-0.1-0.3-0.1-0.4h0.1V254.5L599.1,254.5C599.1,254.5,599.1,254.5,599.1,254.5z"/>
		<g>
			<path class="st5" d="M598.5,255.2l-260,60.1c-0.1,0-0.1,0-0.2,0c-0.1,0-0.1,0-0.2,0L97.6,255.2c-0.3-0.1-0.6-0.4-0.6-0.7h0v22
				h0.1c-0.1,0.1-0.1,0.3-0.1,0.4c0,0.3,0.2,0.6,0.6,0.7l240.6,60.1c0.1,0,0.1,0,0.2,0c0.1,0,0.1,0,0.2,0l260-60.1
				c0.3-0.1,0.6-0.4,0.6-0.7c0-0.2-0.1-0.3-0.1-0.4h0.1v-22h0C599.1,254.8,598.9,255.1,598.5,255.2z"/>
			<path class="st4" d="M97.6,255.2l240.6,60.1c0.1,0,0.1,0,0.2,0c0.1,0,0.1,0,0.2,0l260-60.1c0.3-0.1,0.6-0.4,0.6-0.7c0,0,0,0,0,0
				c0-0.3-0.2-0.7-0.6-0.7l-260-60.1c-0.1,0-0.2,0-0.4,0L97.6,253.7c-0.3,0.1-0.6,0.4-0.6,0.7c0,0,0,0,0,0
				C97,254.8,97.3,255.1,97.6,255.2z"/>
		</g>
	</g>
	<g>
		<g>
			<path class="st6" d="M417.8,244.2c-34.2,9.3-68.4,18.1-102.7,27.1c-1.5,0.4-4.4,0.3-6.5-0.1c-2.1-0.5-2.6-1.2-1.1-1.6
				c34-9,68.1-17.8,102-27.1c0.9-0.2,3.5-0.1,5.7,0.4C417.5,243.3,418.7,243.9,417.8,244.2z M437.2,250.3c-2.2-0.4-4.7-0.6-5.8-0.3
				c-32.7,8.6-65.4,16.9-98.1,25.4c-1.5,0.4-1.2,1.1,0.8,1.5c2,0.4,4.8,0.5,6.4,0.1c32.9-8.4,65.9-16.8,98.8-25.3
				C440.3,251.3,439.3,250.7,437.2,250.3z"/>
			<path class="st6" d="M470.5,255.2c-35.6,9.1-71.3,18-107,27c-1.6,0.4-4.3,0.4-6.1,0c-1.8-0.4-2-1.1-0.4-1.5
				c35.5-9,71-17.8,106.5-27c0.9-0.2,3.2-0.1,5.1,0.3C470.5,254.4,471.4,254.9,470.5,255.2z M464.1,265.2c-1.6-0.3-4-0.3-5.3,0
				c-26.9,6.7-53.8,13.4-80.7,20.2c-1.6,0.4-1.7,1-0.2,1.4c1.5,0.3,4,0.3,5.6-0.1c27-6.8,54-13.5,81-20.3
				C465.9,266.1,465.7,265.6,464.1,265.2z"/>
			<path class="st6" d="M290.6,221.8c-29.4,8.1-58.8,16-88.2,24c-1.4,0.4-3.6,0.4-4.9,0.1c-1.3-0.3-1.2-0.9,0.1-1.2
				c29.5-7.9,59.1-15.7,88.5-23.7c1.1-0.3,2.9-0.3,4.1-0.1C291.5,221,291.7,221.5,290.6,221.8z M325,219.7c-1.6-0.4-3.5-0.4-4.4-0.2
				c-34.8,10.3-70,19.7-105,29.3c-1.4,0.4-1.2,1,0.5,1.4c1.7,0.4,4.2,0.4,5.5,0c35-9.7,70.1-19,104.9-29.4
				C327.4,220.6,326.7,220.1,325,219.7z"/>
			<path class="st6" d="M324.4,233c-26.7,7.6-53.5,14.9-80.2,22.3c-1.4,0.4-4.1,0.3-6-0.1c-1.9-0.4-2.3-1.1-0.9-1.5
				c26.6-7.4,53.3-14.7,79.8-22.3c1.1-0.3,3.6-0.2,5.6,0.2C324.8,232.1,325.5,232.7,324.4,233z M318.9,245.5c-2.2-0.5-5-0.5-6.3-0.1
				c-16.9,4.7-33.8,9.3-50.7,13.9c-1.4,0.4-0.9,1.1,1.1,1.5c2.1,0.5,4.9,0.5,6.3,0.1c17-4.7,34-9.3,51.1-14
				C321.7,246.7,321,246,318.9,245.5z"/>
		</g>
		<path class="st6" d="M189.8,261.9c3-0.9,1-1.8-1.5-2.4c-2.5-0.6-4.9-1.1-7.2-1.6c-2.4-0.5-4.8-1-7.2-1.6c-7.9-2-7.8-3.8-1.8-5.4
			c0.5-0.1,0.7-0.2,1.2-0.3c2.3,0.6,3.4,0.9,5.9,1.5c-0.4,0.1-0.6,0.2-1,0.3c-2.4,0.7-1,1.5,2.1,2.3c1.9,0.5,3.9,0.9,5.7,1.3
			c1.9,0.4,3.7,0.8,5.5,1.2c5.7,1.4,8.1,2.8,6.7,4.1c0.1,0,0.1,0,0.2,0c4.5-0.5,9.9,0,16.7,1.6c2,0.5,4,1,6.2,1.6
			c1.9,0.5,4,1.1,6.2,1.6c3.9,0.9,8,1.6,10.8,0.8c0.3-0.1,0.5-0.1,0.8-0.2c3.5,0.8,5.2,1.2,8.7,2.1c-0.5,0.1-0.8,0.2-1.3,0.4
			c-7.9,2-16.5,0.8-24.2-1.1c-2.9-0.7-5.5-1.4-8.1-2.1c-2.5-0.7-5.1-1.4-7.7-2c-2.4-0.6-6.3-1.1-9.3-0.3
			C194.3,263,192.8,262.6,189.8,261.9z"/>
		<path class="st6" d="M478.6,241c-3.9,1.1-1.6,2.1,0.8,2.6c2.6,0.6,5.6,1.2,8.5,1.8c3,0.6,6,1.2,8.9,1.9c11.4,2.7,10.6,5,4.9,6.6
			c-0.6,0.2-0.9,0.2-1.5,0.4c-3.5-0.8-5.3-1.2-8.8-2.1c0.4-0.1,0.5-0.1,0.9-0.2c2.7-1,0.3-1.9-3.6-2.9c-2.2-0.5-4.6-1-6.8-1.5
			c-2.4-0.5-4.7-1-6.7-1.5c-6.9-1.6-8.9-3.1-6.9-4.4c-0.1,0-0.1,0-0.2,0c-5.1,0.6-10.8,0.2-16.5-1.2c-1.8-0.4-3.3-0.9-4.9-1.4
			c-1.6-0.5-3.2-1-5.1-1.4c-3.1-0.8-6.2-1-9.1-0.3c-0.4,0.1-0.6,0.2-1,0.3c-2.4-0.6-3.6-0.9-5.8-1.5c0.5-0.1,0.7-0.2,1.2-0.3
			c7-1.9,14.5-1.9,21.5-0.2c2.2,0.6,4.2,1.1,6.2,1.8c1.9,0.6,3.9,1.2,6.4,1.8c2.4,0.6,6,1,9.9-0.1
			C473.9,239.9,475.5,240.2,478.6,241z"/>
	</g>
</g>
<g id="interface_1_">
	<g>
		<path class="st6" d="M602,176.7c0-0.3-0.2-0.7-0.6-0.7l-260-60.1c-0.1,0-0.2,0-0.4,0L100.4,176c-0.3,0.1-0.6,0.4-0.6,0.7
			c0,0,0,0,0,0h0v22h0.1c-0.1,0.1-0.1,0.3-0.1,0.4c0,0.3,0.2,0.6,0.6,0.7L341.1,260c0.1,0,0.1,0,0.2,0c0.1,0,0.1,0,0.2,0l260-60.1
			c0.3-0.1,0.6-0.4,0.6-0.7c0-0.2-0.1-0.3-0.1-0.4h0.1V176.7L602,176.7C602,176.7,602,176.7,602,176.7z"/>
		<g>
			<path class="st7" d="M601.4,177.4l-260,60.1c-0.1,0-0.1,0-0.2,0c-0.1,0-0.1,0-0.2,0l-240.6-60.1c-0.3-0.1-0.6-0.4-0.6-0.7h0v22
				h0.1c-0.1,0.1-0.1,0.3-0.1,0.4c0,0.3,0.2,0.6,0.6,0.7L341.1,260c0.1,0,0.1,0,0.2,0c0.1,0,0.1,0,0.2,0l260-60.1
				c0.3-0.1,0.6-0.4,0.6-0.7c0-0.2-0.1-0.3-0.1-0.4h0.1v-22h0C602,177.1,601.7,177.4,601.4,177.4z"/>
			<path class="st6" d="M100.4,177.4l240.6,60.1c0.1,0,0.1,0,0.2,0c0.1,0,0.1,0,0.2,0l260-60.1c0.3-0.1,0.6-0.4,0.6-0.7c0,0,0,0,0,0
				c0-0.3-0.2-0.7-0.6-0.7l-260-60.1c-0.1,0-0.2,0-0.4,0L100.4,176c-0.3,0.1-0.6,0.4-0.6,0.7c0,0,0,0,0,0
				C99.9,177.1,100.1,177.4,100.4,177.4z"/>
		</g>
	</g>
	<g>
		<g>
			<path class="st4" d="M432.6,158.2c3.5,0.7,4,1.9,1,2.7c-3,0.8-8.3,1-11.8,0.3c-3.5-0.7-3.9-1.9-0.9-2.7
				C423.9,157.6,429.1,157.5,432.6,158.2z"/>
			<path class="st4" d="M414.5,154.7c3.5,0.7,3.9,1.9,1,2.7c-3,0.8-8.2,1-11.7,0.3c-3.5-0.7-3.9-1.9-0.9-2.7
				C405.8,154.1,411,154,414.5,154.7z"/>
			<path class="st4" d="M390.6,150.8c4.5-0.1,8.4,0.7,8.8,1.7c0.4,1.1-3,2-7.5,2.1s-8.4-0.6-8.8-1.7
				C382.8,151.9,386.1,150.9,390.6,150.8z"/>
		</g>
		<path class="st8" d="M381.5,202.6c-17,4.1-25.6,6.2-43.2,10.4c-4.2,1-12.4,0.8-18.1-0.6c-5.2-1.2-7.8-1.8-12.9-3
			c-5.7-1.3-6.9-3.2-2.7-4.2c17.5-4.2,26.1-6.3,43-10.4c4-1,12-0.7,17.8,0.6c5.2,1.2,7.8,1.8,13,3
			C384.1,199.7,385.6,201.6,381.5,202.6z"/>
		<g>
			<path class="st4" d="M378.1,195.2c14.1,3.2,17.6,7.8,7.6,10.1c-10,2.4-29.6,1.7-43.6-1.5c-14-3.2-17.1-7.7-7.2-10.1
				C344.8,191.3,364,191.9,378.1,195.2z"/>
		</g>
		<path class="st4" d="M315,133.4c-2.7,0-4.9,0.5-4.9,1.1c0,0.6,2.2,1.1,4.9,1.1c11.9,0,17.9,0,29.9,0.1c-16,3.6-24.2,5.5-40.9,9.2
			c-2,0.4-2.1,1.2-0.1,1.6c1.9,0.5,5.1,0.5,7.1,0c16.7-3.7,24.9-5.6,40.9-9.2c0.1,2.8,0.1,4.1,0.2,6.9c0,0.6,2.3,1.2,5,1.2
			c1.4,0,2.6-0.1,3.5-0.3c0.9-0.2,1.4-0.5,1.4-0.8c-0.1-3.9-0.2-5.8-0.5-9.7c0-0.6-2.3-1.1-5-1.2C340,133.4,331.6,133.4,315,133.4z"
			/>
		<path class="st4" d="M483.2,164.5c-1.4,0.3-1.1,0.9,0.6,1.3c3,0.7,4.5,1,7.6,1.7c-9.6-0.7-19.6-0.3-26.2,1.2
			c-10,2.4-8.6,6.6,3.5,9.4c12.1,2.8,30.5,3.1,40.6,0.8c4.9-1.1,7.1-2.8,6.3-4.5c-0.2-0.5-2.3-1-4.5-1c-2.2,0-3.9,0.3-3.6,0.9
			c0.6,1.3-1,2.4-4.5,3.2c-7.2,1.7-20.3,1.4-29-0.6c-8.7-2-9.7-5-2.6-6.7c5.3-1.2,13.5-1.4,21.2-0.6c-2.6,0.6-3.9,0.9-6.6,1.6
			c-1.4,0.3-1.2,0.9,0.6,1.3c1.7,0.4,4.3,0.4,5.7,0.1c5.2-1.2,7.8-1.8,12.9-3c1.4-0.3,1.1-0.9-0.6-1.3c-6.3-1.4-9.5-2.2-15.7-3.6
			C487.1,164.3,484.6,164.2,483.2,164.5z"/>
		<path class="st4" d="M226.7,165.3c-17.6,4.5-26.2,6.7-43.3,11.1c-1,0.3-3.1,0.1-4.7-0.3c-1.6-0.4-2-0.9-1-1.2
			c17.1-4.4,25.7-6.6,43.4-11.1c1-0.3,3.1-0.2,4.7,0.2C227.4,164.5,227.8,165.1,226.7,165.3z M238.6,170.8c-1.6-0.4-3.7-0.5-4.7-0.2
			c-14.7,3.8-22,5.7-36.4,9.5c-1,0.3-0.5,0.8,1.1,1.2c1.6,0.4,3.7,0.5,4.7,0.3c14.4-3.8,21.6-5.7,36.4-9.5
			C240.7,171.7,240.2,171.2,238.6,170.8z"/>
		<path class="st4" d="M287,178.7c-1.6-0.4-3.8-0.5-4.8-0.2c-18.1,4.8-26.9,7.1-44.6,11.8c-1,0.3-0.5,0.8,1.1,1.2
			c1.6,0.4,3.8,0.5,4.8,0.3c17.6-4.7,26.5-7.1,44.6-11.8C289.2,179.6,288.7,179.1,287,178.7z"/>
		<path class="st4" d="M299.2,186c-1.7-0.4-3.8-0.5-4.8-0.3c-14.7,3.9-21.9,5.8-36.3,9.7c-1,0.3-0.5,0.8,1.2,1.2
			c1.6,0.4,3.8,0.5,4.8,0.3c14.4-3.9,21.7-5.8,36.4-9.7C301.3,186.9,300.8,186.4,299.2,186z"/>
	</g>
</g>
<g id="box_sides_1_">
	<path class="st0" d="M642.9,403.1c-1.2,0-1-1-1-2.4l0-280c0-1.5,0-2,1-2c1,0,1,0,1,2v280C643.8,402.5,643.9,403.1,642.9,403.1z"/>
	<path class="st0" d="M61,402.8c-0.6,0-1-0.4-1-1v-282c0-0.6,0.4-1,1-1s1,0.4,1,1v282C62,402.4,61.6,402.8,61,402.8z"/>
</g>
<g id="box_top_back_1_">
	<path class="st0" d="M642.9,120.7c-0.5,0-0.9-0.4-1-0.9l-301-69.6c0,0-0.1,0-0.1,0l0,0L62,119.8c0,0.5-0.5,0.9-1,0.9
		c-0.5,0-0.9-0.3-1-0.8c0-0.1,0-0.2,0-0.2c0-0.2,0-0.3,0.1-0.4c0.2-0.7,0.7-1.3,1.4-1.4l278.9-69.6c0.2-0.1,0.4,0,0.6,0
		c0.1,0,0.2,0,0.3,0l301.3,69.6c0.7,0.2,1.2,0.7,1.4,1.4c0,0.1,0.1,0.2,0.1,0.4c0,0.1,0,0.2,0,0.2
		C643.7,120.4,643.3,120.7,642.9,120.7z M62,119.7C62,119.7,62,119.7,62,119.7C62,119.7,62,119.7,62,119.7z M340.6,50.2
		c0,0,0,0,0.1,0L340.6,50.2L340.6,50.2z"/>
</g>
<g id="box_top_front_transparent">
	<radialGradient id="SVGID_1_" cx="349.229" cy="154.1141" r="281.2949" gradientUnits="userSpaceOnUse">
		<stop  offset="0.5824" style="stop-color:#4030DB;stop-opacity:0.1"/>
		<stop  offset="0.9616" style="stop-color:#4030DB;stop-opacity:0.9172"/>
		<stop  offset="1" style="stop-color:#4030DB"/>
	</radialGradient>
	<path class="st9" d="M340.7,191.2c-0.2,0-0.3,0-0.5-0.1L61.4,121.5c-0.8-0.2-1.4-0.9-1.4-1.8c0-0.6,0.4-1,1-1c0,0,0,0,0,0
		c0.5,0,0.9,0.4,1,0.9l278.8,69.6l301.1-69.6c0.1-0.5,0.5-0.9,1-0.9c0,0,0,0,0,0c0.6,0,1,0.5,1,1c0,0.9-0.6,1.6-1.4,1.8l-301.3,69.6
		C341,191.2,340.9,191.2,340.7,191.2z"/>
</g>
<g id="box_top_front_solid">
	<path class="st0" d="M340.2,191.2c-0.2,0-0.3,0-0.5-0.1L60.8,121.5c-0.8-0.2-1.4-0.9-1.4-1.8c0-0.6,0.4-1,1-1c0,0,0,0,0,0
		c0.5,0,0.9,0.4,1,0.9l278.8,69.6l301.1-69.6c0.1-0.5,0.5-0.9,1-0.9c0,0,0,0,0,0c0.6,0,1,0.5,1,1c0,0.9-0.6,1.6-1.4,1.8l-301.3,69.6
		C340.4,191.2,340.3,191.2,340.2,191.2z"/>
</g>
</svg>
