<svg id="anatomy-of-an-extension-graphic" xmlns="http://www.w3.org/2000/svg" xmlns:xlink="http://www.w3.org/1999/xlink" width="702.7" height="518.9" viewBox="0 0 702.7 518.9">
	<defs>
		<radialGradient id="radial-gradient" cx="399.52" cy="1405.34" r="703.71" gradientTransform="translate(1227.22 -692.18) rotate(44.6)" gradientUnits="userSpaceOnUse"><stop offset="0.4" stop-color="#cdcdd4" stop-opacity="0"/><stop offset="0.58" stop-color="#cdcdd4" stop-opacity="0.02"/><stop offset="0.77" stop-color="#cdcdd4" stop-opacity="0.08"/><stop offset="0.96" stop-color="#cdcdd4" stop-opacity="0.18"/><stop offset="1" stop-color="#cdcdd4" stop-opacity="0.2"/></radialGradient><radialGradient id="radial-gradient-2" cx="1951.3" cy="-191.3" r="703.71" gradientTransform="translate(1690.77 1162.8) rotate(-135.4)" xlink:href="#radial-gradient"/><radialGradient id="radial-gradient-3" cx="471.51" cy="222.81" r="242.29" gradientUnits="userSpaceOnUse"><stop offset="0.26" stop-color="#cdcdd4" stop-opacity="0"/><stop offset="0.4" stop-color="#cdcdd4" stop-opacity="0.02"/><stop offset="0.55" stop-color="#cdcdd4" stop-opacity="0.08"/><stop offset="0.69" stop-color="#cdcdd4" stop-opacity="0.18"/><stop offset="0.72" stop-color="#cdcdd4" stop-opacity="0.2"/></radialGradient><radialGradient id="radial-gradient-4" cx="335.08" cy="216.93" r="355.96" gradientUnits="userSpaceOnUse"><stop offset="0.27" stop-color="#cdcdd4" stop-opacity="0"/><stop offset="0.46" stop-color="#cdcdd4" stop-opacity="0.02"/><stop offset="0.66" stop-color="#cdcdd4" stop-opacity="0.08"/><stop offset="0.86" stop-color="#cdcdd4" stop-opacity="0.18"/><stop offset="0.9" stop-color="#cdcdd4" stop-opacity="0.2"/></radialGradient>
	</defs>
	
	<g id="graphic"><path d="M253.52,470.86A40.08,40.08,0,0,0,253,390.7c-72.67.51-132.2-58.2-132.7-130.86s58.2-132.2,130.86-132.7A40.09,40.09,0,0,0,250.56,47C133.7,47.78,39.28,143.53,40.09,260.39S136.65,471.68,253.52,470.86Z" style="fill:url(#radial-gradient)"/><path d="M438.48,47a40.09,40.09,0,0,0,.56,80.17c72.67-.51,132.2,58.2,132.7,130.86s-58.2,132.2-130.86,132.7a40.09,40.09,0,0,0,.56,80.17c116.86-.82,211.28-96.56,210.47-213.42S555.35,46.16,438.48,47Z" style="fill:url(#radial-gradient-2)"/><path d="M644.1,126.65a22.45,22.45,0,0,1-22.36,22.45h-89.9a17.17,17.17,0,0,1,0-34.33,17.48,17.48,0,0,1,4.12.52,17.43,17.43,0,0,1-.47-4A17.7,17.7,0,0,1,563.2,96.72a29.75,29.75,0,0,1,58.54,7.47A22.46,22.46,0,0,1,644.1,126.65Z" style="fill:url(#radial-gradient-3)"/><path d="M201.07,368.43a25.7,25.7,0,0,0-6.18.75,26.68,26.68,0,0,0-41.08-28,44.85,44.85,0,0,0-88.23,11.27,33.7,33.7,0,1,0,0,67.39H201.07a25.72,25.72,0,1,0,0-51.44Z" style="fill:url(#radial-gradient-4)"/></g>

	<g class="tile popup-action" id="background" data-panel="anatomy-background"><path d="M597.86,351.49a.74.74,0,0,0-.55-.58l-260-60.07a.69.69,0,0,0-.35,0L96.37,350.91a.75.75,0,0,0-.54.58h0v22h.13a.71.71,0,0,0-.13.4.77.77,0,0,0,.57.73L337,434.72l.18,0,.17,0,260-60.07a.75.75,0,0,0,.58-.73.78.78,0,0,0-.12-.4h.12v-22Z" style="fill:#4f42ff"/><path d="M597.86,351.49a.4.4,0,0,1,0,.15v-.15Z" style="fill:#3e3ee5"/><path d="M597.31,352.37l-260,60.07a.47.47,0,0,1-.17,0,.55.55,0,0,1-.18,0L96.37,352.37a.75.75,0,0,1-.57-.73v21.88h.13a.71.71,0,0,0-.13.4.77.77,0,0,0,.57.73L337,434.72l.18,0,.17,0,260-60.07a.75.75,0,0,0,.58-.73.78.78,0,0,0-.12-.4h.12V351.64A.75.75,0,0,1,597.31,352.37Z" style="fill:#592acb"/><path d="M95.8,351.49v.15a.8.8,0,0,1,0-.15Z" style="fill:#3e3ee5"/><path d="M597.31,350.91l-260-60.07a.69.69,0,0,0-.35,0L96.37,350.91a.75.75,0,0,0-.54.58.8.8,0,0,0,0,.15.75.75,0,0,0,.57.73L337,412.44a.55.55,0,0,0,.18,0,.47.47,0,0,0,.17,0l260-60.07a.75.75,0,0,0,.58-.73.4.4,0,0,0,0-.15A.74.74,0,0,0,597.31,350.91Z" style="fill:#7542e5"/><path d="M331.74,300.47c-64.27,16.28-128.72,31.83-193,48.12-3.36.86-3.44,2.22-.05,3.14,64.55,17.4,129.57,33.1,194.37,49.59a24.81,24.81,0,0,0,10.21-.17h0c70.09-16.55,140.31-32.57,210.52-48.61,2.94-.62,2.69-1.74-.61-2.61h-.05c-70.13-17.41-140.6-33.39-211-49.79a24.93,24.93,0,0,0-10.37.33Zm-1.06,4a17.4,17.4,0,0,1,7.14-.16c2,.45,2.07,1.27,0,1.81a18.66,18.66,0,0,1-7.44.13c-2-.46-1.79-1.25.27-1.78ZM318.2,307.7a18.53,18.53,0,0,1,7.47-.2c2,.46,2,1.31-.2,1.88a19.58,19.58,0,0,1-7.76.18c-2-.47-1.72-1.29.49-1.86Zm-126,33.88c-2.32-.61-2-1.62.68-2.3h0q51.09-13,102.2-25.89a21.15,21.15,0,0,1,8.56-.28l.35.08c2.22.51,2.07,1.49-.52,2.16q-50.91,13.14-101.83,26.22a21.55,21.55,0,0,1-9.07.11h0ZM170,345.38a18.61,18.61,0,0,1,8,0c2.14.57,2.06,1.54-.22,2.13a18.88,18.88,0,0,1-8.06,0c-2.17-.58-2-1.5.24-2.09Zm-13,3.35a18.21,18.21,0,0,1,7.81,0c2.18.58,2.26,1.53.13,2.1a18.22,18.22,0,0,1-7.88-.07h0C154.93,350.19,154.92,349.29,157.07,348.73Zm388.56,1.1c3,.75,3.23,1.21.76,1.78-68.47,15.87-137,31.55-205.36,47.9a12.81,12.81,0,0,1-6.92,0c-56.27-14.35-112.63-28.28-168.82-42.9,64.26-17.4,128.88-33.41,193.13-50.86C420.88,320.22,483.39,334.48,545.63,349.83Z" style="fill:#c689ff"/><path d="M389.48,354.74c-32.31,8.23-64.63,16.45-96.89,24.9a10.78,10.78,0,0,1-4.47-.1c-1.38-.35-1.63-.86-.54-1.15,32.13-8.46,64.32-16.7,96.51-24.94a12.7,12.7,0,0,1,5.06,0C390.64,353.85,390.79,354.4,389.48,354.74Zm9.31,5.27a12.33,12.33,0,0,0-5,0q-44.64,11.22-89.22,22.65c-1.11.29-.91.79.41,1.12a10.49,10.49,0,0,0,4.38.09q44.75-11.49,89.59-22.63C400.29,360.9,400.22,360.35,398.79,360Z" style="fill:#c689ff"/><path d="M424.71,363.17Q374.84,375.4,325,387.82a10.29,10.29,0,0,1-4.24-.05c-1.23-.31-1.35-.8-.23-1.08q49.59-12.54,99.28-24.7a12.2,12.2,0,0,1,4.89,0C426.06,362.31,426.06,362.84,424.71,363.17ZM407.18,374a11.74,11.74,0,0,0-4.68.06Q369,382.2,335.45,390.45c-1.13.28-1.11.74,0,1a9.92,9.92,0,0,0,4.06,0q33.64-8.25,67.33-16.34C408.23,374.81,408.38,374.3,407.18,374Z" style="fill:#c689ff"/><path d="M291.82,336.65c-27.43,7.26-54.88,14.5-82.25,22a10.16,10.16,0,0,1-4.34-.1c-1.33-.34-1.55-.84-.49-1.13,27.36-7.46,54.77-14.69,82.18-21.93a11.27,11.27,0,0,1,4.7,0C293,335.78,293.07,336.31,291.82,336.65Zm39.81-3a11.78,11.78,0,0,0-4.84,0c-35.07,9.29-70.16,18.53-105.17,28.07-1.06.29-.8.81.59,1.16a10.51,10.51,0,0,0,4.44.12c35.08-9.56,70.24-18.81,105.38-28.12C333.26,334.53,333.08,334,331.63,333.65Z" style="fill:#c689ff"/><path d="M317,348c-24.31,6.42-48.63,12.84-72.89,19.46a10.63,10.63,0,0,1-4.5-.12c-1.43-.36-1.72-.89-.66-1.18,24.2-6.62,48.46-13,72.71-19.45a12.08,12.08,0,0,1,5,0C318.09,347.05,318.26,347.61,317,348Zm-13.17,11.43a11.86,11.86,0,0,0-4.92-.06c-14.06,3.73-28.12,7.46-42.16,11.28-1.08.29-.78.82.65,1.18a10.77,10.77,0,0,0,4.53.12q21.12-5.72,42.29-11.27C305.45,360.3,305.28,359.74,303.81,359.38Z" style="fill:#c689ff"/></g>

	<g class="tile popup-action" id="content" data-panel="anatomy-content"><path d="M598.18,259.9a.75.75,0,0,0-.58-.73l-260-60.07a.69.69,0,0,0-.35,0L96.66,259.17a.77.77,0,0,0-.57.73v0h0v22h.15a.74.74,0,0,0,.42,1.17l240.63,60.07a.55.55,0,0,0,.18,0,.47.47,0,0,0,.17,0l260-60.07A.74.74,0,0,0,598,282h.15v-22h0Z" style="fill:#00c8d7"/><path d="M597.6,260.63l-260,60.07a.47.47,0,0,1-.17,0,.55.55,0,0,1-.18,0L96.66,260.63a.76.76,0,0,1-.57-.71h0v22h.15a.74.74,0,0,0,.42,1.17l240.63,60.07a.55.55,0,0,0,.18,0,.47.47,0,0,0,.17,0l260-60.07A.74.74,0,0,0,598,282h.15v-22h0A.75.75,0,0,1,597.6,260.63Z" style="fill:#c60084"/><path d="M96.66,260.63,337.29,320.7a.55.55,0,0,0,.18,0,.47.47,0,0,0,.17,0l260-60.07a.75.75,0,0,0,.58-.71v0a.75.75,0,0,0-.58-.73l-260-60.07a.69.69,0,0,0-.35,0L96.66,259.17a.77.77,0,0,0-.57.73v0A.76.76,0,0,0,96.66,260.63Z" style="fill:#e31587"/><path d="M416.85,249.61c-34.15,9.31-68.44,18.12-102.68,27.1a16.74,16.74,0,0,1-6.51-.13c-2.09-.47-2.58-1.17-1.08-1.57,34-9,68.07-17.78,102-27.12a17.14,17.14,0,0,1,5.74.42C416.59,248.79,417.75,249.37,416.85,249.61Zm19.38,6.12a17,17,0,0,0-5.76-.34c-32.67,8.59-65.42,16.93-98.14,25.36-1.54.4-1.16,1.09.83,1.53a16.18,16.18,0,0,0,6.38.08c32.94-8.44,65.9-16.78,98.8-25.35C439.35,256.75,438.4,256.18,436.23,255.73Z" style="fill:#ff6bba"/><path d="M469.57,260.6c-35.63,9.09-71.32,18-107,27a15.36,15.36,0,0,1-6.08,0c-1.79-.4-2-1.06-.4-1.46,35.49-9,71-17.84,106.46-27a15.28,15.28,0,0,1,5.11.33C469.61,259.88,470.45,260.38,469.57,260.6Zm-6.41,10.09a14.4,14.4,0,0,0-5.28,0q-40.33,10.1-80.66,20.18c-1.62.4-1.67,1-.18,1.36a14.32,14.32,0,0,0,5.6-.12q40.49-10.16,81-20.26C464.93,271.52,464.74,271,463.16,270.69Z" style="fill:#ff6bba"/><path d="M289.68,227.21c-29.37,8.15-58.82,16-88.25,24a11.89,11.89,0,0,1-4.93.09c-1.32-.32-1.24-.86.14-1.23,29.52-7.87,59.06-15.68,88.53-23.73a10.28,10.28,0,0,1,4.11-.09C290.52,226.46,290.74,226.92,289.68,227.21Zm34.43-2.05a11.33,11.33,0,0,0-4.36-.19c-34.85,10.31-70,19.67-105,29.31-1.37.37-1.18,1,.48,1.37a13.64,13.64,0,0,0,5.55,0c35-9.66,70.13-19,104.93-29.42C326.48,226,325.74,225.51,324.11,225.16Z" style="fill:#ff6bba"/><path d="M323.5,238.49c-26.69,7.6-53.46,14.92-80.21,22.33a14.69,14.69,0,0,1-6-.09c-1.91-.43-2.3-1.09-.9-1.47,26.62-7.38,53.27-14.69,79.84-22.26a14.82,14.82,0,0,1,5.61.16C323.85,237.57,324.62,238.17,323.5,238.49ZM317.92,251a16.66,16.66,0,0,0-6.33-.14q-25.33,7-50.68,13.94c-1.43.39-.93,1.08,1.13,1.54a16,16,0,0,0,6.33.13q25.53-7,51.06-14C320.78,252.1,320.09,251.43,317.92,251Z" style="fill:#ff6bba"/><path d="M188.87,267.33c3-.87,1-1.75-1.48-2.36s-4.89-1.1-7.25-1.59-4.84-1-7.15-1.6c-7.92-2-7.81-3.8-1.78-5.44l1.23-.33,5.89,1.53-1,.26c-2.42.67-1,1.55,2.1,2.34,1.88.47,3.86.9,5.71,1.3s3.72.79,5.51,1.24c5.74,1.41,8.08,2.83,6.71,4.05l.19,0c4.45-.48,9.87,0,16.74,1.64,2,.49,4,1,6.19,1.61,1.94.52,4,1.08,6.21,1.61,3.88.92,8,1.59,10.82.78l.81-.23,8.69,2.06-1.31.37c-7.85,2-16.5.77-24.21-1.1-2.93-.7-5.49-1.38-8.09-2.09s-5.08-1.39-7.69-2c-2.4-.57-6.29-1.12-9.25-.25Z" style="fill:#ff6bba"/><path d="M477.63,246.43c-3.9,1.09-1.58,2.07.83,2.65,2.62.62,5.59,1.21,8.5,1.79s6,1.19,9,1.89c11.39,2.68,10.58,5,4.88,6.61l-1.46.41-8.75-2.07.9-.25c2.74-1,.34-1.92-3.57-2.85-2.22-.53-4.56-1-6.77-1.46-2.42-.5-4.71-1-6.74-1.47-6.89-1.64-8.92-3.07-6.93-4.42l-.19,0A46.74,46.74,0,0,1,450.81,246c-1.77-.44-3.29-.88-4.93-1.37s-3.25-1-5.1-1.41a19.91,19.91,0,0,0-9.09-.34l-1,.28-5.77-1.5,1.24-.33a43.21,43.21,0,0,1,21.49-.16c2.23.56,4.19,1.15,6.19,1.76s3.92,1.18,6.36,1.77a19.63,19.63,0,0,0,9.87-.06Z" style="fill:#ff6bba"/></g>

	<g class="tile popup-action" id="interface" data-panel="anatomy-ui"><path d="M601.26,174.31a.75.75,0,0,0-.58-.73l-260-60.07a.69.69,0,0,0-.35,0L99.74,173.58a.77.77,0,0,0-.57.73v0h0v22h.15a.74.74,0,0,0,.42,1.17L340.37,257.6a.55.55,0,0,0,.18,0,.47.47,0,0,0,.17,0l260-60.07a.74.74,0,0,0,.43-1.17h.15v-22h0Z" style="fill:#ccf4ff"/><path d="M600.68,175l-260,60.07a.47.47,0,0,1-.17,0,.55.55,0,0,1-.18,0L99.74,175a.76.76,0,0,1-.57-.71h0v22h.15a.74.74,0,0,0,.42,1.17L340.37,257.6a.55.55,0,0,0,.18,0,.47.47,0,0,0,.17,0l260-60.07a.74.74,0,0,0,.43-1.17h.15v-22h0A.75.75,0,0,1,600.68,175Z" style="fill:#ff7139"/><path d="M99.74,175l240.63,60.07a.55.55,0,0,0,.18,0,.47.47,0,0,0,.17,0l260-60.07a.75.75,0,0,0,.58-.71v0a.75.75,0,0,0-.58-.73l-260-60.07a.69.69,0,0,0-.35,0L99.74,173.58a.77.77,0,0,0-.57.73v0A.76.76,0,0,0,99.74,175Z" style="fill:#ff8a50"/><path d="M431.94,155.75c3.51.68,4,1.9,1,2.73a30.6,30.6,0,0,1-11.77.3c-3.5-.68-3.9-1.9-.93-2.74A30.22,30.22,0,0,1,431.94,155.75Z" style="fill:#ffb587"/><path d="M413.8,152.26c3.48.67,3.94,1.89,1,2.73a30,30,0,0,1-11.65.31c-3.46-.67-3.86-1.9-.92-2.74A29.65,29.65,0,0,1,413.8,152.26Z" style="fill:#ffb587"/><path d="M389.87,148.37c4.48-.12,8.44.65,8.84,1.72s-3,2-7.49,2.15-8.45-.65-8.81-1.72S385.38,148.49,389.87,148.37Z" style="fill:#ffb587"/><path d="M380.81,200.16l-43.17,10.36c-4.21,1-12.38.76-18.11-.55l-12.93-3c-5.7-1.3-6.9-3.19-2.71-4.2,17.51-4.23,26.1-6.3,43-10.4,4.05-1,12-.71,17.78.61l13,3C383.44,197.31,384.87,199.18,380.81,200.16Z" style="fill:#ffd5b2"/><path d="M377.38,192.75C391.44,196,395,200.5,385,202.89s-29.59,1.74-43.6-1.46-17.13-7.75-7.23-10.15S363.32,189.54,377.38,192.75Z" style="fill:#ffb587"/><path d="M314.31,131c-2.71,0-4.91.49-4.94,1.12s2.17,1.14,4.88,1.14c11.95,0,17.92,0,29.88.11-16,3.64-24.2,5.48-40.89,9.23-2,.44-2.05,1.17-.12,1.63a19,19,0,0,0,7.1,0c16.71-3.75,24.89-5.59,40.93-9.23.11,2.76.14,4.15.2,6.94,0,.64,2.26,1.17,5,1.18a16.59,16.59,0,0,0,3.54-.31c.9-.2,1.45-.49,1.44-.81-.15-3.9-.25-5.83-.49-9.68,0-.62-2.26-1.14-5-1.16C339.25,131,330.93,131,314.31,131Z" style="fill:#ffb587"/><path d="M482.45,162.13c-1.41.34-1.15.93.58,1.33l7.58,1.74c-9.64-.75-19.58-.35-26.15,1.21-10,2.37-8.64,6.58,3.48,9.37s30.55,3.14,40.65.77c4.89-1.14,7.12-2.75,6.31-4.52-.23-.52-2.25-1-4.5-1s-3.87.33-3.64.85c.55,1.27-1.05,2.42-4.54,3.24-7.21,1.69-20.3,1.44-29-.55s-9.72-5-2.55-6.7c5.26-1.24,13.55-1.44,21.17-.62l-6.58,1.55c-1.43.34-1.19.94.55,1.34a15.13,15.13,0,0,0,5.75.11l12.87-3c1.41-.33,1.14-.93-.61-1.33l-15.73-3.6A14.94,14.94,0,0,0,482.45,162.13Z" style="fill:#ffb587"/><path d="M226,162.94c-17.59,4.5-26.16,6.71-43.27,11.11a11.58,11.58,0,0,1-4.69-.27c-1.58-.4-2-.94-1-1.2,17.14-4.37,25.73-6.57,43.36-11.05a11.8,11.8,0,0,1,4.69.23C226.65,162.14,227.07,162.68,226,162.94Zm11.9,5.45a11.83,11.83,0,0,0-4.72-.24c-14.74,3.83-22,5.72-36.4,9.49-1,.26-.52.8,1.08,1.21a11.67,11.67,0,0,0,4.71.26c14.41-3.78,21.63-5.68,36.35-9.52C240,169.33,239.53,168.79,237.94,168.39Z" style="fill:#ffb587"/><path d="M286.34,176.25a11.94,11.94,0,0,0-4.81-.25c-18.1,4.78-26.92,7.13-44.56,11.83-1,.27-.49.82,1.14,1.23a11.75,11.75,0,0,0,4.76.26c17.65-4.71,26.47-7.06,44.57-11.84C288.46,177.21,288,176.66,286.34,176.25Z" style="fill:#ffb587"/><path d="M298.48,183.57a11.9,11.9,0,0,0-4.83-.26c-14.69,3.88-21.9,5.8-36.33,9.66-1,.26-.49.82,1.15,1.23a11.89,11.89,0,0,0,4.79.26c14.44-3.85,21.66-5.77,36.36-9.66C300.64,184.53,300.13,184,298.48,183.57Z" style="fill:#ffb587"/></g>

</svg>