<svg id="anatomy-of-an-extension-graphic" xmlns="http://www.w3.org/2000/svg" xmlns:xlink="http://www.w3.org/1999/xlink" viewBox="0 0 702.7 518.9">
	<defs>
		<radialGradient id="radial-gradient" cx="348.98" cy="376.6" r="309.42" gradientTransform="matrix(1, 0, 0, -1, 0, 520)" gradientUnits="userSpaceOnUse"><stop offset="0.58" stop-color="#4030db" stop-opacity="0.1"/><stop offset="0.96" stop-color="#4030db" stop-opacity="0.92"/><stop offset="1" stop-color="#4030db"/></radialGradient>
	</defs>

	<g id="box_bottom_back" data-name="box bottom back"><path d="M672,418.05a1.17,1.17,0,0,1-1.1-1L339.82,340.5h-.11L33,417.06a1.09,1.09,0,0,1-1.1,1,1.06,1.06,0,0,1-1.1-.88V417c0-.22,0-.33.1-.44A2,2,0,0,1,32.48,415l306.78-76.56c.23-.11.44,0,.67,0h.32L671.47,415a2.18,2.18,0,0,1,1.54,1.54c0,.11.11.22.11.44v.22A1.28,1.28,0,0,1,672,418.05ZM33,417ZM339.6,339.4v1.1h.11v-.11Z" style="fill:#4030db"/><path d="M339.7,339.51a1,1,0,0,1-1.1-1.1V28.76a1.1,1.1,0,1,1,2.2,0V338.41A1.18,1.18,0,0,1,339.7,339.51Z" style="fill:#4030db"/></g>

	<g id="box_bottom_front" data-name="box bottom front"><path d="M339.6,495.6a1,1,0,0,1-.55-.11L32.37,418.93a2,2,0,0,1-1.54-2,1,1,0,0,1,1.1-1.1h0a1.17,1.17,0,0,1,1.1,1L339.7,493.4l331.22-76.56a1.17,1.17,0,0,1,1.1-1h0a1.1,1.1,0,0,1,1.1,1.1,2,2,0,0,1-1.54,2L340.15,495.49A1,1,0,0,1,339.6,495.6Z" style="fill:#4030db"/></g>

	<g class="tile popup-action" id="background" data-panel="anatomy-background"><path d="M623.83,345.34a1,1,0,0,0-.65-.66l-286-66.11h-.44L72.18,344.68a.7.7,0,0,0-.55.66h0v24.31h.11a.66.66,0,0,0-.11.44.8.8,0,0,0,.66.77L337,437h.45l286-66.11a.93.93,0,0,0,.65-.77c0-.11-.1-.33-.1-.44h.1V345.56l-.22-.22Z" style="fill:#4f42ff"/><path d="M623.18,346.33l-286,66.11h-.45L72.18,346.22a.93.93,0,0,1-.65-.77v24.09h.1a.71.71,0,0,0-.1.44.79.79,0,0,0,.65.77l264.67,66.11h.44l286-66.11A.94.94,0,0,0,624,370c0-.11-.11-.33-.11-.44H624V345.45A1.08,1.08,0,0,1,623.18,346.33Z" style="fill:#3e3ee5"/><path d="M623.18,344.68l-286-66.11h-.44L72.18,344.68a.7.7,0,0,0-.55.66v.22a.8.8,0,0,0,.66.77L337,412.44h.45l286-66.11a.93.93,0,0,0,.65-.77v-.22A2.28,2.28,0,0,0,623.18,344.68Z" style="fill:#4f42ff"/><path d="M331.13,289.24c-70.73,17.93-141.57,35-212.3,52.91-3.74,1-3.74,2.42-.12,3.41C189.78,364.7,261.28,382,332.55,400.12a25.86,25.86,0,0,0,11.23-.22h0q115.67-27.22,231.55-53.46c3.19-.66,3-1.87-.66-2.86h0C497.56,324.44,420,306.84,342.57,288.8a25.47,25.47,0,0,0-11.44.44Zm-1.22,4.4a20.92,20.92,0,0,1,7.82-.22c2.2.55,2.31,1.43,0,2a20.31,20.31,0,0,1-8.14.11c-2.2-.44-2-1.32.32-1.87Zm-13.75,3.52a19.08,19.08,0,0,1,8.25-.22c2.2.55,2.2,1.43-.22,2.09a22.59,22.59,0,0,1-8.58.22c-2.2-.55-1.86-1.54.55-2.09Zm-138.6,37.29c-2.53-.66-2.2-1.76.77-2.53h0c37.51-9.57,74.91-18.92,112.42-28.49a23.12,23.12,0,0,1,9.46-.33.8.8,0,0,1,.44.11c2.43.55,2.31,1.65-.55,2.42-37.29,9.68-74.69,19.14-112,28.82a23.66,23.66,0,0,1-10,.11h0A1.41,1.41,0,0,0,177.56,334.45Zm-24.42,4.18a19.8,19.8,0,0,1,8.8,0c2.32.66,2.32,1.65-.21,2.31a20.34,20.34,0,0,1-8.92,0c-2.3-.66-2.2-1.65.33-2.31ZM139,342.26a18.84,18.84,0,0,1,8.58,0c2.42.66,2.53,1.65.11,2.31a19.34,19.34,0,0,1-8.69-.11h0C136.64,343.91,136.54,342.92,139,342.26Zm427.46,1.21c3.3.77,3.52,1.32.88,2C492,362.94,416.6,380.21,341.36,398.14a13.68,13.68,0,0,1-7.59,0C271.84,382.41,209.91,367,148.09,351c70.73-19.14,141.79-36.74,212.41-56C429.14,310.91,497.89,326.64,566.42,343.47Z" style="fill:#ccf"/><path d="M394.6,348.86Q341.3,362.39,288,376.25a12.61,12.61,0,0,1-4.95-.11c-1.54-.33-1.76-1-.55-1.32,35.31-9.35,70.73-18.37,106.15-27.39a16,16,0,0,1,5.61,0C395.91,347.87,396,348.53,394.6,348.86Zm10.23,5.83a15.4,15.4,0,0,0-5.5,0c-32.78,8.25-65.45,16.5-98.13,25-1.21.33-1,.88.44,1.21a12,12,0,0,0,4.84.11c32.78-8.47,65.67-16.61,98.56-24.86C406.48,355.68,406.36,355,404.83,354.69Z" style="fill:#ccf"/><path d="M433.31,358.1q-54.93,13.36-109.66,27.06a10.9,10.9,0,0,1-4.62,0c-1.33-.33-1.54-.88-.23-1.21,36.41-9.24,72.83-18.15,109.23-27.17a14.79,14.79,0,0,1,5.39,0C435,357.11,434.85,357.77,433.31,358.1Zm-19.25,12a11.78,11.78,0,0,0-5.17.11c-24.64,5.94-49.17,12-73.81,18-1.21.33-1.21.77,0,1.1a10.39,10.39,0,0,0,4.51,0c24.64-6,49.39-12,74-17.93C415.16,371,415.39,370.42,414.06,370.09Z" style="fill:#ccf"/><path d="M287.13,329c-30.14,8-60.39,15.95-90.54,24.2a11.5,11.5,0,0,1-4.73-.11c-1.43-.33-1.76-.88-.55-1.21,30.14-8.25,60.28-16.17,90.42-24.09a13.61,13.61,0,0,1,5.17,0C288.45,328.07,288.55,328.62,287.13,329Zm43.77-3.3a14.14,14.14,0,0,0-5.27,0C287,335.88,248.4,346,209.91,356.56c-1.22.33-.88.88.66,1.32a10.37,10.37,0,0,0,4.84.11c38.6-10.56,77.22-20.68,115.94-30.91C332.78,326.64,332.55,326.09,330.9,325.65Z" style="fill:#ccf"/><path d="M314.85,341.38c-26.73,7-53.46,14.08-80.19,21.45a12.61,12.61,0,0,1-4.95-.11c-1.54-.44-1.87-1-.77-1.32,26.62-7.26,53.35-14.3,80-21.34a15.39,15.39,0,0,1,5.5,0C316.05,340.39,316.28,341.05,314.85,341.38ZM300.33,354a12.81,12.81,0,0,0-5.39-.11c-15.51,4.07-30.91,8.25-46.43,12.43-1.21.33-.87.88.78,1.32a10.84,10.84,0,0,0,5,.11c15.51-4.18,31-8.25,46.52-12.43C302.2,355,302,354.36,300.33,354Z" style="fill:#ccf"/></g>

	<g class="tile popup-action" id="content" data-panel="anatomy-content"><path d="M623.83,253.82a.73.73,0,0,0-.65-.77l-286-66.11h-.44l-264.56,66a.93.93,0,0,0-.65.77h0v24.2h.1a.71.71,0,0,0-.1.44.79.79,0,0,0,.65.77l264.67,66.11h.44l286-66.11a.94.94,0,0,0,.66-.77c0-.22-.11-.33-.11-.44H624V253.82Z" style="fill:#00c8d7"/><path d="M623.18,254.59l-286,66.11h-.45L72.18,254.59a.93.93,0,0,1-.65-.77h0V278h.1a.71.71,0,0,0-.1.44.79.79,0,0,0,.65.77l264.67,66.11h.44l286-66.11a.94.94,0,0,0,.66-.77c0-.22-.11-.33-.11-.44H624v-24.2h0A1.1,1.1,0,0,1,623.18,254.59Z" style="fill:#00b2b2"/><path d="M72.18,254.59,336.85,320.7h.44l286-66.11a.94.94,0,0,0,.66-.77h0a.73.73,0,0,0-.66-.77l-286-66.11h-.44l-264.67,66a.93.93,0,0,0-.65.77h0A1,1,0,0,0,72.18,254.59Z" style="fill:#00c8d7"/><path d="M424.4,242.49c-37.62,10.23-75.24,19.91-113,29.81a19.66,19.66,0,0,1-7.15-.11c-2.31-.55-2.86-1.32-1.21-1.76,37.4-9.9,74.91-19.58,112.2-29.81a19.23,19.23,0,0,1,6.27.44C424.08,241.5,425.4,242.16,424.4,242.49Zm21.35,6.71c-2.42-.44-5.17-.66-6.38-.33-36,9.46-71.94,18.59-107.91,27.94-1.65.44-1.32,1.21.88,1.65a19,19,0,0,0,7,.11c36.18-9.24,72.48-18.48,108.67-27.83C449.15,250.3,448.05,249.64,445.75,249.2Z" style="fill:#ccf4ff"/><path d="M482.38,254.59c-39.17,10-78.43,19.8-117.7,29.7a17.26,17.26,0,0,1-6.72,0c-2-.44-2.2-1.21-.43-1.65,39.05-9.9,78.1-19.58,117.15-29.7a17.43,17.43,0,0,1,5.61.33C482.38,253.71,483.36,254.26,482.38,254.59Zm-7,11a17.26,17.26,0,0,0-5.83,0q-44.38,11.06-88.77,22.22c-1.76.44-1.87,1.1-.22,1.54a16.62,16.62,0,0,0,6.16-.11c29.7-7.48,59.4-14.85,89.1-22.33C477.31,266.58,477.1,266,475.34,265.59Z" style="fill:#ccf4ff"/><path d="M284.49,217.85c-32.34,8.91-64.68,17.6-97,26.4a12.76,12.76,0,0,1-5.39.11c-1.43-.33-1.32-1,.11-1.32,32.45-8.69,65-17.27,97.35-26.07a12.38,12.38,0,0,1,4.51-.11C285.48,217,285.7,217.52,284.49,217.85Zm37.84-2.31a12.47,12.47,0,0,0-4.84-.22c-38.28,11.33-77,21.67-115.5,32.23-1.54.44-1.32,1.1.55,1.54a14,14,0,0,0,6.05,0c38.5-10.67,77.11-20.9,115.39-32.34C325,216.53,324.2,216,322.33,215.54Z" style="fill:#ccf4ff"/><path d="M321.66,230.17c-29.37,8.36-58.85,16.39-88.22,24.53a16.78,16.78,0,0,1-6.6-.11c-2.08-.44-2.53-1.21-1-1.65,29.25-8.14,58.63-16.17,87.78-24.53a17.13,17.13,0,0,1,6.16.22C322.1,229.18,322.88,229.84,321.66,230.17Zm-6.05,13.75a16.38,16.38,0,0,0-6.92-.11q-27.88,7.75-55.78,15.29c-1.53.44-1,1.21,1.22,1.65a16.4,16.4,0,0,0,6.92.11c18.7-5.17,37.4-10.23,56.21-15.4C318.7,245.24,317.93,244.47,315.61,243.92Z" style="fill:#ccf4ff"/><path d="M173.61,262c3.3-1,1.1-2-1.65-2.64s-5.39-1.21-7.92-1.76-5.28-1.1-7.92-1.76c-8.69-2.2-8.58-4.18-2-5.94.55-.11.77-.22,1.32-.33,2.53.66,3.73,1,6.48,1.65-.43.11-.66.22-1.1.33-2.63.77-1.1,1.65,2.32,2.53,2.08.55,4.28,1,6.27,1.43s4.06.88,6,1.32c6.26,1.54,8.91,3.08,7.36,4.51h.22c4.95-.55,10.89,0,18.37,1.76,2.2.55,4.4,1.1,6.82,1.76,2.09.55,4.4,1.21,6.82,1.76,4.29,1,8.8,1.76,11.88.88.33-.11.55-.11.88-.22,3.85.88,5.72,1.32,9.57,2.31A7.12,7.12,0,0,0,236,270c-8.69,2.2-18.15.88-26.62-1.21-3.19-.77-6-1.54-8.91-2.31s-5.61-1.54-8.47-2.2c-2.64-.66-6.93-1.21-10.23-.33C178.56,263.17,176.91,262.73,173.61,262Z" style="fill:#ccf4ff"/><path d="M491.29,239c-4.29,1.21-1.76,2.31.87,2.86,2.87.66,6.17,1.32,9.35,2s6.6,1.32,9.79,2.09c12.54,3,11.66,5.5,5.39,7.26-.66.22-1,.22-1.65.44-3.85-.88-5.83-1.32-9.68-2.31.44-.11.55-.11,1-.22,3-1.1.33-2.09-4-3.19-2.42-.55-5.06-1.1-7.48-1.65-2.63-.55-5.17-1.1-7.37-1.65-7.59-1.76-9.79-3.41-7.59-4.84h-.22a51.78,51.78,0,0,1-18.15-1.32c-2-.44-3.63-1-5.39-1.54s-3.52-1.1-5.61-1.54a20.66,20.66,0,0,0-10-.33c-.44.11-.66.22-1.1.33-2.64-.66-4-1-6.38-1.65.55-.11.77-.22,1.32-.33a47.83,47.83,0,0,1,23.65-.22c2.43.66,4.63,1.21,6.83,2s4.29,1.32,7,2a21.37,21.37,0,0,0,10.88-.11C486.11,237.76,487.88,238.09,491.29,239Z" style="fill:#ccf4ff"/></g>

	<g class="tile popup-action" id="interface" data-panel="anatomy-ui"><path d="M627,168.24a.73.73,0,0,0-.66-.77l-286-66.11h-.44L75.27,167.47a.93.93,0,0,0-.66.77h0v24.2h.11a.66.66,0,0,0-.11.44.8.8,0,0,0,.66.77L340,259.87h.44l286-66.11a1,1,0,0,0,.65-.77c0-.22-.1-.33-.1-.44h.1V168.24Z" style="fill:#ccf4ff"/><path d="M626.37,169l-286,66.11h-.44L75.26,169a.94.94,0,0,1-.66-.77h0v24.2h.11a.66.66,0,0,0-.11.44.8.8,0,0,0,.66.77L340,259.87h.44l286-66.11a1,1,0,0,0,.65-.77c0-.22-.1-.33-.1-.44h.1v-24.2h0A.92.92,0,0,1,626.37,169Z" style="fill:#badde5"/><path d="M75.27,169l264.66,66.11h.44l286-66.11a.94.94,0,0,0,.66-.77h0a.73.73,0,0,0-.66-.77l-286-66.11h-.44L75.27,167.47a.93.93,0,0,0-.66.77h0C74.72,168.68,74.93,169,75.27,169Z" style="fill:#ccf4ff"/><path d="M440.69,147.89c3.85.77,4.4,2.09,1.1,3a34.07,34.07,0,0,1-13,.33c-3.85-.77-4.29-2.09-1-3A31.45,31.45,0,0,1,440.69,147.89Z" style="fill:#00c8d7"/><path d="M420.78,144c3.85.77,4.28,2.09,1.1,3a33.55,33.55,0,0,1-12.88.33c-3.85-.77-4.29-2.09-1-3A30.91,30.91,0,0,1,420.78,144Z" style="fill:#00c8d7"/><path d="M394.49,139.75c4.95-.11,9.24.77,9.67,1.87s-3.3,2.2-8.25,2.31-9.23-.66-9.67-1.87S389.54,139.86,394.49,139.75Z" style="fill:#00c8d7"/><path d="M384.48,196.73c-18.7,4.51-28.17,6.82-47.53,11.44-4.62,1.1-13.64.88-19.91-.66-5.72-1.32-8.58-2-14.19-3.3-6.27-1.43-7.59-3.52-3-4.62,19.25-4.62,28.71-6.93,47.3-11.44,4.4-1.1,13.2-.77,19.58.66l14.3,3.3C387.34,193.54,389,195.63,384.48,196.73Z" style="fill:#00feff"/><path d="M380.74,188.59c15.51,3.52,19.36,8.58,8.36,11.11s-32.56,1.87-48-1.65-18.81-8.47-7.93-11.11S365.23,185,380.74,188.59Z" style="fill:#00c8d7"/><path d="M311.33,120.61c-3,0-5.39.55-5.39,1.21s2.42,1.21,5.39,1.21c13.08,0,19.68,0,32.88.11-17.6,4-26.62,6-45,10.12-2.2.44-2.32,1.32-.12,1.76a18.74,18.74,0,0,0,7.82,0c18.37-4.07,27.38-6.16,45-10.12.12,3.08.12,4.51.23,7.59,0,.66,2.52,1.32,5.5,1.32a18.55,18.55,0,0,0,3.85-.33c1-.22,1.54-.55,1.54-.88-.12-4.29-.23-6.38-.55-10.67,0-.66-2.53-1.21-5.5-1.32Z" style="fill:#00c8d7"/><path d="M496.35,154.82c-1.54.33-1.21,1,.66,1.43,3.3.77,4.95,1.1,8.36,1.87-10.56-.77-21.56-.33-28.82,1.32-11,2.64-9.46,7.26,3.85,10.34s33.55,3.41,44.66.88c5.39-1.21,7.81-3.08,6.93-4.95-.22-.55-2.53-1.1-5-1.1s-4.29.33-4,1c.66,1.43-1.1,2.64-5,3.52-7.92,1.87-22.33,1.54-31.9-.66s-10.67-5.5-2.86-7.37c5.83-1.32,14.85-1.54,23.32-.66-2.86.66-4.29,1-7.26,1.76-1.54.33-1.32,1,.66,1.43a17.27,17.27,0,0,0,6.27.11c5.72-1.32,8.58-2,14.19-3.3,1.54-.33,1.21-1-.66-1.43-6.93-1.54-10.45-2.42-17.27-4A17.49,17.49,0,0,0,496.35,154.82Z" style="fill:#00c8d7"/><path d="M214.19,155.7c-19.36,5-28.81,7.37-47.63,12.21a12.33,12.33,0,0,1-5.17-.33c-1.76-.44-2.2-1-1.1-1.32,18.82-4.84,28.27-7.26,47.75-12.21a12.06,12.06,0,0,1,5.17.22C215,154.82,215.41,155.48,214.19,155.7Zm13.1,6.05a12.06,12.06,0,0,0-5.17-.22c-16.17,4.18-24.2,6.27-40,10.45-1.1.33-.55.88,1.21,1.32a14.48,14.48,0,0,0,5.17.33c15.83-4.18,23.76-6.27,40-10.45C229.59,162.74,229,162.19,227.29,161.75Z" style="fill:#00c8d7"/><path d="M280.53,170.44a12.57,12.57,0,0,0-5.28-.22c-19.91,5.28-29.59,7.81-49.06,13-1.1.33-.55.88,1.21,1.32a15.08,15.08,0,0,0,5.28.33c19.36-5.17,29.15-7.81,49.06-13C283,171.43,282.4,170.88,280.53,170.44Z" style="fill:#00c8d7"/><path d="M294,178.47a15.19,15.19,0,0,0-5.28-.33c-16.17,4.29-24.09,6.38-39.93,10.67-1.1.33-.55.88,1.32,1.32a15.08,15.08,0,0,0,5.28.33c15.84-4.29,23.87-6.38,40-10.67C296.25,179.46,295.7,178.91,294,178.47Z" style="fill:#00c8d7"/></g>

	<g id="box_sides" data-name="box sides"><path d="M672,417.28c-1.32,0-1.1-1.1-1.1-2.64v-308c0-1.65,0-2.2,1.1-2.2s1.1,0,1.1,2.2v308C673,416.62,673.12,417.28,672,417.28Z" style="fill:#4030db"/><path d="M31.93,417a1,1,0,0,1-1.1-1.1V105.65a1.1,1.1,0,1,1,2.2,0v310.2A1,1,0,0,1,31.93,417Z" style="fill:#4030db"/></g>

	<g id="box_top_back" data-name="box top back"><path d="M672,106.64a1.17,1.17,0,0,1-1.1-1L339.82,29.09h-.11L33,105.65a1.09,1.09,0,0,1-1.1,1,1.06,1.06,0,0,1-1.1-.88v-.22c0-.22,0-.33.1-.44a2,2,0,0,1,1.55-1.54L339.26,27c.23-.11.44,0,.67,0h.32l331.43,76.56a2.21,2.21,0,0,1,1.55,1.54c0,.11.1.22.1.44v.22A1.87,1.87,0,0,1,672,106.64Zm-639-1.1ZM339.49,29.09h0Z" style="fill:#4030db"/></g>

	<g id="box_top_front_transparent" data-name="box top front transparent"><path d="M339.6,184.19a1,1,0,0,1-.55-.11L32.37,107.52a2,2,0,0,1-1.54-2,1,1,0,0,1,1.1-1.1h0a1.17,1.17,0,0,1,1.1,1L339.7,182l331.22-76.56a1.17,1.17,0,0,1,1.1-1h0a1.1,1.1,0,0,1,1.1,1.1,2,2,0,0,1-1.54,2L340.15,184.08A1,1,0,0,1,339.6,184.19Z" style="fill:url(#radial-gradient)"/></g>

	<g id="box_top_front_solid" data-name="box top front solid"><path d="M339.05,184.19a1,1,0,0,1-.55-.11L31.71,107.52a2,2,0,0,1-1.55-2,1,1,0,0,1,1.1-1.1h0a1.16,1.16,0,0,1,1.1,1L339,182l331.21-76.56a1.17,1.17,0,0,1,1.1-1h0a1.1,1.1,0,0,1,1.1,1.1,2,2,0,0,1-1.54,2L339.48,184.08A.82.82,0,0,1,339.05,184.19Z" style="fill:#4030db"/></g>

</svg>