<svg id="anatomy-of-an-extension-graphic-mobile" xmlns="http://www.w3.org/2000/svg" xmlns:xlink="http://www.w3.org/1999/xlink" viewBox="0 0 270 424">
	<defs>
		<radialGradient id="radial-gradient" cx="133.87" cy="372.57" r="126.05" gradientTransform="matrix(1, 0, 0, -1, 0, 426)" gradientUnits="userSpaceOnUse"><stop offset="0.58" stop-color="#4030db" stop-opacity="0.1"/><stop offset="0.96" stop-color="#4030db" stop-opacity="0.92"/><stop offset="1" stop-color="#4030db"/></radialGradient>
	</defs>

	<g id="mobile-box_bottom_back" data-name="box bottom back">
		<path d="M265.46,388.32a.49.49,0,0,1-.45-.41L130.14,356.73h0L5.17,387.91a.45.45,0,0,1-.45.41.44.44,0,0,1-.45-.36v-.09c0-.09,0-.14,0-.18a.84.84,0,0,1,.63-.63l125-31.18c.09-.05.18,0,.27,0h.14l134.92,31.18a.91.91,0,0,1,.63.63,1,1,0,0,1,0,.18V388A.53.53,0,0,1,265.46,388.32ZM5.17,387.87Zm124.88-31.59v.45h0v-.05Z" style="fill:#4030db"/>
		<path class="vert" d="M130.09,356.32a.41.41,0,0,1-.44-.44V7.1a.42.42,0,0,1,.44-.45.43.43,0,0,1,.45.45V355.88A.47.47,0,0,1,130.09,356.32Z" style="fill:#4030db"/>
	</g>

	<g id="mobile-box_bottom_front" data-name="box bottom front"><path d="M130.05,419.91a.39.39,0,0,1-.23-.05L4.9,388.68a.83.83,0,0,1-.63-.81.43.43,0,0,1,.45-.45h0a.49.49,0,0,1,.45.4L130.09,419,265,387.82a.49.49,0,0,1,.45-.4h0a.45.45,0,0,1,.45.45.83.83,0,0,1-.63.81l-135,31.18A.36.36,0,0,1,130.05,419.91Z" style="fill:#4030db"/></g>

	<g class="tile" id="mobile-background"><path d="M245.84,281.25a.43.43,0,0,0-.27-.27L129.06,254.05h-.18L21.12,281c-.14,0-.23.13-.23.27h0v9.9h.05a.26.26,0,0,0-.05.18.33.33,0,0,0,.27.32L129,318.58h.18l116.51-26.93a.4.4,0,0,0,.27-.32s-.05-.13-.05-.18h.05v-9.81l-.09-.09Z" style="fill:#4f42ff"/><path d="M245.57,281.65,129.06,308.58h-.18l-107.76-27a.38.38,0,0,1-.27-.32v9.82h0a.28.28,0,0,0,0,.18.32.32,0,0,0,.27.31l107.81,26.93h.18l116.5-26.93a.37.37,0,0,0,.27-.31c0-.05,0-.14,0-.18h0v-9.82A.42.42,0,0,1,245.57,281.65Z" style="fill:#3e3ee5"/><path d="M245.57,281,129.06,254.05h-.18L21.12,281c-.14,0-.23.13-.23.27v.09a.32.32,0,0,0,.27.31L129,308.58h.18l116.51-26.93a.39.39,0,0,0,.27-.31v-.09A1,1,0,0,0,245.57,281Z" style="fill:#4f42ff"/><path d="M126.6,258.4C97.79,265.7,68.93,272.65,40.12,280c-1.53.4-1.53,1,0,1.39,28.95,7.8,58.07,14.83,87.11,22.22a10.39,10.39,0,0,0,4.57-.09h0q47.12-11.09,94.32-21.77c1.3-.27,1.21-.76-.26-1.17h0c-31.42-7.79-63-15-94.55-22.31a10.19,10.19,0,0,0-4.66.18Zm-.49,1.79a8.35,8.35,0,0,1,3.18-.09c.89.22.94.58,0,.81a8.44,8.44,0,0,1-3.32,0c-.9-.18-.81-.54.14-.76Zm-5.61,1.43a7.82,7.82,0,0,1,3.36-.09c.9.23.9.59-.08.85a9.19,9.19,0,0,1-3.5.09c-.9-.22-.76-.62.22-.85ZM64,276.81c-1-.27-.89-.71.32-1h0c15.28-3.9,30.51-7.7,45.79-11.6A9.41,9.41,0,0,1,114,264a.32.32,0,0,1,.18,0c1,.22.94.67-.23,1-15.19,3.95-30.42,7.8-45.61,11.74a9.53,9.53,0,0,1-4.08.05h0A.57.57,0,0,0,64,276.81Zm-9.94,1.71a8,8,0,0,1,3.58,0c.94.26.94.67-.09.94a8.23,8.23,0,0,1-3.63,0c-.94-.27-.89-.68.14-.94ZM48.32,280a7.9,7.9,0,0,1,3.49,0c1,.27,1,.68,0,.95a8,8,0,0,1-3.54-.05h0C47.38,280.67,47.33,280.26,48.32,280Zm174.13.5c1.34.31,1.43.54.35.8-30.69,7.13-61.38,14.16-92,21.47a5.63,5.63,0,0,1-3.1,0c-25.22-6.41-50.45-12.68-75.63-19.23,28.81-7.79,57.75-15,86.52-22.8C166.52,267.22,194.53,273.63,222.45,280.49Z" style="fill:#ccf"/><path d="M152.45,282.68q-21.7,5.52-43.42,11.16a5.08,5.08,0,0,1-2,0c-.63-.14-.72-.41-.23-.54,14.39-3.81,28.81-7.49,43.24-11.16a6.77,6.77,0,0,1,2.29,0C153,282.28,153,282.55,152.45,282.68Zm4.17,2.38a6,6,0,0,0-2.24,0c-13.35,3.36-26.66,6.72-40,10.17-.49.13-.4.36.18.49a4.88,4.88,0,0,0,2,0c13.35-3.45,26.75-6.77,40.15-10.13C157.29,285.46,157.25,285.19,156.62,285.06Z" style="fill:#ccf"/><path d="M168.23,286.45q-22.39,5.44-44.68,11a4.58,4.58,0,0,1-1.88,0c-.54-.13-.63-.36-.09-.49,14.83-3.77,29.66-7.4,44.5-11.07a5.76,5.76,0,0,1,2.19,0C168.9,286,168.85,286.31,168.23,286.45Zm-7.85,4.88a4.83,4.83,0,0,0-2.1.05c-10,2.42-20,4.88-30.07,7.34-.49.14-.49.32,0,.45a4.08,4.08,0,0,0,1.84,0c10-2.46,20.12-4.88,30.16-7.3C160.83,291.69,160.92,291.47,160.38,291.33Z" style="fill:#ccf"/><path d="M108.67,274.57c-12.27,3.27-24.6,6.5-36.87,9.86a4.68,4.68,0,0,1-1.93,0c-.58-.14-.72-.36-.22-.5,12.27-3.36,24.55-6.58,36.83-9.81a5.7,5.7,0,0,1,2.1,0C109.21,274.21,109.26,274.44,108.67,274.57Zm17.84-1.34a5.55,5.55,0,0,0-2.15,0c-15.73,4.17-31.46,8.29-47.14,12.59-.49.13-.36.36.27.54a4.13,4.13,0,0,0,2,0c15.73-4.3,31.46-8.42,47.23-12.59C127.27,273.63,127.18,273.41,126.51,273.23Z" style="fill:#ccf"/><path d="M120,279.64c-10.89,2.86-21.78,5.73-32.67,8.73a5.13,5.13,0,0,1-2,0c-.62-.18-.76-.4-.31-.54,10.84-3,21.73-5.82,32.58-8.69a6,6,0,0,1,2.24,0C120.46,279.23,120.55,279.5,120,279.64Zm-5.92,5.15a5.26,5.26,0,0,0-2.19-.05c-6.32,1.66-12.6,3.37-18.91,5.07-.5.13-.36.36.31.54a4.63,4.63,0,0,0,2,0c6.31-1.7,12.63-3.36,19-5.06C114.81,285.19,114.72,284.92,114.05,284.79Z" style="fill:#ccf"/></g>

	<g class="tile" id="mobile-content"><path d="M245.84,176.25a.3.3,0,0,0-.27-.31L129.06,149h-.18L21.12,175.9a.36.36,0,0,0-.27.31h0v9.86h0a.28.28,0,0,0,0,.18.32.32,0,0,0,.27.31l107.81,26.93h.18l116.5-26.93a.37.37,0,0,0,.27-.31,1,1,0,0,0,0-.18h0v-9.82Z" style="fill:#00c8d7"/><path d="M245.57,176.57,129.06,203.5h-.18L21.12,176.57a.38.38,0,0,1-.27-.32h0v9.86h0a.31.31,0,0,0,0,.18.33.33,0,0,0,.27.32l107.81,26.93h.18l116.5-26.93a.38.38,0,0,0,.27-.32c0-.09,0-.13,0-.18h0v-9.86h0A.44.44,0,0,1,245.57,176.57Z" style="fill:#00b2b2"/><path d="M21.12,176.57,128.93,203.5h.18l116.5-26.93a.38.38,0,0,0,.27-.32h0a.3.3,0,0,0-.27-.31L129.11,149h-.18L21.12,175.9a.36.36,0,0,0-.27.31h0A.39.39,0,0,0,21.12,176.57Z" style="fill:#00c8d7"/><path d="M164.6,171.64c-15.33,4.17-30.65,8.11-46,12.14a8,8,0,0,1-2.92,0c-.94-.23-1.16-.54-.49-.72,15.24-4,30.52-8,45.71-12.14a7.64,7.64,0,0,1,2.55.18C164.46,171.24,165,171.5,164.6,171.64Zm8.69,2.73a7.56,7.56,0,0,0-2.6-.13c-14.65,3.85-29.3,7.57-44,11.38-.67.18-.54.49.36.67a7.75,7.75,0,0,0,2.87.05c14.74-3.77,29.53-7.53,44.27-11.34C174.68,174.82,174.23,174.55,173.29,174.37Z" style="fill:#ccf4ff"/><path d="M188.21,176.57c-16,4.08-32,8.06-47.94,12.1a7,7,0,0,1-2.74,0c-.8-.18-.89-.5-.18-.68,15.91-4,31.82-8,47.72-12.09a7.06,7.06,0,0,1,2.29.13C188.21,176.21,188.61,176.43,188.21,176.57Zm-2.87,4.48a6.73,6.73,0,0,0-2.37,0q-18.09,4.5-36.16,9c-.72.18-.76.45-.09.63a6.86,6.86,0,0,0,2.51,0l36.29-9.09C186.15,181.45,186.06,181.23,185.34,181.05Z" style="fill:#ccf4ff"/><path d="M107.6,161.6c-13.17,3.63-26.35,7.17-39.52,10.76a5.45,5.45,0,0,1-2.2,0c-.58-.13-.54-.4.05-.54,13.22-3.54,26.48-7,39.65-10.62a5.15,5.15,0,0,1,1.84,0C108,161.24,108.09,161.47,107.6,161.6Zm15.41-.94a5,5,0,0,0-2-.09C105.45,165.19,89.68,169.4,74,173.7c-.63.18-.54.45.23.63a5.65,5.65,0,0,0,2.46,0c15.68-4.35,31.41-8.52,47-13.18C124.09,161.06,123.78,160.84,123,160.66Z" style="fill:#ccf4ff"/><path d="M122.74,166.62c-12,3.41-24,6.68-35.93,10a6.8,6.8,0,0,1-2.69,0c-.85-.18-1-.5-.4-.67,11.92-3.32,23.88-6.59,35.75-10A7.06,7.06,0,0,1,122,166C122.92,166.22,123.24,166.49,122.74,166.62Zm-2.46,5.6a6.72,6.72,0,0,0-2.82,0q-11.37,3.15-22.72,6.22c-.63.18-.4.5.49.68a6.73,6.73,0,0,0,2.82,0c7.62-2.1,15.24-4.17,22.9-6.27C121.53,172.76,121.22,172.45,120.28,172.22Z" style="fill:#ccf4ff"/><path d="M62.43,179.57c1.35-.4.45-.81-.67-1.08s-2.2-.49-3.23-.71-2.15-.45-3.22-.72c-3.54-.9-3.5-1.7-.81-2.42.22,0,.31-.09.54-.13,1,.27,1.52.4,2.64.67-.18,0-.27.09-.45.13-1.07.32-.44.68.94,1,.86.23,1.75.41,2.56.59l2.46.53c2.56.63,3.63,1.26,3,1.84h.08a22.43,22.43,0,0,1,7.49.72c.89.22,1.79.45,2.78.72s1.79.49,2.77.71a10.8,10.8,0,0,0,4.84.36c.14,0,.23,0,.36-.09,1.57.36,2.33.54,3.9.94a3.22,3.22,0,0,0-.58.18c-3.54.9-7.4.36-10.85-.49-1.3-.32-2.46-.63-3.63-.94s-2.28-.63-3.45-.9a9.15,9.15,0,0,0-4.16-.13C64.45,180.06,63.78,179.88,62.43,179.57Z" style="fill:#ccf4ff"/><path d="M191.84,170.2c-1.75.5-.72,1,.36,1.17s2.51.54,3.81.81,2.69.53,4,.85c5.1,1.21,4.75,2.24,2.19,3-.27.08-.4.08-.67.17-1.57-.35-2.38-.53-3.94-.94l.4-.09c1.21-.44.13-.85-1.61-1.3-1-.22-2.06-.44-3.05-.67s-2.11-.45-3-.67c-3.09-.72-4-1.39-3.09-2h-.09a21,21,0,0,1-7.4-.54c-.8-.18-1.48-.4-2.19-.63s-1.44-.44-2.29-.62a8.46,8.46,0,0,0-4.08-.14l-.44.14c-1.08-.27-1.62-.41-2.6-.68.22,0,.31-.09.53-.13a19.54,19.54,0,0,1,9.64-.09c1,.27,1.88.49,2.78.81s1.74.53,2.86.8a8.75,8.75,0,0,0,4.44,0C189.73,169.71,190.45,169.85,191.84,170.2Z" style="fill:#ccf4ff"/></g>

	<g class="tile" id="mobile-interface"><path d="M247.14,71.21a.3.3,0,0,0-.27-.31L130.36,44h-.18L22.37,70.9a.4.4,0,0,0-.27.31h0v9.86h0a.26.26,0,0,0,0,.18.33.33,0,0,0,.27.32l107.86,27h.18l116.5-26.93a.37.37,0,0,0,.27-.31,1,1,0,0,0,0-.18h0V71.21Z" style="fill:#ccf4ff"/><path d="M246.87,71.53,130.36,98.46h-.18L22.37,71.53a.4.4,0,0,1-.27-.32h0v9.86h0a.26.26,0,0,0,0,.18.33.33,0,0,0,.27.32l107.86,27h.18l116.5-26.93a.37.37,0,0,0,.27-.31,1,1,0,0,0,0-.18h0V71.26h0A.39.39,0,0,1,246.87,71.53Z" style="fill:#badde5"/><path d="M22.37,71.53,130.18,98.46h.18L246.87,71.53a.4.4,0,0,0,.27-.32h0a.3.3,0,0,0-.27-.31L130.36,44h-.18L22.37,70.9a.4.4,0,0,0-.27.31h0C22.15,71.39,22.24,71.53,22.37,71.53Z" style="fill:#ccf4ff"/><path d="M171.23,62.92c1.57.32,1.79.86.45,1.21a13.93,13.93,0,0,1-5.29.14c-1.57-.32-1.75-.85-.4-1.21A12.92,12.92,0,0,1,171.23,62.92Z" style="fill:#00c8d7"/><path d="M163.12,61.36c1.57.31,1.75.85.45,1.21a13.93,13.93,0,0,1-5.25.13c-1.57-.31-1.74-.85-.4-1.21A12.53,12.53,0,0,1,163.12,61.36Z" style="fill:#00c8d7"/><path d="M152.41,59.61c2,0,3.76.31,3.94.76s-1.34.9-3.36.94-3.76-.27-3.94-.76S150.39,59.65,152.41,59.61Z" style="fill:#00c8d7"/><path d="M148.33,82.82c-7.62,1.84-11.47,2.78-19.36,4.66a20.88,20.88,0,0,1-8.11-.27l-5.78-1.34c-2.55-.59-3.09-1.44-1.21-1.89,7.84-1.88,11.7-2.82,19.27-4.66a21.48,21.48,0,0,1,8,.27l5.82,1.35C149.5,81.52,150.17,82.37,148.33,82.82Z" style="fill:#00feff"/><path d="M146.81,79.5c6.32,1.44,7.88,3.5,3.4,4.53s-13.26.76-19.53-.67-7.67-3.45-3.23-4.53S140.49,78,146.81,79.5Z" style="fill:#00c8d7"/><path d="M118.53,51.81c-1.21,0-2.19.23-2.19.49s1,.5,2.19.5c5.33,0,8,0,13.4,0-7.17,1.62-10.84,2.47-18.33,4.12-.89.18-.94.54,0,.72a7.41,7.41,0,0,0,3.18,0c7.48-1.66,11.16-2.51,18.33-4.12,0,1.25,0,1.84.09,3.09,0,.27,1,.54,2.24.54a7.6,7.6,0,0,0,1.57-.14c.4-.09.62-.22.62-.35,0-1.75-.09-2.6-.22-4.35,0-.27-1-.49-2.24-.54Z" style="fill:#00c8d7"/><path d="M193.9,65.75c-.63.13-.49.4.27.58,1.34.31,2,.45,3.41.76a44.09,44.09,0,0,0-11.74.54c-4.48,1.07-3.86,3,1.56,4.21s13.67,1.39,18.2.36c2.19-.49,3.18-1.25,2.82-2-.09-.22-1-.44-2-.44s-1.74.13-1.61.4c.27.58-.45,1.07-2,1.43a34.45,34.45,0,0,1-13-.27c-3.9-.89-4.35-2.24-1.17-3a32.33,32.33,0,0,1,9.5-.27c-1.16.27-1.74.41-3,.72-.63.13-.54.4.27.58a7.1,7.1,0,0,0,2.55,0L203.76,68c.63-.13.49-.4-.27-.58-2.82-.63-4.26-1-7-1.61A7,7,0,0,0,193.9,65.75Z" style="fill:#00c8d7"/><path d="M79,66.11c-7.89,2-11.74,3-19.41,5a5.22,5.22,0,0,1-2.1-.13c-.72-.18-.9-.41-.45-.54,7.66-2,11.52-3,19.45-5a5,5,0,0,1,2.1.09C79.28,65.75,79.46,66,79,66.11Zm5.33,2.46a5,5,0,0,0-2.11-.09c-6.58,1.7-9.86,2.55-16.31,4.26-.45.13-.22.36.49.54a6.12,6.12,0,0,0,2.11.13c6.45-1.7,9.68-2.55,16.31-4.26C85.24,69,85,68.75,84.3,68.57Z" style="fill:#00c8d7"/><path d="M106,72.11a5.18,5.18,0,0,0-2.15-.09c-8.12,2.15-12.06,3.18-20,5.29-.45.13-.22.36.49.54a6.11,6.11,0,0,0,2.15.13c7.89-2.11,11.88-3.18,20-5.29C107,72.51,106.75,72.29,106,72.11Z" style="fill:#00c8d7"/><path d="M111.45,75.38a6.14,6.14,0,0,0-2.15-.13C102.71,77,99.49,77.85,93,79.59c-.45.14-.23.36.53.54a6.14,6.14,0,0,0,2.15.14c6.46-1.75,9.73-2.6,16.32-4.35C112.39,75.78,112.17,75.56,111.45,75.38Z" style="fill:#00c8d7"/></g>

	<g id="mobile-box_sides" data-name="box sides"><path d="M265.46,387.91c-.54,0-.45-.44-.45-1.07V38.46c0-.67,0-.89.45-.89s.45,0,.45.89V386.84C265.87,387.64,265.91,387.91,265.46,387.91Z" style="fill:#4030db"/><path d="M4.72,387.78a.43.43,0,0,1-.45-.45V38.06a.43.43,0,0,1,.45-.45.43.43,0,0,1,.45.45V387.33A.43.43,0,0,1,4.72,387.78Z" style="fill:#4030db"/></g>

	<g id="mobile-box_top_back" data-name="box top back"><path d="M265.46,38.46a.49.49,0,0,1-.45-.4L130.14,6.87h0L5.17,38.06a.45.45,0,0,1-.45.4.43.43,0,0,1-.45-.36V38c0-.09,0-.13,0-.18a.82.82,0,0,1,.63-.62L129.91,6c.09,0,.18,0,.27,0h.14l135,31.19a.9.9,0,0,1,.63.62c0,.05,0,.09,0,.18v.09A.76.76,0,0,1,265.46,38.46ZM5.17,38ZM130,6.87h0Z" style="fill:#4030db"/></g>

	<g id="mobile-box_top_front_transparent" data-name="box top front"><path d="M130.05,70.05a.47.47,0,0,1-.23,0L4.9,38.82A.82.82,0,0,1,4.27,38a.42.42,0,0,1,.45-.44h0a.48.48,0,0,1,.45.4L130.09,69.16,265,38a.48.48,0,0,1,.45-.4h0a.45.45,0,0,1,.45.44.82.82,0,0,1-.63.81L130.27,70A.43.43,0,0,1,130.05,70.05Z" style="fill:url(#radial-gradient)"/></g>

	<g id="mobile-box_top_front_solid" data-name="box top front solid"><path d="M129.82,70.05a.43.43,0,0,1-.22,0L4.63,38.82A.82.82,0,0,1,4,38a.42.42,0,0,1,.45-.44h0a.48.48,0,0,1,.45.4L129.82,69.16,264.75,38a.46.46,0,0,1,.44-.4h0a.45.45,0,0,1,.45.44.82.82,0,0,1-.63.81L130,70A.37.37,0,0,1,129.82,70.05Z" style="fill:#4030db"/></g>

</svg>